<svg width="393" height="852" viewBox="0 0 393 852" fill="none" xmlns="http://www.w3.org/2000/svg">
    <path d="M202.28 280.607L186.562 265.04L186.496 252.533L200.492 238.401L227.079 239.85L228.784 266.421L214.788 280.553L202.28 280.607Z" fill="#E30053"/>
    <path d="M164.839 57.0166L116 18.1279L116.113 80.5584L195.659 245.202L244.498 284.091L244.385 221.66L164.839 57.0166Z" fill="#A9003E"/>
    <path d="M-153.078 -65.7121L-277.65 -29.9057L-258.664 20.6462L-86.6246 111.22L11.5514 97.0027L28.4547 50.1371L-153.078 -65.7121Z" fill="#BC0045"/>
    <path d="M92.7688 -46.5618L270.444 2.11536L243.833 73.3164L-0.370908 202.642L-140.28 183.934L-164.741 118.364L92.7688 -46.5618Z" fill="#D5004E"/>
    <path d="M24.3159 0.751458L20.3012 -20.3345L3.64143 -31.7295L-18.6718 -34.7646L-38.3086 -23.7424L-49.6154 -7.02267L-45.6008 14.0633L-33.2562 40.8467L9.43098 112.837L22.6771 30.1973L24.3159 0.751458Z" fill="#FF0F67"/>
    <path d="M79.794 208.617L85.6527 218.481L84.0544 224.768L75.1857 230.036L62.0296 225.84L64.6402 212.28L73.5089 207.013L79.794 208.617Z" fill="#E30053"/>
    <path d="M236.359 816.839L217.183 867.717L166.351 848.422L114.908 734.391L134.084 683.513L184.917 702.809L236.359 816.839Z" fill="#A9003E"/>
    <path d="M224.922 913.574L100.35 877.768L119.336 827.216L291.375 736.642L389.551 750.859L406.455 797.725L224.922 913.574Z" fill="#BC0045"/>
    <path d="M470.769 894.424L648.444 845.746L621.833 774.545L377.629 645.22L237.72 663.928L213.259 729.498L470.769 894.424Z" fill="#D5004E"/>
    <path d="M402.316 847.11L398.301 868.196L381.641 879.591L359.328 882.626L339.691 871.604L328.385 854.884L332.399 833.799L344.744 807.015L387.431 735.025L400.677 817.665L402.316 847.11Z" fill="#FF0F67"/>
    <path d="M165.006 578.885L138.344 563.492L121.529 567.989L107.689 591.96L119.382 627.122L155.68 619.668L169.519 595.696L165.006 578.885Z" fill="#E40053"/>
    <path d="M249.016 560.495L240.698 568.397L240.528 574.881L247.633 582.36L261.434 581.896L262.605 568.137L255.501 560.659L249.016 560.495Z" fill="#E30053"/>
</svg>
