<svg width="1101" height="870" viewBox="0 0 1101 870" fill="none" xmlns="http://www.w3.org/2000/svg">
    <path d="M851.255 693.274L758.761 714.796L771.095 620.635L941.441 432.649L1033.94 411.127L1021.6 505.288L851.255 693.274Z" fill="#9C0039"/>
    <path d="M851.81 662.962L784.2 653.618L833.705 606.631L1024.02 545.462L1091.63 554.806L1042.12 601.793L851.81 662.962Z" fill="#A9003E"/>
    <path d="M874.272 608.288L816.16 656.474L783.102 588.606L823.813 400.019L881.925 351.833L914.983 419.7L874.272 608.288Z" fill="#A9003E"/>
    <path d="M763.093 710.992L704.617 678.992L763.093 646.992L953.141 646.992L1011.62 678.992L953.141 710.992L763.093 710.992Z" fill="#B90044"/>
    <path d="M827.498 669.66L789.437 680.084L799.86 642.022L878.648 563.235L916.71 552.811L906.286 590.872L827.498 669.66Z" fill="#B90044"/>
    <path d="M250.042 693.274L342.536 714.796L330.202 620.635L159.856 432.649L67.3612 411.127L79.6952 505.288L250.042 693.274Z" fill="#9C0039"/>
    <path d="M249.486 662.962L317.097 653.618L267.592 606.631L77.2802 545.462L9.66984 554.806L59.1745 601.793L249.486 662.962Z" fill="#A9003E"/>
    <path d="M227.025 608.288L285.137 656.474L318.195 588.606L277.484 400.019L219.372 351.833L186.314 419.7L227.025 608.288Z" fill="#A9003E"/>
    <path d="M338.203 710.992L396.68 678.992L338.203 646.992L148.156 646.992L89.6797 678.992L148.156 710.992L338.203 710.992Z" fill="#B90044"/>
    <path d="M273.799 669.66L311.86 680.084L301.437 642.022L222.649 563.235L184.587 552.811L195.011 590.872L273.799 669.66Z" fill="#B90044"/>
    <path d="M830.617 404.992V649.992L690.617 824.992H410.617L270.617 649.992V404.992L410.617 229.992H690.617L830.617 404.992Z" fill="#D10B54"/>
    <path d="M730.668 599.639V757.345L640.668 869.992H460.668L370.668 757.345V599.639L460.668 486.992H640.668L730.668 599.639Z" fill="#DE0051"/>
    <path d="M620.69 696.447L625.538 737.318L594.83 757.661L560.406 718.75L536.083 695.189L524.851 698.222L481.053 691.971L476.205 651.101L506.913 630.758L541.337 669.668L565.659 693.229L576.892 690.196L620.69 696.447Z" fill="#D0054F"/>
    <path d="M587.721 634.864L625.54 651.101L627.804 687.866L576.895 698.223L544.329 707.507L541.339 718.751L514.027 753.556L476.208 737.318L473.944 700.553L524.853 690.197L557.419 680.913L560.409 669.669L587.721 634.864Z" fill="#E60A5A"/>
    <path d="M584.168 755.421L551.168 779.992L518.168 763.611L534.668 714.468L542.918 681.706L534.668 673.516L518.168 632.564L551.168 607.992L584.168 624.373L567.668 673.516L559.418 706.278L567.668 714.468L584.168 755.421Z" fill="#FF0F67"/>
    <path d="M799.426 267.5L821.712 306.1L862.376 316.933L908.516 307.45L939.799 272.233L950.749 231.6L928.464 193L885.846 148.983L752.516 37.25L782.615 208.583L799.426 267.5Z" fill="#E40053"/>
    <path d="M845.524 128.526L849.424 135.28L856.539 137.176L864.612 135.516L870.086 129.354L872.002 122.245L868.103 115.491L860.645 107.789L837.316 88.2385L842.583 118.217L845.524 128.526Z" fill="#F2075D"/>
    <path d="M746.357 115.176L751.561 124.189L761.055 126.718L771.828 124.504L779.132 116.282L781.688 106.795L776.485 97.7822L766.535 87.5053L735.405 61.4178L742.432 101.421L746.357 115.176Z" fill="#F2075D"/>
    <path d="M301.578 267.5L279.292 306.1L238.628 316.933L192.488 307.45L161.205 272.233L150.254 231.6L172.54 193L215.158 148.983L348.488 37.25L318.388 208.583L301.578 267.5Z" fill="#E40053"/>
    <path d="M255.48 128.526L251.58 135.28L244.465 137.176L236.392 135.516L230.918 129.354L229.002 122.245L232.901 115.491L240.358 107.789L263.688 88.2385L258.421 118.217L255.48 128.526Z" fill="#F2075D"/>
    <path d="M354.647 115.176L349.443 124.189L339.949 126.718L329.176 124.504L321.872 116.282L319.316 106.795L324.519 97.7822L334.469 87.5053L365.599 61.4178L358.571 101.421L354.647 115.176Z" fill="#F2075D"/>
</svg>
