<svg width="393" height="852" viewBox="0 0 393 852" fill="none" xmlns="http://www.w3.org/2000/svg">
    <path d="M189.787 -2.48359L131.419 -16.0651L139.202 43.3543L246.698 161.981L305.066 175.562L297.282 116.143L189.787 -2.48359Z" fill="#9C0039"/>
    <path d="M190.139 16.6443L147.474 22.5409L178.713 52.1914L298.808 90.7916L341.472 84.895L310.233 55.2445L190.139 16.6443Z" fill="#A9003E"/>
    <path d="M204.312 51.1462L167.641 20.7388L146.78 63.5659L172.47 182.572L209.141 212.979L230.002 170.152L204.312 51.1462Z" fill="#A9003E"/>
    <path d="M134.152 -13.6646L97.2511 6.52864L134.152 26.7219L254.08 26.7219L290.98 6.52864L254.08 -13.6647L134.152 -13.6646Z" fill="#B90044"/>
    <path d="M174.795 12.4175L150.777 5.83982L157.355 29.858L207.073 79.5763L231.091 86.154L224.514 62.1358L174.795 12.4175Z" fill="#B90044"/>
    <path d="M176.763 179.434V24.8289L88.4177 -85.6032H-88.2735L-176.619 24.8289V179.434L-88.2735 289.866H88.4177L176.763 179.434Z" fill="#D10B54"/>
    <path d="M113.694 56.6035V-42.9152L56.9004 -114H-56.6869L-113.48 -42.9152V56.6035L-56.6869 127.688H56.9004L113.694 56.6035Z" fill="#DE0051"/>
    <path d="M44.2918 -4.48593L47.3507 -30.2771L27.9728 -43.1143L6.25015 -18.5602L-9.09858 -3.69233L-16.1867 -5.60623L-43.8252 -1.66169L-46.8842 24.1295L-27.5063 36.9667L-5.78359 12.4126L9.56514 -2.4553L16.6533 -0.541385L44.2918 -4.48593Z" fill="#D0054F"/>
    <path d="M23.4871 34.3756L47.3524 24.1291L48.7808 0.928781L16.6549 -5.60655L-3.89537 -11.465L-5.78196 -18.5605L-23.0173 -40.5238L-46.8826 -30.2774L-48.311 -7.07704L-16.1851 -0.541705L4.36518 5.31675L6.25177 12.4122L23.4871 34.3756Z" fill="#E60A5A"/>
    <path d="M21.2441 -41.7009L0.419807 -57.2064L-20.4045 -46.8694L-9.99234 -15.8583L-4.78626 4.81581L-9.99234 9.98433L-20.4045 35.8269L0.419817 51.3325L21.2441 40.9954L10.832 9.98433L5.6259 -10.6897L10.832 -15.8583L21.2441 -41.7009Z" fill="#FF0F67"/>
    <path d="M157.083 266.197L171.146 241.839L196.807 235.002L225.924 240.987L245.664 263.21L252.574 288.851L238.511 313.209L211.618 340.986L127.481 411.494L146.475 303.376L157.083 266.197Z" fill="#E40053"/>
    <path d="M186.173 353.895L188.634 349.633L193.124 348.437L198.218 349.484L201.672 353.372L202.881 357.859L200.421 362.121L195.715 366.981L180.993 379.318L184.317 360.4L186.173 353.895Z" fill="#F2075D"/>
    <path d="M123.593 362.319L126.877 356.632L132.868 355.036L139.666 356.433L144.275 361.622L145.888 367.608L142.605 373.296L136.326 379.781L116.682 396.243L121.116 371L123.593 362.319Z" fill="#F2075D"/>
    <path d="M203.397 788.484L261.764 802.065L253.981 742.646L146.486 624.019L88.1179 610.438L95.9012 669.857L203.397 788.484Z" fill="#9C0039"/>
    <path d="M203.045 769.356L245.71 763.459L214.47 733.809L94.376 695.208L51.7111 701.105L82.9506 730.755L203.045 769.356Z" fill="#A9003E"/>
    <path d="M188.872 734.854L225.543 765.261L246.404 722.434L220.713 603.428L184.043 573.021L163.182 615.848L188.872 734.854Z" fill="#A9003E"/>
    <path d="M259.032 799.665L295.932 779.471L259.032 759.278L139.104 759.278L102.203 779.471L139.104 799.665L259.032 799.665Z" fill="#B90044"/>
    <path d="M218.388 773.582L242.406 780.16L235.829 756.142L186.11 706.424L162.092 699.846L168.67 723.864L218.388 773.582Z" fill="#B90044"/>
    <path d="M569.763 606.566V761.171L481.418 871.603H304.726L216.381 761.171V606.566L304.726 496.134H481.418L569.763 606.566Z" fill="#D10B54"/>
    <path d="M506.694 729.396V828.915L449.9 900H336.313L279.52 828.915V729.396L336.313 658.312H449.9L506.694 729.396Z" fill="#DE0051"/>
    <path d="M437.292 790.486L440.351 816.277L420.973 829.114L399.25 804.56L383.901 789.692L376.813 791.606L349.175 787.662L346.116 761.871L365.494 749.033L387.216 773.588L402.565 788.455L409.653 786.541L437.292 790.486Z" fill="#D0054F"/>
    <path d="M416.487 751.624L440.352 761.871L441.781 785.071L409.655 791.607L389.105 797.465L387.218 804.561L369.983 826.524L346.117 816.277L344.689 793.077L376.815 786.542L397.365 780.683L399.252 773.588L416.487 751.624Z" fill="#E60A5A"/>
    <path d="M414.244 827.701L393.42 843.206L372.595 832.869L383.008 801.858L388.214 781.184L383.008 776.016L372.595 750.173L393.42 734.668L414.244 745.005L403.832 776.016L398.626 796.69L403.832 801.858L414.244 827.701Z" fill="#FF0F67"/>
    <path d="M235.917 519.803L221.854 544.161L196.193 550.998L167.076 545.013L147.336 522.79L140.426 497.149L154.489 472.791L181.382 445.014L265.519 374.506L246.525 482.624L235.917 519.803Z" fill="#E40053"/>
    <path d="M206.827 432.105L204.366 436.367L199.876 437.563L194.782 436.516L191.328 432.628L190.119 428.141L192.579 423.879L197.285 419.019L212.007 406.682L208.683 425.6L206.827 432.105Z" fill="#F2075D"/>
    <path d="M269.407 423.681L266.123 429.368L260.132 430.964L253.334 429.567L248.725 424.378L247.112 418.392L250.395 412.704L256.674 406.219L276.318 389.757L271.884 415L269.407 423.681Z" fill="#F2075D"/>
</svg>
