<svg width="1309" height="1024" viewBox="0 0 1309 1024" fill="none" xmlns="http://www.w3.org/2000/svg">
    <path d="M995.4 -9.1279L1165.93 -77.5048L1288.93 31.4994L1160.89 225.331L1087.36 357.723L1113.36 402.712L1136.84 599.119L966.307 667.496L843.307 558.492L971.348 364.66L1044.87 232.268L1018.88 187.279L995.4 -9.1279Z" fill="#DBD4EA"/>
    <path d="M1185.94 -106.584L1278.92 -31.7665L1256.32 72.571L1105.81 61.7309L1007.44 62.215L990.237 91.2515L886.479 167.037L793.5 92.2196L816.096 -12.1179L966.603 -1.27789L1064.97 -1.76196L1082.18 -30.7984L1185.94 -106.584Z" fill="#DCD4EC"/>
    <path d="M1089.78 -71.1704L1228.98 -51.2339L1268.8 68.0873L1109.75 147.565L1010.35 207.181L1010.37 246.95L950.765 386.119L811.567 366.182L771.753 246.861L930.799 167.383L1030.2 107.767L1030.18 67.998L1089.78 -71.1704Z" fill="#D0C8E0"/>
    <path d="M205.149 913.879L34.6198 982.256L-88.3797 873.252L39.661 679.42L113.187 547.028L87.1901 502.039L63.7137 305.632L234.242 237.255L357.242 346.259L229.201 540.091L155.675 672.483L181.672 717.472L205.149 913.879Z" fill="#DBD4EA"/>
    <path d="M14.6131 1011.33L-78.3661 936.517L-55.7701 832.18L94.7371 843.02L193.106 842.536L210.312 813.5L314.07 737.714L407.05 812.531L384.454 916.869L233.946 906.029L135.578 906.513L118.371 935.549L14.6131 1011.33Z" fill="#DCD4EC"/>
    <path d="M110.765 975.922L-28.4335 955.985L-68.2469 836.664L90.7985 757.186L190.198 697.57L190.183 657.801L249.784 518.633L388.982 538.569L428.796 657.891L269.751 737.369L170.351 796.985L170.366 836.753L110.765 975.922Z" fill="#D0C8E0"/>
</svg>
