<svg width="1411" height="912" viewBox="0 0 1411 912" fill="none" xmlns="http://www.w3.org/2000/svg">
<path d="M1199.62 37.1738L1161.32 75.1077L1161.16 105.587L1195.26 140.024L1260.05 136.494L1264.21 71.743L1230.1 37.3057L1199.62 37.1738Z" fill="#E30053"/>
<path d="M361.531 645.38L314.802 769.362L190.93 722.342L65.5718 444.464L112.3 320.482L236.173 367.501L361.531 645.38Z" fill="#A9003E"/>
<path d="M1108.38 582.035L989.37 676.802L989.644 524.667L1183.49 123.451L1302.5 28.6841L1302.23 180.819L1108.38 582.035Z" fill="#A9003E"/>
<path d="M333.662 881.109L30.095 793.854L76.3628 670.665L495.6 449.95L734.842 484.594L776.033 598.799L333.662 881.109Z" fill="#BC0045"/>
<path d="M932.76 834.442L1365.73 715.822L1300.88 542.314L705.791 227.165L364.85 272.753L305.243 432.539L932.76 834.442Z" fill="#D5004E"/>
<path d="M765.944 719.145L756.161 770.529L715.563 798.297L661.189 805.693L613.337 778.834L585.783 738.09L595.567 686.706L625.649 621.438L729.672 446.007L761.951 647.39L765.944 719.145Z" fill="#FF0F67"/>
<path d="M187.653 65.5152L122.683 28.0044L81.705 38.9623L47.9789 97.3776L76.4739 183.062L164.926 164.897L198.652 106.482L187.653 65.5152Z" fill="#E40053"/>
<path d="M392.378 20.7017L372.108 39.9563L371.694 55.7581L389.006 73.9829L422.637 72.8536L425.492 39.3246L408.18 21.0997L392.378 20.7017Z" fill="#E30053"/>
<path d="M901.139 212.603L915.415 188.566L911.521 173.246L889.909 160.41L857.849 170.634L864.211 203.677L885.823 216.513L901.139 212.603Z" fill="#E30053"/>
</svg>
