<svg xmlns="http://www.w3.org/2000/svg" width="42" height="37" viewBox="0 0 42 37" fill="none">
    <path d="M35.8764 15.5613L41.1651 22.7438L36.7759 29.1821L25.4215 24.921L17.8087 22.6416L15.7436 24.1767L5.80672 26.8005L0.518011 19.6179L4.90718 13.1796L16.2616 17.4407L23.8744 19.7201L25.9395 18.185L35.8764 15.5613Z" fill="#730041"/>
    <path d="M29.9731 29.1434L27.2571 34.346L22.2633 33.3976L21.5711 25.2605L20.7694 19.9618L19.2931 19.1096L14.9738 13.7147L17.6897 8.5121L22.6836 9.46047L23.3758 17.5976L24.1775 22.8963L25.6538 23.7485L29.9731 29.1434Z" fill="#730041"/>
    <path d="M18.8466 32.2215L11.5769 33.5959L9.80712 27.6849L18.392 20.4407L23.7844 15.3615L23.8919 13.1552L27.407 4.37132L34.6768 2.99688L36.4465 8.90793L27.8617 16.1521L22.4693 21.2313L22.3617 23.4376L18.8466 32.2215Z" fill="#730041"/>
</svg>