<svg xmlns="http://www.w3.org/2000/svg" width="37" height="39" viewBox="0 0 37 39" fill="none">
    <path d="M19.6482 12.6306L21.4351 15.1279L20.9616 17.984L19.0599 20.6034L15.967 21.5579L13.1109 21.0843L11.324 18.587L9.77384 14.6616L6.55154 3.1224L16.4333 9.89655L19.6482 12.6306Z" fill="#5345A8"/>
    <path d="M14.8144 28.7972L16.5218 30.6797L16.4051 33.073L15.0918 35.4079L12.6401 36.4879L10.2468 36.3712L8.53939 34.4887L6.89031 31.4095L3.13969 22.2304L11.9103 26.8563L14.8144 28.7972Z" fill="#5345A8"/>
    <path d="M34.7772 14.5316L35.7859 16.6424L35.0511 18.722L33.2766 20.4343L30.8296 20.7393L28.7499 20.0046L27.7413 17.8938L27.1 14.7432L26.216 5.65875L32.7288 12.0534L34.7772 14.5316Z" fill="#5345A8"/>
</svg>