<svg xmlns="http://www.w3.org/2000/svg" width="37" height="31" viewBox="0 0 37 31" fill="none">
    <path d="M30.4098 16.8577L29.1795 24.3781L23.8799 29.0617L15.0383 27.6854L11.4962 21.6255L12.7265 14.1051L18.0261 9.42153L26.8677 10.7978L30.4098 16.8577Z" fill="#801A20"/>
    <path d="M14.3437 5.17264L12.8418 7.71009L10.2774 8.6825L7.29419 7.00241L6.87533 4.3499L8.37719 1.81246L10.9416 0.840046L13.9248 2.52014L14.3437 5.17264Z" fill="#801A20"/>
    <path d="M9.15585 22.5283L10.1431 26.1222L8.73557 29.2415L4.51023 30.3459L1.69239 28.331L0.705163 24.737L2.11267 21.6177L6.33802 20.5133L9.15585 22.5283Z" fill="#801A20"/>
    <path d="M31.04 8.78972L33.3167 8.19465L35.2928 9.04305L35.9924 11.59L34.7159 13.2885L32.4392 13.8835L30.4632 13.0351L29.7636 10.4882L31.04 8.78972Z" fill="#801A20"/>
</svg>