<svg xmlns="http://www.w3.org/2000/svg" width="43" height="37" viewBox="0 0 43 37" fill="none">
    <path d="M36.7138 15.5613L42.0025 22.7438L37.6133 29.1821L26.2589 24.921L18.6461 22.6416L16.581 24.1767L6.64412 26.8005L1.35541 19.6179L5.74458 13.1796L17.099 17.4407L24.7118 19.7201L26.7769 18.185L36.7138 15.5613Z" fill="#730041"/>
    <path d="M30.8105 29.1434L28.0945 34.346L23.1007 33.3976L22.4085 25.2605L21.6068 19.9618L20.1305 19.1096L15.8112 13.7147L18.5271 8.5121L23.521 9.46047L24.2132 17.5976L25.0149 22.8963L26.4912 23.7485L30.8105 29.1434Z" fill="#730041"/>
    <path d="M19.684 32.2215L12.4143 33.5959L10.6445 27.6849L19.2294 20.4407L24.6218 15.3615L24.7293 13.1552L28.2444 4.37132L35.5142 2.99688L37.2839 8.90793L28.6991 16.1521L23.3067 21.2313L23.1991 23.4376L19.684 32.2215Z" fill="#730041"/>
</svg>