<svg xmlns="http://www.w3.org/2000/svg" width="36" height="39" viewBox="0 0 36 39" fill="none">
    <path d="M19.3787 13.297L20.9141 15.9563L20.1648 18.7528L18.0172 21.1746L14.8461 21.8235L12.0496 21.0742L10.5143 18.4149L9.35355 14.3573L7.26964 2.55921L16.4451 10.263L19.3787 13.297Z" fill="#730041"/>
    <path d="M14.5277 30.0045L15.7985 32.2055L15.1783 34.52L13.4009 36.5244L10.7763 37.0615L8.46186 36.4413L7.19111 34.2403L6.23045 30.8821L4.50572 21.1174L12.0998 27.4934L14.5277 30.0045Z" fill="#730041"/>
    <path d="M33.5258 22.7885L34.4251 24.3461L33.9863 25.984L32.7284 27.4025L30.871 27.7826L29.2331 27.3437L28.3338 25.7861L27.654 23.4095L26.4334 16.4992L31.8076 21.0114L33.5258 22.7885Z" fill="#730041"/>
</svg>