<svg xmlns="http://www.w3.org/2000/svg" width="38" height="31" viewBox="0 0 38 31" fill="none">
    <path d="M31.2472 16.8577L30.0169 24.3781L24.7173 29.0617L15.8757 27.6854L12.3336 21.6255L13.5639 14.1051L18.8635 9.42153L27.7051 10.7978L31.2472 16.8577Z" fill="#730041"/>
    <path d="M15.1811 5.17264L13.6792 7.71009L11.1148 8.6825L8.13159 7.00241L7.71273 4.3499L9.2146 1.81246L11.779 0.840046L14.7622 2.52014L15.1811 5.17264Z" fill="#730041"/>
    <path d="M9.99326 22.5287L10.9805 26.1227L9.57297 29.242L5.34763 30.3464L2.52979 28.3314L1.54257 24.7375L2.95008 21.6182L7.17542 20.5138L9.99326 22.5287Z" fill="#730041"/>
    <path d="M31.8774 8.78972L34.1541 8.19465L36.1302 9.04305L36.8298 11.59L35.5534 13.2885L33.2766 13.8835L31.3006 13.0351L30.601 10.4882L31.8774 8.78972Z" fill="#730041"/>
</svg>