<svg xmlns="http://www.w3.org/2000/svg" width="20" height="21" viewBox="0 0 20 21" fill="none">
    <path d="M8.88889 11.6111V0.5H11.1111V11.6111H8.88889ZM10 20.5C8.62963 20.5 7.33796 20.2361 6.125 19.7083C4.91204 19.1806 3.85185 18.463 2.94444 17.5556C2.03704 16.6481 1.31944 15.588 0.791667 14.375C0.263889 13.162 0 11.8704 0 10.5C0 9.01852 0.305556 7.62037 0.916667 6.30556C1.52778 4.99074 2.38889 3.85185 3.5 2.88889L5.05556 4.44444C4.16667 5.18519 3.47222 6.08333 2.97222 7.13889C2.47222 8.19444 2.22222 9.31481 2.22222 10.5C2.22222 12.6481 2.98148 14.4815 4.5 16C6.01852 17.5185 7.85185 18.2778 10 18.2778C12.1667 18.2778 14.0046 17.5185 15.5139 16C17.0231 14.4815 17.7778 12.6481 17.7778 10.5C17.7778 9.31481 17.5324 8.19444 17.0417 7.13889C16.5509 6.08333 15.8519 5.18519 14.9444 4.44444L16.5 2.88889C17.6111 3.85185 18.4722 4.99074 19.0833 6.30556C19.6944 7.62037 20 9.01852 20 10.5C20 11.8704 19.7361 13.162 19.2083 14.375C18.6806 15.588 17.9676 16.6481 17.0694 17.5556C16.1713 18.463 15.1157 19.1806 13.9028 19.7083C12.6898 20.2361 11.3889 20.5 10 20.5Z" fill="#450027"/>
</svg>