<svg xmlns="http://www.w3.org/2000/svg" width="21" height="20" viewBox="0 0 21 20" fill="none">
    <path d="M9.5 14H11.5V11H14.5V9H11.5V6H9.5V9H6.5V11H9.5V14ZM10.5 20C10.2333 20 9.97917 19.9542 9.7375 19.8625C9.49583 19.7708 9.28333 19.625 9.1 19.425L1.125 11.425C0.941667 11.225 0.791667 11.0042 0.675 10.7625C0.558333 10.5208 0.5 10.2667 0.5 10C0.5 9.73333 0.558333 9.47917 0.675 9.2375C0.791667 8.99583 0.941667 8.78333 1.125 8.6L9.1 0.6C9.3 0.4 9.51667 0.25 9.75 0.15C9.98333 0.05 10.2333 0 10.5 0C10.7667 0 11.025 0.05 11.275 0.15C11.525 0.25 11.7417 0.4 11.925 0.6L19.875 8.6C20.0583 8.8 20.2083 9.01667 20.325 9.25C20.4417 9.48333 20.5 9.73333 20.5 10C20.5 10.2667 20.4458 10.5208 20.3375 10.7625C20.2292 11.0042 20.075 11.225 19.875 11.425L11.925 19.425C11.7417 19.6083 11.525 19.75 11.275 19.85C11.025 19.95 10.7667 20 10.5 20ZM10.5 18L18.475 10L10.5 2L2.525 10L10.5 18Z" fill="#450027"/>
</svg>