<svg xmlns="http://www.w3.org/2000/svg" width="20" height="20" viewBox="0 0 20 20" fill="none">
    <path d="M7.26368 20L6.86567 16.8C6.65008 16.7167 6.44693 16.6167 6.25622 16.5C6.06551 16.3833 5.87894 16.2583 5.69652 16.125L2.73632 17.375L0 12.625L2.56219 10.675C2.54561 10.5583 2.53731 10.4458 2.53731 10.3375V9.6625C2.53731 9.55417 2.54561 9.44167 2.56219 9.325L0 7.375L2.73632 2.625L5.69652 3.875C5.87894 3.74167 6.06965 3.61667 6.26866 3.5C6.46766 3.38333 6.66667 3.28333 6.86567 3.2L7.26368 0H12.7363L13.1343 3.2C13.3499 3.28333 13.5531 3.38333 13.7438 3.5C13.9345 3.61667 14.1211 3.74167 14.3035 3.875L17.2637 2.625L20 7.375L17.4378 9.325C17.4544 9.44167 17.4627 9.55417 17.4627 9.6625V10.3375C17.4627 10.4458 17.4461 10.5583 17.4129 10.675L19.9751 12.625L17.2388 17.375L14.3035 16.125C14.1211 16.2583 13.9303 16.3833 13.7313 16.5C13.5323 16.6167 13.3333 16.7167 13.1343 16.8L12.7363 20H7.26368ZM10.0498 13.5C11.0116 13.5 11.8325 13.1583 12.5124 12.475C13.1924 11.7917 13.5323 10.9667 13.5323 10C13.5323 9.03333 13.1924 8.20833 12.5124 7.525C11.8325 6.84167 11.0116 6.5 10.0498 6.5C9.07131 6.5 8.24627 6.84167 7.57463 7.525C6.90299 8.20833 6.56716 9.03333 6.56716 10C6.56716 10.9667 6.90299 11.7917 7.57463 12.475C8.24627 13.1583 9.07131 13.5 10.0498 13.5Z" fill="#FDE6EE"/>
</svg>