<svg width="20" height="21" viewBox="0 0 20 21" fill="none" xmlns="http://www.w3.org/2000/svg">
<path d="M12 13.5C12.2833 13.5 12.5292 13.3958 12.7375 13.1875C12.9458 12.9792 13.05 12.7333 13.05 12.45C13.05 12.1667 12.9458 11.9208 12.7375 11.7125C12.5292 11.5042 12.2833 11.4 12 11.4C11.7167 11.4 11.4708 11.5042 11.2625 11.7125C11.0542 11.9208 10.95 12.1667 10.95 12.45C10.95 12.7333 11.0542 12.9792 11.2625 13.1875C11.4708 13.3958 11.7167 13.5 12 13.5ZM11.25 10.3H12.75C12.75 9.81667 12.8 9.4625 12.9 9.2375C13 9.0125 13.2333 8.71667 13.6 8.35C14.1 7.85 14.4333 7.44583 14.6 7.1375C14.7667 6.82917 14.85 6.46667 14.85 6.05C14.85 5.3 14.5875 4.6875 14.0625 4.2125C13.5375 3.7375 12.85 3.5 12 3.5C11.3167 3.5 10.7208 3.69167 10.2125 4.075C9.70417 4.45833 9.35 4.96667 9.15 5.6L10.5 6.15C10.65 5.73333 10.8542 5.42083 11.1125 5.2125C11.3708 5.00417 11.6667 4.9 12 4.9C12.4 4.9 12.725 5.0125 12.975 5.2375C13.225 5.4625 13.35 5.76667 13.35 6.15C13.35 6.38333 13.2833 6.60417 13.15 6.8125C13.0167 7.02083 12.7833 7.28333 12.45 7.6C11.9 8.08333 11.5625 8.4625 11.4375 8.7375C11.3125 9.0125 11.25 9.53333 11.25 10.3ZM6 16.5C5.45 16.5 4.97917 16.3042 4.5875 15.9125C4.19583 15.5208 4 15.05 4 14.5V2.5C4 1.95 4.19583 1.47917 4.5875 1.0875C4.97917 0.695833 5.45 0.5 6 0.5H18C18.55 0.5 19.0208 0.695833 19.4125 1.0875C19.8042 1.47917 20 1.95 20 2.5V14.5C20 15.05 19.8042 15.5208 19.4125 15.9125C19.0208 16.3042 18.55 16.5 18 16.5H6ZM2 20.5C1.45 20.5 0.979167 20.3042 0.5875 19.9125C0.195833 19.5208 0 19.05 0 18.5V4.5H2V18.5H16V20.5H2Z" fill="#450027"/>
</svg>
