<svg width="32" height="32" viewBox="0 0 32 32" fill="none" xmlns="http://www.w3.org/2000/svg">
<path d="M16 16C13.8 16 11.9167 15.2167 10.35 13.65C8.78333 12.0833 8 10.2 8 8C8 5.8 8.78333 3.91667 10.35 2.35C11.9167 0.783333 13.8 0 16 0C18.2 0 20.0833 0.783333 21.65 2.35C23.2167 3.91667 24 5.8 24 8C24 10.2 23.2167 12.0833 21.65 13.65C20.0833 15.2167 18.2 16 16 16ZM0 32V26.4C0 25.2667 0.291667 24.225 0.875 23.275C1.45833 22.325 2.23333 21.6 3.2 21.1C5.26667 20.0667 7.36667 19.2917 9.5 18.775C11.6333 18.2583 13.8 18 16 18C18.2 18 20.3667 18.2583 22.5 18.775C24.6333 19.2917 26.7333 20.0667 28.8 21.1C29.7667 21.6 30.5417 22.325 31.125 23.275C31.7083 24.225 32 25.2667 32 26.4V32H0Z" fill="#FFF3F7"/>
</svg>
