<svg xmlns="http://www.w3.org/2000/svg" width="19" height="18" viewBox="0 0 19 18" fill="none">
    <path d="M8.6 13.5H10.4V8.1H8.6V13.5ZM9.5 6.3C9.755 6.3 9.96875 6.21375 10.1413 6.04125C10.3138 5.86875 10.4 5.655 10.4 5.4C10.4 5.145 10.3138 4.93125 10.1413 4.75875C9.96875 4.58625 9.755 4.5 9.5 4.5C9.245 4.5 9.03125 4.58625 8.85875 4.75875C8.68625 4.93125 8.6 5.145 8.6 5.4C8.6 5.655 8.68625 5.86875 8.85875 6.04125C9.03125 6.21375 9.245 6.3 9.5 6.3ZM9.5 18C8.255 18 7.085 17.7638 5.99 17.2912C4.895 16.8187 3.9425 16.1775 3.1325 15.3675C2.3225 14.5575 1.68125 13.605 1.20875 12.51C0.73625 11.415 0.5 10.245 0.5 9C0.5 7.755 0.73625 6.585 1.20875 5.49C1.68125 4.395 2.3225 3.4425 3.1325 2.6325C3.9425 1.8225 4.895 1.18125 5.99 0.70875C7.085 0.23625 8.255 0 9.5 0C10.745 0 11.915 0.23625 13.01 0.70875C14.105 1.18125 15.0575 1.8225 15.8675 2.6325C16.6775 3.4425 17.3187 4.395 17.7912 5.49C18.2638 6.585 18.5 7.755 18.5 9C18.5 10.245 18.2638 11.415 17.7912 12.51C17.3187 13.605 16.6775 14.5575 15.8675 15.3675C15.0575 16.1775 14.105 16.8187 13.01 17.2912C11.915 17.7638 10.745 18 9.5 18Z" fill="#FFF3F7"/>
</svg>