<svg xmlns="http://www.w3.org/2000/svg" width="18" height="18" viewBox="0 0 18 18" fill="none">
    <path d="M6.53731 18L6.1791 15.12C5.98507 15.045 5.80224 14.955 5.6306 14.85C5.45896 14.745 5.29104 14.6325 5.12687 14.5125L2.46269 15.6375L0 11.3625L2.30597 9.6075C2.29104 9.5025 2.28358 9.40125 2.28358 9.30375V8.69625C2.28358 8.59875 2.29104 8.4975 2.30597 8.3925L0 6.6375L2.46269 2.3625L5.12687 3.4875C5.29104 3.3675 5.46269 3.255 5.64179 3.15C5.8209 3.045 6 2.955 6.1791 2.88L6.53731 0H11.4627L11.8209 2.88C12.0149 2.955 12.1978 3.045 12.3694 3.15C12.541 3.255 12.709 3.3675 12.8731 3.4875L15.5373 2.3625L18 6.6375L15.694 8.3925C15.709 8.4975 15.7164 8.59875 15.7164 8.69625V9.30375C15.7164 9.40125 15.7015 9.5025 15.6716 9.6075L17.9776 11.3625L15.5149 15.6375L12.8731 14.5125C12.709 14.6325 12.5373 14.745 12.3582 14.85C12.1791 14.955 12 15.045 11.8209 15.12L11.4627 18H6.53731ZM9.04478 12.15C9.91045 12.15 10.6493 11.8425 11.2612 11.2275C11.8731 10.6125 12.1791 9.87 12.1791 9C12.1791 8.13 11.8731 7.3875 11.2612 6.7725C10.6493 6.1575 9.91045 5.85 9.04478 5.85C8.16418 5.85 7.42164 6.1575 6.81716 6.7725C6.21269 7.3875 5.91045 8.13 5.91045 9C5.91045 9.87 6.21269 10.6125 6.81716 11.2275C7.42164 11.8425 8.16418 12.15 9.04478 12.15Z" fill="#450027"/>
</svg>