<svg version="1.2" xmlns="http://www.w3.org/2000/svg" viewBox="0 0 21 20" width="21" height="20">
	<title>icon-add-dark-svg</title>
	<style>
		.s0 { fill: #fde6ee } 
	</style>
	<path id="Layer" fill-rule="evenodd" class="s0" d="m10.5 20q-0.4 0-0.8-0.1-0.3-0.2-0.6-0.5l-8-8q-0.2-0.3-0.4-0.6-0.2-0.4-0.2-0.8 0-0.4 0.2-0.8 0.2-0.3 0.4-0.6l8-8q0.3-0.3 0.7-0.5 0.3-0.1 0.7-0.1 0.4 0 0.8 0.1 0.4 0.2 0.6 0.5l8 8q0.2 0.3 0.4 0.7 0.2 0.3 0.2 0.7 0 0.4-0.2 0.8-0.1 0.3-0.4 0.6l-8 8q-0.2 0.3-0.6 0.5-0.4 0.1-0.8 0.1zm0-2l8-8-8-8-8 8zm-1-7h-3v-2h3v-3h2v3h3v2h-3v3h-2z"/>
</svg>