<svg width="25" height="24" viewBox="0 0 25 24" fill="none" xmlns="http://www.w3.org/2000/svg">
<path d="M12.875 24C11.215 24 9.655 23.685 8.195 23.055C6.735 22.425 5.465 21.57 4.385 20.49C3.305 19.41 2.45 18.14 1.82 16.68C1.19 15.22 0.875 13.66 0.875 12C0.875 10.34 1.19 8.78 1.82 7.32C2.45 5.86 3.305 4.59 4.385 3.51C5.465 2.43 6.735 1.575 8.195 0.945C9.655 0.315 11.215 0 12.875 0C14.535 0 16.095 0.315 17.555 0.945C19.015 1.575 20.285 2.43 21.365 3.51C22.445 4.59 23.3 5.86 23.93 7.32C24.56 8.78 24.875 10.34 24.875 12C24.875 13.66 24.56 15.22 23.93 16.68C23.3 18.14 22.445 19.41 21.365 20.49C20.285 21.57 19.015 22.425 17.555 23.055C16.095 23.685 14.535 24 12.875 24ZM11.675 21.51V20.31C10.975 20.21 10.3 20.02 9.65 19.74C9 19.46 8.395 19.12 7.835 18.72L6.995 19.59C7.655 20.11 8.38 20.535 9.17 20.865C9.96 21.195 10.795 21.41 11.675 21.51ZM14.075 21.51C14.955 21.41 15.79 21.195 16.58 20.865C17.37 20.535 18.095 20.11 18.755 19.59L17.915 18.72C17.355 19.12 16.75 19.46 16.1 19.74C15.45 20.02 14.775 20.21 14.075 20.31V21.51ZM12.875 18C14.535 18 15.95 17.415 17.12 16.245C18.29 15.075 18.875 13.66 18.875 12C18.875 10.34 18.29 8.925 17.12 7.755C15.95 6.585 14.535 6 12.875 6C11.215 6 9.8 6.585 8.63 7.755C7.46 8.925 6.875 10.34 6.875 12C6.875 13.66 7.46 15.075 8.63 16.245C9.8 17.415 11.215 18 12.875 18ZM20.465 17.88C20.985 17.22 21.41 16.495 21.74 15.705C22.07 14.915 22.285 14.08 22.385 13.2H21.185C21.085 13.9 20.895 14.575 20.615 15.225C20.335 15.875 19.995 16.48 19.595 17.04L20.465 17.88ZM5.285 17.88L6.155 17.01C5.755 16.45 5.415 15.85 5.135 15.21C4.855 14.57 4.665 13.9 4.565 13.2H3.365C3.465 14.08 3.68 14.915 4.01 15.705C4.34 16.495 4.765 17.22 5.285 17.88ZM12.875 16.8L9.275 12L12.875 7.2L16.475 12L12.875 16.8ZM3.365 10.8H4.565C4.665 10.1 4.855 9.43 5.135 8.79C5.415 8.15 5.755 7.55 6.155 6.99L5.285 6.12C4.765 6.78 4.34 7.505 4.01 8.295C3.68 9.085 3.465 9.92 3.365 10.8ZM21.185 10.8H22.385C22.285 9.92 22.065 9.085 21.725 8.295C21.385 7.505 20.955 6.78 20.435 6.12L19.595 6.96C19.995 7.52 20.335 8.125 20.615 8.775C20.895 9.425 21.085 10.1 21.185 10.8ZM7.865 5.28C8.425 4.88 9.025 4.54 9.665 4.26C10.305 3.98 10.975 3.79 11.675 3.69V2.49C10.795 2.59 9.96 2.805 9.17 3.135C8.38 3.465 7.655 3.89 6.995 4.41L7.865 5.28ZM17.915 5.28L18.755 4.44C18.095 3.92 17.37 3.49 16.58 3.15C15.79 2.81 14.955 2.59 14.075 2.49V3.69C14.775 3.79 15.45 3.98 16.1 4.26C16.75 4.54 17.355 4.88 17.915 5.28Z" fill="#9BDEAC"/>
</svg>
