<svg xmlns="http://www.w3.org/2000/svg" width="18" height="19" viewBox="0 0 18 19" fill="none">
    <path d="M18 4.5V16.5C18 17.05 17.8042 17.5208 17.4125 17.9125C17.0208 18.3042 16.55 18.5 16 18.5H2C1.45 18.5 0.979167 18.3042 0.5875 17.9125C0.195833 17.5208 0 17.05 0 16.5V2.5C0 1.95 0.195833 1.47917 0.5875 1.0875C0.979167 0.695833 1.45 0.5 2 0.5H14L18 4.5ZM9 15.5C9.83333 15.5 10.5417 15.2083 11.125 14.625C11.7083 14.0417 12 13.3333 12 12.5C12 11.6667 11.7083 10.9583 11.125 10.375C10.5417 9.79167 9.83333 9.5 9 9.5C8.16667 9.5 7.45833 9.79167 6.875 10.375C6.29167 10.9583 6 11.6667 6 12.5C6 13.3333 6.29167 14.0417 6.875 14.625C7.45833 15.2083 8.16667 15.5 9 15.5ZM3 7.5H12V3.5H3V7.5Z" fill="#450027"/>
</svg>