<svg xmlns="http://www.w3.org/2000/svg" width="25" height="25" viewBox="0 0 25 25" fill="none">
    <path d="M12.5 12.5C10.85 12.5 9.4375 11.9125 8.2625 10.7375C7.0875 9.5625 6.5 8.15 6.5 6.5C6.5 4.85 7.0875 3.4375 8.2625 2.2625C9.4375 1.0875 10.85 0.5 12.5 0.5C14.15 0.5 15.5625 1.0875 16.7375 2.2625C17.9125 3.4375 18.5 4.85 18.5 6.5C18.5 8.15 17.9125 9.5625 16.7375 10.7375C15.5625 11.9125 14.15 12.5 12.5 12.5ZM0.5 24.5V20.3C0.5 19.45 0.71875 18.6687 1.15625 17.9562C1.59375 17.2437 2.175 16.7 2.9 16.325C4.45 15.55 6.025 14.9688 7.625 14.5812C9.225 14.1937 10.85 14 12.5 14C14.15 14 15.775 14.1937 17.375 14.5812C18.975 14.9688 20.55 15.55 22.1 16.325C22.825 16.7 23.4062 17.2437 23.8438 17.9562C24.2812 18.6687 24.5 19.45 24.5 20.3V24.5H0.5Z" fill="#FFF3F7"/>
</svg>