<svg width="769" height="769" viewBox="0 0 769 769" fill="none" xmlns="http://www.w3.org/2000/svg">
    <g clip-path="url(#clip0_1950_5204)">
        <rect width="769" height="769" rx="150" fill="#EA2E71"/>
        <path d="M201.61 307.199C206.05 301.769 210.28 296.159 214.78 290.779C219.37 285.299 223.76 279.659 228.25 274.099C234.13 266.819 239.98 259.509 245.82 252.199C251.66 244.889 257.48 237.559 263.33 230.259C270.88 220.829 278.46 211.409 286.02 201.979C287.17 200.549 288.31 199.109 289.44 197.659C289.98 196.969 290.59 196.519 291.52 196.589C292.15 196.629 292.79 196.569 293.43 196.569C354.57 196.569 415.71 196.569 476.86 196.529C478.56 196.529 479.61 197.049 480.66 198.369C504.34 228.039 528.08 257.659 551.78 287.309C556.85 293.649 561.81 300.069 566.83 306.449C567.79 307.669 568.81 308.849 569.8 310.049C572.49 312.489 573.71 315.279 573.7 319.149C573.56 363.829 573.62 408.499 573.62 453.179C573.62 461.449 573.62 469.719 573.6 477.989C573.6 478.739 573.7 479.479 573.15 480.169C567.94 486.629 562.75 493.109 557.56 499.579C552.17 506.299 546.8 513.029 541.4 519.749C541.12 520.099 540.86 520.289 541.4 520.569C539.97 520.469 539.5 521.779 538.88 522.569C534.36 528.339 529.74 534.039 525.11 539.729C520.79 545.029 516.67 550.489 512.41 555.839C509.62 559.349 506.69 562.749 503.89 566.249C500.06 571.059 496.32 575.949 492.48 580.759L481.14 594.849C478.72 597.529 477.29 597.529 474.68 597.529C413.98 597.489 353.27 597.489 292.57 597.529C290.94 597.529 289.97 597.039 288.94 595.759C272.43 575.049 255.84 554.399 239.28 533.729C236.03 529.679 232.82 525.589 229.6 521.519C229.28 521.119 228.99 520.699 228.45 520.569C228.45 519.949 228.05 519.539 227.69 519.089C222.27 512.319 216.87 505.539 211.45 498.759C206.75 492.879 202.09 486.949 197.28 481.159C196.29 479.969 195.92 478.879 195.93 477.409C195.97 469.339 195.94 461.259 195.93 453.189C195.93 452.169 195.95 451.159 195.95 450.139C195.95 405.839 195.95 361.529 195.93 317.229C195.93 315.519 196.04 314.049 197.46 312.779L201.58 307.209L201.61 307.199Z" fill="#D01D56"/>
        <path d="M101.62 420.34C96.7699 413.96 91.0699 408.33 85.7499 402.36C79.8699 395.76 73.9199 389.23 67.9699 382.7C66.9899 381.63 67.1499 380.31 66.9799 379.12C65.5299 368.63 64.1699 358.13 62.7899 347.63C61.6199 338.7 60.4599 329.77 59.3099 320.84C59.0499 318.8 59.2299 318.66 61.2899 319.14C80.3899 323.59 99.4599 328.11 118.59 332.4C121.39 333.03 122.92 334.84 124.6 336.66C130.7 343.31 136.72 350.03 142.8 356.7C144.18 358.22 145.27 360.03 147.07 361.14C147.32 362.12 147.61 363.1 147.82 364.09C150.76 377.7 153.7 391.3 156.6 404.92C157.67 409.93 158.66 414.95 159.68 419.97C156.08 419.04 152.38 418.38 148.9 417.11C145.97 416.04 142.77 416.24 139.96 414.79C139.23 414.41 138.8 415.02 138.7 415.75C138.61 416.46 138.85 417.12 139.04 417.79C140.55 423.08 142.12 428.35 143.28 433.72C141.09 433.61 139.1 432.71 137.06 432.07C126.54 428.76 116.06 425.36 105.58 421.94C104.23 421.5 102.69 421.45 101.61 420.33L101.62 420.34Z" fill="#9B1B3C"/>
        <path d="M622.52 361.148C624.92 359.328 626.63 356.848 628.67 354.688C632.33 350.818 635.85 346.818 639.42 342.858C642.01 339.988 644.61 337.118 647.14 334.188C647.9 333.298 648.82 332.908 649.89 332.668C662.86 329.688 675.83 326.708 688.79 323.698C695.27 322.198 701.74 320.638 708.22 319.118C710.6 318.558 710.46 318.538 710.11 320.848C709.61 324.148 709.33 327.478 708.9 330.788C708.19 336.248 707.45 341.698 706.74 347.148C706.3 350.458 705.76 353.748 705.4 357.068C704.97 361.028 704.47 364.978 703.96 368.928C703.44 372.928 702.85 376.918 702.37 380.918C702.27 381.738 701.96 382.338 701.43 382.908C697.09 387.598 692.74 392.278 688.45 397.008C684.33 401.548 680.32 406.178 676.2 410.728C673.32 413.918 670.29 416.968 667.57 420.318C667.51 421.128 666.84 421.038 666.32 421.208C655.4 424.718 644.49 428.288 633.54 431.718C631.16 432.458 628.67 433.808 626.12 433.958C626.51 432.368 627.04 430.518 627.47 428.928C628.66 424.538 629.87 420.148 631.09 415.758C631.44 414.488 631.13 414.028 629.81 414.548C628.81 414.938 627.82 415.468 626.78 415.648C621.03 416.638 615.54 418.598 609.89 419.958C610.52 415.118 611.84 410.418 612.84 405.648C614.99 395.368 617.23 385.098 619.46 374.828C620.45 370.258 621.5 365.698 622.52 361.128V361.148Z" fill="#9B1B3C"/>
        <path d="M143.29 433.729C142.12 428.349 140.56 423.079 139.05 417.799C138.86 417.129 138.62 416.469 138.71 415.759C138.81 415.019 139.23 414.419 139.97 414.799C142.78 416.259 145.98 416.059 148.91 417.119C152.39 418.389 156.09 419.049 159.69 419.979C162.48 420.449 164.59 421.909 166.58 423.939C175.73 433.259 185.02 442.449 194.26 451.679C194.79 452.209 195.39 452.689 195.95 453.189C195.95 461.259 195.99 469.339 195.95 477.409C195.95 478.879 196.31 479.969 197.3 481.159C202.11 486.959 206.77 492.879 211.47 498.759C216.88 505.529 222.29 512.319 227.71 519.089C228.07 519.539 228.47 519.949 228.47 520.569C227.84 520.619 227.21 520.709 226.58 520.709C189.52 520.709 152.45 520.709 115.39 520.709C114.76 520.709 114.13 520.639 113.49 520.599C113.36 520.529 113.24 520.459 113.11 520.389C102.34 514.519 91.58 508.659 80.81 502.789C78.69 501.639 76.58 500.479 74.51 499.339C74.45 498.849 74.76 498.739 75.03 498.589C87.41 491.829 99.8 485.079 112.16 478.279C113.1 477.759 114.02 477.579 115.06 477.579C125.94 477.579 136.82 477.579 147.7 477.559C158.84 477.579 169.97 477.599 181.11 477.619C181.3 477.619 181.49 477.619 181.68 477.619C182.61 477.549 182.6 477.119 182.07 476.539C181.73 476.159 181.36 475.809 181 475.449C170.61 465.059 160.26 454.609 149.78 444.309C146.84 441.419 144.05 438.589 143.52 434.259C143.5 434.079 143.37 433.909 143.29 433.739V433.729Z" fill="#B81E48"/>
        <path d="M627.47 428.94C628.66 424.55 629.87 420.16 631.09 415.77C631.44 414.5 631.13 414.04 629.81 414.56L609.89 419.97C606.44 420.4 604.23 422.7 601.94 425.02C593.11 433.95 584.2 442.8 575.31 451.68C574.78 452.21 574.18 452.69 573.62 453.19C573.62 461.46 573.62 469.73 573.6 478C573.6 478.75 573.7 479.49 573.15 480.18C567.94 486.64 562.75 493.12 557.56 499.59C552.17 506.31 546.8 513.04 541.4 519.76C541.12 520.11 540.86 520.3 541.4 520.58C541.84 520.63 542.28 520.71 542.72 520.71C579.63 520.71 616.53 520.71 653.44 520.71C655.18 520.71 656.77 520.34 658.34 519.46C666.17 515.1 674.05 510.84 681.91 506.53C686.34 504.11 690.76 501.67 695.37 499.14C694.57 498.66 693.98 498.29 693.38 497.95C681.45 491.42 669.52 484.9 657.6 478.36C656.55 477.79 655.51 477.57 654.33 477.57C643.39 477.59 632.44 477.57 621.5 477.56C610.51 477.58 599.52 477.6 588.52 477.61C588.05 477.61 587.36 477.85 587.19 477.22C587.04 476.69 587.65 476.37 588 476.02C591.23 472.78 594.47 469.55 597.7 466.31C605.88 458.13 614.01 449.91 622.27 441.82C624.03 440.09 625.13 438.21 625.58 435.84L627.45 428.93L627.47 428.94Z" fill="#B81E48"/>
        <path d="M195.96 453.18C195.39 452.68 194.8 452.2 194.27 451.67C185.03 442.44 175.74 433.25 166.59 423.93C164.6 421.9 162.49 420.44 159.7 419.97C158.68 414.95 157.69 409.93 156.62 404.92C153.71 391.31 150.77 377.7 147.84 364.09C147.63 363.1 147.34 362.13 147.09 361.14C145.78 354.87 144.48 348.6 143.14 342.33C141.98 336.87 140.8 331.41 139.57 325.96C139.28 324.68 139.59 323.59 140.14 322.48C144.55 313.48 148.96 304.49 153.34 295.48C155.78 290.47 158.18 285.44 160.56 280.4C161.1 279.26 161.47 278.87 162.72 279.89C166.36 282.86 169.87 285.99 173.58 288.85C179.52 293.42 185.14 298.37 190.96 303.09C193.71 305.32 196.84 307.78 199.34 310.31C198.48 311.48 198.19 311.85 197.5 312.75C196.34 314.26 195.97 315.49 195.97 317.2C196 361.5 195.99 405.81 195.99 450.11C195.99 451.13 195.98 452.14 195.97 453.16L195.96 453.18Z" fill="#A81D41"/>
        <path d="M606.98 279.599C608.3 278.549 608.42 279.579 608.8 280.349C611.2 285.239 613.58 290.139 615.99 295.019C619.43 302.009 622.91 308.989 626.33 315.989C627.55 318.489 628.65 321.059 629.85 323.569C630.15 324.189 630.2 324.679 630.04 325.379L622.52 361.149C621.5 365.719 620.46 370.279 619.46 374.849C617.23 385.119 614.99 395.379 612.84 405.669C611.84 410.439 610.52 415.139 609.89 419.979C606.44 420.409 604.23 422.709 601.94 425.029C593.11 433.959 584.2 442.809 575.31 451.689C574.78 452.219 574.18 452.699 573.62 453.199C573.62 408.519 573.55 363.849 573.7 319.169C573.71 315.299 572.49 312.509 569.8 310.069C571.03 309.739 571.79 308.739 572.71 307.989L606.99 279.609L606.98 279.599Z" fill="#A81D41"/>
        <path d="M143.29 433.73C143.37 433.9 143.5 434.07 143.52 434.25C144.05 438.58 146.84 441.41 149.78 444.3C160.26 454.61 170.6 465.05 181 475.44C181.36 475.8 181.73 476.15 182.07 476.53C182.6 477.11 182.62 477.54 181.68 477.61C181.49 477.62 181.3 477.61 181.11 477.61C169.97 477.59 158.84 477.57 147.7 477.55C145.44 475.91 142.58 476.01 140.12 474.94C135.28 472.83 130.03 471.97 125.15 469.9C122.97 468.98 120.39 468.68 118.1 467.84C114.2 466.42 110.13 465.54 106.28 464.04C103.05 462.78 99.6499 462.12 96.4299 460.89C92.7899 459.5 88.9599 458.67 85.3299 457.32C81.9099 456.05 78.3499 455.26 74.9399 453.98C71.2899 452.61 67.4699 451.78 63.8299 450.42C60.6999 449.25 57.4999 448.4 54.3199 447.43C53.4999 447.18 52.9099 446.62 52.3099 446.04C45.4799 439.49 38.6499 432.94 31.7999 426.41C28.5799 423.34 25.3199 420.32 22.0699 417.29C21.5199 416.78 20.9299 416.33 19.9199 415.49C25.2199 414.76 29.8399 414.12 34.4599 413.47C43.1299 412.26 51.7999 411.12 60.4599 409.82C63.7099 409.33 66.7699 409.31 69.9699 410.43C79.4699 413.77 89.1699 416.5 98.6499 419.91C99.5499 420.24 100.47 421.32 101.61 420.33C102.69 421.45 104.23 421.5 105.58 421.94C116.06 425.36 126.55 428.76 137.06 432.07C139.1 432.71 141.09 433.61 143.28 433.72L143.29 433.73Z" fill="#A81D41"/>
        <path d="M621.51 477.569C610.52 477.589 599.53 477.609 588.53 477.619C588.06 477.619 587.37 477.859 587.2 477.229C587.05 476.699 587.66 476.379 588.01 476.029C591.24 472.789 594.48 469.559 597.71 466.319C605.89 458.139 614.02 449.919 622.28 441.829C624.04 440.099 625.14 438.219 625.59 435.849C625.73 435.129 625.75 434.329 626.29 433.719C628.84 433.569 631.14 432.469 633.52 431.729C644.47 428.309 655.37 424.729 666.3 421.219C666.83 421.049 667.49 421.139 667.55 420.329C669.65 420.509 671.48 419.519 673.38 418.919C683.07 415.879 692.74 412.759 702.38 409.579C704.4 408.909 706.3 409.469 708.21 409.719C721.22 411.459 734.23 413.279 747.24 415.079C747.8 415.159 748.35 415.329 749.08 415.499C747.69 417.499 745.77 418.869 744.02 420.319C741.68 422.259 739.81 424.659 737.47 426.549C734.48 428.969 732.08 432.009 729.14 434.459C726.48 436.679 724.3 439.389 721.64 441.579C719.74 443.149 718.17 445.039 716.27 446.569C714.57 447.929 712.31 448.219 710.29 448.889C698.18 452.859 686.04 456.699 673.91 460.609C663.24 464.049 652.59 467.559 641.9 470.939C635.08 473.089 628.22 475.119 621.5 477.549L621.51 477.569Z" fill="#A81D41"/>
        <path d="M521.86 543.83C499.14 542.91 481.49 540.42 469.08 536.45C466.84 535.83 462.79 534.34 457.02 532.02C463.87 528.9 470.3 525.26 476.32 521.08C500.1 504.5 516.97 482.45 526.99 454.88C536.96 427.27 541.97 394.03 541.97 355.06C541.97 293.03 530.27 246.9 506.83 216.73C483.39 186.56 442.86 171.49 385.29 171.49C278.4 171.49 224.99 234.91 224.99 361.8C224.99 421.77 237.66 467.47 262.99 498.83C271.32 509.15 281.35 517.74 293.02 524.66C277.09 531.35 259.54 539.15 247.92 544.49C259.28 558.88 265.65 567.25 277.09 580.91C277.47 580.91 298.51 567.4 316.27 563.11C333.99 558.78 347.79 556.63 357.64 556.63C367.49 556.63 377.88 558.27 388.91 561.55C399.94 564.83 412.69 569.63 427.17 576.03C441.65 582.43 451.91 588.26 457.11 591.02C468.32 596.98 478.7 596.74 478.98 596.78C479.26 596.82 480.36 595.73 481.18 594.86C483.09 592.87 499.71 571.84 511.65 556.83C517.58 549.38 521.87 543.85 521.87 543.85L521.86 543.83ZM382.32 491.07C326.58 491.07 298.7 447.09 298.7 359.18C298.7 327.09 298.7 266.05 339.96 239.01C345.03 235.69 360.23 227.33 382.32 227.33C404.41 227.33 419.61 235.68 424.68 239.01C465.93 266.05 465.94 327.09 465.94 359.18C465.94 447.09 438.07 491.07 382.32 491.07Z" fill="white"/>
    </g>
    <defs>
        <clipPath id="clip0_1950_5204">
            <rect width="769" height="769" fill="white"/>
        </clipPath>
    </defs>
</svg>
