<svg width="57" height="53" viewBox="0 0 57 53" fill="none" xmlns="http://www.w3.org/2000/svg">
<path d="M17.4777 38.9138L9.13641 35.7429L10.0418 28.1412L22.5346 25.7389L30.6303 23.6516L31.7813 21.3081L39.6314 13.9627L47.9728 17.1336L47.0673 24.7353L34.5746 27.1375L26.4789 29.2248L25.3278 31.5683L17.4777 38.9138Z" fill="#730041"/>
<path d="M18.3803 26.1099L16.6063 20.9016L20.6225 18.474L26.7205 23.5809L30.9276 26.6905L32.5106 26.3617L39.1508 27.3726L40.9247 32.5809L36.9086 35.0085L30.8105 29.9016L26.6035 26.792L25.0204 27.1208L18.3803 26.1099Z" fill="#730041"/>
<path d="M22.4127 15.0824L27.9527 10.0812L33.816 13.0266L31.3369 22.6791L30.162 29.0946L31.6602 30.6256L34.8504 38.4555L29.3104 43.4567L23.4471 40.5114L25.9262 30.8589L27.1011 24.4433L25.6029 22.9123L22.4127 15.0824Z" fill="#730041"/>
</svg>
