<svg width="30" height="29" viewBox="0 0 30 29" fill="none" xmlns="http://www.w3.org/2000/svg">
<path d="M7.56383 10.3979L8.0298 5.82175L11.9355 5.25839L14.7983 11.1581L16.9176 14.9104L18.238 15.1709L22.9426 18.0995L22.4766 22.6757L18.5709 23.239L15.7082 17.3394L13.5888 13.587L12.2685 13.3265L7.56383 10.3979Z" fill="#730041"/>
<path d="M14.0624 9.13983L16.419 7.56171L18.1635 9.23748L16.4343 12.955L15.4473 15.4646L15.8222 16.2089L16.2048 19.6499L13.8482 21.228L12.1037 19.5523L13.8329 15.8347L14.8199 13.3252L14.445 12.5808L14.0624 9.13983Z" fill="#730041"/>
<path d="M20.0894 9.67603L23.3186 11.7672L22.6343 15.0795L17.4976 15.1329L14.1466 15.4038L13.5842 16.354L10.1112 18.987L6.88205 16.8959L7.56632 13.5836L12.703 13.5302L16.0541 13.2592L16.6165 12.3091L20.0894 9.67603Z" fill="#730041"/>
</svg>
