<svg xmlns="http://www.w3.org/2000/svg" width="141" height="112" viewBox="0 0 141 112" fill="none">
    <path d="M121.196 40.2226L139.242 62.3603L124.567 81.9817L86.0957 68.6482L60.3158 61.4782L53.3751 66.1319L19.8614 73.9295L1.81535 51.7918L16.4899 32.1704L54.9615 45.504L80.7413 52.674L87.682 48.0203L121.196 40.2226Z" fill="#730041"/>
    <path d="M98.197 74.2689L94.7792 91.5442L79.7626 91.8458L71.0325 67.9319L64.3477 52.5802L59.4337 50.9582L42.6464 37.5301L46.0641 20.2548L61.0807 19.9532L69.8108 43.8672L76.4956 59.2189L81.4096 60.8408L98.197 74.2689Z" fill="#730041"/>
    <path d="M69.3737 98.3802L46.0146 103.377L34.4764 85.8299L56.7947 63.0425L70.318 47.1401L68.6155 40.499L72.303 13.6908L95.6621 8.69421L107.2 26.2411L84.8821 49.0285L71.3588 64.9309L73.0613 71.572L69.3737 98.3802Z" fill="#730041"/>
</svg>