<svg width="29" height="37" viewBox="0 0 29 37" fill="none" xmlns="http://www.w3.org/2000/svg">
<path d="M18.1152 31.4917L12.5316 36.0432L7.5827 32.342L10.9457 22.6387L12.7541 16.1365L11.5803 14.386L9.61362 5.93311L15.1972 1.38155L20.1461 5.08278L16.7831 14.7861L14.9747 21.2883L16.1485 23.0388L18.1152 31.4917Z" fill="#730041"/>
<path d="M9.5296 25.692L5.17242 24.83L5.09635 21.0425L11.1279 18.8406L14.9999 17.1545L15.409 15.9151L18.7959 11.681L23.153 12.5431L23.2291 16.3305L17.1975 18.5324L13.3255 20.2185L12.9164 21.4579L9.5296 25.692Z" fill="#730041"/>
<path d="M3.45061 18.4236L2.19038 12.532L6.61605 9.62182L12.3635 15.2509L16.3744 18.6618L18.0494 18.2324L24.811 19.1625L26.0712 25.0541L21.6455 27.9643L15.8981 22.3351L11.8872 18.9243L10.2122 19.3537L3.45061 18.4236Z" fill="#730041"/>
</svg>
