<?xml version="1.0" standalone="no"?>
<!DOCTYPE svg PUBLIC "-//W3C//DTD SVG 20010904//EN"
 "http://www.w3.org/TR/2001/REC-SVG-20010904/DTD/svg10.dtd">
<svg version="1.0" xmlns="http://www.w3.org/2000/svg"
 width="700.000000pt" height="700.000000pt" viewBox="0 0 700.000000 700.000000"
 preserveAspectRatio="xMidYMid meet">
<metadata>
Created by potrace 1.14, written by Peter Selinger 2001-2017
</metadata>
<g transform="translate(0.000000,700.000000) scale(0.100000,-0.100000)"
fill="#000000" stroke="none">
<path d="M3348 5435 c-2 -2 -33 -6 -70 -9 -160 -13 -367 -71 -511 -142 -350
-173 -590 -536 -672 -1018 -9 -50 -18 -102 -20 -116 -27 -151 -27 -729 -1
-867 3 -11 7 -43 11 -70 22 -161 108 -427 180 -558 83 -152 198 -287 320 -376
33 -24 61 -48 61 -54 1 -5 -24 -21 -55 -34 -91 -38 -326 -142 -330 -146 -3 -4
23 -39 62 -85 7 -8 55 -68 106 -132 61 -77 98 -115 105 -109 6 4 45 26 86 48
248 132 573 193 800 149 80 -15 278 -77 345 -106 22 -10 83 -37 135 -60 52
-23 140 -66 195 -95 106 -56 188 -85 242 -85 30 0 42 12 170 173 76 94 141
177 145 182 4 6 28 35 52 65 25 30 44 55 43 56 -1 1 -40 5 -87 8 -47 4 -98 9
-115 11 -16 3 -48 7 -70 9 -72 8 -148 26 -232 53 l-82 27 47 26 c86 47 96 55
177 116 265 204 416 469 494 869 20 105 29 166 37 250 2 28 6 73 9 100 6 58 6
458 0 525 -11 124 -16 176 -20 190 -2 8 -6 37 -10 64 -21 169 -85 383 -158
530 -110 223 -246 362 -452 464 -119 59 -300 112 -430 128 -33 3 -69 9 -80 11
-23 5 -422 13 -427 8z m278 -519 c216 -46 358 -152 469 -350 51 -92 106 -266
119 -381 4 -27 9 -66 11 -85 20 -127 19 -546 0 -700 -51 -395 -163 -631 -365
-766 -132 -88 -326 -124 -509 -93 -143 24 -247 75 -342 170 -152 151 -242 386
-276 719 -10 95 -10 562 -1 655 49 477 250 757 593 829 87 18 219 19 301 2z"/>
</g>
</svg>
