<svg width="68" height="59" viewBox="0 0 68 59" fill="none" xmlns="http://www.w3.org/2000/svg">
<g clip-path="url(#clip0_2103_9502)">
<path d="M19.0481 5.1346C17.7764 5.31526 16.3681 6.71081 15.2266 8.31074C12.1553 12.2427 10.0958 16.7663 7.63178 21.053C7.09927 21.9792 6.59446 22.9211 5.96819 24.0521C6.44351 23.8808 6.68864 23.802 6.92587 23.7052C10.4751 22.2587 14.0412 20.8546 17.5658 19.3457C20.1975 18.2199 22.7461 16.9679 24.9989 15.0724C26.6785 13.6589 26.5207 11.937 26.2448 10.3591C25.8941 8.35201 23.7622 6.43826 22.7072 5.8237C21.3993 5.06253 19.0497 5.13415 19.0497 5.13415L19.0481 5.1346Z" fill="#5F5697"/>
<path d="M51.1247 10.7449C50.2959 10.4297 48.9792 10.8031 47.7554 11.3889C44.5872 12.7401 41.833 14.7864 38.9134 16.5545C38.2825 16.9365 37.6631 17.3372 36.9072 17.8117C37.2516 17.8668 37.426 17.901 37.6017 17.9217C40.2292 18.232 42.8528 18.5736 45.4863 18.8381C47.4524 19.036 49.4103 19.13 51.4042 18.7363C52.891 18.4427 53.3702 17.3495 53.7301 16.3039C54.188 14.974 53.5384 13.106 53.1059 12.3825C52.5695 11.4861 51.1258 10.7452 51.1258 10.7452L51.1247 10.7449Z" fill="#483F84"/>
<path d="M22.2415 19.801C22.9084 20.5591 24.4327 20.8834 25.9764 20.9444C29.8849 21.2688 33.7462 20.6731 37.6261 20.4455C38.4645 20.3964 39.3012 20.3224 40.3146 20.2466C39.9971 20.008 39.8396 19.8808 39.6738 19.7666C37.1933 18.0568 34.7334 16.3176 32.2225 14.6509C30.3482 13.406 28.4268 12.2702 26.2099 11.6062C24.5567 11.1112 23.4929 11.957 22.5745 12.8184C21.4062 13.9139 21.0669 16.1402 21.1175 17.0985C21.1809 18.2864 22.2406 19.8002 22.2406 19.8002L22.2415 19.801Z" fill="#5544C0"/>
<path d="M23.0849 16.3763C22.6141 15.2065 20.9533 14.1917 19.1601 13.4791C14.691 11.4745 9.89545 10.5732 5.23078 9.2307C4.22282 8.94052 3.20651 8.68042 1.98137 8.34894C2.2562 8.76183 2.38893 8.97699 2.53681 9.18041C4.7489 12.2241 6.9245 15.2938 9.19024 18.2994C10.8812 20.5439 12.6729 22.6794 15.0087 24.3818C16.7504 25.6511 18.3547 25.0964 19.7941 24.4631C21.625 23.6576 22.9488 21.1761 23.287 20.0262C23.7055 18.6007 23.0857 16.3778 23.0857 16.3778L23.0849 16.3763Z" fill="#5345A8"/>
<path d="M54.6606 23.8178C55.5749 23.7702 56.6632 22.8688 57.5751 21.8053C60.0048 19.2087 61.7538 16.1278 63.7749 13.2408C64.2117 12.617 64.6298 11.9804 65.1462 11.2171C64.7979 11.3086 64.6188 11.349 64.4443 11.4026C61.8328 12.2045 59.2121 12.9752 56.6142 13.8229C54.6744 14.4552 52.7857 15.1824 51.0662 16.3853C49.7841 17.2823 49.7869 18.5147 49.8827 19.6524C50.0044 21.0995 51.3966 22.5934 52.1065 23.0966C52.9869 23.7199 54.6595 23.8181 54.6595 23.8181L54.6606 23.8178Z" fill="#685BB3"/>
<path d="M41.2328 23.5519C42.2315 22.9712 42.9331 21.3316 43.3433 19.612C44.5728 15.2959 44.759 10.829 45.3624 6.42277C45.4929 5.47064 45.595 4.5149 45.7344 3.36041C45.3961 3.66393 45.2185 3.81259 45.0535 3.97345C42.5848 6.37975 40.0877 8.75639 37.6606 11.2063C35.848 13.035 34.1475 14.9406 32.9112 17.2825C31.9895 19.0288 32.7036 20.4105 33.4673 21.6322C34.4385 23.1864 36.8628 24.0602 37.9499 24.2155C39.2976 24.4074 41.2316 23.5528 41.2316 23.5528L41.2328 23.5519Z" fill="#41358E"/>
<path d="M23.549 53.3793L23.549 53.3793L23.5486 53.3792C22.5183 53.1436 21.0666 52.8115 19.1833 51.754C17.2969 50.6948 14.9651 48.9002 12.2004 45.726L12.2004 45.726C8.75741 41.7742 7.97329 38.2753 7.33503 35.4256L7.04228 35.4912L7.33503 35.4256C7.32968 35.4017 7.32433 35.3778 7.31899 35.354C6.85262 33.2712 6.44851 31.4664 4.94385 30.3909C4.82599 30.2546 4.71328 30.0174 4.61756 29.6818C4.51923 29.337 4.44797 28.9222 4.39828 28.4812C4.31317 27.7258 4.2939 26.9172 4.30152 26.3H63.6984C63.7063 26.9171 63.6872 27.7258 63.6021 28.4812C63.5524 28.9222 63.4811 29.337 63.3827 29.6817C63.2868 30.0173 63.174 30.2546 63.0559 30.3908C61.5526 31.4653 61.1487 33.267 60.6821 35.3481L60.6647 35.4255L60.6647 35.4256C60.0264 38.2752 59.2414 41.7733 55.7993 45.726C53.0346 48.8998 50.7026 50.6943 48.8161 51.7537C46.9325 52.8114 45.4806 53.1437 44.4508 53.3793L44.4507 53.3793L44.5176 53.6718L44.4507 53.3793L44.4038 53.3901C43.7626 53.5367 43.1807 53.6698 42.7454 53.9586C42.3541 54.2181 42.0343 54.5801 41.7293 54.9253L41.7077 54.9497L41.7075 54.95C41.1811 55.5469 40.5864 56.22 39.4712 56.7548C38.3509 57.292 36.681 57.7 33.9999 57.7C31.3187 57.7 29.6485 57.2922 28.5282 56.7551C27.4129 56.2205 26.8181 55.5473 26.2924 54.9502L26.2887 54.946C25.9782 54.5928 25.6531 54.2231 25.2543 53.9586C24.819 53.6698 24.2372 53.5368 23.5959 53.3901L23.549 53.3793Z" fill="#E478E4" stroke="#BA61BA" stroke-width="0.6"/>
<path d="M26.2212 55.1857L26.222 55.1874C26.2237 55.1909 26.2268 55.1973 26.2315 55.2065C26.2409 55.2248 26.2565 55.2539 26.2792 55.2924C26.3247 55.3693 26.3986 55.4834 26.5082 55.6226C26.7273 55.9006 27.0898 56.2797 27.6546 56.662C28.7816 57.4249 30.7338 58.2137 33.9991 58.2137C37.2645 58.2137 39.2167 57.4249 40.3437 56.662C40.9085 56.2797 41.271 55.9006 41.49 55.6226C41.5997 55.4834 41.6736 55.3693 41.7191 55.2924C41.7418 55.2539 41.7574 55.2248 41.7668 55.2065C41.7691 55.2019 41.7711 55.198 41.7727 55.1948C41.7742 55.1916 41.7754 55.1891 41.7763 55.1874L41.7771 55.1857C41.7772 55.1855 41.7772 55.1854 41.7773 55.1852M26.2212 55.1857L42.0514 55.3072C41.7771 55.1857 41.7772 55.1855 41.7773 55.1852M26.2212 55.1857C26.2211 55.1855 26.2211 55.1854 26.221 55.1852C26.221 55.1852 26.221 55.1852 26.221 55.1852C26.2209 55.1851 26.2209 55.185 26.2208 55.1849L26.2206 55.1844C26.2206 55.1844 26.2206 55.1843 26.2206 55.1843C26.213 55.1674 26.2038 55.1511 26.1932 55.1359C25.4012 53.9979 25.3 52.4813 25.3 50.8539V42.9365C25.3 39.0067 28.3757 35.8137 32.1053 35.8137H35.8947C39.6251 35.8137 42.7 39.0075 42.7 42.9365V50.8539C42.7 52.433 42.5706 53.9918 41.8201 55.1162M26.2212 55.1857L41.8201 55.1162M41.7773 55.1852C41.7885 55.16 41.803 55.1368 41.8201 55.1162M41.7773 55.1852L41.8201 55.1162" fill="#D35ED3" stroke="#B851B8" stroke-width="0.6" stroke-linecap="round" stroke-linejoin="round"/>
<path d="M3.30829 26.3H64.6917C64.6945 26.3946 64.6972 26.5099 64.6987 26.6418C64.7031 27.0258 64.6977 27.5469 64.6588 28.0978C64.6197 28.6504 64.5476 29.2237 64.4215 29.7155C64.3085 30.156 64.1615 30.4933 63.987 30.7H4.01302C3.83853 30.4933 3.69148 30.156 3.57853 29.7155C3.45243 29.2237 3.38028 28.6504 3.34123 28.0978C3.30231 27.5469 3.29689 27.0258 3.30128 26.6418C3.30279 26.5099 3.30545 26.3946 3.30829 26.3Z" fill="#D35ED3" stroke="#B851B8" stroke-width="0.6" stroke-linecap="round" stroke-linejoin="round"/>
<path d="M1.69969 18.3H66.3003C67.0652 18.3 67.7 18.9408 67.7 19.7497V24.2503C67.7 25.0592 67.0652 25.7 66.3003 25.7H1.69969C0.934797 25.7 0.3 25.0592 0.3 24.2503V19.7497C0.3 18.9408 0.934797 18.3 1.69969 18.3Z" fill="#E478E4" stroke="#BA61BA" stroke-width="0.6"/>
<path d="M43.6797 31.0488C43.6692 36.4349 39.3249 40.7977 33.9807 40.7977C28.6364 40.7977 24.3091 36.4349 24.3195 31.0488C24.33 25.6628 28.6743 21.3 34.0186 21.3C39.3628 21.3 43.6902 25.6628 43.6797 31.0488Z" fill="#F3FF70" stroke="#FDFFCC" stroke-width="0.6"/>
<mask id="mask0_2103_9502" style="mask-type:luminance" maskUnits="userSpaceOnUse" x="24" y="21" width="20" height="20">
<path d="M33.8307 40.8356C39.26 40.8356 43.6614 36.3953 43.6614 30.9178C43.6614 25.4404 39.26 21 33.8307 21C28.4013 21 24 25.4404 24 30.9178C24 36.3953 28.4013 40.8356 33.8307 40.8356Z" fill="white"/>
</mask>
<g mask="url(#mask0_2103_9502)">
<path d="M23.8711 33.6006L38.1254 21.2036" stroke="#FDFFCC" stroke-width="2" stroke-miterlimit="10"/>
<path d="M27.0586 37.8035L41.8042 25.104" stroke="#FDFFCC" stroke-width="6" stroke-miterlimit="10"/>
</g>
</g>
<defs>
<clipPath id="clip0_2103_9502">
<rect width="68" height="58" fill="white" transform="translate(0 0.513672)"/>
</clipPath>
</defs>
</svg>
