<svg width="68" height="59" viewBox="0 0 68 59" fill="none" xmlns="http://www.w3.org/2000/svg">
<g clip-path="url(#clip0_2103_9521)">
<path d="M17.8105 2.82469C18.3717 4.51916 18.8646 6.12973 19.439 7.71244C20.2088 9.83447 21.0266 11.9398 21.8659 14.0365C21.978 14.3171 22.302 14.5807 22.588 14.7179C23.4362 15.1254 24.3559 15.3887 25.1723 15.8501C26.3702 16.528 27.4905 17.3513 28.6698 18.0673C29.0856 18.32 29.1831 18.5602 29.0473 19.0086C28.5837 20.538 28.1735 22.0865 27.6911 23.6091C27.6148 23.8497 27.2983 24.1197 27.0468 24.1677C25.7185 24.4204 24.3697 24.5747 23.0423 24.8298C22.4731 24.9394 22.2745 24.7434 22.0913 24.2248C20.9087 20.8778 19.6758 17.5472 18.5029 14.1972C18.2228 13.3972 17.8372 12.9304 16.9476 12.8962C16.5635 12.8818 16.1489 12.666 15.8015 12.4501C14.37 11.5621 12.9703 10.6202 11.5335 9.74111C11.0581 9.45025 10.9523 9.17426 11.1162 8.65327C11.5771 7.1851 11.9634 5.69184 12.4238 4.22301C12.5042 3.96516 12.7676 3.63181 13.0004 3.58934C14.5594 3.30082 16.1326 3.08165 17.8095 2.82336L17.8105 2.82469Z" fill="#730041"/>
<path d="M39.3511 20.767C40.8466 19.6209 42.2825 18.5719 43.6614 17.4511C45.5102 15.9486 47.3251 14.4038 49.1237 12.8405C49.3645 12.6315 49.5123 12.2163 49.5473 11.8827C49.6515 10.8933 49.5857 9.88202 49.7553 8.90583C50.0049 7.47314 50.428 6.06785 50.7224 4.64064C50.8264 4.1373 51.032 3.95688 51.5297 3.93809C53.2269 3.87452 54.9241 3.75081 56.6213 3.70831C56.8895 3.70164 57.2732 3.92525 57.4113 4.16043C58.14 5.40261 58.7776 6.69923 59.5085 7.93975C59.822 8.4716 59.6969 8.73791 59.2433 9.10021C56.3159 11.4384 53.4229 13.8212 50.4891 16.1507C49.7884 16.7071 49.4592 17.254 49.7436 18.1561C49.8667 18.5455 49.7991 19.0349 49.7075 19.4571C49.3311 21.1961 48.8893 22.9218 48.5238 24.663C48.4029 25.2391 48.1644 25.4402 47.5842 25.456C45.9492 25.5012 44.3158 25.6297 42.6803 25.6756C42.3934 25.6841 41.9653 25.5355 41.8394 25.3172C40.9922 23.8564 40.2093 22.3577 39.3501 20.7685L39.3511 20.767Z" fill="#8C004F"/>
<path d="M30.5376 22.7797C28.4818 21.8579 26.5622 20.9442 24.5992 20.13C21.9675 19.0381 19.3104 18.0052 16.643 16.9996C16.2862 16.8648 15.7646 16.9418 15.3932 17.0912C14.2909 17.5335 13.2619 18.1653 12.1365 18.5321C10.4845 19.0696 8.76309 19.411 7.09144 19.8987C6.50179 20.0705 6.19507 19.9565 5.89332 19.4479C4.86463 17.7127 3.77255 16.0111 2.7661 14.2643C2.60715 13.9883 2.62548 13.4634 2.79519 13.1884C3.69203 11.7364 4.69791 10.3491 5.59176 8.89579C5.97488 8.2725 6.32656 8.25471 6.96555 8.52609C11.0895 10.2777 15.2411 11.9685 19.3596 13.7317C20.3432 14.1527 21.1064 14.1916 21.8964 13.3925C22.2372 13.0472 22.7915 12.8451 23.2885 12.7056C25.3354 12.1298 27.4052 11.6294 29.4482 11.041C30.1241 10.8463 30.4713 10.983 30.8167 11.5796C31.7907 13.26 32.8517 14.8923 33.8268 16.5729C33.9983 16.8675 34.0842 17.3968 33.9253 17.6498C32.8652 19.3471 31.7285 20.9985 30.5397 22.7799L30.5376 22.7797Z" fill="#932061"/>
<path d="M5.73861 22.7979C7.5936 21.5153 9.3711 20.3453 11.0859 19.0865C13.3851 17.3991 15.647 15.6593 17.8909 13.8966C18.1912 13.661 18.3957 13.1745 18.4604 12.779C18.653 11.6058 18.6455 10.3971 18.9147 9.24339C19.3109 7.55016 19.911 5.89921 20.3599 4.215C20.5185 3.62104 20.7751 3.4175 21.3671 3.42279C23.3861 3.44143 25.4093 3.38843 27.4268 3.4322C27.7455 3.43916 28.1854 3.72694 28.333 4.01485C29.1114 5.5355 29.7778 7.11595 30.5589 8.63473C30.894 9.2859 30.7269 9.59625 30.1633 10.0027C26.5256 12.6259 22.9256 15.3043 19.2808 17.9169C18.4104 18.5409 17.9815 19.1742 18.2562 20.2649C18.3752 20.7357 18.2609 21.3151 18.1227 21.813C17.5547 23.8642 16.9101 25.8959 16.3549 27.9503C16.1712 28.63 15.8742 28.8564 15.1843 28.8429C13.2405 28.8058 11.2927 28.8681 9.34824 28.8319C9.00705 28.826 8.5093 28.6252 8.37507 28.358C7.47123 26.5703 6.64645 24.7409 5.73734 22.7995L5.73861 22.7979Z" fill="#860F52"/>
<path d="M48.942 3.23662C48.9846 5.10615 48.9846 6.87068 49.0747 8.6323C49.1952 10.9941 49.369 13.3539 49.5668 15.7117C49.5931 16.0271 49.8369 16.3905 50.0813 16.6156C50.806 17.2839 51.6466 17.8297 52.323 18.5423C53.3151 19.5886 54.185 20.7569 55.1468 21.8357C55.4859 22.2163 55.5099 22.4869 55.2363 22.8945C54.3029 24.2844 53.4172 25.7098 52.4671 27.0872C52.317 27.3048 51.9171 27.4783 51.6504 27.4492C50.2423 27.2951 48.8439 27.0361 47.4358 26.8847C46.832 26.8199 46.6933 26.5627 46.6687 25.987C46.5103 22.2715 46.2965 18.557 46.1487 14.8415C46.1133 13.9541 45.8702 13.3683 44.9895 13.0613C44.6092 12.9291 44.26 12.5858 43.9781 12.263C42.8164 10.9345 41.7031 9.56175 40.5333 8.24058C40.1463 7.80345 40.1249 7.49453 40.4488 7.02285C41.3607 5.69344 42.2055 4.31599 43.1171 2.98576C43.2767 2.7521 43.6428 2.49892 43.889 2.52776C45.5393 2.71676 47.1824 2.97955 48.9415 3.23499L48.942 3.23662Z" fill="#681C47"/>
<path d="M61.064 23.8377C59.0371 22.6909 57.1498 21.5655 55.2081 20.5383C52.605 19.1609 49.9702 17.8417 47.322 16.5495C46.9679 16.3765 46.4237 16.4054 46.027 16.5233C44.8499 16.8722 43.73 17.4232 42.5366 17.6922C40.7846 18.0861 38.9801 18.2714 37.2128 18.6121C36.5894 18.7321 36.2848 18.5852 36.0233 18.0326C35.1319 16.1478 34.1721 14.2913 33.3048 12.3965C33.1678 12.0972 33.2373 11.5588 33.4385 11.2921C34.5014 9.88431 35.6704 8.55366 36.7304 7.14419C37.1847 6.53969 37.5484 6.55528 38.1798 6.89618C42.2549 9.09643 46.3644 11.2368 50.4328 13.4484C51.4045 13.9765 52.1862 14.0902 53.0762 13.3439C53.4602 13.0215 54.0501 12.8669 54.5751 12.7713C56.7371 12.376 58.9155 12.0607 61.0747 11.6521C61.7891 11.5169 62.1331 11.6911 62.4311 12.3384C63.2714 14.1617 64.2059 15.9438 65.0474 17.7673C65.1955 18.087 65.2328 18.64 65.0449 18.885C63.7903 20.5296 62.4612 22.1195 61.0661 23.8381L61.064 23.8377Z" fill="#510A32"/>
<path d="M23.549 53.3793L23.549 53.3793L23.5486 53.3792C22.5183 53.1436 21.0666 52.8115 19.1833 51.754C17.2969 50.6948 14.9651 48.9002 12.2004 45.726L12.2004 45.726C8.75741 41.7742 7.97329 38.2753 7.33503 35.4256L7.04228 35.4912L7.33503 35.4256C7.32968 35.4017 7.32433 35.3778 7.31899 35.354C6.85262 33.2712 6.44851 31.4664 4.94385 30.3909C4.82599 30.2546 4.71328 30.0174 4.61756 29.6818C4.51923 29.337 4.44797 28.9222 4.39828 28.4812C4.31317 27.7258 4.2939 26.9172 4.30152 26.3H63.6984C63.7063 26.9171 63.6872 27.7258 63.6021 28.4812C63.5524 28.9222 63.4811 29.337 63.3827 29.6817C63.2868 30.0173 63.174 30.2546 63.0559 30.3908C61.5526 31.4653 61.1487 33.267 60.6821 35.3481L60.6647 35.4255L60.6647 35.4256C60.0264 38.2752 59.2414 41.7733 55.7993 45.726C53.0346 48.8998 50.7026 50.6943 48.8161 51.7537C46.9325 52.8114 45.4806 53.1437 44.4508 53.3793L44.4507 53.3793L44.5176 53.6718L44.4507 53.3793L44.4038 53.3901C43.7626 53.5367 43.1807 53.6698 42.7454 53.9586C42.3541 54.2181 42.0343 54.5801 41.7293 54.9253L41.7077 54.9497L41.7075 54.95C41.1811 55.5469 40.5864 56.22 39.4712 56.7548C38.3509 57.292 36.681 57.7 33.9999 57.7C31.3187 57.7 29.6485 57.2922 28.5282 56.7551C27.4129 56.2205 26.8181 55.5473 26.2924 54.9502L26.2887 54.946C25.9782 54.5928 25.6531 54.2231 25.2543 53.9586C24.819 53.6698 24.2372 53.5368 23.5959 53.3901L23.549 53.3793Z" fill="#E478E4" stroke="#BA61BA" stroke-width="0.6"/>
<path d="M26.2212 55.1857L26.222 55.1874C26.2237 55.1909 26.2268 55.1973 26.2315 55.2065C26.2409 55.2248 26.2565 55.2539 26.2792 55.2924C26.3247 55.3693 26.3986 55.4834 26.5082 55.6226C26.7273 55.9006 27.0898 56.2797 27.6546 56.662C28.7816 57.4249 30.7338 58.2137 33.9991 58.2137C37.2645 58.2137 39.2167 57.4249 40.3437 56.662C40.9085 56.2797 41.271 55.9006 41.49 55.6226C41.5997 55.4834 41.6736 55.3693 41.7191 55.2924C41.7418 55.2539 41.7574 55.2248 41.7668 55.2065C41.7691 55.2019 41.7711 55.198 41.7727 55.1948C41.7742 55.1916 41.7754 55.1891 41.7763 55.1874L41.7771 55.1857C41.7772 55.1855 41.7772 55.1854 41.7773 55.1852M26.2212 55.1857L42.0514 55.3072C41.7771 55.1857 41.7772 55.1855 41.7773 55.1852M26.2212 55.1857C26.2211 55.1855 26.2211 55.1854 26.221 55.1852C26.221 55.1852 26.221 55.1852 26.221 55.1852C26.2209 55.1851 26.2209 55.185 26.2208 55.1849L26.2206 55.1844C26.2206 55.1844 26.2206 55.1843 26.2206 55.1843C26.213 55.1674 26.2038 55.1511 26.1932 55.1359C25.4012 53.9979 25.3 52.4813 25.3 50.8539V42.9365C25.3 39.0067 28.3757 35.8137 32.1053 35.8137H35.8947C39.6251 35.8137 42.7 39.0075 42.7 42.9365V50.8539C42.7 52.433 42.5706 53.9918 41.8201 55.1162M26.2212 55.1857L41.8201 55.1162M41.7773 55.1852C41.7885 55.16 41.803 55.1368 41.8201 55.1162M41.7773 55.1852L41.8201 55.1162" fill="#D35ED3" stroke="#B851B8" stroke-width="0.6" stroke-linecap="round" stroke-linejoin="round"/>
<path d="M3.30829 26.3H64.6917C64.6945 26.3946 64.6972 26.5099 64.6987 26.6418C64.7031 27.0258 64.6977 27.5469 64.6588 28.0978C64.6197 28.6504 64.5476 29.2237 64.4215 29.7155C64.3085 30.156 64.1615 30.4933 63.987 30.7H4.01302C3.83853 30.4933 3.69148 30.156 3.57853 29.7155C3.45243 29.2237 3.38028 28.6504 3.34123 28.0978C3.30231 27.5469 3.29689 27.0258 3.30128 26.6418C3.30279 26.5099 3.30545 26.3946 3.30829 26.3Z" fill="#D35ED3" stroke="#B851B8" stroke-width="0.6" stroke-linecap="round" stroke-linejoin="round"/>
<path d="M1.69969 18.3H66.3003C67.0652 18.3 67.7 18.9408 67.7 19.7497V24.2503C67.7 25.0592 67.0652 25.7 66.3003 25.7H1.69969C0.934797 25.7 0.3 25.0592 0.3 24.2503V19.7497C0.3 18.9408 0.934797 18.3 1.69969 18.3Z" fill="#E478E4" stroke="#BA61BA" stroke-width="0.6"/>
<path d="M43.6797 31.0488C43.6692 36.4349 39.3249 40.7977 33.9807 40.7977C28.6364 40.7977 24.3091 36.4349 24.3195 31.0488C24.33 25.6628 28.6743 21.3 34.0186 21.3C39.3628 21.3 43.6902 25.6628 43.6797 31.0488Z" fill="#F3FF70" stroke="#FDFFCC" stroke-width="0.6"/>
<mask id="mask0_2103_9521" style="mask-type:luminance" maskUnits="userSpaceOnUse" x="24" y="21" width="20" height="20">
<path d="M33.8307 40.8356C39.26 40.8356 43.6614 36.3953 43.6614 30.9178C43.6614 25.4404 39.26 21 33.8307 21C28.4013 21 24 25.4404 24 30.9178C24 36.3953 28.4013 40.8356 33.8307 40.8356Z" fill="white"/>
</mask>
<g mask="url(#mask0_2103_9521)">
<path d="M23.8711 33.6006L38.1254 21.2036" stroke="#FDFFCC" stroke-width="2" stroke-miterlimit="10"/>
<path d="M27.0586 37.8035L41.8042 25.104" stroke="#FDFFCC" stroke-width="6" stroke-miterlimit="10"/>
</g>
</g>
<defs>
<clipPath id="clip0_2103_9521">
<rect width="68" height="58" fill="white" transform="translate(0 0.513672)"/>
</clipPath>
</defs>
</svg>
