<svg width="68" height="59" viewBox="0 0 68 59" fill="none" xmlns="http://www.w3.org/2000/svg">
<g clip-path="url(#clip0_2103_9749)">
<path d="M30.8767 22.7656C32.0647 22.6012 33.3844 21.303 34.4558 19.8131C37.337 16.1523 39.2755 11.9356 41.5909 7.94154C42.0913 7.07851 42.5659 6.20083 43.1545 5.14695C42.7101 5.30521 42.481 5.37801 42.2591 5.46751C38.9402 6.80597 35.6057 8.10476 32.3096 9.50152C29.8484 10.5437 27.4644 11.7039 25.3545 13.466C23.7813 14.7801 23.9228 16.3884 24.175 17.8626C24.4955 19.7379 26.4796 21.5321 27.4625 22.1096C28.6811 22.8248 30.8752 22.766 30.8752 22.766L30.8767 22.7656Z" fill="#483F84"/>
<path d="M63.4404 16.952C63.3406 15.8056 62.1605 14.4779 60.7847 13.3789C57.4162 10.4402 53.4693 8.378 49.7541 5.96532C48.9513 5.44392 48.1332 4.94655 47.1518 4.33132C47.2819 4.76487 47.3406 4.98801 47.4156 5.20494C48.5373 8.45044 49.6202 11.709 50.7988 14.9355C51.6782 17.3446 52.6744 19.6855 54.2607 21.793C55.4437 23.3643 56.9918 23.3067 58.4168 23.1366C60.2295 22.9204 62.0451 21.1061 62.6462 20.1922C63.3907 19.059 63.4408 16.9535 63.4408 16.9535L63.4404 16.952Z" fill="#685BB3"/>
<path d="M18.011 15.6237C17.8075 14.5023 16.5221 13.3012 15.0646 12.3434C11.4736 9.75418 7.3925 8.08219 3.5077 6.04339C2.66827 5.60277 1.81597 5.18726 0.791805 4.67049C0.959837 5.0861 1.03812 5.30077 1.13196 5.50782C2.53547 8.60555 3.90192 11.7197 5.35987 14.7935C6.44777 17.0886 7.64466 19.3057 9.4021 21.2386C10.7127 22.6798 12.234 22.4812 13.6237 22.1828C15.3914 21.8035 17.0157 19.848 17.5246 18.8917C18.155 17.706 18.0115 15.6251 18.0115 15.6251L18.011 15.6237Z" fill="#41358E"/>
<path d="M47.5444 8.09372C46.3045 8.278 44.939 9.64873 43.8349 11.2172C40.8624 15.0737 38.8809 19.5011 36.5032 23.6999C35.9893 24.6071 35.5026 25.5294 34.8985 26.6371C35.3613 26.467 35.6 26.3885 35.8309 26.2926C39.2855 24.8587 42.7568 23.4661 46.1869 21.9715C48.7482 20.8563 51.2274 19.6186 53.414 17.7546C55.0443 16.3646 54.8795 14.6853 54.6004 13.1472C54.2456 11.1906 52.153 9.3364 51.1197 8.74327C49.8385 8.00865 47.5459 8.09328 47.5459 8.09328L47.5444 8.09372Z" fill="#5544C0"/>
<path d="M15.1132 13.1213C14.8913 14.1066 15.5243 15.5311 16.3821 16.8167C18.4159 20.1713 21.1669 22.9472 23.6308 25.9545C24.1632 26.6043 24.7147 27.2382 25.3715 28.0141C25.3782 27.6169 25.3886 27.4147 25.3837 27.2133C25.3103 24.2006 25.2729 21.1873 25.1469 18.1753C25.0534 15.9265 24.844 13.7037 24.0789 11.5189C23.5083 9.88973 22.1985 9.52547 20.9616 9.28811C19.3882 8.98599 17.3866 10.0194 16.6405 10.6235C15.7161 11.3727 15.1133 13.12 15.1133 13.12L15.1132 13.1213Z" fill="#5F5697"/>
<path d="M42.1806 13.9524C41.8018 13.0378 40.49 12.2544 39.0768 11.7091C35.5527 10.1708 31.781 9.50121 28.1087 8.48417C27.3151 8.26435 26.5153 8.0682 25.5509 7.81766C25.7699 8.13961 25.8758 8.30746 25.9935 8.46598C27.7541 10.8378 29.4861 13.2303 31.2885 15.5718C32.6337 17.3203 34.057 18.9825 35.904 20.3005C37.2813 21.2832 38.5363 20.835 39.6612 20.3265C41.0921 19.6797 42.1117 17.7213 42.3681 16.816C42.6854 15.6936 42.1812 13.9535 42.1812 13.9535L42.1806 13.9524Z" fill="#5345A8"/>
<path d="M23.549 53.3793L23.549 53.3793L23.5486 53.3792C22.5183 53.1436 21.0666 52.8115 19.1833 51.754C17.2969 50.6948 14.9651 48.9002 12.2004 45.726L12.2004 45.726C8.75741 41.7742 7.97329 38.2753 7.33503 35.4256L7.04228 35.4912L7.33503 35.4256C7.32968 35.4017 7.32433 35.3778 7.31899 35.354C6.85262 33.2712 6.44851 31.4664 4.94385 30.3909C4.82599 30.2546 4.71328 30.0174 4.61756 29.6818C4.51923 29.337 4.44797 28.9222 4.39828 28.4812C4.31317 27.7258 4.2939 26.9172 4.30152 26.3H63.6984C63.7063 26.9171 63.6872 27.7258 63.6021 28.4812C63.5524 28.9222 63.4811 29.337 63.3827 29.6817C63.2868 30.0173 63.174 30.2546 63.0559 30.3908C61.5526 31.4653 61.1487 33.267 60.6821 35.3481L60.6647 35.4255L60.6647 35.4256C60.0264 38.2752 59.2414 41.7733 55.7993 45.726C53.0346 48.8998 50.7026 50.6943 48.8161 51.7537C46.9325 52.8114 45.4806 53.1437 44.4508 53.3793L44.4507 53.3793L44.5176 53.6718L44.4507 53.3793L44.4038 53.3901C43.7626 53.5367 43.1807 53.6698 42.7454 53.9586C42.3541 54.2181 42.0343 54.5801 41.7293 54.9253L41.7077 54.9497L41.7075 54.95C41.1811 55.5469 40.5864 56.22 39.4712 56.7548C38.3509 57.292 36.681 57.7 33.9999 57.7C31.3187 57.7 29.6485 57.2922 28.5282 56.7551C27.4129 56.2205 26.8181 55.5473 26.2924 54.9502L26.2887 54.946C25.9782 54.5928 25.6531 54.2231 25.2543 53.9586C24.819 53.6698 24.2372 53.5368 23.5959 53.3901L23.549 53.3793Z" fill="#EC7777" stroke="#C96464" stroke-width="0.6"/>
<path d="M26.2212 55.1857L26.222 55.1874C26.2237 55.1909 26.2268 55.1973 26.2315 55.2065C26.2409 55.2248 26.2565 55.2539 26.2792 55.2924C26.3247 55.3693 26.3986 55.4834 26.5082 55.6226C26.7273 55.9006 27.0898 56.2797 27.6546 56.662C28.7816 57.4249 30.7338 58.2137 33.9991 58.2137C37.2645 58.2137 39.2167 57.4249 40.3437 56.662C40.9085 56.2797 41.271 55.9006 41.49 55.6226C41.5997 55.4834 41.6736 55.3693 41.7191 55.2924C41.7418 55.2539 41.7574 55.2248 41.7668 55.2065C41.7691 55.2019 41.7711 55.198 41.7727 55.1948C41.7742 55.1916 41.7754 55.1891 41.7763 55.1874L41.7771 55.1857C41.7772 55.1855 41.7772 55.1854 41.7773 55.1852M26.2212 55.1857L42.0514 55.3072C41.7771 55.1857 41.7772 55.1855 41.7773 55.1852M26.2212 55.1857C26.2211 55.1855 26.2211 55.1854 26.221 55.1852C26.221 55.1852 26.221 55.1852 26.221 55.1852C26.2209 55.1851 26.2209 55.185 26.2208 55.1849L26.2206 55.1844C26.2206 55.1844 26.2206 55.1843 26.2206 55.1843C26.213 55.1674 26.2038 55.1511 26.1932 55.1359C25.4012 53.9979 25.3 52.4813 25.3 50.8539V42.9365C25.3 39.0067 28.3757 35.8137 32.1053 35.8137H35.8947C39.6251 35.8137 42.7 39.0075 42.7 42.9365V50.8539C42.7 52.433 42.5706 53.9918 41.8201 55.1162M26.2212 55.1857L41.8201 55.1162M41.7773 55.1852C41.7885 55.16 41.803 55.1368 41.8201 55.1162M41.7773 55.1852L41.8201 55.1162" fill="#CB6363" stroke="#A85050" stroke-width="0.6" stroke-linecap="round" stroke-linejoin="round"/>
<path d="M3.30829 26.3H64.6917C64.6945 26.3946 64.6972 26.5099 64.6987 26.6418C64.7031 27.0258 64.6977 27.5469 64.6588 28.0978C64.6197 28.6504 64.5476 29.2237 64.4215 29.7155C64.3085 30.156 64.1615 30.4933 63.987 30.7H4.01302C3.83853 30.4933 3.69148 30.156 3.57853 29.7155C3.45243 29.2237 3.38028 28.6504 3.34123 28.0978C3.30231 27.5469 3.29689 27.0258 3.30128 26.6418C3.30279 26.5099 3.30545 26.3946 3.30829 26.3Z" fill="#CB6363" stroke="#A85050" stroke-width="0.6" stroke-linecap="round" stroke-linejoin="round"/>
<path d="M1.69969 18.3H66.3003C67.0652 18.3 67.7 18.9408 67.7 19.7497V24.2503C67.7 25.0592 67.0652 25.7 66.3003 25.7H1.69969C0.934797 25.7 0.3 25.0592 0.3 24.2503V19.7497C0.3 18.9408 0.934797 18.3 1.69969 18.3Z" fill="#EC7777" stroke="#C96464" stroke-width="0.6"/>
<path d="M43.6797 31.0488C43.6692 36.4349 39.3249 40.7977 33.9807 40.7977C28.6364 40.7977 24.3091 36.4349 24.3195 31.0488C24.33 25.6628 28.6743 21.3 34.0186 21.3C39.3628 21.3 43.6902 25.6628 43.6797 31.0488Z" fill="#F3FF70" stroke="#FDFFCC" stroke-width="0.6"/>
<mask id="mask0_2103_9749" style="mask-type:luminance" maskUnits="userSpaceOnUse" x="24" y="21" width="20" height="20">
<path d="M33.8307 40.8356C39.26 40.8356 43.6614 36.3953 43.6614 30.9178C43.6614 25.4404 39.26 21 33.8307 21C28.4013 21 24 25.4404 24 30.9178C24 36.3953 28.4013 40.8356 33.8307 40.8356Z" fill="white"/>
</mask>
<g mask="url(#mask0_2103_9749)">
<path d="M23.8711 33.6006L38.1254 21.2036" stroke="#FDFFCC" stroke-width="2" stroke-miterlimit="10"/>
<path d="M27.0586 37.8035L41.8042 25.104" stroke="#FDFFCC" stroke-width="6" stroke-miterlimit="10"/>
</g>
</g>
<defs>
<clipPath id="clip0_2103_9749">
<rect width="68" height="58" fill="white" transform="translate(0 0.513672)"/>
</clipPath>
</defs>
</svg>
