<svg width="68" height="59" viewBox="0 0 68 59" fill="none" xmlns="http://www.w3.org/2000/svg">
<g clip-path="url(#clip0_2103_9863)">
<path d="M36.1914 13.2342C35.9645 12.0565 34.5984 10.8073 33.0539 9.81613C29.2459 7.13249 24.9327 5.4196 20.8218 3.31851C19.9335 2.86443 19.032 2.43691 17.9485 1.9048C18.13 2.34021 18.2148 2.5652 18.3159 2.78199C19.8279 6.02552 21.3012 9.28673 22.8702 12.5044C24.041 14.9071 25.3256 17.2264 27.1968 19.2402C28.5922 20.7418 30.1907 20.5154 31.6496 20.1857C33.5053 19.7665 35.1921 17.6904 35.7168 16.6783C36.3666 15.4236 36.1919 13.2356 36.1919 13.2356L36.1914 13.2342Z" fill="#483F84"/>
<path d="M49.1542 19.0771C49.443 17.9631 48.7741 16.3175 47.8442 14.8221C45.6507 10.9272 42.6192 7.66521 39.923 4.15026C39.3405 3.39068 38.7355 2.64865 38.0159 1.74098C37.9937 2.19309 37.9745 2.42301 37.9728 2.65252C37.9461 6.08629 37.8785 9.51938 37.9119 12.9543C37.9362 15.5188 38.0934 18.0579 38.8848 20.5742C39.475 22.4504 40.9535 22.9132 42.3535 23.2287C44.1343 23.6303 46.4516 22.5266 47.3234 21.8659C48.4036 21.0464 49.154 19.0785 49.154 19.0785L49.1542 19.0771Z" fill="#685BB3"/>
<path d="M5.04079 16.0539C5.32141 17.1585 6.68681 18.2678 8.2071 19.1224C11.9687 21.4569 16.1557 22.8425 20.1723 24.6076C21.0402 24.9891 21.9192 25.3446 22.9767 25.7892C22.7803 25.3863 22.6873 25.1775 22.5794 24.9775C20.9649 21.9843 19.3862 18.9722 17.7191 16.0067C16.4749 13.7923 15.1275 11.6633 13.2405 9.85665C11.8333 8.50963 10.3294 8.81308 8.9637 9.20688C7.22646 9.70759 5.74142 11.7708 5.29984 12.7601C4.75305 13.9865 5.04024 16.0525 5.04024 16.0525L5.04079 16.0539Z" fill="#41358E"/>
<path d="M55.061 24.7264C56.2699 24.3951 57.4616 22.8707 58.37 21.1814C60.8596 16.9969 62.2968 12.3641 64.155 7.91092C64.5565 6.94867 64.9294 5.97475 65.3965 4.80275C64.9574 5.02702 64.7298 5.13353 64.5121 5.25635C61.254 7.09344 57.9743 8.89151 54.7477 10.7859C52.3383 12.1997 50.025 13.7253 48.0773 15.8375C46.6251 17.4126 46.9897 19.0602 47.4509 20.5538C48.0374 22.4538 50.3368 24.0443 51.4337 24.5095C52.7936 25.0854 55.0595 24.727 55.0595 24.727L55.061 24.7264Z" fill="#5544C0"/>
<path d="M22.8748 21.5239C24.3199 21.6313 26.2083 20.4326 27.8522 18.9445C32.1849 15.3512 35.5451 10.8619 39.294 6.7314C40.1042 5.83889 40.8876 4.92253 41.8504 3.82697C41.2853 3.90114 40.9961 3.92897 40.7113 3.97839C36.4509 4.71718 32.1822 5.40512 27.9339 6.21856C24.762 6.82503 21.6513 7.59055 18.7116 9.13666C16.5196 10.2897 16.2786 12.2255 16.2023 14.031C16.105 16.3277 17.9934 18.9508 19.0079 19.8824C20.2661 21.0366 22.8729 21.524 22.8729 21.524L22.8748 21.5239Z" fill="#5F5697"/>
<path d="M30.5793 16.0736C30.6688 17.0594 31.6881 18.1977 32.8751 19.1388C35.7818 21.656 39.1834 23.4175 42.3868 25.4811C43.079 25.9271 43.7843 26.3523 44.6304 26.8785C44.5171 26.5059 44.466 26.3142 44.4008 26.1278C43.4257 23.3396 42.4839 20.54 41.4599 17.7683C40.6959 15.6988 39.8316 13.6883 38.4604 11.8805C37.4379 10.5326 36.1064 10.587 34.8811 10.7378C33.3226 10.9295 31.7665 12.4959 31.2523 13.2839C30.6155 14.261 30.579 16.0723 30.579 16.0723L30.5793 16.0736Z" fill="#5345A8"/>
<path d="M23.549 53.3793L23.549 53.3793L23.5486 53.3792C22.5183 53.1436 21.0666 52.8115 19.1833 51.754C17.2969 50.6948 14.9651 48.9002 12.2004 45.726L12.2004 45.726C8.75741 41.7742 7.97329 38.2753 7.33503 35.4256L7.04228 35.4912L7.33503 35.4256C7.32968 35.4017 7.32433 35.3778 7.319 35.354C6.85262 33.2712 6.44851 31.4664 4.94385 30.3909C4.82599 30.2546 4.71328 30.0174 4.61756 29.6818C4.51923 29.337 4.44797 28.9222 4.39828 28.4812C4.31317 27.7258 4.2939 26.9172 4.30152 26.3H63.6984C63.7063 26.9171 63.6872 27.7258 63.6021 28.4812C63.5524 28.9222 63.4811 29.337 63.3827 29.6817C63.2868 30.0173 63.174 30.2546 63.0559 30.3908C61.5526 31.4653 61.1487 33.267 60.6821 35.3481L60.6647 35.4255L60.6647 35.4256C60.0264 38.2752 59.2415 41.7733 55.7993 45.726C53.0346 48.8998 50.7026 50.6943 48.8161 51.7537C46.9325 52.8114 45.4806 53.1437 44.4508 53.3793L44.4507 53.3793L44.5176 53.6718L44.4507 53.3793L44.4038 53.3901C43.7626 53.5367 43.1807 53.6698 42.7454 53.9586C42.3541 54.2181 42.0342 54.5802 41.7292 54.9254L41.7077 54.9497L41.7075 54.95C41.1811 55.5469 40.5864 56.22 39.4712 56.7548C38.3509 57.292 36.681 57.7 33.9999 57.7C31.3187 57.7 29.6485 57.2922 28.5282 56.7551C27.4129 56.2205 26.8181 55.5473 26.2924 54.9502L26.2887 54.946C25.9782 54.5928 25.6532 54.2231 25.2543 53.9586C24.819 53.6698 24.2372 53.5367 23.5959 53.3901L23.549 53.3793Z" fill="#D7D2CB" stroke="#B0ACA5" stroke-width="0.6"/>
<path d="M26.2212 55.1857L26.222 55.1874C26.2237 55.1909 26.2268 55.1973 26.2315 55.2065C26.2409 55.2248 26.2565 55.2539 26.2792 55.2924C26.3247 55.3693 26.3986 55.4834 26.5082 55.6226C26.7273 55.9006 27.0898 56.2797 27.6546 56.662C28.7816 57.4249 30.7338 58.2137 33.9991 58.2137C37.2645 58.2137 39.2167 57.4249 40.3437 56.662C40.9085 56.2797 41.271 55.9006 41.49 55.6226C41.5997 55.4834 41.6736 55.3693 41.7191 55.2924C41.7418 55.2539 41.7574 55.2248 41.7668 55.2065C41.7691 55.2019 41.7711 55.198 41.7727 55.1948C41.7742 55.1916 41.7754 55.1891 41.7763 55.1874L41.7771 55.1857C41.7772 55.1855 41.7772 55.1854 41.7773 55.1852M26.2212 55.1857L42.0514 55.3072C41.7771 55.1857 41.7772 55.1855 41.7773 55.1852M26.2212 55.1857C26.2211 55.1855 26.2211 55.1854 26.221 55.1852C26.221 55.1852 26.221 55.1852 26.221 55.1852C26.2209 55.1851 26.2209 55.185 26.2208 55.1849L26.2206 55.1844C26.2206 55.1844 26.2206 55.1843 26.2206 55.1843C26.213 55.1674 26.2038 55.1511 26.1932 55.1359C25.4012 53.9979 25.3 52.4813 25.3 50.8539V42.9365C25.3 39.0067 28.3757 35.8137 32.1053 35.8137H35.8947C39.6251 35.8137 42.7 39.0075 42.7 42.9365V50.8539C42.7 52.433 42.5706 53.9918 41.8201 55.1162M26.2212 55.1857L41.8201 55.1162M41.7773 55.1852C41.7885 55.16 41.803 55.1368 41.8201 55.1162M41.7773 55.1852L41.8201 55.1162" fill="#B0ADA7" stroke="#9A9790" stroke-width="0.6" stroke-linecap="round" stroke-linejoin="round"/>
<path d="M3.30829 26.3H64.6917C64.6945 26.3946 64.6972 26.5099 64.6987 26.6418C64.7031 27.0258 64.6977 27.5469 64.6588 28.0978C64.6197 28.6504 64.5476 29.2237 64.4215 29.7155C64.3085 30.156 64.1615 30.4933 63.987 30.7H4.01302C3.83853 30.4933 3.69148 30.156 3.57853 29.7155C3.45243 29.2237 3.38028 28.6504 3.34123 28.0978C3.30231 27.5469 3.29689 27.0258 3.30128 26.6418C3.30279 26.5099 3.30545 26.3946 3.30829 26.3Z" fill="#B0ADA7" stroke="#9A9790" stroke-width="0.6" stroke-linecap="round" stroke-linejoin="round"/>
<path d="M1.69969 18.3H66.3003C67.0652 18.3 67.7 18.9408 67.7 19.7497V24.2503C67.7 25.0592 67.0652 25.7 66.3003 25.7H1.69969C0.934797 25.7 0.3 25.0592 0.3 24.2503V19.7497C0.3 18.9408 0.934797 18.3 1.69969 18.3Z" fill="#D7D2CB" stroke="#B0ACA5" stroke-width="0.6"/>
<path d="M43.6797 31.0488C43.6692 36.4349 39.3249 40.7977 33.9807 40.7977C28.6364 40.7977 24.3091 36.4349 24.3195 31.0488C24.33 25.6628 28.6743 21.3 34.0186 21.3C39.3628 21.3 43.6902 25.6628 43.6797 31.0488Z" fill="#F3FF70" stroke="#FDFFCC" stroke-width="0.6"/>
<mask id="mask0_2103_9863" style="mask-type:luminance" maskUnits="userSpaceOnUse" x="24" y="21" width="20" height="20">
<path d="M33.8307 40.8356C39.26 40.8356 43.6614 36.3953 43.6614 30.9178C43.6614 25.4404 39.26 21 33.8307 21C28.4013 21 24 25.4404 24 30.9178C24 36.3953 28.4013 40.8356 33.8307 40.8356Z" fill="white"/>
</mask>
<g mask="url(#mask0_2103_9863)">
<path d="M23.8711 33.6006L38.1254 21.2036" stroke="#FDFFCC" stroke-width="2" stroke-miterlimit="10"/>
<path d="M27.0586 37.8035L41.8042 25.104" stroke="#FDFFCC" stroke-width="6" stroke-miterlimit="10"/>
</g>
</g>
<defs>
<clipPath id="clip0_2103_9863">
<rect width="68" height="58" fill="white" transform="translate(0 0.513672)"/>
</clipPath>
</defs>
</svg>
