<svg width="68" height="59" viewBox="0 0 68 59" fill="none" xmlns="http://www.w3.org/2000/svg">
<g clip-path="url(#clip0_2103_9901)">
<path d="M29.9776 5.41747C31.7359 6.31855 33.4071 7.16122 35.0595 8.04003C35.2576 8.14505 35.4129 8.42957 35.4916 8.664C36.8442 12.6933 38.4689 16.6549 39.7917 20.6941C39.3885 21.4855 39.2161 21.9042 38.9815 22.386C38.2165 24.0401 37.9114 24.8698 37.0786 26.7039C36.1326 26.2169 34.9855 25.5158 34.3798 25.1196C33.7428 24.7031 31.6836 23.3273 31.6836 23.3273C31.6836 23.3273 31.3167 22.5155 30.8607 21.1437C29.7905 17.9244 28.6913 14.7682 27.6087 11.579C27.2649 10.5447 27.3654 10.7891 27.6799 10.1429C28.4554 8.61287 29.1849 7.05794 29.9773 5.41912L29.9776 5.41747Z" fill="#A57E94"/>
<path d="M15.3547 3.36318C17.8644 4.43617 20.2485 5.43702 22.6102 6.48948C22.8932 6.61519 23.1346 6.99239 23.2656 7.30791C25.5165 12.7309 28.136 18.0346 30.3468 23.4742C29.8671 24.6036 29.6697 25.1971 29.3927 25.8837C28.4973 28.2368 28.1565 29.4095 27.1847 32.0172C25.8344 31.4368 24.1861 30.5806 23.3134 30.0928C22.3955 29.5799 19.4254 27.8817 19.4254 27.8817C19.4254 27.8817 18.842 26.7981 18.0818 24.9514C16.2978 20.6174 14.4798 16.3734 12.6817 12.0821C12.1085 10.6896 12.2705 11.0169 12.6419 10.0962C13.5638 7.91306 14.4198 5.70009 15.3545 3.36547L15.3547 3.36318Z" fill="#A67992"/>
<path d="M8.30715 10.4835C10.8389 11.5035 13.2435 12.454 15.6268 13.4566C15.9124 13.5763 16.1617 13.9484 16.2993 14.2611C18.6636 19.6356 21.3941 24.883 23.7187 30.2749C23.2629 31.4141 23.078 32.0117 22.8155 32.704C21.9697 35.0753 21.6537 36.2549 20.737 38.8825C19.3747 38.3307 17.7088 37.5093 16.826 37.0399C15.8975 36.5465 12.8925 34.911 12.8925 34.911C12.8925 34.911 12.2863 33.84 11.4875 32.0096C9.61275 27.7141 7.706 23.5092 5.81809 19.2567C5.21574 17.8766 5.38459 18.2004 5.73656 17.272C6.61227 15.07 7.42164 12.8396 8.30705 10.4858L8.30715 10.4835Z" fill="#885C75"/>
<path d="M52.6332 1.97567C53.8049 5.19203 54.9346 8.23139 55.9981 11.295C56.1259 11.6617 55.9887 12.2081 55.8132 12.6004C52.7954 19.3427 50.2024 26.3179 47.1353 33.038C45.6942 33.5774 44.9837 33.9107 44.1202 34.2519C41.2068 35.4704 39.8453 36.1739 36.6343 37.543C36.0067 35.8099 35.3754 33.5665 35.0727 32.3488C34.754 31.0684 33.7583 26.8916 33.7583 26.8916C33.7583 26.8916 34.2467 25.4225 35.2798 23.1322C37.7041 17.7575 40.0175 12.4295 42.3909 7.0788C43.1698 5.35192 43.0101 5.78269 44.1681 5.32504C46.949 4.27755 49.7009 3.14429 52.631 1.97752L52.6332 1.97567Z" fill="#774F66"/>
<path d="M20.5091 9.95006C22.924 9.57956 25.2092 9.21362 27.5019 8.89749C27.7764 8.85931 28.1382 9.03192 28.3869 9.20987C32.6608 12.2684 37.1586 15.0619 41.4099 18.152C41.5791 19.2372 41.7095 19.7817 41.8235 20.4345C42.2549 22.6464 42.55 23.6988 43.0438 26.1403C41.7431 26.3374 40.0855 26.4655 39.1915 26.5071C38.2514 26.5511 35.1911 26.6638 35.1911 26.6638C35.1911 26.6638 34.2355 26.1159 32.7849 25.0714C29.3805 22.6201 25.9928 20.2532 22.5979 17.841C21.5041 17.0534 21.7819 17.2256 21.6291 16.3502C21.298 14.255 20.9029 12.1683 20.5101 9.95188L20.5091 9.95006Z" fill="#AA6B8F"/>
<path d="M66.4422 13.5696C65.5581 15.7439 64.7342 17.8091 63.8655 19.8558C63.7618 20.101 63.4412 20.3144 63.1719 20.4319C58.5437 22.4504 54.0239 24.784 49.3809 26.7683C48.4025 26.3732 47.8891 26.2125 47.2946 25.985C45.2577 25.2511 44.2442 24.9761 41.9872 24.1806C42.4654 23.0107 43.1763 21.5804 43.5824 20.8225C44.0092 20.0255 45.4238 17.4458 45.4238 17.4458C45.4238 17.4458 46.3465 16.9275 47.9226 16.2456C51.6215 14.6452 55.2427 13.017 58.9047 11.4052C60.0931 10.891 59.8142 11.0353 60.6116 11.3405C62.5027 12.0996 64.4186 12.8017 66.4402 13.5695L66.4422 13.5696Z" fill="#A97B95"/>
<path d="M23.549 53.3793L23.549 53.3793L23.5486 53.3792C22.5183 53.1436 21.0666 52.8115 19.1833 51.754C17.2969 50.6948 14.9651 48.9002 12.2004 45.726L12.2004 45.726C8.75741 41.7742 7.97329 38.2753 7.33503 35.4256L7.04228 35.4912L7.33503 35.4256C7.32968 35.4017 7.32433 35.3778 7.319 35.354C6.85262 33.2712 6.44851 31.4664 4.94385 30.3909C4.82599 30.2546 4.71328 30.0174 4.61756 29.6818C4.51923 29.337 4.44797 28.9222 4.39828 28.4812C4.31317 27.7258 4.2939 26.9172 4.30152 26.3H63.6984C63.7063 26.9171 63.6872 27.7258 63.6021 28.4812C63.5524 28.9222 63.4811 29.337 63.3827 29.6817C63.2868 30.0173 63.174 30.2546 63.0559 30.3908C61.5526 31.4653 61.1487 33.267 60.6821 35.3481L60.6647 35.4255L60.6647 35.4256C60.0264 38.2752 59.2415 41.7733 55.7993 45.726C53.0346 48.8998 50.7026 50.6943 48.8161 51.7537C46.9325 52.8114 45.4806 53.1437 44.4508 53.3793L44.4507 53.3793L44.5176 53.6718L44.4507 53.3793L44.4038 53.3901C43.7626 53.5367 43.1807 53.6698 42.7454 53.9586C42.3541 54.2181 42.0342 54.5802 41.7292 54.9254L41.7077 54.9497L41.7075 54.95C41.1811 55.5469 40.5864 56.22 39.4712 56.7548C38.3509 57.292 36.681 57.7 33.9999 57.7C31.3187 57.7 29.6485 57.2922 28.5282 56.7551C27.4129 56.2205 26.8181 55.5473 26.2924 54.9502L26.2887 54.946C25.9782 54.5928 25.6532 54.2231 25.2543 53.9586C24.819 53.6698 24.2372 53.5367 23.5959 53.3901L23.549 53.3793Z" fill="#D7D2CB" stroke="#B0ACA5" stroke-width="0.6"/>
<path d="M26.2212 55.1857L26.222 55.1874C26.2237 55.1909 26.2268 55.1973 26.2315 55.2065C26.2409 55.2248 26.2565 55.2539 26.2792 55.2924C26.3247 55.3693 26.3986 55.4834 26.5082 55.6226C26.7273 55.9006 27.0898 56.2797 27.6546 56.662C28.7816 57.4249 30.7338 58.2137 33.9991 58.2137C37.2645 58.2137 39.2167 57.4249 40.3437 56.662C40.9085 56.2797 41.271 55.9006 41.49 55.6226C41.5997 55.4834 41.6736 55.3693 41.7191 55.2924C41.7418 55.2539 41.7574 55.2248 41.7668 55.2065C41.7691 55.2019 41.7711 55.198 41.7727 55.1948C41.7742 55.1916 41.7754 55.1891 41.7763 55.1874L41.7771 55.1857C41.7772 55.1855 41.7772 55.1854 41.7773 55.1852M26.2212 55.1857L42.0514 55.3072C41.7771 55.1857 41.7772 55.1855 41.7773 55.1852M26.2212 55.1857C26.2211 55.1855 26.2211 55.1854 26.221 55.1852C26.221 55.1852 26.221 55.1852 26.221 55.1852C26.2209 55.1851 26.2209 55.185 26.2208 55.1849L26.2206 55.1844C26.2206 55.1844 26.2206 55.1843 26.2206 55.1843C26.213 55.1674 26.2038 55.1511 26.1932 55.1359C25.4012 53.9979 25.3 52.4813 25.3 50.8539V42.9365C25.3 39.0067 28.3757 35.8137 32.1053 35.8137H35.8947C39.6251 35.8137 42.7 39.0075 42.7 42.9365V50.8539C42.7 52.433 42.5706 53.9918 41.8201 55.1162M26.2212 55.1857L41.8201 55.1162M41.7773 55.1852C41.7885 55.16 41.803 55.1368 41.8201 55.1162M41.7773 55.1852L41.8201 55.1162" fill="#B0ADA7" stroke="#9A9790" stroke-width="0.6" stroke-linecap="round" stroke-linejoin="round"/>
<path d="M3.30829 26.3H64.6917C64.6945 26.3946 64.6972 26.5099 64.6987 26.6418C64.7031 27.0258 64.6977 27.5469 64.6588 28.0978C64.6197 28.6504 64.5476 29.2237 64.4215 29.7155C64.3085 30.156 64.1615 30.4933 63.987 30.7H4.01302C3.83853 30.4933 3.69148 30.156 3.57853 29.7155C3.45243 29.2237 3.38028 28.6504 3.34123 28.0978C3.30231 27.5469 3.29689 27.0258 3.30128 26.6418C3.30279 26.5099 3.30545 26.3946 3.30829 26.3Z" fill="#B0ADA7" stroke="#9A9790" stroke-width="0.6" stroke-linecap="round" stroke-linejoin="round"/>
<path d="M1.69969 18.3H66.3003C67.0652 18.3 67.7 18.9408 67.7 19.7497V24.2503C67.7 25.0592 67.0652 25.7 66.3003 25.7H1.69969C0.934797 25.7 0.3 25.0592 0.3 24.2503V19.7497C0.3 18.9408 0.934797 18.3 1.69969 18.3Z" fill="#D7D2CB" stroke="#B0ACA5" stroke-width="0.6"/>
<path d="M43.6797 31.0488C43.6692 36.4349 39.3249 40.7977 33.9807 40.7977C28.6364 40.7977 24.3091 36.4349 24.3195 31.0488C24.33 25.6628 28.6743 21.3 34.0186 21.3C39.3628 21.3 43.6902 25.6628 43.6797 31.0488Z" fill="#F3FF70" stroke="#FDFFCC" stroke-width="0.6"/>
<mask id="mask0_2103_9901" style="mask-type:luminance" maskUnits="userSpaceOnUse" x="24" y="21" width="20" height="20">
<path d="M33.8307 40.8356C39.26 40.8356 43.6614 36.3953 43.6614 30.9178C43.6614 25.4404 39.26 21 33.8307 21C28.4013 21 24 25.4404 24 30.9178C24 36.3953 28.4013 40.8356 33.8307 40.8356Z" fill="white"/>
</mask>
<g mask="url(#mask0_2103_9901)">
<path d="M23.8711 33.6006L38.1254 21.2036" stroke="#FDFFCC" stroke-width="2" stroke-miterlimit="10"/>
<path d="M27.0586 37.8035L41.8042 25.104" stroke="#FDFFCC" stroke-width="6" stroke-miterlimit="10"/>
</g>
</g>
<defs>
<clipPath id="clip0_2103_9901">
<rect width="68" height="58" fill="white" transform="translate(0 0.513672)"/>
</clipPath>
</defs>
</svg>
