<svg width="68" height="59" viewBox="0 0 68 59" fill="none" xmlns="http://www.w3.org/2000/svg">
<g clip-path="url(#clip0_2103_9281)">
<path d="M15.7649 23.944C16.9257 23.609 18.0545 22.1245 18.908 20.4846C21.2532 16.4195 22.5784 11.936 24.3115 7.62019C24.6861 6.68762 25.0328 5.74417 25.4678 4.6086C25.0476 4.83042 24.8296 4.93602 24.6213 5.05721C21.505 6.86991 18.3675 8.64529 15.2824 10.5128C12.9787 11.9065 10.769 13.4068 8.91916 15.4677C7.53998 17.0046 7.91279 18.5877 8.37661 20.0212C8.96638 21.8447 11.2031 23.3478 12.2663 23.7819C13.5844 24.3194 15.7635 23.9446 15.7635 23.9446L15.7649 23.944Z" fill="#685BB3"/>
<path d="M47.0766 15.8901C46.8855 14.7507 45.5989 13.5158 44.1346 12.5253C40.5298 9.85207 36.4159 8.10197 32.5059 5.98272C31.661 5.52472 30.8027 5.09199 29.7716 4.55429C29.9363 4.97784 30.0127 5.1965 30.1051 5.40763C31.4856 8.56656 32.8284 11.7416 34.2645 14.877C35.3361 17.2181 36.5192 19.4816 38.2743 21.4647C39.5832 22.9433 41.1279 22.7626 42.5405 22.479C44.3375 22.1185 46.0104 20.1584 46.5392 19.196C47.1943 18.0027 47.077 15.8916 47.077 15.8916L47.0766 15.8901Z" fill="#41358E"/>
<path d="M57.0281 5.7274C55.6871 6.23603 54.4952 8.10162 53.6439 10.1245C51.2623 15.161 50.128 20.5939 48.4949 25.8679C48.1419 27.0075 47.8229 28.1573 47.418 29.543C47.8938 29.2399 48.1415 29.0938 48.3762 28.9303C51.8879 26.4842 55.4284 24.0801 58.8981 21.5721C61.489 19.7003 63.9583 17.7115 65.9476 15.0942C67.4308 13.1424 66.8366 11.3054 66.1492 9.65416C65.275 7.55364 62.4832 5.99161 61.1833 5.58082C59.5718 5.07234 57.0297 5.72652 57.0297 5.72652L57.0281 5.7274Z" fill="#5F5697"/>
<path d="M52.3243 22.3972C53.2118 21.8439 53.8008 20.3409 54.124 18.7735C55.1161 14.8341 55.1598 10.7873 55.5829 6.78368C55.6744 5.91857 55.7401 5.05097 55.834 4.00251C55.5365 4.28657 55.3799 4.42603 55.2351 4.57618C53.0686 6.82225 50.8755 9.04228 48.7478 11.3267C47.1589 13.0318 45.6734 14.8034 44.6201 16.9568C43.8349 18.5626 44.5195 19.7928 45.2446 20.8769C46.1668 22.256 48.3846 22.979 49.3726 23.0892C50.5972 23.2252 52.3233 22.3981 52.3233 22.3981L52.3243 22.3972Z" fill="#483F84"/>
<path d="M25.8381 16.2651C25.8683 17.4875 27.032 18.9732 28.4185 20.2295C31.7965 23.568 35.8458 26.0153 39.6262 28.819C40.4431 29.4249 41.2778 30.0063 42.2779 30.7235C42.1685 30.2552 42.121 30.0147 42.0558 29.7797C41.0806 26.264 40.1473 22.7372 39.1104 19.2379C38.337 16.6252 37.4351 14.0771 35.892 11.7376C34.7413 9.99324 33.0958 9.95213 31.5735 10.0385C29.637 10.1481 27.5919 11.9522 26.8942 12.8817C26.0299 14.0342 25.8378 16.2636 25.8378 16.2636L25.8381 16.2651Z" fill="#5544C0"/>
<path d="M29.4078 17.2541C29.1486 16.2585 27.9103 15.2645 26.5335 14.5013C23.1257 12.4141 19.339 11.1858 15.7041 9.614C14.9187 9.2743 14.1234 8.95807 13.1665 8.56235C13.346 8.92505 13.431 9.11297 13.5295 9.29297C15.0027 11.9861 16.4437 14.6965 17.9644 17.3643C19.0991 19.3564 20.3267 21.2709 22.0396 22.8916C23.3169 24.0999 24.6728 23.818 25.9034 23.4553C27.4688 22.9941 28.7983 21.1238 29.1916 20.2285C29.6786 19.1186 29.4083 17.2553 29.4083 17.2553L29.4078 17.2541Z" fill="#5345A8"/>
<path d="M23.549 53.3793L23.549 53.3793L23.5486 53.3792C22.5183 53.1436 21.0666 52.8115 19.1833 51.754C17.2969 50.6948 14.9651 48.9002 12.2004 45.726L12.2004 45.726C8.75741 41.7742 7.97329 38.2753 7.33503 35.4256L7.04228 35.4912L7.33503 35.4256C7.32968 35.4017 7.32433 35.3778 7.319 35.354C6.85262 33.2712 6.44851 31.4664 4.94385 30.3909C4.82599 30.2546 4.71328 30.0174 4.61756 29.6818C4.51923 29.337 4.44797 28.9222 4.39828 28.4812C4.31317 27.7258 4.2939 26.9172 4.30152 26.3H63.6984C63.7063 26.9171 63.6872 27.7258 63.6021 28.4812C63.5524 28.9222 63.4811 29.337 63.3827 29.6817C63.2868 30.0173 63.174 30.2546 63.0559 30.3908C61.5526 31.4653 61.1487 33.267 60.6821 35.3481L60.6647 35.4255L60.6647 35.4256C60.0264 38.2752 59.2415 41.7733 55.7993 45.726C53.0346 48.8998 50.7026 50.6943 48.8161 51.7537C46.9325 52.8114 45.4806 53.1437 44.4508 53.3793L44.4507 53.3793L44.5176 53.6718L44.4507 53.3793L44.4038 53.3901C43.7626 53.5367 43.1807 53.6698 42.7454 53.9586C42.3541 54.2181 42.0342 54.5802 41.7292 54.9254L41.7077 54.9497L41.7075 54.95C41.1811 55.5469 40.5864 56.22 39.4712 56.7548C38.3509 57.292 36.681 57.7 33.9999 57.7C31.3187 57.7 29.6485 57.2922 28.5282 56.7551C27.4129 56.2205 26.8181 55.5473 26.2924 54.9502L26.2887 54.946C25.9782 54.5928 25.6532 54.2231 25.2543 53.9586C24.819 53.6698 24.2372 53.5367 23.5959 53.3901L23.549 53.3793Z" fill="#FB9E18" stroke="#E18B20" stroke-width="0.6"/>
<path d="M26.2212 55.1857L26.222 55.1874C26.2237 55.1909 26.2268 55.1973 26.2315 55.2065C26.2409 55.2248 26.2565 55.2539 26.2792 55.2924C26.3247 55.3693 26.3986 55.4834 26.5082 55.6226C26.7273 55.9006 27.0898 56.2797 27.6546 56.662C28.7816 57.4249 30.7338 58.2137 33.9991 58.2137C37.2645 58.2137 39.2167 57.4249 40.3437 56.662C40.9085 56.2797 41.271 55.9006 41.49 55.6226C41.5997 55.4834 41.6736 55.3693 41.7191 55.2924C41.7418 55.2539 41.7574 55.2248 41.7668 55.2065C41.7691 55.2019 41.7711 55.198 41.7727 55.1948C41.7742 55.1916 41.7754 55.1891 41.7763 55.1874L41.7771 55.1857C41.7772 55.1855 41.7772 55.1854 41.7773 55.1852M26.2212 55.1857L42.0514 55.3072C41.7771 55.1857 41.7772 55.1855 41.7773 55.1852M26.2212 55.1857C26.2211 55.1855 26.2211 55.1854 26.221 55.1852C26.221 55.1852 26.221 55.1852 26.221 55.1852C26.2209 55.1851 26.2209 55.185 26.2208 55.1849L26.2206 55.1844C26.2206 55.1844 26.2206 55.1843 26.2206 55.1843C26.213 55.1674 26.2038 55.1511 26.1932 55.1359C25.4012 53.9979 25.3 52.4813 25.3 50.8539V42.9365C25.3 39.0067 28.3757 35.8137 32.1053 35.8137H35.8947C39.6251 35.8137 42.7 39.0075 42.7 42.9365V50.8539C42.7 52.433 42.5706 53.9918 41.8201 55.1162M26.2212 55.1857L41.8201 55.1162M41.7773 55.1852C41.7885 55.16 41.803 55.1368 41.8201 55.1162M41.7773 55.1852L41.8201 55.1162" fill="#D38513" stroke="#B57211" stroke-width="0.6" stroke-linecap="round" stroke-linejoin="round"/>
<path d="M3.30829 26.3H64.6917C64.6945 26.3946 64.6972 26.5099 64.6987 26.6418C64.7031 27.0258 64.6977 27.5469 64.6588 28.0978C64.6197 28.6504 64.5476 29.2237 64.4215 29.7155C64.3085 30.156 64.1615 30.4933 63.987 30.7H4.01302C3.83853 30.4933 3.69148 30.156 3.57853 29.7155C3.45243 29.2237 3.38028 28.6504 3.34123 28.0978C3.30231 27.5469 3.29689 27.0258 3.30128 26.6418C3.30279 26.5099 3.30545 26.3946 3.30829 26.3Z" fill="#D38513" stroke="#B57211" stroke-width="0.6" stroke-linecap="round" stroke-linejoin="round"/>
<path d="M1.69969 18.3H66.3003C67.0652 18.3 67.7 18.9408 67.7 19.7497V24.2503C67.7 25.0592 67.0652 25.7 66.3003 25.7H1.69969C0.934797 25.7 0.3 25.0592 0.3 24.2503V19.7497C0.3 18.9408 0.934797 18.3 1.69969 18.3Z" fill="#FB9E18" stroke="#E18B20" stroke-width="0.6"/>
<path d="M43.6797 31.0488C43.6692 36.4349 39.3249 40.7977 33.9807 40.7977C28.6364 40.7977 24.3091 36.4349 24.3195 31.0488C24.33 25.6628 28.6743 21.3 34.0186 21.3C39.3628 21.3 43.6902 25.6628 43.6797 31.0488Z" fill="#F3FF70" stroke="#FDFFCC" stroke-width="0.6"/>
<mask id="mask0_2103_9281" style="mask-type:luminance" maskUnits="userSpaceOnUse" x="24" y="21" width="20" height="20">
<path d="M33.8307 40.8356C39.26 40.8356 43.6614 36.3953 43.6614 30.9178C43.6614 25.4404 39.26 21 33.8307 21C28.4013 21 24 25.4404 24 30.9178C24 36.3953 28.4013 40.8356 33.8307 40.8356Z" fill="white"/>
</mask>
<g mask="url(#mask0_2103_9281)">
<path d="M23.8711 33.6006L38.1254 21.2036" stroke="#FDFFCC" stroke-width="2" stroke-miterlimit="10"/>
<path d="M27.0586 37.8035L41.8042 25.104" stroke="#FDFFCC" stroke-width="6" stroke-miterlimit="10"/>
</g>
</g>
<defs>
<clipPath id="clip0_2103_9281">
<rect width="68" height="58" fill="white" transform="translate(0 0.513672)"/>
</clipPath>
</defs>
</svg>
