<svg width="68" height="59" viewBox="0 0 68 59" fill="none" xmlns="http://www.w3.org/2000/svg">
<g clip-path="url(#clip0_2103_9300)">
<path d="M20.7097 25.1227C20.5294 23.4511 20.3953 21.8703 20.1807 20.2989C19.8933 18.1922 19.5582 16.0914 19.2018 13.9941C19.1543 13.7135 18.9082 13.4065 18.6721 13.2234C17.9721 12.6797 17.1776 12.2547 16.5175 11.6677C15.5491 10.8057 14.681 9.8252 13.7373 8.93182C13.4046 8.61661 13.3626 8.37606 13.5767 7.99012C14.3072 6.674 14.9924 5.32966 15.7389 4.02345C15.8568 3.81712 16.2019 3.6313 16.443 3.63707C17.7162 3.66816 18.9887 3.79388 20.2617 3.82253C20.8075 3.83468 20.9514 4.05456 21.0172 4.56844C21.4415 7.885 21.9153 11.1965 22.3302 14.5139C22.4293 15.3062 22.6916 15.8125 23.5039 16.0206C23.8547 16.1102 24.1936 16.3912 24.4706 16.6589C25.6124 17.7608 26.7141 18.906 27.8625 20.0007C28.2425 20.3629 28.2851 20.638 28.0308 21.0852C27.3149 22.3455 26.6627 23.6437 25.9471 24.9048C25.8219 25.1262 25.5132 25.3808 25.2904 25.3737C23.7976 25.3298 22.3056 25.2193 20.7103 25.1241L20.7097 25.1227Z" fill="#932061"/>
<path d="M9.73861 22.7979C11.5936 21.5153 13.3711 20.3453 15.0859 19.0865C17.3851 17.3991 19.647 15.6593 21.8909 13.8966C22.1912 13.661 22.3957 13.1745 22.4604 12.779C22.653 11.6058 22.6455 10.3971 22.9147 9.24339C23.3109 7.55016 23.911 5.89921 24.3599 4.215C24.5185 3.62104 24.7751 3.4175 25.3671 3.42279C27.3861 3.44143 29.4093 3.38843 31.4268 3.4322C31.7455 3.43916 32.1854 3.72694 32.333 4.01485C33.1114 5.5355 33.7778 7.11595 34.5589 8.63473C34.894 9.2859 34.7269 9.59625 34.1633 10.0027C30.5256 12.6259 26.9256 15.3043 23.2808 17.9169C22.4104 18.5409 21.9815 19.1742 22.2562 20.2649C22.3752 20.7357 22.2609 21.3151 22.1227 21.813C21.5547 23.8642 20.9101 25.8959 20.3549 27.9503C20.1712 28.63 19.8742 28.8564 19.1843 28.8429C17.2405 28.8058 15.2927 28.8681 13.3482 28.8319C13.0071 28.826 12.5093 28.6252 12.3751 28.358C11.4712 26.5703 10.6464 24.7409 9.73734 22.7995L9.73861 22.7979Z" fill="#860F52"/>
<path d="M52.4869 5.09817C51.7807 6.8297 51.0772 8.44795 50.4576 10.0994C49.6265 12.3135 48.8452 14.5469 48.0867 16.7881C47.985 17.0879 48.0637 17.5184 48.1982 17.8223C48.5964 18.7241 49.1497 19.5597 49.4859 20.4828C49.9787 21.8379 50.3107 23.2562 50.7627 24.629C50.922 25.1132 50.8361 25.3709 50.4228 25.6357C49.0126 26.5382 47.6321 27.4924 46.2117 28.3769C45.9872 28.5166 45.5513 28.5163 45.3184 28.3833C44.0884 27.6806 42.9091 26.8856 41.6782 26.1854C41.1503 25.8853 41.1256 25.594 41.3325 25.0563C42.6684 21.5857 43.9531 18.0938 45.2988 14.6274C45.6201 13.7995 45.6307 13.1654 44.9454 12.5328C44.6493 12.2598 44.4659 11.8058 44.3361 11.3974C43.8003 9.71591 43.3265 8.01313 42.7804 6.33515C42.5997 5.77997 42.7033 5.48814 43.1883 5.18467C44.5546 4.329 45.8785 3.40253 47.2449 2.54599C47.4844 2.39533 47.921 2.30907 48.1354 2.43368C49.5735 3.26488 50.9756 4.16091 52.487 5.09645L52.4869 5.09817Z" fill="#681C47"/>
<path d="M38.8522 5.9253C40.1786 7.1197 41.4043 8.27496 42.6869 9.36572C44.4064 10.8283 46.1593 12.2525 47.9266 13.6588C48.1629 13.847 48.5749 13.9156 48.8913 13.8932C49.83 13.8274 50.7595 13.6008 51.6972 13.5975C53.0736 13.5934 54.4546 13.7541 55.8337 13.7923C56.3201 13.8059 56.5237 13.9664 56.6277 14.4232C56.9821 15.9816 57.3924 17.53 57.7271 19.0918C57.7799 19.3385 57.6386 19.7299 57.4438 19.8961C56.4149 20.7732 55.3194 21.5751 54.2924 22.454C53.8521 22.831 53.5825 22.759 53.1666 22.3991C50.482 20.0766 47.7619 17.7932 45.0843 15.4634C44.4447 14.907 43.8787 14.6923 43.0888 15.1031C42.748 15.2807 42.2809 15.2984 41.8722 15.2829C40.1888 15.2201 38.5063 15.0947 36.8228 15.0423C36.2657 15.0249 36.0372 14.8375 35.9216 14.3037C35.5952 12.7999 35.1915 11.3113 34.8643 9.80713C34.8065 9.5433 34.8703 9.12328 35.0516 8.97111C36.2632 7.94857 37.5215 6.9793 38.8507 5.92463L38.8522 5.9253Z" fill="#730041"/>
<path d="M30.5133 23.5977C28.6758 22.558 26.9647 21.5377 25.2044 20.6065C22.8445 19.3577 20.4557 18.1618 18.0549 16.9903C17.7338 16.8334 17.2405 16.8597 16.8809 16.9665C15.8138 17.2829 14.7985 17.7824 13.7165 18.0263C12.1281 18.3833 10.4922 18.5513 8.88996 18.8602C8.3248 18.969 8.0486 18.8358 7.81152 18.3349C7.00344 16.6261 6.13328 14.943 5.34697 13.2252C5.2228 12.9538 5.28578 12.4657 5.46817 12.224C6.43184 10.9476 7.49159 9.74129 8.45259 8.46347C8.86452 7.91543 9.19419 7.92957 9.76665 8.23863C13.4612 10.2334 17.1868 12.1738 20.8752 14.1789C21.7561 14.6576 22.4647 14.7606 23.2716 14.0841C23.6198 13.7918 24.1546 13.6517 24.6306 13.565C26.5906 13.2066 28.5655 12.9208 30.523 12.5503C31.1707 12.4278 31.4826 12.5857 31.7527 13.1725C32.5146 14.8255 33.3618 16.4412 34.1246 18.0943C34.2589 18.3842 34.2928 18.8856 34.1224 19.1077C32.985 20.5986 31.7801 22.04 30.5152 23.5981L30.5133 23.5977Z" fill="#510A32"/>
<path d="M29.9046 17.7358C32.4968 17.1973 34.9543 16.7455 37.3835 16.1679C40.6403 15.3938 43.88 14.5455 47.1105 13.6639C47.5427 13.5462 47.9832 13.1108 48.2309 12.7099C48.9664 11.521 49.5001 10.2008 50.3102 9.06853C51.5002 7.40728 52.893 5.88649 54.1364 4.25952C54.5751 3.68584 54.9454 3.58289 55.5868 3.86267C57.774 4.81757 59.9978 5.69634 62.1721 6.67792C62.5156 6.83303 62.8649 7.35019 62.8963 7.73213C63.0609 9.74905 63.077 11.7793 63.2454 13.7954C63.3178 14.6599 62.997 14.9207 62.2019 15.1026C57.0699 16.2765 51.9542 17.528 46.8194 18.687C45.5931 18.9639 44.8427 19.4553 44.6524 20.7707C44.5707 21.3387 44.1866 21.9169 43.8131 22.3954C42.2757 24.3671 40.6638 26.2821 39.139 28.2632C38.6344 28.9186 38.2099 29.0277 37.4658 28.6937C35.3686 27.7535 33.2226 26.9198 31.1244 25.9802C30.756 25.8159 30.3047 25.3667 30.2786 25.0135C30.0972 22.6476 30.0206 20.2729 29.9024 17.7371L29.9046 17.7358Z" fill="#8C004F"/>
<path d="M23.549 53.3793L23.549 53.3793L23.5486 53.3792C22.5183 53.1436 21.0666 52.8115 19.1833 51.754C17.2969 50.6948 14.9651 48.9002 12.2004 45.726L12.2004 45.726C8.75741 41.7742 7.97329 38.2753 7.33503 35.4256L7.04228 35.4912L7.33503 35.4256C7.32968 35.4017 7.32433 35.3778 7.319 35.354C6.85262 33.2712 6.44851 31.4664 4.94385 30.3909C4.82599 30.2546 4.71328 30.0174 4.61756 29.6818C4.51923 29.337 4.44797 28.9222 4.39828 28.4812C4.31317 27.7258 4.2939 26.9172 4.30152 26.3H63.6984C63.7063 26.9171 63.6872 27.7258 63.6021 28.4812C63.5524 28.9222 63.4811 29.337 63.3827 29.6817C63.2868 30.0173 63.174 30.2546 63.0559 30.3908C61.5526 31.4653 61.1487 33.267 60.6821 35.3481L60.6647 35.4255L60.6647 35.4256C60.0264 38.2752 59.2415 41.7733 55.7993 45.726C53.0346 48.8998 50.7026 50.6943 48.8161 51.7537C46.9325 52.8114 45.4806 53.1437 44.4508 53.3793L44.4507 53.3793L44.5176 53.6718L44.4507 53.3793L44.4038 53.3901C43.7626 53.5367 43.1807 53.6698 42.7454 53.9586C42.3541 54.2181 42.0342 54.5802 41.7292 54.9254L41.7077 54.9497L41.7075 54.95C41.1811 55.5469 40.5864 56.22 39.4712 56.7548C38.3509 57.292 36.681 57.7 33.9999 57.7C31.3187 57.7 29.6485 57.2922 28.5282 56.7551C27.4129 56.2205 26.8181 55.5473 26.2924 54.9502L26.2887 54.946C25.9782 54.5928 25.6532 54.2231 25.2543 53.9586C24.819 53.6698 24.2372 53.5367 23.5959 53.3901L23.549 53.3793Z" fill="#FB9E18" stroke="#E18B20" stroke-width="0.6"/>
<path d="M26.2212 55.1857L26.222 55.1874C26.2237 55.1909 26.2268 55.1973 26.2315 55.2065C26.2409 55.2248 26.2565 55.2539 26.2792 55.2924C26.3247 55.3693 26.3986 55.4834 26.5082 55.6226C26.7273 55.9006 27.0898 56.2797 27.6546 56.662C28.7816 57.4249 30.7338 58.2137 33.9991 58.2137C37.2645 58.2137 39.2167 57.4249 40.3437 56.662C40.9085 56.2797 41.271 55.9006 41.49 55.6226C41.5997 55.4834 41.6736 55.3693 41.7191 55.2924C41.7418 55.2539 41.7574 55.2248 41.7668 55.2065C41.7691 55.2019 41.7711 55.198 41.7727 55.1948C41.7742 55.1916 41.7754 55.1891 41.7763 55.1874L41.7771 55.1857C41.7772 55.1855 41.7772 55.1854 41.7773 55.1852M26.2212 55.1857L42.0514 55.3072C41.7771 55.1857 41.7772 55.1855 41.7773 55.1852M26.2212 55.1857C26.2211 55.1855 26.2211 55.1854 26.221 55.1852C26.221 55.1852 26.221 55.1852 26.221 55.1852C26.2209 55.1851 26.2209 55.185 26.2208 55.1849L26.2206 55.1844C26.2206 55.1844 26.2206 55.1843 26.2206 55.1843C26.213 55.1674 26.2038 55.1511 26.1932 55.1359C25.4012 53.9979 25.3 52.4813 25.3 50.8539V42.9365C25.3 39.0067 28.3757 35.8137 32.1053 35.8137H35.8947C39.6251 35.8137 42.7 39.0075 42.7 42.9365V50.8539C42.7 52.433 42.5706 53.9918 41.8201 55.1162M26.2212 55.1857L41.8201 55.1162M41.7773 55.1852C41.7885 55.16 41.803 55.1368 41.8201 55.1162M41.7773 55.1852L41.8201 55.1162" fill="#D38513" stroke="#B57211" stroke-width="0.6" stroke-linecap="round" stroke-linejoin="round"/>
<path d="M3.30829 26.3H64.6917C64.6945 26.3946 64.6972 26.5099 64.6987 26.6418C64.7031 27.0258 64.6977 27.5469 64.6588 28.0978C64.6197 28.6504 64.5476 29.2237 64.4215 29.7155C64.3085 30.156 64.1615 30.4933 63.987 30.7H4.01302C3.83853 30.4933 3.69148 30.156 3.57853 29.7155C3.45243 29.2237 3.38028 28.6504 3.34123 28.0978C3.30231 27.5469 3.29689 27.0258 3.30128 26.6418C3.30279 26.5099 3.30545 26.3946 3.30829 26.3Z" fill="#D38513" stroke="#B57211" stroke-width="0.6" stroke-linecap="round" stroke-linejoin="round"/>
<path d="M1.69969 18.3H66.3003C67.0652 18.3 67.7 18.9408 67.7 19.7497V24.2503C67.7 25.0592 67.0652 25.7 66.3003 25.7H1.69969C0.934797 25.7 0.3 25.0592 0.3 24.2503V19.7497C0.3 18.9408 0.934797 18.3 1.69969 18.3Z" fill="#FB9E18" stroke="#E18B20" stroke-width="0.6"/>
<path d="M43.6797 31.0488C43.6692 36.4349 39.3249 40.7977 33.9807 40.7977C28.6364 40.7977 24.3091 36.4349 24.3195 31.0488C24.33 25.6628 28.6743 21.3 34.0186 21.3C39.3628 21.3 43.6902 25.6628 43.6797 31.0488Z" fill="#F3FF70" stroke="#FDFFCC" stroke-width="0.6"/>
<mask id="mask0_2103_9300" style="mask-type:luminance" maskUnits="userSpaceOnUse" x="24" y="21" width="20" height="20">
<path d="M33.8307 40.8356C39.26 40.8356 43.6614 36.3953 43.6614 30.9178C43.6614 25.4404 39.26 21 33.8307 21C28.4013 21 24 25.4404 24 30.9178C24 36.3953 28.4013 40.8356 33.8307 40.8356Z" fill="white"/>
</mask>
<g mask="url(#mask0_2103_9300)">
<path d="M23.8711 33.6006L38.1254 21.2036" stroke="#FDFFCC" stroke-width="2" stroke-miterlimit="10"/>
<path d="M27.0586 37.8035L41.8042 25.104" stroke="#FDFFCC" stroke-width="6" stroke-miterlimit="10"/>
</g>
</g>
<defs>
<clipPath id="clip0_2103_9300">
<rect width="68" height="58" fill="white" transform="translate(0 0.513672)"/>
</clipPath>
</defs>
</svg>
