<svg width="68" height="59" viewBox="0 0 68 59" fill="none" xmlns="http://www.w3.org/2000/svg">
<g clip-path="url(#clip0_2103_9844)">
<path d="M53.9079 10.5973C54.4273 11.8108 54.9859 13.0098 55.4431 14.2466C55.5831 14.6255 55.5856 15.1782 55.411 15.5298C54.5014 17.3605 53.5327 19.1618 52.5405 20.9497C52.3596 21.2761 52.0239 21.5883 51.685 21.7401C49.5814 22.6783 47.4637 23.5836 45.333 24.4586C44.9878 24.6008 44.5311 24.6433 44.1728 24.5499C42.1668 24.0262 40.1686 23.4712 38.1866 22.8636C37.8315 22.7543 37.4321 22.4072 37.2803 22.068C36.1899 19.6317 35.1419 17.1751 34.1275 14.7064C33.9956 14.3854 34.0174 13.8893 34.1736 13.5802C35.1202 11.7013 36.1108 9.84486 37.127 8.00425C37.2927 7.70445 37.6199 7.42934 37.9371 7.28912C40.0694 6.34528 42.2135 5.42651 44.3701 4.537C44.6868 4.40593 45.1116 4.3849 45.4452 4.47214C47.45 4.99856 49.4509 5.54677 51.4338 6.15405C51.7873 6.26181 52.1637 6.62546 52.3291 6.96779C52.9025 8.15482 53.389 9.3847 53.9083 10.5982L53.9079 10.5973Z" fill="#962A31"/>
<path d="M15.5373 24.0079C14.3387 23.438 13.1202 22.9052 11.9528 22.2766C11.5953 22.084 11.2256 21.6694 11.1231 21.289C10.5896 19.3079 10.1202 17.3098 9.67744 15.3062C9.59644 14.9405 9.64137 14.483 9.79556 14.1443C10.755 12.0443 11.7471 9.95979 12.769 7.88949C12.9343 7.55376 13.2499 7.21927 13.5819 7.05219C15.4408 6.11786 17.3146 5.21215 19.2113 4.35693C19.5514 4.20392 20.0831 4.20085 20.4232 4.35571C22.8655 5.46809 25.2894 6.62382 27.6962 7.81098C28.009 7.96537 28.3228 8.35339 28.4109 8.68962C28.9486 10.7316 29.4382 12.7857 29.898 14.845C29.9727 15.1805 29.9095 15.6044 29.764 15.9201C28.7866 18.0433 27.7837 20.1554 26.7518 22.2538C26.6006 22.5623 26.2947 22.8595 25.9855 23.0148C24.1257 23.9464 22.2543 24.8589 20.3572 25.7151C20.0193 25.868 19.4939 25.8435 19.1416 25.6953C17.9198 25.1812 16.7351 24.5773 15.5364 24.0074L15.5373 24.0079Z" fill="#95262D"/>
<path d="M47.0392 21.6351C46.4053 21.9374 45.7799 22.2602 45.1323 22.5301C44.9339 22.6127 44.6402 22.6263 44.4497 22.5415C43.4579 22.0998 42.4805 21.626 41.5097 21.1395C41.3325 21.0508 41.1595 20.8798 41.0718 20.7034C40.5292 19.6087 40.0038 18.5058 39.4942 17.3954C39.4114 17.2155 39.3793 16.9742 39.4214 16.7821C39.6577 15.7068 39.9107 14.6349 40.1921 13.5704C40.2427 13.3796 40.4188 13.1602 40.5959 13.0722C41.8675 12.4399 43.1509 11.8297 44.4415 11.237C44.6093 11.16 44.8734 11.1605 45.0409 11.2365C46.0591 11.6968 47.0663 12.1809 48.0656 12.679C48.2284 12.7602 48.3814 12.9276 48.4626 13.0927C49.0087 14.2024 49.5418 15.319 50.0597 16.4429C50.1359 16.608 50.156 16.8328 50.1166 17.0116C49.8789 18.0864 49.6295 19.1596 49.3484 20.2245C49.2985 20.4144 49.1132 20.622 48.9347 20.7173C48.316 21.0477 47.6727 21.333 47.0387 21.6353L47.0392 21.6351Z" fill="#8F171F"/>
<path d="M52.5762 10.5119C53.5044 10.1602 54.4227 9.77785 55.3668 9.47465C55.656 9.38184 56.0727 9.40102 56.3331 9.5482C57.6893 10.3149 59.0217 11.1259 60.3435 11.9543C60.5848 12.1054 60.8114 12.3745 60.917 12.64C61.5694 14.2877 62.1965 15.9449 62.8006 17.6109C62.8988 17.8809 62.9189 18.2324 62.8392 18.5035C62.3922 20.0206 61.9219 21.5306 61.4123 23.0261C61.3207 23.2941 61.0486 23.5869 60.789 23.6903C58.9244 24.433 57.0455 25.1424 55.1583 25.8256C54.9129 25.9144 54.5396 25.8788 54.3106 25.7474C52.9191 24.9504 51.5457 24.1206 50.1848 23.2717C49.9632 23.1334 49.7643 22.8722 49.6669 22.6238C49.011 20.9539 48.3743 19.2759 47.76 17.5895C47.6695 17.3418 47.6647 17.0155 47.7392 16.7632C48.1881 15.247 48.6534 13.7347 49.1628 12.2384C49.2532 11.9717 49.5371 11.6971 49.7994 11.5834C50.7091 11.1892 51.6487 10.8634 52.5769 10.5117L52.5762 10.5119Z" fill="#721D22"/>
<path d="M35.3225 22.5312C34.3505 23.0924 33.3947 23.6852 32.3968 24.1964C32.0911 24.3529 31.625 24.4114 31.3109 24.3002C29.6754 23.721 28.0588 23.0889 26.4511 22.4357C26.1576 22.3166 25.8607 22.0658 25.6988 21.7959C24.6969 20.12 23.7216 18.4288 22.7704 16.7237C22.6159 16.4475 22.5345 16.0672 22.5774 15.7559C22.8189 14.0131 23.0875 12.2737 23.4022 10.5426C23.4589 10.2323 23.7119 9.86059 23.9829 9.69813C25.9295 8.53132 27.8975 7.39808 29.8792 6.29192C30.1368 6.14817 30.5576 6.11589 30.834 6.21587C32.5139 6.82139 34.1792 7.46626 35.8337 8.13434C36.1032 8.2433 36.368 8.49075 36.518 8.74359C37.5274 10.443 38.5169 12.155 39.4828 13.8805C39.6251 14.1339 39.6853 14.4895 39.645 14.7793C39.4011 16.5214 39.1385 18.2624 38.8242 19.9943C38.7686 20.303 38.4994 20.6571 38.2271 20.8313C37.2828 21.4353 36.2937 21.9704 35.3217 22.5316L35.3225 22.5312Z" fill="#7E2126"/>
<path d="M6.66102 12.2451C7.31843 11.6496 7.95799 11.0323 8.64378 10.4712C8.85389 10.2993 9.20454 10.1768 9.46614 10.2108C10.8283 10.3881 12.1848 10.6095 13.5379 10.8487C13.7848 10.8923 14.0567 11.0372 14.2272 11.2193C15.2837 12.3506 16.3222 13.4981 17.3444 14.6604C17.5103 14.8486 17.6372 15.1295 17.6563 15.3776C17.7624 16.7667 17.8471 18.1578 17.8946 19.55C17.9029 19.7996 17.7697 20.1293 17.5874 20.3C16.2781 21.5258 14.9466 22.7293 13.5999 23.914C13.4249 24.068 13.1049 24.1627 12.8743 24.1311C11.4734 23.9408 10.0771 23.7176 8.68526 23.4746C8.45852 23.4349 8.21214 23.2873 8.05363 23.1164C6.98738 21.9681 5.93448 20.8068 4.89742 19.6312C4.74484 19.4587 4.63853 19.1934 4.62098 18.9623C4.51677 17.5733 4.42728 16.182 4.37925 14.7893C4.37039 14.5411 4.51908 14.2224 4.7004 14.0424C5.32913 13.4183 6.00412 12.8401 6.66153 12.2446L6.66102 12.2451Z" fill="#801A20"/>
<path d="M23.549 53.3793L23.549 53.3793L23.5486 53.3792C22.5183 53.1436 21.0666 52.8115 19.1833 51.754C17.2969 50.6948 14.9651 48.9002 12.2004 45.726L12.2004 45.726C8.75741 41.7742 7.97329 38.2753 7.33503 35.4256L7.04228 35.4912L7.33503 35.4256C7.32968 35.4017 7.32433 35.3778 7.319 35.354C6.85262 33.2712 6.44851 31.4664 4.94385 30.3909C4.82599 30.2546 4.71328 30.0174 4.61756 29.6818C4.51923 29.337 4.44797 28.9222 4.39828 28.4812C4.31317 27.7258 4.2939 26.9172 4.30152 26.3H63.6984C63.7063 26.9171 63.6872 27.7258 63.6021 28.4812C63.5524 28.9222 63.4811 29.337 63.3827 29.6817C63.2868 30.0173 63.174 30.2546 63.0559 30.3908C61.5526 31.4653 61.1487 33.267 60.6821 35.3481L60.6647 35.4255L60.6647 35.4256C60.0264 38.2752 59.2415 41.7733 55.7993 45.726C53.0346 48.8998 50.7026 50.6943 48.8161 51.7537C46.9325 52.8114 45.4806 53.1437 44.4508 53.3793L44.4507 53.3793L44.5176 53.6718L44.4507 53.3793L44.4038 53.3901C43.7626 53.5367 43.1807 53.6698 42.7454 53.9586C42.3541 54.2181 42.0342 54.5802 41.7292 54.9254L41.7077 54.9497L41.7075 54.95C41.1811 55.5469 40.5864 56.22 39.4712 56.7548C38.3509 57.292 36.681 57.7 33.9999 57.7C31.3187 57.7 29.6485 57.2922 28.5282 56.7551C27.4129 56.2205 26.8181 55.5473 26.2924 54.9502L26.2887 54.946C25.9782 54.5928 25.6532 54.2231 25.2543 53.9586C24.819 53.6698 24.2372 53.5367 23.5959 53.3901L23.549 53.3793Z" fill="#D7D2CB" stroke="#B0ACA5" stroke-width="0.6"/>
<path d="M26.2212 55.1857L26.222 55.1874C26.2237 55.1909 26.2268 55.1973 26.2315 55.2065C26.2409 55.2248 26.2565 55.2539 26.2792 55.2924C26.3247 55.3693 26.3986 55.4834 26.5082 55.6226C26.7273 55.9006 27.0898 56.2797 27.6546 56.662C28.7816 57.4249 30.7338 58.2137 33.9991 58.2137C37.2645 58.2137 39.2167 57.4249 40.3437 56.662C40.9085 56.2797 41.271 55.9006 41.49 55.6226C41.5997 55.4834 41.6736 55.3693 41.7191 55.2924C41.7418 55.2539 41.7574 55.2248 41.7668 55.2065C41.7691 55.2019 41.7711 55.198 41.7727 55.1948C41.7742 55.1916 41.7754 55.1891 41.7763 55.1874L41.7771 55.1857C41.7772 55.1855 41.7772 55.1854 41.7773 55.1852M26.2212 55.1857L42.0514 55.3072C41.7771 55.1857 41.7772 55.1855 41.7773 55.1852M26.2212 55.1857C26.2211 55.1855 26.2211 55.1854 26.221 55.1852C26.221 55.1852 26.221 55.1852 26.221 55.1852C26.2209 55.1851 26.2209 55.185 26.2208 55.1849L26.2206 55.1844C26.2206 55.1844 26.2206 55.1843 26.2206 55.1843C26.213 55.1674 26.2038 55.1511 26.1932 55.1359C25.4012 53.9979 25.3 52.4813 25.3 50.8539V42.9365C25.3 39.0067 28.3757 35.8137 32.1053 35.8137H35.8947C39.6251 35.8137 42.7 39.0075 42.7 42.9365V50.8539C42.7 52.433 42.5706 53.9918 41.8201 55.1162M26.2212 55.1857L41.8201 55.1162M41.7773 55.1852C41.7885 55.16 41.803 55.1368 41.8201 55.1162M41.7773 55.1852L41.8201 55.1162" fill="#B0ADA7" stroke="#9A9790" stroke-width="0.6" stroke-linecap="round" stroke-linejoin="round"/>
<path d="M3.30829 26.3H64.6917C64.6945 26.3946 64.6972 26.5099 64.6987 26.6418C64.7031 27.0258 64.6977 27.5469 64.6588 28.0978C64.6197 28.6504 64.5476 29.2237 64.4215 29.7155C64.3085 30.156 64.1615 30.4933 63.987 30.7H4.01302C3.83853 30.4933 3.69148 30.156 3.57853 29.7155C3.45243 29.2237 3.38028 28.6504 3.34123 28.0978C3.30231 27.5469 3.29689 27.0258 3.30128 26.6418C3.30279 26.5099 3.30545 26.3946 3.30829 26.3Z" fill="#B0ADA7" stroke="#9A9790" stroke-width="0.6" stroke-linecap="round" stroke-linejoin="round"/>
<path d="M1.69969 18.3H66.3003C67.0652 18.3 67.7 18.9408 67.7 19.7497V24.2503C67.7 25.0592 67.0652 25.7 66.3003 25.7H1.69969C0.934797 25.7 0.3 25.0592 0.3 24.2503V19.7497C0.3 18.9408 0.934797 18.3 1.69969 18.3Z" fill="#D7D2CB" stroke="#B0ACA5" stroke-width="0.6"/>
<path d="M43.6797 31.0488C43.6692 36.4349 39.3249 40.7977 33.9807 40.7977C28.6364 40.7977 24.3091 36.4349 24.3195 31.0488C24.33 25.6628 28.6743 21.3 34.0186 21.3C39.3628 21.3 43.6902 25.6628 43.6797 31.0488Z" fill="#F3FF70" stroke="#FDFFCC" stroke-width="0.6"/>
<mask id="mask0_2103_9844" style="mask-type:luminance" maskUnits="userSpaceOnUse" x="24" y="21" width="20" height="20">
<path d="M33.8307 40.8356C39.26 40.8356 43.6614 36.3953 43.6614 30.9178C43.6614 25.4404 39.26 21 33.8307 21C28.4013 21 24 25.4404 24 30.9178C24 36.3953 28.4013 40.8356 33.8307 40.8356Z" fill="white"/>
</mask>
<g mask="url(#mask0_2103_9844)">
<path d="M23.8711 33.6006L38.1254 21.2036" stroke="#FDFFCC" stroke-width="2" stroke-miterlimit="10"/>
<path d="M27.0586 37.8035L41.8042 25.104" stroke="#FDFFCC" stroke-width="6" stroke-miterlimit="10"/>
</g>
</g>
<defs>
<clipPath id="clip0_2103_9844">
<rect width="68" height="58" fill="white" transform="translate(0 0.513672)"/>
</clipPath>
</defs>
</svg>
