<svg width="68" height="59" viewBox="0 0 68 59" fill="none" xmlns="http://www.w3.org/2000/svg">
<g clip-path="url(#clip0_2103_9920)">
<path d="M40.3686 20.9142C40.8843 19.4598 41.3689 18.0414 41.9027 16.6422C41.9832 16.4311 42.2782 16.2748 42.504 16.1476C47.0978 13.5566 51.6936 10.9663 56.3027 8.4031C56.6418 8.21452 57.1049 8.13186 57.4924 8.16925C59.9389 8.40732 62.3788 8.70115 64.8234 8.95431C65.2857 9.00186 65.5661 9.13513 65.7261 9.62234C66.0421 10.5851 66.4226 11.5287 66.8207 12.4609C67.0251 12.9393 66.917 13.2184 66.4911 13.5044C61.6611 16.7547 56.837 20.0134 52.0209 23.285C51.5313 23.6182 51.0877 23.6742 50.5173 23.5244C47.4227 22.7148 44.3168 21.9487 41.2153 21.1648C40.9602 21.1003 40.7116 21.0147 40.3699 20.9129L40.3686 20.9142Z" fill="#CE833D"/>
<path d="M53.0811 18.8142C52.549 17.1627 52.0507 15.5524 51.4962 13.9629C51.4125 13.723 51.085 13.5406 50.8344 13.3923C45.738 10.3731 40.6393 7.35456 35.5246 4.36638C35.1483 4.14653 34.6285 4.04356 34.1897 4.0776C31.42 4.29478 28.6559 4.57499 25.8877 4.80923C25.3643 4.85316 25.0431 4.9976 24.8458 5.54384C24.4561 6.6232 23.9942 7.67971 23.5128 8.72287C23.2657 9.25823 23.3781 9.57532 23.849 9.90687C29.1894 13.6748 34.5228 17.4521 39.8468 21.2438C40.388 21.6299 40.8869 21.7025 41.5359 21.5454C45.0567 20.6971 48.589 19.8981 52.1168 19.079C52.4069 19.0116 52.6905 18.9204 53.0797 18.8126L53.0811 18.8142Z" fill="#CB9360"/>
<path d="M3.15182 18.2241C3.8302 16.8854 4.47416 15.5778 5.16309 14.2942C5.26704 14.1006 5.5704 13.9844 5.80365 13.8881C10.5484 11.9266 15.295 9.96583 20.051 8.03278C20.401 7.89057 20.8568 7.86443 21.2251 7.94501C23.5493 8.45562 25.8601 9.01905 28.1807 9.54395C28.6195 9.64288 28.8727 9.80329 28.9656 10.29C29.149 11.2519 29.3969 12.2028 29.6632 13.1447C29.7999 13.6281 29.6609 13.8839 29.2153 14.1098C24.1606 16.6779 19.1107 19.2548 14.0668 21.845C13.554 22.1089 13.12 22.1117 12.59 21.9019C9.7138 20.7673 6.82121 19.6732 3.93511 18.5625C3.6978 18.4711 3.46926 18.3602 3.15324 18.223L3.15182 18.2241Z" fill="#A6682E"/>
<path d="M62.4876 19.9716C62.0813 19.0572 61.6969 18.1644 61.2816 17.2869C61.2189 17.1545 61.0199 17.0699 60.8671 17.0003C57.7597 15.5812 54.6511 14.1627 51.5351 12.7625C51.3058 12.6595 51.0015 12.6323 50.7519 12.6787C49.177 12.973 47.6092 13.303 46.0362 13.6069C45.7387 13.6642 45.5634 13.7667 45.4837 14.092C45.3264 14.7348 45.1262 15.3689 44.9141 15.9966C44.8052 16.3187 44.8891 16.4937 45.1795 16.6549C48.4727 18.4884 51.7624 20.3276 55.0476 22.1757C55.3816 22.3639 55.6721 22.375 56.0346 22.2451C58.0016 21.543 59.9781 20.8684 61.9509 20.1826C62.1131 20.1262 62.2702 20.0565 62.4867 19.9708L62.4876 19.9716Z" fill="#B2743B"/>
<path d="M6.11509 13.0124C7.13265 12.4432 8.11461 11.8789 9.11496 11.3501C9.26589 11.2703 9.51126 11.3285 9.70294 11.3688C13.6032 12.1858 17.5043 13.0042 21.3995 13.8447C21.6861 13.9065 21.9902 14.0902 22.1918 14.3046C23.4628 15.6587 24.7023 17.0412 25.9648 18.403C26.2037 18.6603 26.2966 18.8758 26.1447 19.2322C25.8445 19.9365 25.5905 20.6621 25.3522 21.3899C25.2299 21.7635 25.0295 21.8682 24.6451 21.8184C20.2821 21.2582 15.9184 20.7058 11.5527 20.1646C11.1086 20.1099 10.8287 19.9207 10.5793 19.5514C9.22491 17.5498 7.84238 15.5671 6.4712 13.5766C6.35846 13.4129 6.25984 13.2404 6.1165 13.0123L6.11509 13.0124Z" fill="#B07947"/>
<path d="M20.5472 16.1557C21.6577 15.1623 22.7251 14.1851 23.8253 13.247C23.9913 13.1054 24.3135 13.1097 24.5638 13.1065C29.6554 13.0389 34.7484 12.9728 39.84 12.9359C40.2147 12.9332 40.6452 13.0776 40.9562 13.2888C42.9186 14.6234 44.8494 16.0023 46.8032 17.3489C47.1728 17.6032 47.3487 17.846 47.2586 18.3328C47.0804 19.2948 46.9657 20.2704 46.8713 21.2445C46.8229 21.7444 46.6021 21.9308 46.1088 21.9758C40.5118 22.4925 34.9159 23.0192 29.3207 23.5604C28.7517 23.6159 28.3499 23.4579 27.9361 23.0668C25.6894 20.9479 23.413 18.8604 21.1485 16.76C20.9623 16.5873 20.7913 16.3997 20.549 16.1551L20.5472 16.1557Z" fill="#BC7D43"/>
<path d="M23.549 53.3793L23.549 53.3793L23.5486 53.3792C22.5183 53.1436 21.0666 52.8115 19.1833 51.754C17.2969 50.6948 14.9651 48.9002 12.2004 45.726L12.2004 45.726C8.75741 41.7742 7.97329 38.2753 7.33503 35.4256L7.04228 35.4912L7.33503 35.4256C7.32968 35.4017 7.32433 35.3778 7.319 35.354C6.85262 33.2712 6.44851 31.4664 4.94385 30.3909C4.82599 30.2546 4.71328 30.0174 4.61756 29.6818C4.51923 29.337 4.44797 28.9222 4.39828 28.4812C4.31317 27.7258 4.2939 26.9172 4.30152 26.3H63.6984C63.7063 26.9171 63.6872 27.7258 63.6021 28.4812C63.5524 28.9222 63.4811 29.337 63.3827 29.6817C63.2868 30.0173 63.174 30.2546 63.0559 30.3908C61.5526 31.4653 61.1487 33.267 60.6821 35.3481L60.6647 35.4255L60.6647 35.4256C60.0264 38.2752 59.2415 41.7733 55.7993 45.726C53.0346 48.8998 50.7026 50.6943 48.8161 51.7537C46.9325 52.8114 45.4806 53.1437 44.4508 53.3793L44.4507 53.3793L44.5176 53.6718L44.4507 53.3793L44.4038 53.3901C43.7626 53.5367 43.1807 53.6698 42.7454 53.9586C42.3541 54.2181 42.0342 54.5802 41.7292 54.9254L41.7077 54.9497L41.7075 54.95C41.1811 55.5469 40.5864 56.22 39.4712 56.7548C38.3509 57.292 36.681 57.7 33.9999 57.7C31.3187 57.7 29.6485 57.2922 28.5282 56.7551C27.4129 56.2205 26.8181 55.5473 26.2924 54.9502L26.2887 54.946C25.9782 54.5928 25.6532 54.2231 25.2543 53.9586C24.819 53.6698 24.2372 53.5367 23.5959 53.3901L23.549 53.3793Z" fill="#D7D2CB" stroke="#B0ACA5" stroke-width="0.6"/>
<path d="M26.2212 55.1857L26.222 55.1874C26.2237 55.1909 26.2268 55.1973 26.2315 55.2065C26.2409 55.2248 26.2565 55.2539 26.2792 55.2924C26.3247 55.3693 26.3986 55.4834 26.5082 55.6226C26.7273 55.9006 27.0898 56.2797 27.6546 56.662C28.7816 57.4249 30.7338 58.2137 33.9991 58.2137C37.2645 58.2137 39.2167 57.4249 40.3437 56.662C40.9085 56.2797 41.271 55.9006 41.49 55.6226C41.5997 55.4834 41.6736 55.3693 41.7191 55.2924C41.7418 55.2539 41.7574 55.2248 41.7668 55.2065C41.7691 55.2019 41.7711 55.198 41.7727 55.1948C41.7742 55.1916 41.7754 55.1891 41.7763 55.1874L41.7771 55.1857C41.7772 55.1855 41.7772 55.1854 41.7773 55.1852M26.2212 55.1857L42.0514 55.3072C41.7771 55.1857 41.7772 55.1855 41.7773 55.1852M26.2212 55.1857C26.2211 55.1855 26.2211 55.1854 26.221 55.1852C26.221 55.1852 26.221 55.1852 26.221 55.1852C26.2209 55.1851 26.2209 55.185 26.2208 55.1849L26.2206 55.1844C26.2206 55.1844 26.2206 55.1843 26.2206 55.1843C26.213 55.1674 26.2038 55.1511 26.1932 55.1359C25.4012 53.9979 25.3 52.4813 25.3 50.8539V42.9365C25.3 39.0067 28.3757 35.8137 32.1053 35.8137H35.8947C39.6251 35.8137 42.7 39.0075 42.7 42.9365V50.8539C42.7 52.433 42.5706 53.9918 41.8201 55.1162M26.2212 55.1857L41.8201 55.1162M41.7773 55.1852C41.7885 55.16 41.803 55.1368 41.8201 55.1162M41.7773 55.1852L41.8201 55.1162" fill="#B0ADA7" stroke="#9A9790" stroke-width="0.6" stroke-linecap="round" stroke-linejoin="round"/>
<path d="M3.30829 26.3H64.6917C64.6945 26.3946 64.6972 26.5099 64.6987 26.6418C64.7031 27.0258 64.6977 27.5469 64.6588 28.0978C64.6197 28.6504 64.5476 29.2237 64.4215 29.7155C64.3085 30.156 64.1615 30.4933 63.987 30.7H4.01302C3.83853 30.4933 3.69148 30.156 3.57853 29.7155C3.45243 29.2237 3.38028 28.6504 3.34123 28.0978C3.30231 27.5469 3.29689 27.0258 3.30128 26.6418C3.30279 26.5099 3.30545 26.3946 3.30829 26.3Z" fill="#B0ADA7" stroke="#9A9790" stroke-width="0.6" stroke-linecap="round" stroke-linejoin="round"/>
<path d="M1.69969 18.3H66.3003C67.0652 18.3 67.7 18.9408 67.7 19.7497V24.2503C67.7 25.0592 67.0652 25.7 66.3003 25.7H1.69969C0.934797 25.7 0.3 25.0592 0.3 24.2503V19.7497C0.3 18.9408 0.934797 18.3 1.69969 18.3Z" fill="#D7D2CB" stroke="#B0ACA5" stroke-width="0.6"/>
<path d="M43.6797 31.0488C43.6692 36.4349 39.3249 40.7977 33.9807 40.7977C28.6364 40.7977 24.3091 36.4349 24.3195 31.0488C24.33 25.6628 28.6743 21.3 34.0186 21.3C39.3628 21.3 43.6902 25.6628 43.6797 31.0488Z" fill="#F3FF70" stroke="#FDFFCC" stroke-width="0.6"/>
<mask id="mask0_2103_9920" style="mask-type:luminance" maskUnits="userSpaceOnUse" x="24" y="21" width="20" height="20">
<path d="M33.8307 40.8356C39.26 40.8356 43.6614 36.3953 43.6614 30.9178C43.6614 25.4404 39.26 21 33.8307 21C28.4013 21 24 25.4404 24 30.9178C24 36.3953 28.4013 40.8356 33.8307 40.8356Z" fill="white"/>
</mask>
<g mask="url(#mask0_2103_9920)">
<path d="M23.8711 33.6006L38.1254 21.2036" stroke="#FDFFCC" stroke-width="2" stroke-miterlimit="10"/>
<path d="M27.0586 37.8035L41.8042 25.104" stroke="#FDFFCC" stroke-width="6" stroke-miterlimit="10"/>
</g>
</g>
<defs>
<clipPath id="clip0_2103_9920">
<rect width="68" height="58" fill="white" transform="translate(0 0.513672)"/>
</clipPath>
</defs>
</svg>
