<svg width="68" height="59" viewBox="0 0 68 59" fill="none" xmlns="http://www.w3.org/2000/svg">
<g clip-path="url(#clip0_2103_9730)">
<path d="M19.3973 21.8767C20.4956 21.8544 21.8349 20.8146 22.9689 19.5739C25.9815 16.5522 28.196 12.9239 30.7295 9.5385C31.2771 8.80699 31.8027 8.05939 32.4509 7.16371C32.0297 7.26013 31.8135 7.30183 31.6021 7.3595C28.4398 8.22192 25.2677 9.04658 22.1199 9.96447C19.7696 10.6491 17.4769 11.4495 15.3691 12.8266C13.7974 13.8536 13.7541 15.3317 13.8257 16.6997C13.9166 18.4399 15.5294 20.2843 16.3617 20.9147C17.3938 21.6957 19.3959 21.8769 19.3959 21.8769L19.3973 21.8767Z" fill="#5F5697"/>
<path d="M54.9836 17.2062C54.8667 16.0126 53.6221 14.6423 52.1759 13.5124C48.6327 10.4877 44.4966 8.38291 40.5979 5.91028C39.7555 5.37592 38.8974 4.86678 37.8678 4.23665C38.0082 4.68699 38.0718 4.91887 38.1524 5.14408C39.3577 8.51366 40.5227 11.8973 41.7871 15.2464C42.7305 17.7471 43.7949 20.1754 45.4716 22.3538C46.722 23.9781 48.3346 23.9007 49.8177 23.7074C51.7043 23.4618 53.5761 21.5508 54.1922 20.5916C54.9553 19.4024 54.9839 17.2077 54.9839 17.2077L54.9836 17.2062Z" fill="#483F84"/>
<path d="M5.86818 19.0745C6.59079 19.6125 7.98134 19.6127 9.33998 19.3796C12.8113 18.9377 16.0709 17.7015 19.4149 16.7831C20.1375 16.5847 20.854 16.3649 21.7245 16.1108C21.4032 15.9614 21.2421 15.8796 21.0762 15.8107C18.5941 14.7786 16.1245 13.717 13.6239 12.7281C11.7571 11.9893 9.86952 11.3544 7.81145 11.1861C6.27683 11.0608 5.50522 11.9964 4.86347 12.9185C4.04702 14.0914 4.16389 16.0973 4.38588 16.9244C4.6615 17.9494 5.86717 19.0739 5.86717 19.0739L5.86818 19.0745Z" fill="#5345A8"/>
<path d="M60.0817 9.65622C59.1013 9.80193 58.0215 10.8858 57.1485 12.1261C54.7979 15.1755 53.231 18.6765 51.3508 21.9966C50.9445 22.714 50.5596 23.4433 50.0819 24.3192C50.4478 24.1847 50.6366 24.1226 50.8192 24.0468C53.5509 22.913 56.2958 21.8118 59.0082 20.63C61.0335 19.7482 62.994 18.7694 64.723 17.2956C66.0122 16.1964 65.8818 14.8685 65.6611 13.6523C65.3806 12.1051 63.726 10.6389 62.9088 10.1699C61.8957 9.58896 60.0829 9.65587 60.0829 9.65587L60.0817 9.65622Z" fill="#685BB3"/>
<path d="M31.011 13.6227C30.8075 12.5013 29.5221 11.3002 28.0646 10.3425C24.4736 7.7532 20.3925 6.08121 16.5077 4.04241C15.6683 3.6018 14.816 3.18628 13.7918 2.66951C13.9598 3.08513 14.0381 3.2998 14.132 3.50684C15.5355 6.60457 16.9019 9.7187 18.3599 12.7925C19.4478 15.0877 20.6447 17.3048 22.4021 19.2377C23.7127 20.6788 25.234 20.4802 26.6237 20.1818C28.3914 19.8025 30.0157 17.847 30.5246 16.8907C31.155 15.705 31.0115 13.6241 31.0115 13.6241L31.011 13.6227Z" fill="#41358E"/>
<path d="M35.0814 23.9892C36.3345 24.0209 37.9154 22.9053 39.2727 21.55C42.864 18.2621 45.5772 14.2413 48.6414 10.5139C49.3036 9.70846 49.9417 8.88358 50.7272 7.89628C50.2421 7.98428 49.9934 8.02057 49.7495 8.07531C46.0998 8.89391 42.4408 9.66894 38.8047 10.5515C36.0899 11.2097 33.4347 12.0028 30.9602 13.463C29.1152 14.552 28.9889 16.2347 28.9994 17.7979C29.0125 19.7863 30.7551 21.9727 31.671 22.7346C32.8069 23.6786 35.0798 23.9894 35.0798 23.9894L35.0814 23.9892Z" fill="#5544C0"/>
<path d="M23.549 53.3793L23.549 53.3793L23.5486 53.3792C22.5183 53.1436 21.0666 52.8115 19.1833 51.754C17.2969 50.6948 14.9651 48.9002 12.2004 45.726L12.2004 45.726C8.75741 41.7742 7.97329 38.2753 7.33503 35.4256L7.04228 35.4912L7.33503 35.4256C7.32968 35.4017 7.32433 35.3778 7.319 35.354C6.85262 33.2712 6.44851 31.4664 4.94385 30.3909C4.82599 30.2546 4.71328 30.0174 4.61756 29.6818C4.51923 29.337 4.44797 28.9222 4.39828 28.4812C4.31317 27.7258 4.2939 26.9172 4.30152 26.3H63.6984C63.7063 26.9171 63.6872 27.7258 63.6021 28.4812C63.5524 28.9222 63.4811 29.337 63.3827 29.6817C63.2868 30.0173 63.174 30.2546 63.0559 30.3908C61.5526 31.4653 61.1487 33.267 60.6821 35.3481L60.6647 35.4255L60.6647 35.4256C60.0264 38.2752 59.2415 41.7733 55.7993 45.726C53.0346 48.8998 50.7026 50.6943 48.8161 51.7537C46.9325 52.8114 45.4806 53.1437 44.4508 53.3793L44.4507 53.3793L44.5176 53.6718L44.4507 53.3793L44.4038 53.3901C43.7626 53.5367 43.1807 53.6698 42.7454 53.9586C42.3541 54.2181 42.0342 54.5802 41.7292 54.9254L41.7077 54.9497L41.7075 54.95C41.1811 55.5469 40.5864 56.22 39.4712 56.7548C38.3509 57.292 36.681 57.7 33.9999 57.7C31.3187 57.7 29.6485 57.2922 28.5282 56.7551C27.4129 56.2205 26.8181 55.5473 26.2924 54.9502L26.2887 54.946C25.9782 54.5928 25.6532 54.2231 25.2543 53.9586C24.819 53.6698 24.2372 53.5367 23.5959 53.3901L23.549 53.3793Z" fill="#75E391" stroke="#63BF7A" stroke-width="0.6"/>
<path d="M26.2212 55.1857L26.222 55.1874C26.2237 55.1909 26.2268 55.1973 26.2315 55.2065C26.2409 55.2248 26.2565 55.2539 26.2792 55.2924C26.3247 55.3693 26.3986 55.4834 26.5082 55.6226C26.7273 55.9006 27.0898 56.2797 27.6546 56.662C28.7816 57.4249 30.7338 58.2137 33.9991 58.2137C37.2645 58.2137 39.2167 57.4249 40.3437 56.662C40.9085 56.2797 41.271 55.9006 41.49 55.6226C41.5997 55.4834 41.6736 55.3693 41.7191 55.2924C41.7418 55.2539 41.7574 55.2248 41.7668 55.2065C41.7691 55.2019 41.7711 55.198 41.7727 55.1948C41.7742 55.1916 41.7754 55.1891 41.7763 55.1874L41.7771 55.1857C41.7772 55.1855 41.7772 55.1854 41.7773 55.1852M26.2212 55.1857L42.0514 55.3072C41.7771 55.1857 41.7772 55.1855 41.7773 55.1852M26.2212 55.1857C26.2211 55.1855 26.2211 55.1854 26.221 55.1852C26.221 55.1852 26.221 55.1852 26.221 55.1852C26.2209 55.1851 26.2209 55.185 26.2208 55.1849L26.2206 55.1844C26.2206 55.1844 26.2206 55.1843 26.2206 55.1843C26.213 55.1674 26.2038 55.1511 26.1932 55.1359C25.4012 53.9979 25.3 52.4813 25.3 50.8539V42.9365C25.3 39.0067 28.3757 35.8137 32.1053 35.8137H35.8947C39.6251 35.8137 42.7 39.0075 42.7 42.9365V50.8539C42.7 52.433 42.5706 53.9918 41.8201 55.1162M26.2212 55.1857L41.8201 55.1162M41.7773 55.1852C41.7885 55.16 41.803 55.1368 41.8201 55.1162M41.7773 55.1852L41.8201 55.1162" fill="#58BA71" stroke="#4A9F60" stroke-width="0.6" stroke-linecap="round" stroke-linejoin="round"/>
<path d="M3.30829 26.3H64.6917C64.6945 26.3946 64.6972 26.5099 64.6987 26.6418C64.7031 27.0258 64.6977 27.5469 64.6588 28.0978C64.6197 28.6504 64.5476 29.2237 64.4215 29.7155C64.3085 30.156 64.1615 30.4933 63.987 30.7H4.01302C3.83853 30.4933 3.69148 30.156 3.57853 29.7155C3.45243 29.2237 3.38028 28.6504 3.34123 28.0978C3.30231 27.5469 3.29689 27.0258 3.30128 26.6418C3.30279 26.5099 3.30545 26.3946 3.30829 26.3Z" fill="#58BA71" stroke="#4A9F60" stroke-width="0.6" stroke-linecap="round" stroke-linejoin="round"/>
<path d="M1.69969 18.3H66.3003C67.0652 18.3 67.7 18.9408 67.7 19.7497V24.2503C67.7 25.0592 67.0652 25.7 66.3003 25.7H1.69969C0.934797 25.7 0.3 25.0592 0.3 24.2503V19.7497C0.3 18.9408 0.934797 18.3 1.69969 18.3Z" fill="#75E391" stroke="#63BF7A" stroke-width="0.6"/>
<path d="M43.6797 31.0488C43.6692 36.4349 39.3249 40.7977 33.9807 40.7977C28.6364 40.7977 24.3091 36.4349 24.3195 31.0488C24.33 25.6628 28.6743 21.3 34.0186 21.3C39.3628 21.3 43.6902 25.6628 43.6797 31.0488Z" fill="#F3FF70" stroke="#FDFFCC" stroke-width="0.6"/>
<mask id="mask0_2103_9730" style="mask-type:luminance" maskUnits="userSpaceOnUse" x="24" y="21" width="20" height="20">
<path d="M33.8307 40.8356C39.26 40.8356 43.6614 36.3953 43.6614 30.9178C43.6614 25.4404 39.26 21 33.8307 21C28.4013 21 24 25.4404 24 30.9178C24 36.3953 28.4013 40.8356 33.8307 40.8356Z" fill="white"/>
</mask>
<g mask="url(#mask0_2103_9730)">
<path d="M23.8711 33.6006L38.1254 21.2036" stroke="#FDFFCC" stroke-width="2" stroke-miterlimit="10"/>
<path d="M27.0586 37.8035L41.8042 25.104" stroke="#FDFFCC" stroke-width="6" stroke-miterlimit="10"/>
</g>
</g>
<defs>
<clipPath id="clip0_2103_9730">
<rect width="68" height="58" fill="white" transform="translate(0 0.513672)"/>
</clipPath>
</defs>
</svg>
