<svg width="68" height="59" viewBox="0 0 68 59" fill="none" xmlns="http://www.w3.org/2000/svg">
<g clip-path="url(#clip0_2103_9825)">
<path d="M8.35467 10.3637C10.8644 11.4367 13.2485 12.4375 15.6102 13.49C15.8932 13.6157 16.1346 13.9929 16.2656 14.3084C18.5165 19.7314 21.136 25.0351 23.3468 30.4746C22.8671 31.6041 22.6697 32.1976 22.3927 32.8842C21.4973 35.2373 21.1565 36.41 20.1847 39.0176C18.8344 38.4373 17.1861 37.5811 16.3134 37.0932C15.3955 36.5804 12.4254 34.8821 12.4254 34.8821C12.4254 34.8821 11.842 33.7986 11.0818 31.9518C9.29776 27.6179 7.47983 23.3739 5.68173 19.0826C5.10853 17.6901 5.27053 18.0174 5.64194 17.0966C6.56375 14.9135 7.41982 12.7006 8.35453 10.366L8.35467 10.3637Z" fill="#A67992"/>
<path d="M44.1365 3.86704C46.732 4.71168 49.1959 5.49567 51.6422 6.33307C51.9352 6.43301 52.2094 6.78715 52.368 7.08971C55.0941 12.2901 58.1767 17.3387 60.8643 22.5592C60.4874 23.7269 60.3437 24.3357 60.1292 25.0443C59.4474 27.4679 59.2127 28.6663 58.4776 31.3504C57.0808 30.8929 55.3627 30.1873 54.4499 29.7793C53.4899 29.3505 50.3801 27.9242 50.3801 27.9242C50.3801 27.9242 49.7022 26.897 48.7802 25.1255C46.6163 20.9682 44.4267 16.9034 42.2527 12.7898C41.5574 11.4541 41.748 11.7656 42.0357 10.8153C42.7589 8.55865 43.414 6.27809 44.1365 3.86934L44.1365 3.86704Z" fill="#885C75"/>
<path d="M25.9511 3.05364C27.6808 5.52403 29.3346 7.85342 30.9374 10.2182C31.1296 10.5012 31.1363 10.996 31.0752 11.3684C30.0255 17.7703 29.3914 24.2751 28.2944 30.6691C27.1857 31.4493 26.6543 31.8912 25.9941 32.3741C23.7817 34.0603 22.7781 34.9621 20.3456 36.8427C19.4167 35.5107 18.3691 33.7461 17.8345 32.7794C17.2721 31.7629 15.475 28.4373 15.475 28.4373C15.475 28.4373 15.5593 27.0802 15.9227 24.9038C16.7754 19.7963 17.544 14.7533 18.3587 9.6776C18.6327 8.03658 18.5939 8.4382 19.4794 7.79064C21.6174 6.27934 23.7112 4.70169 25.9496 3.05571L25.9511 3.05364Z" fill="#AA6B8F"/>
<path d="M62.2202 10.6115C62.7421 12.8999 63.2506 15.0645 63.712 17.2395C63.7675 17.4999 63.6271 17.8585 63.4738 18.1091C60.8383 22.4159 58.4722 26.9188 55.8049 31.206C54.7767 31.4431 54.264 31.6057 53.6464 31.76C51.5566 32.3262 50.5685 32.6818 48.2631 33.3236C47.9844 32.0908 47.7471 30.5113 47.6455 29.6576C47.5384 28.7598 47.2189 25.8351 47.2189 25.8351C47.2189 25.8351 47.6779 24.8815 48.5786 23.4193C50.6923 19.9878 52.7263 16.578 54.8032 13.1583C55.4823 12.0557 55.3365 12.3339 56.1648 12.1269C58.1496 11.6649 60.1219 11.1421 62.2186 10.6126L62.2202 10.6115Z" fill="#A97B95"/>
<path d="M42.6144 4.36813C43.1174 6.47359 43.6069 8.46491 44.053 10.4664C44.1067 10.706 43.9806 11.0381 43.8416 11.2706C41.452 15.2674 39.3126 19.4424 36.8935 23.4215C35.9476 23.6498 35.4763 23.8047 34.9081 23.9528C32.9864 24.4948 32.0785 24.8321 29.9585 25.4458C29.6898 24.3116 29.456 22.8572 29.3541 22.0708C29.2468 21.2439 28.9245 18.5498 28.9245 18.5498C28.9245 18.5498 29.3387 17.666 30.1555 16.309C32.0722 13.1244 33.9156 9.96059 35.7985 6.78713C36.4143 5.76392 36.2825 6.0218 37.0444 5.82309C38.8704 5.37823 40.6843 4.87739 42.6129 4.36912L42.6144 4.36813Z" fill="#A57E94"/>
<path d="M25.3601 9.45881C28.193 8.91505 30.873 8.38241 33.5642 7.90814C33.8865 7.85096 34.3226 8.03829 34.6255 8.23692C39.8304 11.6509 45.286 14.7428 50.4658 18.195C50.7214 19.4662 50.9035 20.102 51.0717 20.866C51.6951 23.4531 52.0979 24.6801 52.8067 27.5349C51.2807 27.8249 49.3298 28.0495 48.2762 28.1382C47.1682 28.2317 43.5599 28.5004 43.5599 28.5004C43.5599 28.5004 42.4031 27.8973 40.6361 26.7309C36.4894 23.9938 32.3668 21.3553 28.2333 18.6638C26.901 17.7843 27.2379 17.9749 27.0124 16.9502C26.5135 14.4962 25.9394 12.055 25.3614 9.4609L25.3601 9.45881Z" fill="#774F66"/>
<path d="M23.549 53.3793L23.549 53.3793L23.5486 53.3792C22.5183 53.1436 21.0666 52.8115 19.1833 51.754C17.2969 50.6948 14.9651 48.9002 12.2004 45.726L12.2004 45.726C8.75741 41.7742 7.97329 38.2753 7.33503 35.4256L7.04228 35.4912L7.33503 35.4256C7.32968 35.4017 7.32433 35.3778 7.31899 35.354C6.85262 33.2712 6.44851 31.4664 4.94385 30.3909C4.82599 30.2546 4.71328 30.0174 4.61756 29.6818C4.51923 29.337 4.44797 28.9222 4.39828 28.4812C4.31317 27.7258 4.2939 26.9172 4.30152 26.3H63.6984C63.7063 26.9171 63.6872 27.7258 63.6021 28.4812C63.5524 28.9222 63.4811 29.337 63.3827 29.6817C63.2868 30.0173 63.174 30.2546 63.0559 30.3908C61.5526 31.4653 61.1487 33.267 60.6821 35.3481L60.6647 35.4255L60.6647 35.4256C60.0264 38.2752 59.2414 41.7733 55.7993 45.726C53.0346 48.8998 50.7026 50.6943 48.8161 51.7537C46.9325 52.8114 45.4806 53.1437 44.4508 53.3793L44.4507 53.3793L44.5176 53.6718L44.4507 53.3793L44.4038 53.3901C43.7626 53.5367 43.1807 53.6698 42.7454 53.9586C42.3541 54.2181 42.0343 54.5801 41.7293 54.9253L41.7077 54.9497L41.7075 54.95C41.1811 55.5469 40.5864 56.22 39.4712 56.7548C38.3509 57.292 36.681 57.7 33.9999 57.7C31.3187 57.7 29.6485 57.2922 28.5282 56.7551C27.4129 56.2205 26.8181 55.5473 26.2924 54.9502L26.2887 54.946C25.9782 54.5928 25.6531 54.2231 25.2543 53.9586C24.819 53.6698 24.2372 53.5368 23.5959 53.3901L23.549 53.3793Z" fill="#EC7777" stroke="#C96464" stroke-width="0.6"/>
<path d="M26.2212 55.1857L26.222 55.1874C26.2237 55.1909 26.2268 55.1973 26.2315 55.2065C26.2409 55.2248 26.2565 55.2539 26.2792 55.2924C26.3247 55.3693 26.3986 55.4834 26.5082 55.6226C26.7273 55.9006 27.0898 56.2797 27.6546 56.662C28.7816 57.4249 30.7338 58.2137 33.9991 58.2137C37.2645 58.2137 39.2167 57.4249 40.3437 56.662C40.9085 56.2797 41.271 55.9006 41.49 55.6226C41.5997 55.4834 41.6736 55.3693 41.7191 55.2924C41.7418 55.2539 41.7574 55.2248 41.7668 55.2065C41.7691 55.2019 41.7711 55.198 41.7727 55.1948C41.7742 55.1916 41.7754 55.1891 41.7763 55.1874L41.7771 55.1857C41.7772 55.1855 41.7772 55.1854 41.7773 55.1852M26.2212 55.1857L42.0514 55.3072C41.7771 55.1857 41.7772 55.1855 41.7773 55.1852M26.2212 55.1857C26.2211 55.1855 26.2211 55.1854 26.221 55.1852C26.221 55.1852 26.221 55.1852 26.221 55.1852C26.2209 55.1851 26.2209 55.185 26.2208 55.1849L26.2206 55.1844C26.2206 55.1844 26.2206 55.1843 26.2206 55.1843C26.213 55.1674 26.2038 55.1511 26.1932 55.1359C25.4012 53.9979 25.3 52.4813 25.3 50.8539V42.9365C25.3 39.0067 28.3757 35.8137 32.1053 35.8137H35.8947C39.6251 35.8137 42.7 39.0075 42.7 42.9365V50.8539C42.7 52.433 42.5706 53.9918 41.8201 55.1162M26.2212 55.1857L41.8201 55.1162M41.7773 55.1852C41.7885 55.16 41.803 55.1368 41.8201 55.1162M41.7773 55.1852L41.8201 55.1162" fill="#CB6363" stroke="#A85050" stroke-width="0.6" stroke-linecap="round" stroke-linejoin="round"/>
<path d="M3.30829 26.3H64.6917C64.6945 26.3946 64.6972 26.5099 64.6987 26.6418C64.7031 27.0258 64.6977 27.5469 64.6588 28.0978C64.6197 28.6504 64.5476 29.2237 64.4215 29.7155C64.3085 30.156 64.1615 30.4933 63.987 30.7H4.01302C3.83853 30.4933 3.69148 30.156 3.57853 29.7155C3.45243 29.2237 3.38028 28.6504 3.34123 28.0978C3.30231 27.5469 3.29689 27.0258 3.30128 26.6418C3.30279 26.5099 3.30545 26.3946 3.30829 26.3Z" fill="#CB6363" stroke="#A85050" stroke-width="0.6" stroke-linecap="round" stroke-linejoin="round"/>
<path d="M1.69969 18.3H66.3003C67.0652 18.3 67.7 18.9408 67.7 19.7497V24.2503C67.7 25.0592 67.0652 25.7 66.3003 25.7H1.69969C0.934797 25.7 0.3 25.0592 0.3 24.2503V19.7497C0.3 18.9408 0.934797 18.3 1.69969 18.3Z" fill="#EC7777" stroke="#C96464" stroke-width="0.6"/>
<path d="M43.6797 31.0488C43.6692 36.4349 39.3249 40.7977 33.9807 40.7977C28.6364 40.7977 24.3091 36.4349 24.3195 31.0488C24.33 25.6628 28.6743 21.3 34.0186 21.3C39.3628 21.3 43.6902 25.6628 43.6797 31.0488Z" fill="#F3FF70" stroke="#FDFFCC" stroke-width="0.6"/>
<mask id="mask0_2103_9825" style="mask-type:luminance" maskUnits="userSpaceOnUse" x="24" y="21" width="20" height="20">
<path d="M33.8307 40.8356C39.26 40.8356 43.6614 36.3953 43.6614 30.9178C43.6614 25.4404 39.26 21 33.8307 21C28.4013 21 24 25.4404 24 30.9178C24 36.3953 28.4013 40.8356 33.8307 40.8356Z" fill="white"/>
</mask>
<g mask="url(#mask0_2103_9825)">
<path d="M23.8711 33.6006L38.1254 21.2036" stroke="#FDFFCC" stroke-width="2" stroke-miterlimit="10"/>
<path d="M27.0586 37.8035L41.8042 25.104" stroke="#FDFFCC" stroke-width="6" stroke-miterlimit="10"/>
</g>
</g>
<defs>
<clipPath id="clip0_2103_9825">
<rect width="68" height="58" fill="white" transform="translate(0 0.513672)"/>
</clipPath>
</defs>
</svg>
