<svg width="68" height="59" viewBox="0 0 68 59" fill="none" xmlns="http://www.w3.org/2000/svg">
<g clip-path="url(#clip0_2103_7388)">
<path d="M8.35467 7.36367C10.8644 8.43666 13.2485 9.4375 15.6102 10.49C15.8932 10.6157 16.1346 10.9929 16.2656 11.3084C18.5165 16.7314 21.136 22.0351 23.3468 27.4746C22.8671 28.6041 22.6697 29.1976 22.3927 29.8842C21.4973 32.2373 21.1565 33.41 20.1847 36.0176C18.8344 35.4373 17.1861 34.5811 16.3134 34.0932C15.3955 33.5804 12.4254 31.8821 12.4254 31.8821C12.4254 31.8821 11.842 30.7986 11.0818 28.9518C9.29776 24.6179 7.47983 20.3739 5.68173 16.0826C5.10853 14.6901 5.27053 15.0174 5.64194 14.0966C6.56375 11.9135 7.41982 9.70058 8.35453 7.36596L8.35467 7.36367Z" fill="#A67992"/>
<path d="M24.9096 7.55618C26.2282 9.94604 27.4922 12.2017 28.7067 14.4843C28.8525 14.7575 28.8108 15.2034 28.7199 15.5327C27.1585 21.1929 25.9611 26.9857 24.3579 32.6343C23.285 33.2296 22.7642 33.5761 22.1235 33.9471C19.97 35.2514 18.9799 35.9663 16.6097 37.4244C15.902 36.1362 15.1292 34.4472 14.7413 33.5257C14.3331 32.5568 13.0362 29.3908 13.0362 29.3908C13.0362 29.3908 13.2428 28.1776 13.7795 26.254C15.039 21.7396 16.2165 17.2753 17.4387 12.7859C17.8434 11.3355 17.7698 11.6932 18.629 11.1957C20.6987 10.0416 22.735 8.82353 24.9081 7.5579L24.9096 7.55618Z" fill="#885C75"/>
<path d="M31.9916 0.00892733C34.9348 1.7569 37.7335 3.39437 40.4962 5.09256C40.8273 5.29554 41.067 5.8053 41.1795 6.22011C43.1121 13.3497 45.5208 20.3907 47.401 27.5343C46.6269 28.8641 46.288 29.572 45.8356 30.3828C44.3519 33.1704 43.7432 34.5769 42.1245 37.6696C40.5414 36.7253 38.6326 35.3885 37.6273 34.6376C36.57 33.8482 33.155 31.2453 33.155 31.2453C33.155 31.2453 32.6029 29.799 31.9527 27.3721C30.4266 21.6768 28.8442 16.0879 27.294 10.4435C26.8036 8.61361 26.9527 9.04818 27.5594 7.96079C29.0489 5.38937 30.4616 2.76999 31.9911 0.0117627L31.9916 0.00892733Z" fill="#774F66"/>
<path d="M43.675 9.40009C45.9717 10.2333 48.1524 11.0083 50.3157 11.8306C50.5749 11.9288 50.8096 12.2538 50.9425 12.5292C53.2257 17.2629 55.8324 21.8715 58.0806 26.622C57.7085 27.6554 57.5618 28.1957 57.3487 28.8232C56.6663 30.9709 56.4205 32.036 55.6827 34.4151C54.4468 33.9641 52.9309 33.2816 52.1265 32.8893C51.2805 32.477 48.5412 31.108 48.5412 31.108C48.5412 31.108 47.9654 30.1689 47.1936 28.5565C45.3821 24.7727 43.5449 21.0709 41.723 17.326C41.1409 16.1102 41.3021 16.3946 41.5879 15.5531C42.3024 13.556 42.9566 11.5354 43.675 9.40215L43.675 9.40009Z" fill="#AA6B8F"/>
<path d="M40.4422 13.5701C39.5581 15.7444 38.7342 17.8096 37.8655 19.8563C37.7618 20.1015 37.4412 20.3149 37.1719 20.4324C32.5437 22.4509 28.0239 24.7845 23.3809 26.7687C22.4025 26.3736 21.8891 26.213 21.2946 25.9854C19.2577 25.2516 18.2442 24.9766 15.9872 24.1811C16.4654 23.0112 17.1763 21.5809 17.5824 20.823C18.0092 20.026 19.4238 17.4463 19.4238 17.4463C19.4238 17.4463 20.3465 16.928 21.9226 16.2461C25.6215 14.6457 29.2427 13.0175 32.9047 11.4057C34.0931 10.8915 33.8142 11.0358 34.6116 11.341C36.5027 12.1001 38.4186 12.8022 40.4402 13.57L40.4422 13.5701Z" fill="#A97B95"/>
<path d="M63.1616 10.1615C63.6207 12.0832 64.0675 13.9007 64.4746 15.7275C64.5237 15.9462 64.4086 16.2492 64.2817 16.4615C62.1006 20.1094 60.148 23.9201 57.9401 27.5519C57.0766 27.7603 56.6465 27.9016 56.1279 28.0369C54.3739 28.5315 53.5452 28.8394 51.6103 29.3996C51.365 28.3643 51.1516 27.0369 51.0587 26.3191C50.9607 25.5644 50.6665 23.1054 50.6665 23.1054C50.6665 23.1054 51.0446 22.2988 51.7901 21.0602C53.5395 18.1535 55.222 15.2658 56.9406 12.3693C57.5027 11.4354 57.3823 11.6708 58.0778 11.4894C59.7444 11.0834 61.4 10.6263 63.1602 10.1624L63.1616 10.1615Z" fill="#A57E94"/>
<path d="M23.549 53.3793L23.549 53.3793L23.5486 53.3792C22.5183 53.1436 21.0666 52.8115 19.1833 51.754C17.2969 50.6948 14.9651 48.9002 12.2004 45.726L12.2004 45.726C8.75741 41.7742 7.97329 38.2753 7.33503 35.4256L7.04228 35.4912L7.33503 35.4256C7.32968 35.4017 7.32433 35.3778 7.319 35.354C6.85262 33.2712 6.44851 31.4664 4.94385 30.3909C4.82599 30.2546 4.71328 30.0174 4.61756 29.6818C4.51923 29.337 4.44797 28.9222 4.39828 28.4812C4.31317 27.7258 4.2939 26.9172 4.30152 26.3H63.6984C63.7063 26.9171 63.6872 27.7258 63.6021 28.4812C63.5524 28.9222 63.4811 29.337 63.3827 29.6817C63.2868 30.0173 63.174 30.2546 63.0559 30.3908C61.5526 31.4653 61.1487 33.267 60.6821 35.3481L60.6647 35.4255L60.6647 35.4256C60.0264 38.2752 59.2415 41.7733 55.7993 45.726C53.0346 48.8998 50.7026 50.6943 48.8161 51.7537C46.9325 52.8114 45.4806 53.1437 44.4508 53.3793L44.4507 53.3793L44.5176 53.6718L44.4507 53.3793L44.4038 53.3901C43.7626 53.5367 43.1807 53.6698 42.7454 53.9586C42.3541 54.2181 42.0342 54.5802 41.7292 54.9254L41.7077 54.9497L41.7075 54.95C41.1811 55.5469 40.5864 56.22 39.4712 56.7548C38.3509 57.292 36.681 57.7 33.9999 57.7C31.3187 57.7 29.6485 57.2922 28.5282 56.7551C27.4129 56.2205 26.8181 55.5473 26.2924 54.9502L26.2887 54.946C25.9782 54.5928 25.6532 54.2231 25.2543 53.9586C24.819 53.6698 24.2372 53.5367 23.5959 53.3901L23.549 53.3793Z" fill="#FB9E18" stroke="#E18B20" stroke-width="0.6"/>
<path d="M26.2212 55.1857L26.222 55.1874C26.2237 55.1909 26.2268 55.1973 26.2315 55.2065C26.2409 55.2248 26.2565 55.2539 26.2792 55.2924C26.3247 55.3693 26.3986 55.4834 26.5082 55.6226C26.7273 55.9006 27.0898 56.2797 27.6546 56.662C28.7816 57.4249 30.7338 58.2137 33.9991 58.2137C37.2645 58.2137 39.2167 57.4249 40.3437 56.662C40.9085 56.2797 41.271 55.9006 41.49 55.6226C41.5997 55.4834 41.6736 55.3693 41.7191 55.2924C41.7418 55.2539 41.7574 55.2248 41.7668 55.2065C41.7691 55.2019 41.7711 55.198 41.7727 55.1948C41.7742 55.1916 41.7754 55.1891 41.7763 55.1874L41.7771 55.1857C41.7772 55.1855 41.7772 55.1854 41.7773 55.1852M26.2212 55.1857L42.0514 55.3072C41.7771 55.1857 41.7772 55.1855 41.7773 55.1852M26.2212 55.1857C26.2211 55.1855 26.2211 55.1854 26.221 55.1852C26.221 55.1852 26.221 55.1852 26.221 55.1852C26.2209 55.1851 26.2209 55.185 26.2208 55.1849L26.2206 55.1844C26.2206 55.1844 26.2206 55.1843 26.2206 55.1843C26.213 55.1674 26.2038 55.1511 26.1932 55.1359C25.4012 53.9979 25.3 52.4813 25.3 50.8539V42.9365C25.3 39.0067 28.3757 35.8137 32.1053 35.8137H35.8947C39.6251 35.8137 42.7 39.0075 42.7 42.9365V50.8539C42.7 52.433 42.5706 53.9918 41.8201 55.1162M26.2212 55.1857L41.8201 55.1162M41.7773 55.1852C41.7885 55.16 41.803 55.1368 41.8201 55.1162M41.7773 55.1852L41.8201 55.1162" fill="#D38513" stroke="#B57211" stroke-width="0.6" stroke-linecap="round" stroke-linejoin="round"/>
<path d="M3.30829 26.3H64.6917C64.6945 26.3946 64.6972 26.5099 64.6987 26.6418C64.7031 27.0258 64.6977 27.5469 64.6588 28.0978C64.6197 28.6504 64.5476 29.2237 64.4215 29.7155C64.3085 30.156 64.1615 30.4933 63.987 30.7H4.01302C3.83853 30.4933 3.69148 30.156 3.57853 29.7155C3.45243 29.2237 3.38028 28.6504 3.34123 28.0978C3.30231 27.5469 3.29689 27.0258 3.30128 26.6418C3.30279 26.5099 3.30545 26.3946 3.30829 26.3Z" fill="#D38513" stroke="#B57211" stroke-width="0.6" stroke-linecap="round" stroke-linejoin="round"/>
<path d="M1.69969 18.3H66.3003C67.0652 18.3 67.7 18.9408 67.7 19.7497V24.2503C67.7 25.0592 67.0652 25.7 66.3003 25.7H1.69969C0.934797 25.7 0.3 25.0592 0.3 24.2503V19.7497C0.3 18.9408 0.934797 18.3 1.69969 18.3Z" fill="#FB9E18" stroke="#E18B20" stroke-width="0.6"/>
<path d="M43.6797 31.0488C43.6692 36.4349 39.3249 40.7977 33.9807 40.7977C28.6364 40.7977 24.3091 36.4349 24.3195 31.0488C24.33 25.6628 28.6743 21.3 34.0186 21.3C39.3628 21.3 43.6902 25.6628 43.6797 31.0488Z" fill="#F3FF70" stroke="#FDFFCC" stroke-width="0.6"/>
<mask id="mask0_2103_7388" style="mask-type:luminance" maskUnits="userSpaceOnUse" x="24" y="21" width="20" height="20">
<path d="M33.8307 40.8356C39.26 40.8356 43.6614 36.3953 43.6614 30.9178C43.6614 25.4404 39.26 21 33.8307 21C28.4013 21 24 25.4404 24 30.9178C24 36.3953 28.4013 40.8356 33.8307 40.8356Z" fill="white"/>
</mask>
<g mask="url(#mask0_2103_7388)">
<path d="M23.8711 33.6006L38.1254 21.2036" stroke="#FDFFCC" stroke-width="2" stroke-miterlimit="10"/>
<path d="M27.0586 37.8035L41.8042 25.104" stroke="#FDFFCC" stroke-width="6" stroke-miterlimit="10"/>
</g>
</g>
<defs>
<clipPath id="clip0_2103_7388">
<rect width="68" height="58" fill="white" transform="translate(0 0.513672)"/>
</clipPath>
</defs>
</svg>
