<svg width="68" height="59" viewBox="0 0 68 59" fill="none" xmlns="http://www.w3.org/2000/svg">
<g clip-path="url(#clip0_2103_9787)">
<path d="M11.6072 24.084C12.5715 22.6562 13.5119 21.3301 14.3829 19.9582C15.551 18.119 16.6779 16.2529 17.7857 14.3755C17.9341 14.1244 17.9446 13.7214 17.8808 13.422C17.6923 12.5335 17.3514 11.6753 17.2228 10.7794C17.0348 9.46434 17.0037 8.12274 16.8557 6.7994C16.8037 6.33264 16.9299 6.11655 17.3526 5.956C18.7948 5.40886 20.2201 4.80956 21.6682 4.2807C21.897 4.19719 22.2899 4.27991 22.4749 4.44387C23.451 5.31011 24.364 6.25 25.3415 7.11417C25.7607 7.48462 25.7279 7.75188 25.4396 8.19763C23.5786 11.0744 21.7598 13.9799 19.8909 16.851C19.4446 17.5368 19.3151 18.1066 19.8134 18.8066C20.0288 19.1087 20.1082 19.5528 20.148 19.9456C20.3131 21.5631 20.4183 23.1881 20.5934 24.8044C20.6513 25.3392 20.5027 25.5827 20.008 25.7646C18.6142 26.2777 17.2452 26.8627 15.8512 27.3766C15.6067 27.4672 15.1967 27.4624 15.027 27.3095C13.8875 26.288 12.7927 25.2149 11.6068 24.0855L11.6072 24.084Z" fill="#932061"/>
<path d="M56.8136 24.9165C55.3408 23.6493 53.9786 22.4221 52.556 21.2665C50.6489 19.717 48.7063 18.2101 46.7485 16.7231C46.4867 16.524 46.0366 16.4594 45.6929 16.4916C44.6729 16.5863 43.667 16.8556 42.6466 16.8822C41.1488 16.9205 39.6419 16.7795 38.1402 16.7718C37.6105 16.7688 37.385 16.5992 37.2606 16.1046C36.8368 14.4174 36.3523 12.7423 35.9497 11.0509C35.8861 10.7837 36.0303 10.3543 36.2382 10.1687C37.3365 9.18883 38.509 8.28934 39.6051 7.30766C40.075 6.8866 40.3701 6.95833 40.8316 7.33974C43.8101 9.80139 46.8264 12.2196 49.7975 14.6894C50.5071 15.2793 51.1284 15.499 51.9779 15.0326C52.3445 14.831 52.8523 14.8002 53.2975 14.807C55.131 14.8341 56.9651 14.9293 58.7985 14.9451C59.4051 14.9503 59.6585 15.1486 59.7974 15.7267C60.1895 17.3552 60.6653 18.9654 61.0582 20.5943C61.1276 20.88 61.0685 21.3386 60.875 21.5087C59.5814 22.6512 58.2359 23.7369 56.8153 24.9172L56.8136 24.9165Z" fill="#860F52"/>
<path d="M61.8886 14.1428C59.7546 14.7313 57.7289 15.2406 55.7326 15.8525C53.056 16.6725 50.3972 17.5531 47.7475 18.4608C47.393 18.5821 47.0462 18.9668 46.8583 19.3124C46.3002 20.3373 45.9163 21.4598 45.2935 22.4419C44.3787 23.8829 43.2886 25.2188 42.3277 26.6343C41.9886 27.1335 41.685 27.2391 41.1381 27.0427C39.2731 26.3723 37.381 25.767 35.5255 25.0738C35.2324 24.9643 34.9178 24.5553 34.8742 24.2408C34.6447 22.5798 34.5384 20.8996 34.3058 19.2394C34.2059 18.5276 34.4611 18.294 35.1149 18.0997C39.3346 16.8454 43.5371 15.5277 47.7599 14.2856C48.7684 13.9889 49.3707 13.5407 49.4689 12.4411C49.511 11.9663 49.8043 11.4664 50.0935 11.0496C51.2833 9.33249 52.5378 7.65814 53.7169 5.93389C54.107 5.36341 54.4555 5.24972 55.0905 5.48536C56.8798 6.14853 58.705 6.72079 60.4953 7.3834C60.8096 7.49916 61.2059 7.84631 61.2438 8.13733C61.5032 10.0864 61.6758 12.0485 61.8903 14.1417L61.8886 14.1428Z" fill="#681C47"/>
<path d="M11.0528 8.68637C12.5731 9.74429 13.9846 10.775 15.4463 11.7319C17.4059 13.015 19.395 14.2544 21.3965 15.4733C21.6642 15.6366 22.0973 15.6538 22.4201 15.5898C23.378 15.4005 24.3056 15.0469 25.2706 14.9221C26.6871 14.7396 28.1297 14.7262 29.5545 14.587C30.057 14.5381 30.2874 14.6769 30.4537 15.1338C31.0202 16.6923 31.6431 18.2333 32.1899 19.7979C32.2763 20.0451 32.1815 20.4663 32.0025 20.6626C31.0567 21.6989 30.0327 22.6663 29.0891 23.7041C28.6846 24.1492 28.3978 24.11 27.923 23.7934C24.8584 21.7499 21.7623 19.7513 18.7039 17.6992C17.9735 17.2092 17.3629 17.0615 16.6029 17.5867C16.275 17.8136 15.7964 17.8924 15.3736 17.9294C13.6323 18.0826 11.884 18.1714 10.1439 18.3354C9.56817 18.3896 9.30858 18.2263 9.12045 17.6917C8.58971 16.1857 7.98135 14.7054 7.44979 13.1992C7.3561 12.935 7.3674 12.4943 7.5343 12.3142C8.64939 11.1046 9.81933 9.94378 11.0512 8.68587L11.0528 8.68637Z" fill="#730041"/>
<path d="M34.5564 14.4705C32.3673 14.9714 30.2914 15.3968 28.2407 15.9275C25.4912 16.6388 22.757 17.4122 20.0309 18.2135C19.6661 18.3204 19.2974 18.6948 19.0915 19.0367C18.48 20.0504 18.0406 21.1709 17.3654 22.1384C16.3737 23.5579 15.209 24.863 14.1717 26.2546C13.8057 26.7453 13.4932 26.8388 12.9477 26.6152C11.0875 25.8523 9.19701 25.154 7.34746 24.3684C7.0553 24.2442 6.75478 23.8156 6.72467 23.4949C6.56651 21.8011 6.53399 20.0935 6.37264 18.4005C6.30327 17.6745 6.5724 17.4493 7.24375 17.2815C11.5766 16.1993 15.895 15.0521 20.2304 13.9824C21.2658 13.7268 21.8964 13.2996 22.0452 12.1895C22.1091 11.7101 22.4287 11.2166 22.7405 10.8072C24.0233 9.12012 25.3698 7.47933 26.6421 5.78459C27.063 5.22387 27.4213 5.12425 28.0543 5.39153C29.8381 6.1438 31.6623 6.80556 33.4471 7.5573C33.7604 7.68871 34.1466 8.05831 34.172 8.35496C34.3476 10.3419 34.4346 12.3383 34.5582 14.4694L34.5564 14.4705Z" fill="#510A32"/>
<path d="M41.8124 24.0746C42.5958 22.4233 43.3709 20.8823 44.0648 19.3045C44.9954 17.1892 45.878 15.0524 46.7384 12.9069C46.8537 12.6199 46.7975 12.1961 46.68 11.8927C46.3319 10.9926 45.8275 10.1488 45.5417 9.23118C45.1229 7.88409 44.866 6.48387 44.4883 5.12166C44.3553 4.64117 44.4529 4.39443 44.874 4.15793C46.3108 3.3517 47.721 2.49359 49.1671 1.70557C49.3955 1.58112 49.8257 1.60424 50.0491 1.74609C51.2279 2.49565 52.3522 3.33255 53.5322 4.07971C54.0383 4.39997 54.0482 4.68521 53.8171 5.19871C52.3255 8.51274 50.8833 11.8502 49.3823 15.1596C49.0239 15.95 48.9818 16.5678 49.6266 17.2205C49.9052 17.5021 50.0636 17.9544 50.1713 18.3593C50.6163 20.0269 50.999 21.712 51.4543 23.3767C51.605 23.9275 51.4882 24.2066 50.9943 24.4771C49.6031 25.2399 48.2502 26.0739 46.8589 26.8375C46.615 26.9719 46.1798 27.0331 45.9744 26.9004C44.5965 26.0147 43.2573 25.0676 41.8122 24.0763L41.8124 24.0746Z" fill="#8C004F"/>
<path d="M23.549 53.3793L23.549 53.3793L23.5486 53.3792C22.5183 53.1436 21.0666 52.8115 19.1833 51.754C17.2969 50.6948 14.9651 48.9002 12.2004 45.726L12.2004 45.726C8.75741 41.7742 7.97329 38.2753 7.33503 35.4256L7.04228 35.4912L7.33503 35.4256C7.32968 35.4017 7.32433 35.3778 7.31899 35.354C6.85262 33.2712 6.44851 31.4664 4.94385 30.3909C4.82599 30.2546 4.71328 30.0174 4.61756 29.6818C4.51923 29.337 4.44797 28.9222 4.39828 28.4812C4.31317 27.7258 4.2939 26.9172 4.30152 26.3H63.6984C63.7063 26.9171 63.6872 27.7258 63.6021 28.4812C63.5524 28.9222 63.4811 29.337 63.3827 29.6817C63.2868 30.0173 63.174 30.2546 63.0559 30.3908C61.5526 31.4653 61.1487 33.267 60.6821 35.3481L60.6647 35.4255L60.6647 35.4256C60.0264 38.2752 59.2414 41.7733 55.7993 45.726C53.0346 48.8998 50.7026 50.6943 48.8161 51.7537C46.9325 52.8114 45.4806 53.1437 44.4508 53.3793L44.4507 53.3793L44.5176 53.6718L44.4507 53.3793L44.4038 53.3901C43.7626 53.5367 43.1807 53.6698 42.7454 53.9586C42.3541 54.2181 42.0343 54.5801 41.7293 54.9253L41.7077 54.9497L41.7075 54.95C41.1811 55.5469 40.5864 56.22 39.4712 56.7548C38.3509 57.292 36.681 57.7 33.9999 57.7C31.3187 57.7 29.6485 57.2922 28.5282 56.7551C27.4129 56.2205 26.8181 55.5473 26.2924 54.9502L26.2887 54.946C25.9782 54.5928 25.6531 54.2231 25.2543 53.9586C24.819 53.6698 24.2372 53.5368 23.5959 53.3901L23.549 53.3793Z" fill="#EC7777" stroke="#C96464" stroke-width="0.6"/>
<path d="M26.2212 55.1857L26.222 55.1874C26.2237 55.1909 26.2268 55.1973 26.2315 55.2065C26.2409 55.2248 26.2565 55.2539 26.2792 55.2924C26.3247 55.3693 26.3986 55.4834 26.5082 55.6226C26.7273 55.9006 27.0898 56.2797 27.6546 56.662C28.7816 57.4249 30.7338 58.2137 33.9991 58.2137C37.2645 58.2137 39.2167 57.4249 40.3437 56.662C40.9085 56.2797 41.271 55.9006 41.49 55.6226C41.5997 55.4834 41.6736 55.3693 41.7191 55.2924C41.7418 55.2539 41.7574 55.2248 41.7668 55.2065C41.7691 55.2019 41.7711 55.198 41.7727 55.1948C41.7742 55.1916 41.7754 55.1891 41.7763 55.1874L41.7771 55.1857C41.7772 55.1855 41.7772 55.1854 41.7773 55.1852M26.2212 55.1857L42.0514 55.3072C41.7771 55.1857 41.7772 55.1855 41.7773 55.1852M26.2212 55.1857C26.2211 55.1855 26.2211 55.1854 26.221 55.1852C26.221 55.1852 26.221 55.1852 26.221 55.1852C26.2209 55.1851 26.2209 55.185 26.2208 55.1849L26.2206 55.1844C26.2206 55.1844 26.2206 55.1843 26.2206 55.1843C26.213 55.1674 26.2038 55.1511 26.1932 55.1359C25.4012 53.9979 25.3 52.4813 25.3 50.8539V42.9365C25.3 39.0067 28.3757 35.8137 32.1053 35.8137H35.8947C39.6251 35.8137 42.7 39.0075 42.7 42.9365V50.8539C42.7 52.433 42.5706 53.9918 41.8201 55.1162M26.2212 55.1857L41.8201 55.1162M41.7773 55.1852C41.7885 55.16 41.803 55.1368 41.8201 55.1162M41.7773 55.1852L41.8201 55.1162" fill="#CB6363" stroke="#A85050" stroke-width="0.6" stroke-linecap="round" stroke-linejoin="round"/>
<path d="M3.30829 26.3H64.6917C64.6945 26.3946 64.6972 26.5099 64.6987 26.6418C64.7031 27.0258 64.6977 27.5469 64.6588 28.0978C64.6197 28.6504 64.5476 29.2237 64.4215 29.7155C64.3085 30.156 64.1615 30.4933 63.987 30.7H4.01302C3.83853 30.4933 3.69148 30.156 3.57853 29.7155C3.45243 29.2237 3.38028 28.6504 3.34123 28.0978C3.30231 27.5469 3.29689 27.0258 3.30128 26.6418C3.30279 26.5099 3.30545 26.3946 3.30829 26.3Z" fill="#CB6363" stroke="#A85050" stroke-width="0.6" stroke-linecap="round" stroke-linejoin="round"/>
<path d="M1.69969 18.3H66.3003C67.0652 18.3 67.7 18.9408 67.7 19.7497V24.2503C67.7 25.0592 67.0652 25.7 66.3003 25.7H1.69969C0.934797 25.7 0.3 25.0592 0.3 24.2503V19.7497C0.3 18.9408 0.934797 18.3 1.69969 18.3Z" fill="#EC7777" stroke="#C96464" stroke-width="0.6"/>
<path d="M43.6797 31.0488C43.6692 36.4349 39.3249 40.7977 33.9807 40.7977C28.6364 40.7977 24.3091 36.4349 24.3195 31.0488C24.33 25.6628 28.6743 21.3 34.0186 21.3C39.3628 21.3 43.6902 25.6628 43.6797 31.0488Z" fill="#F3FF70" stroke="#FDFFCC" stroke-width="0.6"/>
<mask id="mask0_2103_9787" style="mask-type:luminance" maskUnits="userSpaceOnUse" x="24" y="21" width="20" height="20">
<path d="M33.8307 40.8356C39.26 40.8356 43.6614 36.3953 43.6614 30.9178C43.6614 25.4404 39.26 21 33.8307 21C28.4013 21 24 25.4404 24 30.9178C24 36.3953 28.4013 40.8356 33.8307 40.8356Z" fill="white"/>
</mask>
<g mask="url(#mask0_2103_9787)">
<path d="M23.8711 33.6006L38.1254 21.2036" stroke="#FDFFCC" stroke-width="2" stroke-miterlimit="10"/>
<path d="M27.0586 37.8035L41.8042 25.104" stroke="#FDFFCC" stroke-width="6" stroke-miterlimit="10"/>
</g>
</g>
<defs>
<clipPath id="clip0_2103_9787">
<rect width="68" height="58" fill="white" transform="translate(0 0.513672)"/>
</clipPath>
</defs>
</svg>
