<svg width="68" height="59" viewBox="0 0 68 59" fill="none" xmlns="http://www.w3.org/2000/svg">
<g clip-path="url(#clip0_2103_9559)">
<path d="M29.8205 4.61857C31.2421 4.59833 32.6653 4.53198 34.0846 4.58484C34.5194 4.60113 35.071 4.83046 35.3499 5.15586C36.8014 6.85061 38.1995 8.59333 39.5745 10.3544C39.8257 10.6757 39.9994 11.1487 40.0118 11.5577C40.0856 14.0949 40.1206 16.6327 40.1202 19.171C40.1206 19.5824 39.976 20.0656 39.7363 20.3916C38.3934 22.2161 37.0226 24.0196 35.606 25.7844C35.3518 26.1005 34.8425 26.3618 34.4424 26.3743C31.5689 26.4635 28.6925 26.5011 25.8178 26.4993C25.444 26.499 24.9587 26.2688 24.7147 25.98C23.2302 24.2272 21.7862 22.4391 20.3684 20.6314C20.1376 20.3368 19.9974 19.888 19.9875 19.506C19.92 16.9372 19.8823 14.3668 19.8789 11.796C19.8779 11.4183 20.0308 10.9766 20.2543 10.6733C21.5994 8.85105 22.9645 7.042 24.3812 5.27606C24.6332 4.96109 25.1496 4.73004 25.5583 4.70511C26.9757 4.61861 28.4 4.63879 29.8216 4.61855L29.8205 4.61857Z" fill="#721D22"/>
<path d="M40.0274 24.0311C38.7693 23.433 37.4905 22.8737 36.2653 22.2141C35.8901 22.0119 35.5021 21.5768 35.3944 21.1775C34.8345 19.0983 34.3419 17.0012 33.8772 14.8983C33.7922 14.5146 33.8394 14.0344 34.0012 13.6789C35.0082 11.4749 36.0494 9.28716 37.1219 7.11432C37.2954 6.76196 37.6266 6.4109 37.9751 6.23555C39.926 5.25494 41.8927 4.30437 43.8833 3.40679C44.2403 3.2462 44.7983 3.24298 45.1552 3.40551C47.7185 4.57298 50.2625 5.78596 52.7884 7.03193C53.1168 7.19396 53.4461 7.6012 53.5386 7.95408C54.1029 10.0972 54.6167 12.2531 55.0993 14.4143C55.1777 14.7665 55.1114 15.2113 54.9586 15.5427C53.9329 17.771 52.8802 19.9878 51.7973 22.1901C51.6386 22.5139 51.3176 22.8258 50.9931 22.9888C49.0411 23.9665 47.077 24.9242 45.0859 25.8228C44.7313 25.9833 44.1799 25.9576 43.8101 25.802C42.5278 25.2625 41.2844 24.6287 40.0264 24.0306L40.0274 24.0311Z" fill="#95262D"/>
<path d="M10.2769 10.6282C11.3032 9.69841 12.3017 8.7347 13.3724 7.85867C13.7004 7.5904 14.2479 7.39914 14.6563 7.45222C16.783 7.72908 18.9007 8.07467 21.0131 8.44814C21.3987 8.51611 21.8231 8.74241 22.0894 9.02675C23.7388 10.7929 25.3602 12.5844 26.956 14.399C27.215 14.6929 27.4131 15.1314 27.4429 15.5188C27.6086 17.6875 27.7408 19.8592 27.815 22.0328C27.828 22.4225 27.62 22.9372 27.3354 23.2036C25.2913 25.1175 23.2124 26.9963 21.1101 28.8459C20.8367 29.0863 20.3372 29.2342 19.9772 29.1849C17.79 28.8877 15.6101 28.5393 13.4372 28.1599C13.0832 28.098 12.6985 27.8675 12.4511 27.6007C10.7864 25.808 9.14259 23.995 7.52351 22.1595C7.28531 21.8902 7.11934 21.476 7.09193 21.1153C6.92923 18.9467 6.78952 16.7746 6.71454 14.6002C6.7007 14.2128 6.93284 13.7152 7.21593 13.4342C8.1975 12.4598 9.25132 11.5572 10.2777 10.6274L10.2769 10.6282Z" fill="#801A20"/>
<path d="M47.1425 24.2486C46.3284 24.5387 45.5222 24.8551 44.6955 25.1039C44.4422 25.18 44.081 25.1596 43.8585 25.0318C42.7001 24.3662 41.5634 23.6631 40.4363 22.9453C40.2305 22.8143 40.0404 22.5831 39.9552 22.3562C39.4289 20.9478 38.9248 19.5316 38.4409 18.1081C38.3623 17.8774 38.3533 17.5781 38.4291 17.3483C38.8538 16.0617 39.2986 14.7815 39.7772 13.5139C39.8632 13.2868 40.1064 13.0403 40.3342 12.9549C41.9705 12.3412 43.6184 11.7559 45.2729 11.1931C45.488 11.1199 45.8111 11.1539 46.0066 11.2679C47.195 11.9597 48.3669 12.6792 49.5274 13.4148C49.7164 13.5347 49.8827 13.7589 49.9612 13.9712C50.4899 15.3985 51.0018 16.8325 51.4941 18.2735C51.5666 18.4851 51.5629 18.7628 51.4922 18.9768C51.0657 20.2625 50.6252 21.5447 50.1469 22.8129C50.0619 23.039 49.8089 23.2698 49.5785 23.364C48.7794 23.6905 47.956 23.9586 47.1419 24.2488L47.1425 24.2486Z" fill="#7E2126"/>
<path d="M64.3014 14.3967C64.6878 15.2996 65.1034 16.1916 65.4435 17.1117C65.5476 17.3935 65.5495 17.8048 65.4196 18.0663C64.7429 19.4283 64.0222 20.7684 63.2841 22.0985C63.1495 22.3413 62.8998 22.5736 62.6476 22.6865C61.0826 23.3845 59.5071 24.058 57.922 24.709C57.6652 24.8148 57.3254 24.8464 57.0588 24.7769C55.5665 24.3873 54.0799 23.9744 52.6054 23.5223C52.3412 23.4411 52.0441 23.1828 51.9311 22.9304C51.1199 21.118 50.3402 19.2904 49.5856 17.4537C49.4875 17.215 49.5037 16.8459 49.6199 16.6159C50.3241 15.2181 51.0611 13.837 51.8171 12.4676C51.9404 12.2446 52.1837 12.0399 52.4197 11.9356C54.0061 11.2334 55.6012 10.5499 57.2057 9.88815C57.4413 9.79064 57.7573 9.77499 58.0054 9.8399C59.497 10.2315 60.9856 10.6394 62.4607 11.0912C62.7237 11.1713 63.0037 11.4419 63.1268 11.6966C63.5534 12.5797 63.9153 13.4946 64.3017 14.3974L64.3014 14.3967Z" fill="#962A31"/>
<path d="M32.2438 24.7608C31.3851 25.1703 30.5381 25.6076 29.6609 25.9731C29.3922 26.085 28.9944 26.1034 28.7364 25.9886C27.3931 25.3903 26.0692 24.7486 24.7542 24.0897C24.5142 23.9695 24.2799 23.7378 24.1611 23.499C23.4261 22.0162 22.7145 20.5224 22.0243 19.0183C21.9122 18.7746 21.8687 18.4479 21.9257 18.1877C22.2457 16.7312 22.5884 15.2793 22.9696 13.8375C23.0381 13.5791 23.2766 13.2819 23.5165 13.1627C25.2389 12.3063 26.9772 11.4798 28.7253 10.677C28.9525 10.5727 29.3102 10.5734 29.5371 10.6763C30.9162 11.2997 32.2804 11.9555 33.634 12.6301C33.8545 12.7401 34.0617 12.9668 34.1717 13.1904C34.9115 14.6936 35.6335 16.206 36.3349 17.7283C36.4382 17.9518 36.4654 18.2563 36.4121 18.4985C36.0901 19.9543 35.7523 21.4079 35.3715 22.8503C35.304 23.1074 35.0529 23.3887 34.8112 23.5178C33.9732 23.9653 33.1018 24.3517 32.2431 24.7612L32.2438 24.7608Z" fill="#8F171F"/>
<path d="M23.549 53.3793L23.549 53.3793L23.5486 53.3792C22.5183 53.1436 21.0666 52.8115 19.1833 51.754C17.2969 50.6948 14.9651 48.9002 12.2004 45.726L12.2004 45.726C8.75741 41.7742 7.97329 38.2753 7.33503 35.4256L7.04228 35.4912L7.33503 35.4256C7.32968 35.4017 7.32433 35.3778 7.31899 35.354C6.85262 33.2712 6.44851 31.4664 4.94385 30.3909C4.82599 30.2546 4.71328 30.0174 4.61756 29.6818C4.51923 29.337 4.44797 28.9222 4.39828 28.4812C4.31317 27.7258 4.2939 26.9172 4.30152 26.3H63.6984C63.7063 26.9171 63.6872 27.7258 63.6021 28.4812C63.5524 28.9222 63.4811 29.337 63.3827 29.6817C63.2868 30.0173 63.174 30.2546 63.0559 30.3908C61.5526 31.4653 61.1487 33.267 60.6821 35.3481L60.6647 35.4255L60.6647 35.4256C60.0264 38.2752 59.2414 41.7733 55.7993 45.726C53.0346 48.8998 50.7026 50.6943 48.8161 51.7537C46.9325 52.8114 45.4806 53.1437 44.4508 53.3793L44.4507 53.3793L44.5176 53.6718L44.4507 53.3793L44.4038 53.3901C43.7626 53.5367 43.1807 53.6698 42.7454 53.9586C42.3541 54.2181 42.0343 54.5801 41.7293 54.9253L41.7077 54.9497L41.7075 54.95C41.1811 55.5469 40.5864 56.22 39.4712 56.7548C38.3509 57.292 36.681 57.7 33.9999 57.7C31.3187 57.7 29.6485 57.2922 28.5282 56.7551C27.4129 56.2205 26.8181 55.5473 26.2924 54.9502L26.2887 54.946C25.9782 54.5928 25.6531 54.2231 25.2543 53.9586C24.819 53.6698 24.2372 53.5368 23.5959 53.3901L23.549 53.3793Z" fill="#7B63B1" stroke="#665294" stroke-width="0.6"/>
<path d="M26.2212 55.1857L26.222 55.1874C26.2237 55.1909 26.2268 55.1973 26.2315 55.2065C26.2409 55.2248 26.2565 55.2539 26.2792 55.2924C26.3247 55.3693 26.3986 55.4834 26.5082 55.6226C26.7273 55.9006 27.0898 56.2797 27.6546 56.662C28.7816 57.4249 30.7338 58.2137 33.9991 58.2137C37.2645 58.2137 39.2167 57.4249 40.3437 56.662C40.9085 56.2797 41.271 55.9006 41.49 55.6226C41.5997 55.4834 41.6736 55.3693 41.7191 55.2924C41.7418 55.2539 41.7574 55.2248 41.7668 55.2065C41.7691 55.2019 41.7711 55.198 41.7727 55.1948C41.7742 55.1916 41.7754 55.1891 41.7763 55.1874L41.7771 55.1857C41.7772 55.1855 41.7772 55.1854 41.7773 55.1852M26.2212 55.1857L42.0514 55.3072C41.7771 55.1857 41.7772 55.1855 41.7773 55.1852M26.2212 55.1857C26.2211 55.1855 26.2211 55.1854 26.221 55.1852C26.221 55.1852 26.221 55.1852 26.221 55.1852C26.2209 55.1851 26.2209 55.185 26.2208 55.1849L26.2206 55.1844C26.2206 55.1844 26.2206 55.1843 26.2206 55.1843C26.213 55.1674 26.2038 55.1511 26.1932 55.1359C25.4012 53.9979 25.3 52.4813 25.3 50.8539V42.9365C25.3 39.0067 28.3757 35.8137 32.1053 35.8137H35.8947C39.6251 35.8137 42.7 39.0075 42.7 42.9365V50.8539C42.7 52.433 42.5706 53.9918 41.8201 55.1162M26.2212 55.1857L41.8201 55.1162M41.7773 55.1852C41.7885 55.16 41.803 55.1368 41.8201 55.1162M41.7773 55.1852L41.8201 55.1162" fill="#5D488A" stroke="#4B3A71" stroke-width="0.6" stroke-linecap="round" stroke-linejoin="round"/>
<path d="M3.30829 26.3H64.6917C64.6945 26.3946 64.6972 26.5099 64.6987 26.6418C64.7031 27.0258 64.6977 27.5469 64.6588 28.0978C64.6197 28.6504 64.5476 29.2237 64.4215 29.7155C64.3085 30.156 64.1615 30.4933 63.987 30.7H4.01302C3.83853 30.4933 3.69148 30.156 3.57853 29.7155C3.45243 29.2237 3.38028 28.6504 3.34123 28.0978C3.30231 27.5469 3.29689 27.0258 3.30128 26.6418C3.30279 26.5099 3.30545 26.3946 3.30829 26.3Z" fill="#5D498A" stroke="#4B3A71" stroke-width="0.6" stroke-linecap="round" stroke-linejoin="round"/>
<path d="M1.69969 18.3H66.3003C67.0652 18.3 67.7 18.9408 67.7 19.7497V24.2503C67.7 25.0592 67.0652 25.7 66.3003 25.7H1.69969C0.934797 25.7 0.3 25.0592 0.3 24.2503V19.7497C0.3 18.9408 0.934797 18.3 1.69969 18.3Z" fill="#7B63B1" stroke="#665294" stroke-width="0.6"/>
<path d="M43.6797 31.0488C43.6692 36.4349 39.3249 40.7977 33.9807 40.7977C28.6364 40.7977 24.3091 36.4349 24.3195 31.0488C24.33 25.6628 28.6743 21.3 34.0186 21.3C39.3628 21.3 43.6902 25.6628 43.6797 31.0488Z" fill="#F3FF70" stroke="#FDFFCC" stroke-width="0.6"/>
<mask id="mask0_2103_9559" style="mask-type:luminance" maskUnits="userSpaceOnUse" x="24" y="21" width="20" height="20">
<path d="M33.8307 40.8356C39.26 40.8356 43.6614 36.3953 43.6614 30.9178C43.6614 25.4404 39.26 21 33.8307 21C28.4013 21 24 25.4404 24 30.9178C24 36.3953 28.4013 40.8356 33.8307 40.8356Z" fill="white"/>
</mask>
<g mask="url(#mask0_2103_9559)">
<path d="M23.8711 33.6006L38.1254 21.2036" stroke="#FDFFCC" stroke-width="2" stroke-miterlimit="10"/>
<path d="M27.0586 37.8035L41.8042 25.104" stroke="#FDFFCC" stroke-width="6" stroke-miterlimit="10"/>
</g>
</g>
<defs>
<clipPath id="clip0_2103_9559">
<rect width="68" height="58" fill="white" transform="translate(0 0.513672)"/>
</clipPath>
</defs>
</svg>
