<svg width="68" height="59" viewBox="0 0 68 59" fill="none" xmlns="http://www.w3.org/2000/svg">
<g clip-path="url(#clip0_2097_6147)">
<path d="M46.529 28.402C44.7012 27.4926 42.8362 26.5682 40.9737 25.6379C38.662 24.4836 36.3582 23.3119 34.0365 22.1782C33.4625 21.8983 33.1268 21.5353 32.9626 20.895C32.1815 17.8474 31.3276 14.8192 30.5674 11.7669C30.4489 11.2915 30.5496 10.6539 30.7824 10.2154C31.6438 8.59058 32.5778 7.00234 33.5439 5.43752C33.761 5.0853 34.182 4.74274 34.5747 4.63286C38.09 3.64968 41.615 2.70385 45.1493 1.79464C45.5486 1.69203 46.0875 1.76214 46.4501 1.95851C48.1219 2.86048 49.7674 3.81503 51.3889 4.80419C51.7166 5.00462 52.028 5.40347 52.1307 5.77181C53.018 8.95187 53.8657 12.1432 54.691 15.3401C54.7727 15.6564 54.7337 16.1067 54.5607 16.3715C51.9737 20.3407 49.3556 24.29 46.7421 28.2415C46.7113 28.2886 46.6477 28.3147 46.5283 28.4025L46.529 28.402Z" fill="#6DA1C1"/>
<path d="M8.41836 25.8011C8.18049 24.1116 7.93521 22.3893 7.69522 20.6662C7.39738 18.5269 7.11484 16.3861 6.79838 14.2493C6.72021 13.7213 6.81153 13.3175 7.17538 12.9008C8.90753 10.9163 10.5911 8.88998 12.3358 6.91796C12.6076 6.61042 13.0943 6.37732 13.5071 6.32882C15.0343 6.15008 16.5714 6.03849 18.1078 5.9605C18.4532 5.94327 18.8883 6.06988 19.1501 6.28786C21.4914 8.23901 23.8117 10.2158 26.1113 12.2164C26.3709 12.4416 26.5772 12.8463 26.6138 13.1891C26.7824 14.7677 26.904 16.353 26.9886 17.9388C27.0056 18.2595 26.8781 18.6636 26.6724 18.9087C24.8993 21.0295 23.1002 23.1285 21.2862 25.2141C21.1065 25.4207 20.7779 25.6075 20.5134 25.614C16.5527 25.7193 12.5912 25.7924 8.62902 25.8714C8.58202 25.8725 8.53429 25.8415 8.41642 25.8008L8.41836 25.8011Z" fill="#8DB1C7"/>
<path d="M41.6911 24.6828C39.9982 24.8975 38.2729 25.1183 36.5466 25.3347C34.4042 25.603 32.2591 25.8555 30.1184 26.1423C29.5889 26.2136 29.1876 26.1168 28.7758 25.7464C26.8187 23.9869 24.8176 22.2749 22.8718 20.5021C22.5689 20.2259 22.3423 19.7358 22.3002 19.3223C22.1448 17.7924 22.0561 16.2537 22.0008 14.7158C21.9885 14.3701 22.122 13.9364 22.3441 13.6777C24.3303 11.3639 26.3419 9.07032 28.3754 6.79874C28.6046 6.54273 29.012 6.34126 29.3554 6.30959C30.9367 6.16267 32.5225 6.06325 34.1091 6.00079C34.4296 5.98847 34.8318 6.12132 35.0741 6.32982C37.1674 8.13248 39.2387 9.96065 41.296 11.8038C41.4997 11.9859 41.6815 12.3176 41.6841 12.5824C41.7298 16.5449 41.7429 20.5083 41.7623 24.4708C41.7623 24.5183 41.7306 24.5649 41.6885 24.6819L41.6911 24.6828Z" fill="#98C5DB"/>
<path d="M52.6209 22.6994C52.2509 21.5186 51.8729 20.316 51.4981 19.1115C51.0322 17.6169 50.5782 16.1183 50.0998 14.6281C49.9814 14.2595 50.0004 13.9623 50.216 13.627C51.241 12.0301 52.2266 10.408 53.263 8.81827C53.4249 8.57042 53.7502 8.35332 54.0444 8.27524C55.1317 7.98802 56.2337 7.74748 57.3398 7.53104C57.5883 7.4823 57.919 7.52715 58.134 7.65547C60.0598 8.80252 61.9739 9.96996 63.8754 11.1562C64.0902 11.2904 64.2871 11.5567 64.3536 11.7975C64.6601 12.9063 64.9325 14.0247 65.1796 15.1472C65.2296 15.3742 65.1839 15.6758 65.0631 15.8721C64.0241 17.5706 62.9633 19.256 61.8904 20.934C61.784 21.1001 61.5671 21.2678 61.3761 21.3003C58.5144 21.7898 55.6488 22.2572 52.7844 22.7275C52.7505 22.7333 52.7123 22.7161 52.6223 22.6991L52.6209 22.6994Z" fill="#8BCBEA"/>
<path d="M22.1046 9.67447C23.3807 10.3338 24.6825 11.0051 25.9827 11.6798C27.5968 12.5169 29.2044 13.3664 30.8257 14.1896C31.2267 14.3933 31.4606 14.6497 31.5723 15.0959C32.1053 17.2181 32.6918 19.3283 33.2105 21.4537C33.2915 21.7845 33.218 22.2241 33.0536 22.5235C32.4432 23.6334 31.7831 24.7172 31.0991 25.7844C30.9456 26.0243 30.6495 26.2547 30.374 26.324C27.909 26.9465 25.436 27.5428 22.9574 28.1133C22.6776 28.1783 22.3005 28.1197 22.0472 27.9785C20.8806 27.3264 19.7325 26.6391 18.6009 25.9277C18.3721 25.7843 18.156 25.5028 18.0852 25.2458C17.4782 23.0298 16.8973 20.8071 16.3339 18.5811C16.2782 18.3611 16.3076 18.0498 16.4298 17.8698C18.258 15.1649 20.1084 12.4756 21.9555 9.78344C21.9773 9.75114 22.0218 9.73401 22.1062 9.67535L22.1046 9.67447Z" fill="#77ACC8"/>
<path d="M36.0199 13.8958C37.4617 13.4823 38.9298 13.06 40.4005 12.6404C42.226 12.1204 44.0568 11.6128 45.8752 11.0779C46.3248 10.945 46.6997 10.9732 47.1422 11.2318C49.2487 12.4618 51.3824 13.6451 53.4809 14.8882C53.8084 15.0817 54.114 15.468 54.2413 15.8137C54.7128 17.0938 55.1273 18.3906 55.5127 19.6909C55.5996 19.983 55.5768 20.3701 55.4381 20.6208C54.1983 22.8598 52.9312 25.0839 51.6405 27.2939C51.4947 27.5429 51.1804 27.7698 50.8863 27.8437C49.5279 28.1842 48.1555 28.4842 46.7743 28.7543C46.4951 28.8089 46.1123 28.7499 45.8541 28.6056C43.6195 27.3572 41.398 26.0851 39.1853 24.7971C38.9667 24.6695 38.734 24.4126 38.6734 24.1883C37.7664 20.824 36.8866 17.4554 36.0032 14.0867C35.9927 14.0471 36.0103 14.0023 36.0217 13.8967L36.0199 13.8958Z" fill="#7EC0DA"/>
<path d="M23.549 53.3793L23.549 53.3793L23.5486 53.3792C22.5183 53.1436 21.0666 52.8115 19.1833 51.754C17.2969 50.6948 14.9651 48.9002 12.2004 45.726L12.2004 45.726C8.75741 41.7742 7.97329 38.2753 7.33503 35.4256L7.04228 35.4912L7.33503 35.4256C7.32968 35.4017 7.32433 35.3778 7.319 35.354C6.85262 33.2712 6.44851 31.4664 4.94385 30.3909C4.82599 30.2546 4.71328 30.0174 4.61756 29.6818C4.51923 29.337 4.44797 28.9222 4.39828 28.4812C4.31317 27.7258 4.2939 26.9172 4.30152 26.3H63.6984C63.7063 26.9171 63.6872 27.7258 63.6021 28.4812C63.5524 28.9222 63.4811 29.337 63.3827 29.6817C63.2868 30.0173 63.174 30.2546 63.0559 30.3908C61.5526 31.4653 61.1487 33.267 60.6821 35.3481L60.6647 35.4255L60.6647 35.4256C60.0264 38.2752 59.2415 41.7733 55.7993 45.726C53.0346 48.8998 50.7026 50.6943 48.8161 51.7537C46.9325 52.8114 45.4806 53.1437 44.4508 53.3793L44.4507 53.3793L44.5176 53.6718L44.4507 53.3793L44.4038 53.3901C43.7626 53.5367 43.1807 53.6698 42.7454 53.9586C42.3541 54.2181 42.0342 54.5802 41.7292 54.9254L41.7077 54.9497L41.7075 54.95C41.1811 55.5469 40.5864 56.22 39.4712 56.7548C38.3509 57.292 36.681 57.7 33.9999 57.7C31.3187 57.7 29.6485 57.2922 28.5282 56.7551C27.4129 56.2205 26.8181 55.5473 26.2924 54.9502L26.2887 54.946C25.9782 54.5928 25.6532 54.2231 25.2543 53.9586C24.819 53.6698 24.2372 53.5367 23.5959 53.3901L23.549 53.3793Z" fill="#75E391" stroke="#63BF7A" stroke-width="0.6"/>
<path d="M26.2212 55.1857L26.222 55.1874C26.2237 55.1909 26.2268 55.1973 26.2315 55.2065C26.2409 55.2248 26.2565 55.2539 26.2792 55.2924C26.3247 55.3693 26.3986 55.4834 26.5082 55.6226C26.7273 55.9006 27.0898 56.2797 27.6546 56.662C28.7816 57.4249 30.7338 58.2137 33.9991 58.2137C37.2645 58.2137 39.2167 57.4249 40.3437 56.662C40.9085 56.2797 41.271 55.9006 41.49 55.6226C41.5997 55.4834 41.6736 55.3693 41.7191 55.2924C41.7418 55.2539 41.7574 55.2248 41.7668 55.2065C41.7691 55.2019 41.7711 55.198 41.7727 55.1948C41.7742 55.1916 41.7754 55.1891 41.7763 55.1874L41.7771 55.1857C41.7772 55.1855 41.7772 55.1854 41.7773 55.1852M26.2212 55.1857L42.0514 55.3072C41.7771 55.1857 41.7772 55.1855 41.7773 55.1852M26.2212 55.1857C26.2211 55.1855 26.2211 55.1854 26.221 55.1852C26.221 55.1852 26.221 55.1852 26.221 55.1852C26.2209 55.1851 26.2209 55.185 26.2208 55.1849L26.2206 55.1844C26.2206 55.1844 26.2206 55.1843 26.2206 55.1843C26.213 55.1674 26.2038 55.1511 26.1932 55.1359C25.4012 53.9979 25.3 52.4813 25.3 50.8539V42.9365C25.3 39.0067 28.3757 35.8137 32.1053 35.8137H35.8947C39.6251 35.8137 42.7 39.0075 42.7 42.9365V50.8539C42.7 52.433 42.5706 53.9918 41.8201 55.1162M26.2212 55.1857L41.8201 55.1162M41.7773 55.1852C41.7885 55.16 41.803 55.1368 41.8201 55.1162M41.7773 55.1852L41.8201 55.1162" fill="#58BA71" stroke="#4A9F60" stroke-width="0.6" stroke-linecap="round" stroke-linejoin="round"/>
<path d="M3.30829 26.3H64.6917C64.6945 26.3946 64.6972 26.5099 64.6987 26.6418C64.7031 27.0258 64.6977 27.5469 64.6588 28.0978C64.6197 28.6504 64.5476 29.2237 64.4215 29.7155C64.3085 30.156 64.1615 30.4933 63.987 30.7H4.01302C3.83853 30.4933 3.69148 30.156 3.57853 29.7155C3.45243 29.2237 3.38028 28.6504 3.34123 28.0978C3.30231 27.5469 3.29689 27.0258 3.30128 26.6418C3.30279 26.5099 3.30545 26.3946 3.30829 26.3Z" fill="#58BA71" stroke="#4A9F60" stroke-width="0.6" stroke-linecap="round" stroke-linejoin="round"/>
<path d="M1.69969 18.3H66.3003C67.0652 18.3 67.7 18.9408 67.7 19.7497V24.2503C67.7 25.0592 67.0652 25.7 66.3003 25.7H1.69969C0.934797 25.7 0.3 25.0592 0.3 24.2503V19.7497C0.3 18.9408 0.934797 18.3 1.69969 18.3Z" fill="#75E391" stroke="#63BF7A" stroke-width="0.6"/>
<path d="M43.6797 31.0488C43.6692 36.4349 39.3249 40.7977 33.9807 40.7977C28.6364 40.7977 24.3091 36.4349 24.3195 31.0488C24.33 25.6628 28.6743 21.3 34.0186 21.3C39.3628 21.3 43.6902 25.6628 43.6797 31.0488Z" fill="#F3FF70" stroke="#FDFFCC" stroke-width="0.6"/>
<mask id="mask0_2097_6147" style="mask-type:luminance" maskUnits="userSpaceOnUse" x="24" y="21" width="20" height="20">
<path d="M33.8307 40.8356C39.26 40.8356 43.6614 36.3953 43.6614 30.9178C43.6614 25.4404 39.26 21 33.8307 21C28.4013 21 24 25.4404 24 30.9178C24 36.3953 28.4013 40.8356 33.8307 40.8356Z" fill="white"/>
</mask>
<g mask="url(#mask0_2097_6147)">
<path d="M23.8711 33.6006L38.1254 21.2036" stroke="#FDFFCC" stroke-width="2" stroke-miterlimit="10"/>
<path d="M27.0586 37.8035L41.8042 25.104" stroke="#FDFFCC" stroke-width="6" stroke-miterlimit="10"/>
</g>
</g>
<defs>
<clipPath id="clip0_2097_6147">
<rect width="68" height="58" fill="white" transform="translate(0 0.513672)"/>
</clipPath>
</defs>
</svg>
