<svg width="68" height="59" viewBox="0 0 68 59" fill="none" xmlns="http://www.w3.org/2000/svg">
<g clip-path="url(#clip0_2103_9243)">
<path d="M1.058 10.6218C2.39258 9.95949 3.68141 9.30128 4.99149 8.68947C5.18915 8.59717 5.49862 8.68694 5.74073 8.7504C10.667 10.0392 15.5942 11.3298 20.5124 12.6481C20.8742 12.7451 21.2509 12.9988 21.4946 13.2851C23.0313 15.0935 24.526 16.9361 26.0514 18.7538C26.34 19.0973 26.445 19.3781 26.2287 19.8234C25.8011 20.7033 25.4312 21.6134 25.0811 22.5272C24.9015 22.9963 24.6391 23.1172 24.1516 23.0295C18.6187 22.0393 13.0842 21.0589 7.54663 20.0929C6.9833 19.9951 6.63796 19.736 6.34305 19.2489C4.74072 16.6088 3.10131 13.9912 1.4769 11.3642C1.34334 11.1482 1.22836 10.9219 1.0598 10.6217L1.058 10.6218Z" fill="#B2743B"/>
<path d="M19.019 11.3921C19.8025 10.1249 20.5493 8.88535 21.3387 7.67395C21.4578 7.49119 21.768 7.40399 22.0072 7.33002C26.8711 5.82288 31.7367 4.31671 36.6093 2.83893C36.9679 2.73021 37.4217 2.74673 37.7798 2.86114C40.0398 3.58525 42.2822 4.36061 44.5374 5.09859C44.9639 5.23782 45.2013 5.42084 45.2528 5.91325C45.3544 6.88623 45.5209 7.85441 45.7062 8.81531C45.8014 9.30847 45.6425 9.54977 45.1822 9.73268C39.9608 11.8138 34.7433 13.9041 29.5307 16.0081C29.0007 16.2226 28.5706 16.1849 28.0629 15.927C25.308 14.5313 22.5335 13.1743 19.7668 11.8014C19.5393 11.6885 19.3221 11.557 19.0205 11.3911L19.019 11.3921Z" fill="#CE833D"/>
<path d="M36.2355 11.0513C37.4988 10.2614 38.7169 9.48016 39.9608 8.74295C40.1485 8.63174 40.4652 8.69076 40.7124 8.7302C45.7412 9.53024 50.7711 10.3319 55.7948 11.1622C56.1644 11.2233 56.5641 11.4388 56.8347 11.6999C58.5412 13.3491 60.2092 15.0364 61.9053 16.6959C62.2262 17.0094 62.3582 17.2786 62.1865 17.743C61.8472 18.6606 61.5682 19.6025 61.3093 20.5462C61.1765 21.0306 60.9272 21.1767 60.4335 21.1371C54.8302 20.6937 49.2263 20.2602 43.6207 19.8412C43.0505 19.7991 42.6814 19.575 42.3402 19.1192C40.487 16.6488 38.599 14.2043 36.7251 11.7491C36.571 11.5473 36.4344 11.3333 36.2373 11.0511L36.2355 11.0513Z" fill="#B07947"/>
<path d="M51.3586 28.9319C51.1793 27.0368 51.0261 25.1943 50.8087 23.3593C50.7759 23.0825 50.4717 22.8045 50.2411 22.5826C45.5508 18.0646 40.8579 13.5467 36.1411 9.05709C35.7941 8.72678 35.268 8.4843 34.796 8.40849C31.8153 7.93231 28.8261 7.52472 25.8431 7.06711C25.2792 6.98021 24.9059 7.05203 24.5703 7.58348C23.9073 8.63371 23.1732 9.64112 22.4217 10.6294C22.0359 11.1365 22.0811 11.503 22.5024 11.9765C27.2769 17.3544 32.0418 22.7404 36.7934 28.1394C37.2763 28.6889 37.7872 28.8936 38.5103 28.8921C42.4321 28.8879 46.3545 28.9391 50.2769 28.9677C50.5995 28.97 50.9207 28.9453 51.3575 28.9299L51.3586 28.9319Z" fill="#A6682E"/>
<path d="M3.34784 21.6792C4.05198 20.1626 4.71887 18.6814 5.4371 17.2266C5.54548 17.0071 5.88032 16.8714 6.13749 16.7592C11.3687 14.4739 16.6019 12.1895 21.8469 9.93609C22.2328 9.7703 22.7421 9.73326 23.1578 9.81767C25.7811 10.3528 28.3917 10.9475 31.0115 11.4987C31.5069 11.6025 31.797 11.7787 31.9212 12.3244C32.1663 13.4028 32.4832 14.4679 32.8203 15.5225C32.9934 16.0637 32.8484 16.3537 32.3588 16.6151C26.8058 19.5877 21.2584 22.57 15.7183 25.5672C15.155 25.8725 14.6693 25.8829 14.0672 25.656C10.8 24.4285 7.51612 23.2469 4.23882 22.0464C3.96935 21.9477 3.70888 21.8269 3.34938 21.6779L3.34784 21.6792Z" fill="#CB9360"/>
<path d="M38.5107 24.7161C39.0478 23.1327 39.5518 21.5884 40.1097 20.0649C40.1938 19.8351 40.5122 19.6642 40.7558 19.525C45.7113 16.6912 50.669 13.858 55.6416 11.0543C56.0075 10.848 56.5099 10.7565 56.9322 10.7958C59.5978 11.046 62.2571 11.357 64.9211 11.6236C65.4247 11.6737 65.7321 11.8176 65.9141 12.3469C66.2736 13.3927 66.7031 14.4176 67.1515 15.4299C67.3817 15.9494 67.2687 16.2533 66.81 16.5658C61.6083 20.1175 56.4133 23.6783 51.2271 27.2531C50.6999 27.6172 50.2181 27.6797 49.5951 27.5187C46.215 26.6493 42.8232 25.8271 39.4359 24.9856C39.1574 24.9164 38.8855 24.8242 38.512 24.7147L38.5107 24.7161Z" fill="#B47F4F"/>
<path d="M23.549 53.3793L23.549 53.3793L23.5486 53.3792C22.5183 53.1436 21.0666 52.8115 19.1833 51.754C17.2969 50.6948 14.9651 48.9002 12.2004 45.726L12.2004 45.726C8.75741 41.7742 7.97329 38.2753 7.33503 35.4256L7.04228 35.4912L7.33503 35.4256C7.32968 35.4017 7.32433 35.3778 7.319 35.354C6.85262 33.2712 6.44851 31.4664 4.94385 30.3909C4.82599 30.2546 4.71328 30.0174 4.61756 29.6818C4.51923 29.337 4.44797 28.9222 4.39828 28.4812C4.31317 27.7258 4.2939 26.9172 4.30152 26.3H63.6984C63.7063 26.9171 63.6872 27.7258 63.6021 28.4812C63.5524 28.9222 63.4811 29.337 63.3827 29.6817C63.2868 30.0173 63.174 30.2546 63.0559 30.3908C61.5526 31.4653 61.1487 33.267 60.6821 35.3481L60.6647 35.4255L60.6647 35.4256C60.0264 38.2752 59.2415 41.7733 55.7993 45.726C53.0346 48.8998 50.7026 50.6943 48.8161 51.7537C46.9325 52.8114 45.4806 53.1437 44.4508 53.3793L44.4507 53.3793L44.5176 53.6718L44.4507 53.3793L44.4038 53.3901C43.7626 53.5367 43.1807 53.6698 42.7454 53.9586C42.3541 54.2181 42.0342 54.5802 41.7292 54.9254L41.7077 54.9497L41.7075 54.95C41.1811 55.5469 40.5864 56.22 39.4712 56.7548C38.3509 57.292 36.681 57.7 33.9999 57.7C31.3187 57.7 29.6485 57.2922 28.5282 56.7551C27.4129 56.2205 26.8181 55.5473 26.2924 54.9502L26.2887 54.946C25.9782 54.5928 25.6532 54.2231 25.2543 53.9586C24.819 53.6698 24.2372 53.5367 23.5959 53.3901L23.549 53.3793Z" fill="#FB9E18" stroke="#E18B20" stroke-width="0.6"/>
<path d="M26.2212 55.1857L26.222 55.1874C26.2237 55.1909 26.2268 55.1973 26.2315 55.2065C26.2409 55.2248 26.2565 55.2539 26.2792 55.2924C26.3247 55.3693 26.3986 55.4834 26.5082 55.6226C26.7273 55.9006 27.0898 56.2797 27.6546 56.662C28.7816 57.4249 30.7338 58.2137 33.9991 58.2137C37.2645 58.2137 39.2167 57.4249 40.3437 56.662C40.9085 56.2797 41.271 55.9006 41.49 55.6226C41.5997 55.4834 41.6736 55.3693 41.7191 55.2924C41.7418 55.2539 41.7574 55.2248 41.7668 55.2065C41.7691 55.2019 41.7711 55.198 41.7727 55.1948C41.7742 55.1916 41.7754 55.1891 41.7763 55.1874L41.7771 55.1857C41.7772 55.1855 41.7772 55.1854 41.7773 55.1852M26.2212 55.1857L42.0514 55.3072C41.7771 55.1857 41.7772 55.1855 41.7773 55.1852M26.2212 55.1857C26.2211 55.1855 26.2211 55.1854 26.221 55.1852C26.221 55.1852 26.221 55.1852 26.221 55.1852C26.2209 55.1851 26.2209 55.185 26.2208 55.1849L26.2206 55.1844C26.2206 55.1844 26.2206 55.1843 26.2206 55.1843C26.213 55.1674 26.2038 55.1511 26.1932 55.1359C25.4012 53.9979 25.3 52.4813 25.3 50.8539V42.9365C25.3 39.0067 28.3757 35.8137 32.1053 35.8137H35.8947C39.6251 35.8137 42.7 39.0075 42.7 42.9365V50.8539C42.7 52.433 42.5706 53.9918 41.8201 55.1162M26.2212 55.1857L41.8201 55.1162M41.7773 55.1852C41.7885 55.16 41.803 55.1368 41.8201 55.1162M41.7773 55.1852L41.8201 55.1162" fill="#D38513" stroke="#B57211" stroke-width="0.6" stroke-linecap="round" stroke-linejoin="round"/>
<path d="M3.30829 26.3H64.6917C64.6945 26.3946 64.6972 26.5099 64.6987 26.6418C64.7031 27.0258 64.6977 27.5469 64.6588 28.0978C64.6197 28.6504 64.5476 29.2237 64.4215 29.7155C64.3085 30.156 64.1615 30.4933 63.987 30.7H4.01302C3.83853 30.4933 3.69148 30.156 3.57853 29.7155C3.45243 29.2237 3.38028 28.6504 3.34123 28.0978C3.30231 27.5469 3.29689 27.0258 3.30128 26.6418C3.30279 26.5099 3.30545 26.3946 3.30829 26.3Z" fill="#D38513" stroke="#B57211" stroke-width="0.6" stroke-linecap="round" stroke-linejoin="round"/>
<path d="M1.69969 18.3H66.3003C67.0652 18.3 67.7 18.9408 67.7 19.7497V24.2503C67.7 25.0592 67.0652 25.7 66.3003 25.7H1.69969C0.934797 25.7 0.3 25.0592 0.3 24.2503V19.7497C0.3 18.9408 0.934797 18.3 1.69969 18.3Z" fill="#FB9E18" stroke="#E18B20" stroke-width="0.6"/>
<path d="M43.6797 31.0488C43.6692 36.4349 39.3249 40.7977 33.9807 40.7977C28.6364 40.7977 24.3091 36.4349 24.3195 31.0488C24.33 25.6628 28.6743 21.3 34.0186 21.3C39.3628 21.3 43.6902 25.6628 43.6797 31.0488Z" fill="#F3FF70" stroke="#FDFFCC" stroke-width="0.6"/>
<mask id="mask0_2103_9243" style="mask-type:luminance" maskUnits="userSpaceOnUse" x="24" y="21" width="20" height="20">
<path d="M33.8307 40.8356C39.26 40.8356 43.6614 36.3953 43.6614 30.9178C43.6614 25.4404 39.26 21 33.8307 21C28.4013 21 24 25.4404 24 30.9178C24 36.3953 28.4013 40.8356 33.8307 40.8356Z" fill="white"/>
</mask>
<g mask="url(#mask0_2103_9243)">
<path d="M23.8711 33.6006L38.1254 21.2036" stroke="#FDFFCC" stroke-width="2" stroke-miterlimit="10"/>
<path d="M27.0586 37.8035L41.8042 25.104" stroke="#FDFFCC" stroke-width="6" stroke-miterlimit="10"/>
</g>
</g>
<defs>
<clipPath id="clip0_2103_9243">
<rect width="68" height="58" fill="white" transform="translate(0 0.513672)"/>
</clipPath>
</defs>
</svg>
