<svg width="68" height="59" viewBox="0 0 68 59" fill="none" xmlns="http://www.w3.org/2000/svg">
<g clip-path="url(#clip0_2103_9806)">
<path d="M35.0051 16.6217C35.4981 15.5061 35.9644 14.417 36.4685 13.3464C36.5446 13.1849 36.7869 13.0814 36.973 12.9961C40.7569 11.2588 44.5423 9.5222 48.3367 7.808C48.6159 7.68188 48.9868 7.64798 49.291 7.70392C51.2113 8.05866 53.1231 8.45705 55.0411 8.8236C55.4037 8.89265 55.6177 9.01715 55.7156 9.41346C55.9089 10.1966 56.1544 10.969 56.4145 11.7335C56.5481 12.1258 56.4462 12.3392 56.0927 12.5365C52.0834 14.7793 48.0783 17.0291 44.0788 19.2897C43.6721 19.5199 43.3181 19.5341 42.8759 19.3768C40.4767 18.5259 38.066 17.7085 35.6598 16.8774C35.462 16.8091 35.2704 16.7245 35.0062 16.6207L35.0051 16.6217Z" fill="#B2743B"/>
<path d="M12.8322 21.8305C12.9038 20.1661 12.9548 18.5486 13.0626 16.9355C13.0789 16.6921 13.3338 16.4374 13.5266 16.2346C17.4474 12.1057 21.3703 7.97675 25.3156 3.87168C25.6059 3.56965 26.0576 3.3377 26.4695 3.25355C29.0699 2.72449 31.6811 2.2551 34.2844 1.74219C34.7765 1.64488 35.1082 1.6936 35.4276 2.14578C36.0586 3.03936 36.7501 3.8928 37.4562 4.72881C37.8187 5.15783 37.7955 5.4801 37.4465 5.91014C33.4908 10.7944 29.5439 15.6854 25.6093 20.5872C25.2095 21.0861 24.7694 21.2845 24.1332 21.3104C20.683 21.4549 17.2347 21.6478 13.7854 21.8209C13.5018 21.8351 13.2181 21.8256 12.8331 21.8287L12.8322 21.8305Z" fill="#B07947"/>
<path d="M24.1132 8.37193C25.4272 7.66969 26.6956 6.97291 27.9867 6.32187C28.1815 6.22366 28.4935 6.30405 28.7374 6.36018C33.7003 7.49984 38.6642 8.64121 43.6199 9.81065C43.9845 9.8967 44.3686 10.1389 44.6208 10.4177C46.2114 12.179 47.761 13.9757 49.3405 15.7465C49.6394 16.0811 49.7528 16.3586 49.55 16.8103C49.1492 17.7027 48.8068 18.6235 48.4845 19.5475C48.3191 20.0218 48.0605 20.1506 47.5706 20.0776C42.0103 19.2547 36.4488 18.4417 30.8845 17.643C30.3185 17.5623 29.9655 17.3137 29.6561 16.8357C27.9748 14.2452 26.2572 11.6782 24.5543 9.10142C24.4143 8.88953 24.2926 8.66675 24.115 8.37182L24.1132 8.37193Z" fill="#BC7D43"/>
<path d="M40.3225 23.2278C40.8204 21.8235 41.2883 20.4541 41.8037 19.1032C41.8814 18.8993 42.1662 18.7485 42.3842 18.6257C46.8195 16.1241 51.2566 13.6232 55.7066 11.1485C56.034 10.9664 56.4811 10.8866 56.8553 10.9227C59.2173 11.1526 61.5729 11.4363 63.9332 11.6807C64.3795 11.7266 64.6503 11.8553 64.8048 12.3256C65.1098 13.2551 65.4772 14.1662 65.8615 15.0662C66.0589 15.5281 65.9545 15.7976 65.5433 16.0737C60.88 19.2118 56.2225 22.358 51.5726 25.5167C51.0999 25.8384 50.6716 25.8925 50.1209 25.7478C47.1332 24.9662 44.1344 24.2265 41.14 23.4697C40.8938 23.4074 40.6537 23.3248 40.3238 23.2265L40.3225 23.2278Z" fill="#CE833D"/>
<path d="M32.4372 19.0542C31.6167 17.5972 30.8361 16.1727 30.0064 14.7785C29.8812 14.5681 29.5368 14.459 29.2716 14.3672C23.8778 12.4977 18.4821 10.6292 13.0771 8.79243C12.6794 8.6573 12.1688 8.66017 11.761 8.7768C9.18745 9.51522 6.63138 10.3121 4.06257 11.0663C3.57682 11.2086 3.30136 11.4068 3.22022 11.9606C3.0601 13.0548 2.82736 14.1414 2.5737 15.2191C2.44343 15.7722 2.61064 16.05 3.11918 16.2724C8.88749 18.802 14.651 21.3417 20.4083 23.8969C20.9937 24.1572 21.4787 24.1297 22.0613 23.8564C25.2226 22.3774 28.4041 20.9428 31.5776 19.49C31.8385 19.3705 32.0888 19.2297 32.4355 19.053L32.4372 19.0542Z" fill="#CB9360"/>
<path d="M27.0645 12.2465C27.9935 11.8334 28.8911 11.4218 29.8021 11.0422C29.9395 10.9849 30.1486 11.0536 30.3123 11.1028C33.6441 12.1018 36.9764 13.1021 40.3019 14.1209C40.5465 14.1958 40.7972 14.3771 40.9562 14.5769C41.9588 15.8394 42.9318 17.1238 43.9264 18.3922C44.1146 18.6318 44.179 18.8244 44.0196 19.1199C43.7046 19.7036 43.4281 20.3092 43.1651 20.918C43.0302 21.2304 42.8477 21.3054 42.517 21.2334C38.763 20.4205 35.0077 19.6142 31.2499 18.8175C30.8676 18.7368 30.6385 18.5527 30.4497 18.2157C29.424 16.3894 28.3724 14.5773 27.3313 12.7593C27.2457 12.6098 27.173 12.4538 27.0657 12.2465L27.0645 12.2465Z" fill="#A6682E"/>
<path d="M23.549 53.3793L23.549 53.3793L23.5486 53.3792C22.5183 53.1436 21.0666 52.8115 19.1833 51.754C17.2969 50.6948 14.9651 48.9002 12.2004 45.726L12.2004 45.726C8.75741 41.7742 7.97329 38.2753 7.33503 35.4256L7.04228 35.4912L7.33503 35.4256C7.32968 35.4017 7.32433 35.3778 7.31899 35.354C6.85262 33.2712 6.44851 31.4664 4.94385 30.3909C4.82599 30.2546 4.71328 30.0174 4.61756 29.6818C4.51923 29.337 4.44797 28.9222 4.39828 28.4812C4.31317 27.7258 4.2939 26.9172 4.30152 26.3H63.6984C63.7063 26.9171 63.6872 27.7258 63.6021 28.4812C63.5524 28.9222 63.4811 29.337 63.3827 29.6817C63.2868 30.0173 63.174 30.2546 63.0559 30.3908C61.5526 31.4653 61.1487 33.267 60.6821 35.3481L60.6647 35.4255L60.6647 35.4256C60.0264 38.2752 59.2414 41.7733 55.7993 45.726C53.0346 48.8998 50.7026 50.6943 48.8161 51.7537C46.9325 52.8114 45.4806 53.1437 44.4508 53.3793L44.4507 53.3793L44.5176 53.6718L44.4507 53.3793L44.4038 53.3901C43.7626 53.5367 43.1807 53.6698 42.7454 53.9586C42.3541 54.2181 42.0343 54.5801 41.7293 54.9253L41.7077 54.9497L41.7075 54.95C41.1811 55.5469 40.5864 56.22 39.4712 56.7548C38.3509 57.292 36.681 57.7 33.9999 57.7C31.3187 57.7 29.6485 57.2922 28.5282 56.7551C27.4129 56.2205 26.8181 55.5473 26.2924 54.9502L26.2887 54.946C25.9782 54.5928 25.6531 54.2231 25.2543 53.9586C24.819 53.6698 24.2372 53.5368 23.5959 53.3901L23.549 53.3793Z" fill="#EC7777" stroke="#C96464" stroke-width="0.6"/>
<path d="M26.2212 55.1857L26.222 55.1874C26.2237 55.1909 26.2268 55.1973 26.2315 55.2065C26.2409 55.2248 26.2565 55.2539 26.2792 55.2924C26.3247 55.3693 26.3986 55.4834 26.5082 55.6226C26.7273 55.9006 27.0898 56.2797 27.6546 56.662C28.7816 57.4249 30.7338 58.2137 33.9991 58.2137C37.2645 58.2137 39.2167 57.4249 40.3437 56.662C40.9085 56.2797 41.271 55.9006 41.49 55.6226C41.5997 55.4834 41.6736 55.3693 41.7191 55.2924C41.7418 55.2539 41.7574 55.2248 41.7668 55.2065C41.7691 55.2019 41.7711 55.198 41.7727 55.1948C41.7742 55.1916 41.7754 55.1891 41.7763 55.1874L41.7771 55.1857C41.7772 55.1855 41.7772 55.1854 41.7773 55.1852M26.2212 55.1857L42.0514 55.3072C41.7771 55.1857 41.7772 55.1855 41.7773 55.1852M26.2212 55.1857C26.2211 55.1855 26.2211 55.1854 26.221 55.1852C26.221 55.1852 26.221 55.1852 26.221 55.1852C26.2209 55.1851 26.2209 55.185 26.2208 55.1849L26.2206 55.1844C26.2206 55.1844 26.2206 55.1843 26.2206 55.1843C26.213 55.1674 26.2038 55.1511 26.1932 55.1359C25.4012 53.9979 25.3 52.4813 25.3 50.8539V42.9365C25.3 39.0067 28.3757 35.8137 32.1053 35.8137H35.8947C39.6251 35.8137 42.7 39.0075 42.7 42.9365V50.8539C42.7 52.433 42.5706 53.9918 41.8201 55.1162M26.2212 55.1857L41.8201 55.1162M41.7773 55.1852C41.7885 55.16 41.803 55.1368 41.8201 55.1162M41.7773 55.1852L41.8201 55.1162" fill="#CB6363" stroke="#A85050" stroke-width="0.6" stroke-linecap="round" stroke-linejoin="round"/>
<path d="M3.30829 26.3H64.6917C64.6945 26.3946 64.6972 26.5099 64.6987 26.6418C64.7031 27.0258 64.6977 27.5469 64.6588 28.0978C64.6197 28.6504 64.5476 29.2237 64.4215 29.7155C64.3085 30.156 64.1615 30.4933 63.987 30.7H4.01302C3.83853 30.4933 3.69148 30.156 3.57853 29.7155C3.45243 29.2237 3.38028 28.6504 3.34123 28.0978C3.30231 27.5469 3.29689 27.0258 3.30128 26.6418C3.30279 26.5099 3.30545 26.3946 3.30829 26.3Z" fill="#CB6363" stroke="#A85050" stroke-width="0.6" stroke-linecap="round" stroke-linejoin="round"/>
<path d="M1.69969 18.3H66.3003C67.0652 18.3 67.7 18.9408 67.7 19.7497V24.2503C67.7 25.0592 67.0652 25.7 66.3003 25.7H1.69969C0.934797 25.7 0.3 25.0592 0.3 24.2503V19.7497C0.3 18.9408 0.934797 18.3 1.69969 18.3Z" fill="#EC7777" stroke="#C96464" stroke-width="0.6"/>
<path d="M43.6797 31.0488C43.6692 36.4349 39.3249 40.7977 33.9807 40.7977C28.6364 40.7977 24.3091 36.4349 24.3195 31.0488C24.33 25.6628 28.6743 21.3 34.0186 21.3C39.3628 21.3 43.6902 25.6628 43.6797 31.0488Z" fill="#F3FF70" stroke="#FDFFCC" stroke-width="0.6"/>
<mask id="mask0_2103_9806" style="mask-type:luminance" maskUnits="userSpaceOnUse" x="24" y="21" width="20" height="20">
<path d="M33.8307 40.8356C39.26 40.8356 43.6614 36.3953 43.6614 30.9178C43.6614 25.4404 39.26 21 33.8307 21C28.4013 21 24 25.4404 24 30.9178C24 36.3953 28.4013 40.8356 33.8307 40.8356Z" fill="white"/>
</mask>
<g mask="url(#mask0_2103_9806)">
<path d="M23.8711 33.6006L38.1254 21.2036" stroke="#FDFFCC" stroke-width="2" stroke-miterlimit="10"/>
<path d="M27.0586 37.8035L41.8042 25.104" stroke="#FDFFCC" stroke-width="6" stroke-miterlimit="10"/>
</g>
</g>
<defs>
<clipPath id="clip0_2103_9806">
<rect width="68" height="58" fill="white" transform="translate(0 0.513672)"/>
</clipPath>
</defs>
</svg>
