<svg width="68" height="59" viewBox="0 0 68 59" fill="none" xmlns="http://www.w3.org/2000/svg">
<g clip-path="url(#clip0_2103_9692)">
<path d="M34.0489 8.04055C36.67 8.80224 39.1576 9.50751 41.6292 10.2667C41.9253 10.3573 42.2106 10.7025 42.3787 10.9999C45.2687 16.111 48.5103 21.0591 51.3625 26.1914C51.0229 27.3706 50.8987 27.9836 50.7068 28.6987C50.1023 31.1427 49.9058 32.348 49.2565 35.0541C47.8459 34.6412 46.1062 33.9906 45.1809 33.6118C44.2077 33.2138 41.0541 31.887 41.0541 31.887C41.0541 31.887 40.344 30.882 39.366 29.1407C37.0711 25.0542 34.7534 21.0611 32.4497 17.0187C31.7124 15.7057 31.9127 16.011 32.1701 15.0521C32.8212 12.7736 33.4034 10.4733 34.049 8.04285L34.0489 8.04055Z" fill="#A67992"/>
<path d="M2.10097 13.7861C4.60968 12.7107 6.97943 11.6764 9.37109 10.6939C9.65737 10.5759 10.097 10.6615 10.4157 10.7846C15.8934 12.8989 21.5391 14.6642 27.0011 16.819C27.4873 17.9456 27.7805 18.4982 28.0861 19.1724C29.1707 21.4445 29.7841 22.5006 31.0003 25.0036C29.6483 25.5802 27.8911 26.1819 26.9357 26.4766C25.931 26.7869 22.6522 27.7638 22.6522 27.7638C22.6522 27.7638 21.4654 27.4381 19.6044 26.7135C15.237 25.013 10.9113 23.3991 6.56501 21.7383C5.1618 21.1919 5.51045 21.3006 5.10053 20.3963C4.15711 18.2225 3.1467 16.0756 2.10253 13.7878L2.10097 13.7861Z" fill="#885C75"/>
<path d="M21.9916 1.01039C24.9348 2.75836 27.7335 4.39584 30.4962 6.09402C30.8273 6.297 31.067 6.80677 31.1795 7.22158C33.1121 14.3512 35.5208 21.3921 37.401 28.5358C36.6269 29.8656 36.288 30.5735 35.8356 31.3843C34.3519 34.1719 33.7432 35.5784 32.1245 38.6711C30.5414 37.7268 28.6326 36.3899 27.6273 35.639C26.57 34.8496 23.155 32.2468 23.155 32.2468C23.155 32.2468 22.6029 30.8004 21.9527 28.3735C20.4266 22.6782 18.8442 17.0894 17.294 11.4449C16.8036 9.61507 16.9527 10.0496 17.5594 8.96225C19.0489 6.39084 20.4616 3.77145 21.9911 1.01323L21.9916 1.01039Z" fill="#774F66"/>
<path d="M61.2571 5.5116C61.0953 8.38214 60.9598 11.1023 60.7652 13.8188C60.7423 14.1442 60.4554 14.5187 60.19 14.7616C55.6274 18.9371 51.3154 23.4348 46.7221 27.5765C45.4315 27.5068 44.7728 27.5244 43.9935 27.4965C41.3418 27.4543 40.0582 27.5377 37.127 27.5114C37.2171 25.9658 37.4734 24.0262 37.6433 22.9868C37.8217 21.8938 38.4375 18.343 38.4375 18.343C38.4375 18.343 39.3011 17.3763 40.8571 15.9606C44.5086 12.6384 48.059 9.31484 51.6633 5.99396C52.8366 4.92654 52.5706 5.20445 53.6157 5.24177C56.1085 5.37109 58.6073 5.42458 61.2547 5.51228L61.2571 5.5116Z" fill="#AA6B8F"/>
<path d="M62.7893 14.1065C63.5709 16.3198 64.3251 18.4114 65.0335 20.519C65.1186 20.7713 65.0204 21.1437 64.8969 21.4102C62.7743 25.9915 60.9417 30.7367 58.7853 35.3023C57.7912 35.656 57.3006 35.8765 56.7048 36.1009C54.6941 36.9036 53.7534 37.3705 51.5371 38.2732C51.1185 37.0806 50.7011 35.5389 50.5019 34.7025C50.2922 33.823 49.6385 30.9545 49.6385 30.9545C49.6385 30.9545 49.9848 29.9545 50.7113 28.3983C52.4163 24.7465 54.0447 21.1254 55.7144 17.4895C56.2622 16.3161 56.1494 16.6092 56.9484 16.3083C58.8668 15.6212 60.7659 14.875 62.7878 14.1078L62.7893 14.1065Z" fill="#A97B95"/>
<path d="M28.1616 10.1615C28.6207 12.0832 29.0675 13.9007 29.4746 15.7275C29.5237 15.9462 29.4086 16.2492 29.2817 16.4615C27.1006 20.1094 25.148 23.9201 22.9401 27.5519C22.0766 27.7603 21.6465 27.9016 21.1279 28.0369C19.3739 28.5315 18.5452 28.8394 16.6103 29.3996C16.365 28.3643 16.1516 27.0369 16.0587 26.3191C15.9607 25.5644 15.6665 23.1054 15.6665 23.1054C15.6665 23.1054 16.0446 22.2988 16.7901 21.0602C18.5395 18.1535 20.222 15.2658 21.9406 12.3693C22.5027 11.4354 22.3823 11.6708 23.0778 11.4894C24.7444 11.0834 26.4 10.6263 28.1602 10.1624L28.1616 10.1615Z" fill="#A57E94"/>
<path d="M23.549 53.3793L23.549 53.3793L23.5486 53.3792C22.5183 53.1436 21.0666 52.8115 19.1833 51.754C17.2969 50.6948 14.9651 48.9002 12.2004 45.726L12.2004 45.726C8.75741 41.7742 7.97329 38.2753 7.33503 35.4256L7.04228 35.4912L7.33503 35.4256C7.32968 35.4017 7.32433 35.3778 7.319 35.354C6.85262 33.2712 6.44851 31.4664 4.94385 30.3909C4.82599 30.2546 4.71328 30.0174 4.61756 29.6818C4.51923 29.337 4.44797 28.9222 4.39828 28.4812C4.31317 27.7258 4.2939 26.9172 4.30152 26.3H63.6984C63.7063 26.9171 63.6872 27.7258 63.6021 28.4812C63.5524 28.9222 63.4811 29.337 63.3827 29.6817C63.2868 30.0173 63.174 30.2546 63.0559 30.3908C61.5526 31.4653 61.1487 33.267 60.6821 35.3481L60.6647 35.4255L60.6647 35.4256C60.0264 38.2752 59.2415 41.7733 55.7993 45.726C53.0346 48.8998 50.7026 50.6943 48.8161 51.7537C46.9325 52.8114 45.4806 53.1437 44.4508 53.3793L44.4507 53.3793L44.5176 53.6718L44.4507 53.3793L44.4038 53.3901C43.7626 53.5367 43.1807 53.6698 42.7454 53.9586C42.3541 54.2181 42.0342 54.5802 41.7292 54.9254L41.7077 54.9497L41.7075 54.95C41.1811 55.5469 40.5864 56.22 39.4712 56.7548C38.3509 57.292 36.681 57.7 33.9999 57.7C31.3187 57.7 29.6485 57.2922 28.5282 56.7551C27.4129 56.2205 26.8181 55.5473 26.2924 54.9502L26.2887 54.946C25.9782 54.5928 25.6532 54.2231 25.2543 53.9586C24.819 53.6698 24.2372 53.5367 23.5959 53.3901L23.549 53.3793Z" fill="#75E391" stroke="#63BF7A" stroke-width="0.6"/>
<path d="M26.2212 55.1857L26.222 55.1874C26.2237 55.1909 26.2268 55.1973 26.2315 55.2065C26.2409 55.2248 26.2565 55.2539 26.2792 55.2924C26.3247 55.3693 26.3986 55.4834 26.5082 55.6226C26.7273 55.9006 27.0898 56.2797 27.6546 56.662C28.7816 57.4249 30.7338 58.2137 33.9991 58.2137C37.2645 58.2137 39.2167 57.4249 40.3437 56.662C40.9085 56.2797 41.271 55.9006 41.49 55.6226C41.5997 55.4834 41.6736 55.3693 41.7191 55.2924C41.7418 55.2539 41.7574 55.2248 41.7668 55.2065C41.7691 55.2019 41.7711 55.198 41.7727 55.1948C41.7742 55.1916 41.7754 55.1891 41.7763 55.1874L41.7771 55.1857C41.7772 55.1855 41.7772 55.1854 41.7773 55.1852M26.2212 55.1857L42.0514 55.3072C41.7771 55.1857 41.7772 55.1855 41.7773 55.1852M26.2212 55.1857C26.2211 55.1855 26.2211 55.1854 26.221 55.1852C26.221 55.1852 26.221 55.1852 26.221 55.1852C26.2209 55.1851 26.2209 55.185 26.2208 55.1849L26.2206 55.1844C26.2206 55.1844 26.2206 55.1843 26.2206 55.1843C26.213 55.1674 26.2038 55.1511 26.1932 55.1359C25.4012 53.9979 25.3 52.4813 25.3 50.8539V42.9365C25.3 39.0067 28.3757 35.8137 32.1053 35.8137H35.8947C39.6251 35.8137 42.7 39.0075 42.7 42.9365V50.8539C42.7 52.433 42.5706 53.9918 41.8201 55.1162M26.2212 55.1857L41.8201 55.1162M41.7773 55.1852C41.7885 55.16 41.803 55.1368 41.8201 55.1162M41.7773 55.1852L41.8201 55.1162" fill="#58BA71" stroke="#4A9F60" stroke-width="0.6" stroke-linecap="round" stroke-linejoin="round"/>
<path d="M3.30829 26.3H64.6917C64.6945 26.3946 64.6972 26.5099 64.6987 26.6418C64.7031 27.0258 64.6977 27.5469 64.6588 28.0978C64.6197 28.6504 64.5476 29.2237 64.4215 29.7155C64.3085 30.156 64.1615 30.4933 63.987 30.7H4.01302C3.83853 30.4933 3.69148 30.156 3.57853 29.7155C3.45243 29.2237 3.38028 28.6504 3.34123 28.0978C3.30231 27.5469 3.29689 27.0258 3.30128 26.6418C3.30279 26.5099 3.30545 26.3946 3.30829 26.3Z" fill="#58BA71" stroke="#4A9F60" stroke-width="0.6" stroke-linecap="round" stroke-linejoin="round"/>
<path d="M1.69969 18.3H66.3003C67.0652 18.3 67.7 18.9408 67.7 19.7497V24.2503C67.7 25.0592 67.0652 25.7 66.3003 25.7H1.69969C0.934797 25.7 0.3 25.0592 0.3 24.2503V19.7497C0.3 18.9408 0.934797 18.3 1.69969 18.3Z" fill="#75E391" stroke="#63BF7A" stroke-width="0.6"/>
<path d="M43.6797 31.0488C43.6692 36.4349 39.3249 40.7977 33.9807 40.7977C28.6364 40.7977 24.3091 36.4349 24.3195 31.0488C24.33 25.6628 28.6743 21.3 34.0186 21.3C39.3628 21.3 43.6902 25.6628 43.6797 31.0488Z" fill="#F3FF70" stroke="#FDFFCC" stroke-width="0.6"/>
<mask id="mask0_2103_9692" style="mask-type:luminance" maskUnits="userSpaceOnUse" x="24" y="21" width="20" height="20">
<path d="M33.8307 40.8356C39.26 40.8356 43.6614 36.3953 43.6614 30.9178C43.6614 25.4404 39.26 21 33.8307 21C28.4013 21 24 25.4404 24 30.9178C24 36.3953 28.4013 40.8356 33.8307 40.8356Z" fill="white"/>
</mask>
<g mask="url(#mask0_2103_9692)">
<path d="M23.8711 33.6006L38.1254 21.2036" stroke="#FDFFCC" stroke-width="2" stroke-miterlimit="10"/>
<path d="M27.0586 37.8035L41.8042 25.104" stroke="#FDFFCC" stroke-width="6" stroke-miterlimit="10"/>
</g>
</g>
<defs>
<clipPath id="clip0_2103_9692">
<rect width="68" height="58" fill="white" transform="translate(0 0.513672)"/>
</clipPath>
</defs>
</svg>
