<svg width="68" height="59" viewBox="0 0 68 59" fill="none" xmlns="http://www.w3.org/2000/svg">
<g clip-path="url(#clip0_2097_6128)">
<path d="M38 12.7392C39.7377 11.6676 41.5078 10.5723 43.2815 9.48224C45.4828 8.12915 47.6946 6.79189 49.8836 5.41944C50.4245 5.07985 50.91 4.98659 51.5405 5.18542C54.5408 6.13206 57.563 7.00655 60.5563 7.97343C61.0226 8.12387 61.5108 8.54616 61.7601 8.97549C62.6847 10.5652 63.54 12.1972 64.3583 13.8442C64.5427 14.2145 64.6112 14.753 64.497 15.1445C63.475 18.6486 62.416 22.1413 61.3211 25.6226C61.1973 26.0158 60.8531 26.4364 60.4949 26.6405C58.8459 27.5836 57.1662 28.4766 55.4698 29.3308C55.1264 29.5033 54.6233 29.5569 54.2563 29.4496C51.0874 28.5232 47.9299 27.5572 44.7795 26.5692C44.4677 26.4716 44.106 26.2006 43.9725 25.9138C41.9688 21.6205 39.9985 17.3114 38.0237 13.0049C38 12.9538 38.0114 12.8861 38 12.7383V12.7392Z" fill="#6DA1C1"/>
<path d="M42.8367 23.3173C41.1605 22.9988 39.451 22.6768 37.7423 22.3496C35.6209 21.9431 33.503 21.5217 31.3781 21.1337C30.853 21.0378 30.5001 20.8214 30.2226 20.3428C28.9011 18.0642 27.5243 15.8181 26.2187 13.5316C26.015 13.1753 25.9509 12.6395 26.0378 12.233C26.36 10.7295 26.749 9.23827 27.1696 7.75849C27.2644 7.42594 27.5243 7.05468 27.815 6.87696C30.4158 5.28809 33.0341 3.72737 35.6683 2.19392C35.9651 2.02061 36.4146 1.9555 36.7509 2.03116C38.2998 2.37955 39.8399 2.77457 41.3686 3.20478C41.6777 3.29188 42.0193 3.54262 42.1852 3.81623C43.6226 6.17754 45.031 8.55645 46.4218 10.945C46.5597 11.1817 46.6308 11.553 46.5518 11.8055C45.3769 15.5894 44.1714 19.3636 42.9711 23.1405C42.957 23.1853 42.9122 23.2205 42.8358 23.3191L42.8367 23.3173Z" fill="#8DB1C7"/>
<path d="M31.6911 26.6828C29.9982 26.8975 28.2729 27.1183 26.5466 27.3347C24.4042 27.603 22.2591 27.8555 20.1184 28.1423C19.5889 28.2136 19.1876 28.1168 18.7758 27.7464C16.8187 25.9869 14.8176 24.2749 12.8718 22.5021C12.5689 22.2259 12.3423 21.7358 12.3002 21.3223C12.1448 19.7924 12.0561 18.2537 12.0008 16.7158C11.9885 16.3701 12.122 15.9364 12.3441 15.6777C14.3303 13.3639 16.3419 11.0703 18.3754 8.79874C18.6046 8.54273 19.012 8.34126 19.3554 8.30959C20.9367 8.16267 22.5225 8.06325 24.1091 8.00079C24.4296 7.98847 24.8318 8.12132 25.0741 8.32982C27.1674 10.1325 29.2387 11.9607 31.296 13.8038C31.4997 13.9859 31.6815 14.3176 31.6841 14.5824C31.7298 18.5449 31.7429 22.5083 31.7623 26.4708C31.7623 26.5183 31.7306 26.5649 31.6885 26.6819L31.6911 26.6828Z" fill="#6EA4C6"/>
<path d="M33.8442 6C34.7548 7.44635 35.6837 8.91909 36.6092 10.3954C37.7586 12.227 38.8939 14.0684 40.0582 15.8895C40.3462 16.34 40.4287 16.7456 40.2681 17.2752C39.505 19.7966 38.8026 22.3374 38.022 24.8536C37.8999 25.2459 37.5531 25.6577 37.1966 25.8715C35.8787 26.6597 34.5247 27.3908 33.1567 28.0911C32.8494 28.2486 32.4007 28.3111 32.0732 28.2187C29.1405 27.3944 26.2157 26.5383 23.3005 25.6524C22.9713 25.5521 22.6174 25.2679 22.4436 24.9697C21.6419 23.5964 20.8815 22.1975 20.1527 20.7837C20.0052 20.4978 19.956 20.0764 20.043 19.7685C20.7876 17.1054 21.5655 14.452 22.3619 11.8039C22.4409 11.5417 22.664 11.2364 22.9019 11.122C26.4668 9.40473 30.0449 7.71556 33.6203 6.02287C33.6625 6.00264 33.7187 6.01144 33.8425 6.00088L33.8442 6Z" fill="#8BCBEA"/>
<path d="M8.69283 29.8096C8.03166 28.4873 7.35643 27.1395 6.68472 25.7899C5.85057 24.1148 5.02959 22.4336 4.18051 20.7655C3.97066 20.3529 3.93466 19.9992 4.12081 19.5646C5.00501 17.4963 5.83652 15.4051 6.73477 13.3429C6.87438 13.0217 7.21243 12.7059 7.53907 12.5607C8.75078 12.0232 9.98796 11.5376 11.2348 11.0801C11.5149 10.9771 11.9091 10.9692 12.1849 11.081C14.6531 12.0786 17.1116 13.1027 19.5587 14.1514C19.8353 14.2693 20.1163 14.5482 20.241 14.8191C20.8144 16.0684 21.35 17.3353 21.8566 18.6118C21.9593 18.8696 21.9646 19.233 21.8628 19.4872C20.9821 21.6778 20.075 23.8579 19.1513 26.0301C19.06 26.2448 18.8396 26.4823 18.6236 26.5553C15.3836 27.6568 12.1348 28.7319 8.88688 29.8114C8.84825 29.8246 8.79995 29.8114 8.69195 29.8078L8.69283 29.8096Z" fill="#77ACC8"/>
<path d="M35.1996 12.179C36.6414 11.7655 38.1095 11.3432 39.5802 10.9236C41.4057 10.4036 43.2364 9.89599 45.0549 9.36109C45.5045 9.22824 45.8794 9.2564 46.3219 9.51505C48.4284 10.745 50.562 11.9283 52.6606 13.1714C52.9881 13.3649 53.2937 13.7512 53.421 14.0969C53.8925 15.377 54.3069 16.6738 54.6924 17.9741C54.7793 18.2662 54.7565 18.6533 54.6178 18.904C53.378 21.143 52.1109 23.3671 50.8202 25.5771C50.6744 25.8261 50.3601 26.053 50.0659 26.1269C48.7076 26.4674 47.3352 26.7674 45.954 27.0375C45.6748 27.0921 45.292 27.0331 45.0338 26.8888C42.7992 25.6404 40.5777 24.3683 38.365 23.0803C38.1464 22.9527 37.9137 22.6958 37.8531 22.4715C36.9461 19.1072 36.0662 15.7386 35.1829 12.3699C35.1724 12.3303 35.19 12.2855 35.2014 12.1799L35.1996 12.179Z" fill="#7EC0DA"/>
<path d="M23.549 53.3793L23.549 53.3793L23.5486 53.3792C22.5183 53.1436 21.0666 52.8115 19.1833 51.754C17.2969 50.6948 14.9651 48.9002 12.2004 45.726L12.2004 45.726C8.75741 41.7742 7.97329 38.2753 7.33503 35.4256L7.04228 35.4912L7.33503 35.4256C7.32968 35.4017 7.32433 35.3778 7.31899 35.354C6.85262 33.2712 6.44851 31.4664 4.94385 30.3909C4.82599 30.2546 4.71328 30.0174 4.61756 29.6818C4.51923 29.337 4.44797 28.9222 4.39828 28.4812C4.31317 27.7258 4.2939 26.9172 4.30152 26.3H63.6984C63.7063 26.9171 63.6872 27.7258 63.6021 28.4812C63.5524 28.9222 63.4811 29.337 63.3827 29.6817C63.2868 30.0173 63.174 30.2546 63.0559 30.3908C61.5526 31.4653 61.1487 33.267 60.6821 35.3481L60.6647 35.4255L60.6647 35.4256C60.0264 38.2752 59.2414 41.7733 55.7993 45.726C53.0346 48.8998 50.7026 50.6943 48.8161 51.7537C46.9325 52.8114 45.4806 53.1437 44.4508 53.3793L44.4507 53.3793L44.5176 53.6718L44.4507 53.3793L44.4038 53.3901C43.7626 53.5367 43.1807 53.6698 42.7454 53.9586C42.3541 54.2181 42.0343 54.5801 41.7293 54.9253L41.7077 54.9497L41.7075 54.95C41.1811 55.5469 40.5864 56.22 39.4712 56.7548C38.3509 57.292 36.681 57.7 33.9999 57.7C31.3187 57.7 29.6485 57.2922 28.5282 56.7551C27.4129 56.2205 26.8181 55.5473 26.2924 54.9502L26.2887 54.946C25.9782 54.5928 25.6531 54.2231 25.2543 53.9586C24.819 53.6698 24.2372 53.5368 23.5959 53.3901L23.549 53.3793Z" fill="#7B63B1" stroke="#665294" stroke-width="0.6"/>
<path d="M26.2212 55.1857L26.222 55.1874C26.2237 55.1909 26.2268 55.1973 26.2315 55.2065C26.2409 55.2248 26.2565 55.2539 26.2792 55.2924C26.3247 55.3693 26.3986 55.4834 26.5082 55.6226C26.7273 55.9006 27.0898 56.2797 27.6546 56.662C28.7816 57.4249 30.7338 58.2137 33.9991 58.2137C37.2645 58.2137 39.2167 57.4249 40.3437 56.662C40.9085 56.2797 41.271 55.9006 41.49 55.6226C41.5997 55.4834 41.6736 55.3693 41.7191 55.2924C41.7418 55.2539 41.7574 55.2248 41.7668 55.2065C41.7691 55.2019 41.7711 55.198 41.7727 55.1948C41.7742 55.1916 41.7754 55.1891 41.7763 55.1874L41.7771 55.1857C41.7772 55.1855 41.7772 55.1854 41.7773 55.1852M26.2212 55.1857L42.0514 55.3072C41.7771 55.1857 41.7772 55.1855 41.7773 55.1852M26.2212 55.1857C26.2211 55.1855 26.2211 55.1854 26.221 55.1852C26.221 55.1852 26.221 55.1852 26.221 55.1852C26.2209 55.1851 26.2209 55.185 26.2208 55.1849L26.2206 55.1844C26.2206 55.1844 26.2206 55.1843 26.2206 55.1843C26.213 55.1674 26.2038 55.1511 26.1932 55.1359C25.4012 53.9979 25.3 52.4813 25.3 50.8539V42.9365C25.3 39.0067 28.3757 35.8137 32.1053 35.8137H35.8947C39.6251 35.8137 42.7 39.0075 42.7 42.9365V50.8539C42.7 52.433 42.5706 53.9918 41.8201 55.1162M26.2212 55.1857L41.8201 55.1162M41.7773 55.1852C41.7885 55.16 41.803 55.1368 41.8201 55.1162M41.7773 55.1852L41.8201 55.1162" fill="#5D488A" stroke="#4B3A71" stroke-width="0.6" stroke-linecap="round" stroke-linejoin="round"/>
<path d="M3.30829 26.3H64.6917C64.6945 26.3946 64.6972 26.5099 64.6987 26.6418C64.7031 27.0258 64.6977 27.5469 64.6588 28.0978C64.6197 28.6504 64.5476 29.2237 64.4215 29.7155C64.3085 30.156 64.1615 30.4933 63.987 30.7H4.01302C3.83853 30.4933 3.69148 30.156 3.57853 29.7155C3.45243 29.2237 3.38028 28.6504 3.34123 28.0978C3.30231 27.5469 3.29689 27.0258 3.30128 26.6418C3.30279 26.5099 3.30545 26.3946 3.30829 26.3Z" fill="#5D498A" stroke="#4B3A71" stroke-width="0.6" stroke-linecap="round" stroke-linejoin="round"/>
<path d="M1.69969 18.3H66.3003C67.0652 18.3 67.7 18.9408 67.7 19.7497V24.2503C67.7 25.0592 67.0652 25.7 66.3003 25.7H1.69969C0.934797 25.7 0.3 25.0592 0.3 24.2503V19.7497C0.3 18.9408 0.934797 18.3 1.69969 18.3Z" fill="#7B63B1" stroke="#665294" stroke-width="0.6"/>
<path d="M43.6797 31.0488C43.6692 36.4349 39.3249 40.7977 33.9807 40.7977C28.6364 40.7977 24.3091 36.4349 24.3195 31.0488C24.33 25.6628 28.6743 21.3 34.0186 21.3C39.3628 21.3 43.6902 25.6628 43.6797 31.0488Z" fill="#F3FF70" stroke="#FDFFCC" stroke-width="0.6"/>
<mask id="mask0_2097_6128" style="mask-type:luminance" maskUnits="userSpaceOnUse" x="24" y="21" width="20" height="20">
<path d="M33.8307 40.8356C39.26 40.8356 43.6614 36.3953 43.6614 30.9178C43.6614 25.4404 39.26 21 33.8307 21C28.4013 21 24 25.4404 24 30.9178C24 36.3953 28.4013 40.8356 33.8307 40.8356Z" fill="white"/>
</mask>
<g mask="url(#mask0_2097_6128)">
<path d="M23.8711 33.6006L38.1254 21.2036" stroke="#FDFFCC" stroke-width="2" stroke-miterlimit="10"/>
<path d="M27.0586 37.8035L41.8042 25.104" stroke="#FDFFCC" stroke-width="6" stroke-miterlimit="10"/>
</g>
</g>
<defs>
<clipPath id="clip0_2097_6128">
<rect width="68" height="58" fill="white" transform="translate(0 0.513672)"/>
</clipPath>
</defs>
</svg>
