<svg width="68" height="59" viewBox="0 0 68 59" fill="none" xmlns="http://www.w3.org/2000/svg">
<g clip-path="url(#clip0_2103_9578)">
<path d="M27.543 16.0898C28.0464 14.4953 28.5174 12.9407 29.0427 11.4057C29.122 11.1741 29.4366 10.9964 29.6772 10.8521C34.5714 7.91348 39.4676 4.97548 44.3795 2.06667C44.7409 1.85266 45.2412 1.75046 45.6643 1.78076C48.3347 1.97426 51 2.22853 53.669 2.43848C54.1736 2.47782 54.4839 2.61519 54.6772 3.14046C55.0589 4.1784 55.5101 5.1939 55.9799 6.19643C56.2211 6.71093 56.1146 7.01715 55.6626 7.33934C50.5377 11.0009 45.4195 14.6714 40.3106 18.3557C39.7912 18.7309 39.3109 18.8037 38.6846 18.656C35.2867 17.8586 31.8782 17.1088 28.4738 16.3395C28.1939 16.2763 27.9201 16.1899 27.5444 16.0883L27.543 16.0898Z" fill="#BA7D45"/>
<path d="M10.2567 16.4107C10.8232 15.0328 11.3581 13.6881 11.9395 12.3642C12.0272 12.1645 12.3191 12.0279 12.5429 11.916C17.0962 9.63633 21.6513 7.35737 26.218 5.10527C26.554 4.93957 27.0045 4.88192 27.3764 4.93644C29.7243 5.28257 32.063 5.68214 34.4084 6.04273C34.8518 6.1106 35.1159 6.25247 35.247 6.72991C35.5058 7.67333 35.8278 8.60143 36.1673 9.51929C36.3416 9.99034 36.224 10.2543 35.7997 10.5098C30.9873 13.414 26.1802 16.3266 21.3801 19.252C20.8921 19.5499 20.4617 19.5829 19.9188 19.4112C16.9732 18.4831 14.0146 17.5963 11.0612 16.6927C10.8183 16.6183 10.5826 16.524 10.258 16.4095L10.2567 16.4107Z" fill="#B07947"/>
<path d="M65.1721 17.1441C64.4282 15.6465 63.7225 14.1835 62.9661 12.7482C62.852 12.5316 62.5137 12.4047 62.2536 12.2994C56.964 10.1529 51.6723 8.00732 46.3697 5.89302C45.9796 5.73747 45.4694 5.71388 45.0562 5.80922C42.4478 6.41332 39.8539 7.07667 37.2495 7.6968C36.757 7.81371 36.4716 7.99741 36.3619 8.54624C36.1453 9.63072 35.8566 10.7038 35.5474 11.7669C35.3887 12.3125 35.5413 12.5986 36.0376 12.847C41.6671 15.672 47.2913 18.507 52.9085 21.357C53.4796 21.6473 53.9654 21.645 54.5614 21.4022C57.7951 20.089 61.0466 18.8212 64.2911 17.5347C64.5579 17.4289 64.8151 17.3013 65.1705 17.1428L65.1721 17.1441Z" fill="#CB9360"/>
<path d="M0.376672 12.9256C1.57543 12.0409 2.72986 11.1682 3.91329 10.3375C4.09185 10.2122 4.41223 10.2466 4.66169 10.2669C9.73715 10.6777 14.8139 11.0899 19.8865 11.5312C20.2598 11.5636 20.6748 11.7478 20.9647 11.9872C22.793 13.5002 24.5859 15.0542 26.4047 16.5783C26.7487 16.8662 26.9011 17.1244 26.7657 17.6007C26.498 18.5416 26.2922 19.5022 26.1068 20.4631C26.0116 20.9562 25.7743 21.1211 25.279 21.1196C19.6582 21.1087 14.0375 21.1076 8.41633 21.1212C7.84457 21.1231 7.45936 20.9281 7.0841 20.4999C5.04625 18.1794 2.97582 15.8875 0.918529 13.5837C0.749379 13.3943 0.59671 13.1915 0.378434 12.9253L0.376672 12.9256Z" fill="#B2743B"/>
<path d="M29.1823 19.4495C29.8236 18.1047 30.4314 16.7914 31.0846 15.5015C31.1832 15.3068 31.4821 15.1865 31.7117 15.087C36.3832 13.0606 41.0565 11.035 45.7399 9.03687C46.0845 8.88986 46.5374 8.85701 46.9058 8.93186C49.2311 9.40629 51.5444 9.93358 53.8665 10.4223C54.3055 10.5144 54.5615 10.6706 54.6661 11.1545C54.8728 12.1107 55.1434 13.055 55.432 13.9901C55.5801 14.4701 55.4483 14.7272 55.0106 14.959C50.0461 17.5948 45.0864 20.2392 40.1331 22.8968C39.6295 23.1676 39.1978 23.1768 38.6652 22.9756C35.775 21.8873 32.8695 20.8395 29.9701 19.7752C29.7317 19.6876 29.5015 19.5805 29.1837 19.4484L29.1823 19.4495Z" fill="#CE833D"/>
<path d="M42.7327 17.9181C41.3622 16.597 40.0459 15.2986 38.6857 14.048C38.4805 13.8593 38.0687 13.8465 37.7491 13.8283C31.2474 13.4553 24.7438 13.084 18.2405 12.7497C17.762 12.7252 17.205 12.8838 16.7974 13.1338C14.2256 14.7139 11.6919 16.3517 9.13051 17.9475C8.64604 18.2489 8.40954 18.5465 8.50105 19.1684C8.68209 20.3971 8.78127 21.6396 8.85472 22.879C8.89233 23.5151 9.1654 23.7637 9.7934 23.8486C16.9191 24.8193 24.0428 25.8023 31.1649 26.8039C31.8892 26.9064 32.4102 26.7289 32.9579 26.2568C35.9309 23.6991 38.9404 21.183 41.9353 18.6498C42.1816 18.4415 42.4092 18.2135 42.7306 17.9173L42.7327 17.9181Z" fill="#A6682E"/>
<path d="M23.549 53.3793L23.549 53.3793L23.5486 53.3792C22.5183 53.1436 21.0666 52.8115 19.1833 51.754C17.2969 50.6948 14.9651 48.9002 12.2004 45.726L12.2004 45.726C8.75741 41.7742 7.97329 38.2753 7.33503 35.4256L7.04228 35.4912L7.33503 35.4256C7.32968 35.4017 7.32433 35.3778 7.31899 35.354C6.85262 33.2712 6.44851 31.4664 4.94385 30.3909C4.82599 30.2546 4.71328 30.0174 4.61756 29.6818C4.51923 29.337 4.44797 28.9222 4.39828 28.4812C4.31317 27.7258 4.2939 26.9172 4.30152 26.3H63.6984C63.7063 26.9171 63.6872 27.7258 63.6021 28.4812C63.5524 28.9222 63.4811 29.337 63.3827 29.6817C63.2868 30.0173 63.174 30.2546 63.0559 30.3908C61.5526 31.4653 61.1487 33.267 60.6821 35.3481L60.6647 35.4255L60.6647 35.4256C60.0264 38.2752 59.2414 41.7733 55.7993 45.726C53.0346 48.8998 50.7026 50.6943 48.8161 51.7537C46.9325 52.8114 45.4806 53.1437 44.4508 53.3793L44.4507 53.3793L44.5176 53.6718L44.4507 53.3793L44.4038 53.3901C43.7626 53.5367 43.1807 53.6698 42.7454 53.9586C42.3541 54.2181 42.0343 54.5801 41.7293 54.9253L41.7077 54.9497L41.7075 54.95C41.1811 55.5469 40.5864 56.22 39.4712 56.7548C38.3509 57.292 36.681 57.7 33.9999 57.7C31.3187 57.7 29.6485 57.2922 28.5282 56.7551C27.4129 56.2205 26.8181 55.5473 26.2924 54.9502L26.2887 54.946C25.9782 54.5928 25.6531 54.2231 25.2543 53.9586C24.819 53.6698 24.2372 53.5368 23.5959 53.3901L23.549 53.3793Z" fill="#7B63B1" stroke="#665294" stroke-width="0.6"/>
<path d="M26.2212 55.1857L26.222 55.1874C26.2237 55.1909 26.2268 55.1973 26.2315 55.2065C26.2409 55.2248 26.2565 55.2539 26.2792 55.2924C26.3247 55.3693 26.3986 55.4834 26.5082 55.6226C26.7273 55.9006 27.0898 56.2797 27.6546 56.662C28.7816 57.4249 30.7338 58.2137 33.9991 58.2137C37.2645 58.2137 39.2167 57.4249 40.3437 56.662C40.9085 56.2797 41.271 55.9006 41.49 55.6226C41.5997 55.4834 41.6736 55.3693 41.7191 55.2924C41.7418 55.2539 41.7574 55.2248 41.7668 55.2065C41.7691 55.2019 41.7711 55.198 41.7727 55.1948C41.7742 55.1916 41.7754 55.1891 41.7763 55.1874L41.7771 55.1857C41.7772 55.1855 41.7772 55.1854 41.7773 55.1852M26.2212 55.1857L42.0514 55.3072C41.7771 55.1857 41.7772 55.1855 41.7773 55.1852M26.2212 55.1857C26.2211 55.1855 26.2211 55.1854 26.221 55.1852C26.221 55.1852 26.221 55.1852 26.221 55.1852C26.2209 55.1851 26.2209 55.185 26.2208 55.1849L26.2206 55.1844C26.2206 55.1844 26.2206 55.1843 26.2206 55.1843C26.213 55.1674 26.2038 55.1511 26.1932 55.1359C25.4012 53.9979 25.3 52.4813 25.3 50.8539V42.9365C25.3 39.0067 28.3757 35.8137 32.1053 35.8137H35.8947C39.6251 35.8137 42.7 39.0075 42.7 42.9365V50.8539C42.7 52.433 42.5706 53.9918 41.8201 55.1162M26.2212 55.1857L41.8201 55.1162M41.7773 55.1852C41.7885 55.16 41.803 55.1368 41.8201 55.1162M41.7773 55.1852L41.8201 55.1162" fill="#5D488A" stroke="#4B3A71" stroke-width="0.6" stroke-linecap="round" stroke-linejoin="round"/>
<path d="M3.30829 26.3H64.6917C64.6945 26.3946 64.6972 26.5099 64.6987 26.6418C64.7031 27.0258 64.6977 27.5469 64.6588 28.0978C64.6197 28.6504 64.5476 29.2237 64.4215 29.7155C64.3085 30.156 64.1615 30.4933 63.987 30.7H4.01302C3.83853 30.4933 3.69148 30.156 3.57853 29.7155C3.45243 29.2237 3.38028 28.6504 3.34123 28.0978C3.30231 27.5469 3.29689 27.0258 3.30128 26.6418C3.30279 26.5099 3.30545 26.3946 3.30829 26.3Z" fill="#5D498A" stroke="#4B3A71" stroke-width="0.6" stroke-linecap="round" stroke-linejoin="round"/>
<path d="M1.69969 18.3H66.3003C67.0652 18.3 67.7 18.9408 67.7 19.7497V24.2503C67.7 25.0592 67.0652 25.7 66.3003 25.7H1.69969C0.934797 25.7 0.3 25.0592 0.3 24.2503V19.7497C0.3 18.9408 0.934797 18.3 1.69969 18.3Z" fill="#7B63B1" stroke="#665294" stroke-width="0.6"/>
<path d="M43.6797 31.0488C43.6692 36.4349 39.3249 40.7977 33.9807 40.7977C28.6364 40.7977 24.3091 36.4349 24.3195 31.0488C24.33 25.6628 28.6743 21.3 34.0186 21.3C39.3628 21.3 43.6902 25.6628 43.6797 31.0488Z" fill="#F3FF70" stroke="#FDFFCC" stroke-width="0.6"/>
<mask id="mask0_2103_9578" style="mask-type:luminance" maskUnits="userSpaceOnUse" x="24" y="21" width="20" height="20">
<path d="M33.8307 40.8356C39.26 40.8356 43.6614 36.3953 43.6614 30.9178C43.6614 25.4404 39.26 21 33.8307 21C28.4013 21 24 25.4404 24 30.9178C24 36.3953 28.4013 40.8356 33.8307 40.8356Z" fill="white"/>
</mask>
<g mask="url(#mask0_2103_9578)">
<path d="M23.8711 33.6006L38.1254 21.2036" stroke="#FDFFCC" stroke-width="2" stroke-miterlimit="10"/>
<path d="M27.0586 37.8035L41.8042 25.104" stroke="#FDFFCC" stroke-width="6" stroke-miterlimit="10"/>
</g>
</g>
<defs>
<clipPath id="clip0_2103_9578">
<rect width="68" height="58" fill="white" transform="translate(0 0.513672)"/>
</clipPath>
</defs>
</svg>
