<svg width="68" height="59" viewBox="0 0 68 59" fill="none" xmlns="http://www.w3.org/2000/svg">
<g clip-path="url(#clip0_2103_9635)">
<path d="M60.3795 23C58.4089 22.3509 56.5636 21.6951 54.6887 21.137C52.1751 20.3884 49.6442 19.6975 47.1067 19.0333C46.7673 18.9442 46.2988 19.0702 45.9747 19.2484C45.0128 19.7762 44.137 20.4736 43.1465 20.9332C41.6922 21.607 40.1548 22.1045 38.6776 22.7337C38.1565 22.9555 37.8649 22.8806 37.5379 22.4362C36.4231 20.92 35.2538 19.4417 34.1581 17.9122C33.985 17.6706 33.9487 17.1778 34.0758 16.903C34.748 15.4522 35.5263 14.0506 36.1955 12.5989C36.4824 11.9763 36.8017 11.9232 37.4127 12.1109C41.3557 13.3219 45.3178 14.4733 49.257 15.6957C50.1978 15.9876 50.8987 15.945 51.5393 15.1158C51.8156 14.7576 52.3013 14.5112 52.7411 14.3293C54.552 13.5787 56.3915 12.8964 58.1976 12.1346C58.7952 11.8825 59.126 11.9744 59.5018 12.4966C60.5611 13.9673 61.6951 15.384 62.7554 16.8547C62.9419 17.1124 63.0738 17.5986 62.9543 17.8516C62.1579 19.5488 61.2868 21.2109 60.3814 23L60.3795 23Z" fill="#860F52"/>
<path d="M24.3878 5.3869C23.6217 7.1969 22.8601 8.8879 22.186 10.615C21.2821 12.9304 20.43 15.2668 19.6019 17.6118C19.491 17.9254 19.5677 18.3789 19.7048 18.7002C20.1109 19.6534 20.6808 20.5393 21.0215 21.5141C21.5206 22.9451 21.85 24.4402 22.3061 25.8892C22.4667 26.4003 22.3729 26.6699 21.9349 26.9424C20.4404 27.8715 18.9764 28.8553 17.4713 29.7652C17.2335 29.9089 16.7754 29.9026 16.5324 29.7596C15.2495 29.0041 14.0211 28.1523 12.7371 27.3994C12.1864 27.0767 12.1645 26.7703 12.3894 26.208C13.8413 22.579 15.2397 18.927 16.7018 15.3025C17.0509 14.4368 17.0708 13.7705 16.3593 13.0962C16.0519 12.8053 15.8655 12.3256 15.7347 11.8946C15.1948 10.12 14.7204 8.32388 14.1696 6.55285C13.9874 5.96688 14.1002 5.66161 14.6142 5.34938C16.0619 4.46897 17.4661 3.51357 18.9139 2.63226C19.1677 2.47723 19.6278 2.3926 19.8514 2.52653C21.3512 3.41995 22.8124 4.381 24.388 5.38509L24.3878 5.3869Z" fill="#681C47"/>
<path d="M49.5447 29.4988C49.0057 27.4641 48.5412 25.5325 47.9782 23.6288C47.2236 21.0765 46.4108 18.5411 45.5719 16.0144C45.4599 15.6763 45.0953 15.3453 44.7663 15.166C43.7909 14.6332 42.7198 14.2663 41.786 13.6718C40.416 12.7986 39.1488 11.7583 37.8036 10.8411C37.3293 10.5175 37.2317 10.2279 37.4262 9.70674C38.0902 7.92927 38.6922 6.12597 39.3779 4.35758C39.4863 4.07823 39.8818 3.77864 40.1837 3.73731C41.7778 3.51985 43.3889 3.41977 44.9823 3.19934C45.6655 3.10465 45.8863 3.34814 46.0649 3.97158C47.2176 7.99528 48.4312 12.0027 49.5722 16.0294C49.8448 16.991 50.2672 17.5656 51.3196 17.6601C51.7741 17.7006 52.2497 17.9806 52.6456 18.2566C54.277 19.3922 55.8667 20.5895 57.505 21.7149C58.0471 22.0873 58.152 22.4196 57.9188 23.0247C57.2626 24.7301 56.6931 26.4696 56.0374 28.1758C55.9228 28.4754 55.5856 28.8529 55.3063 28.8889C53.4358 29.1346 51.5538 29.2976 49.5458 29.5005L49.5447 29.4988Z" fill="#8C004F"/>
<path d="M10.252 5.43507C11.687 7.08736 13.0053 8.67692 14.4025 10.1965C16.2756 12.2341 18.1951 14.23 20.1348 16.2061C20.3941 16.4707 20.8852 16.6159 21.2736 16.6361C22.4257 16.6967 23.5907 16.5604 24.7323 16.6969C26.4078 16.8983 28.0642 17.3008 29.7366 17.5541C30.3264 17.6436 30.5501 17.8694 30.6082 18.4409C30.8058 20.3903 31.0729 22.3361 31.246 24.2867C31.2733 24.5949 31.0427 25.0499 30.7808 25.223C29.3972 26.1361 27.9439 26.9476 26.5624 27.8631C25.9701 28.2558 25.6529 28.1278 25.2007 27.6275C22.2822 24.3989 19.3145 21.2125 16.4055 17.9759C15.7107 17.203 15.0541 16.8569 14.0314 17.2383C13.59 17.4033 13.019 17.3549 12.5239 17.2748C10.4849 16.9459 8.45638 16.5411 6.41559 16.2249C5.74037 16.1202 5.49033 15.8579 5.42969 15.1911C5.25797 13.3122 4.98993 11.4402 4.81735 9.56081C4.78655 9.2311 4.92715 8.72956 5.17052 8.57157C6.79829 7.50895 8.47476 6.51813 10.2502 5.43403L10.252 5.43507Z" fill="#510A32"/>
<path d="M31.4628 14.8008C29.5486 15.4261 27.7293 15.9748 25.9411 16.6155C23.5435 17.4742 21.1646 18.3872 18.7952 19.3245C18.4782 19.4497 18.1793 19.814 18.0232 20.136C17.5596 21.091 17.2583 22.1274 16.734 23.0463C15.9637 24.3946 15.0297 25.6548 14.2166 26.9819C13.9296 27.4499 13.6581 27.5588 13.1528 27.4035C11.4296 26.8734 9.68448 26.4035 7.96888 25.8523C7.69788 25.7652 7.39465 25.4068 7.34168 25.1228C7.06273 23.6231 6.89484 22.1008 6.6131 20.602C6.49212 19.9593 6.71415 19.7363 7.30005 19.5319C11.0815 18.2131 14.8447 16.8375 18.6294 15.5297C19.5333 15.2173 20.0617 14.7845 20.1043 13.781C20.1224 13.3478 20.3677 12.881 20.6128 12.49C21.6213 10.8791 22.6904 9.30436 23.6887 7.68745C24.019 7.15249 24.3309 7.03439 24.9179 7.22161C26.5721 7.74838 28.255 8.19104 29.91 8.71726C30.2005 8.80914 30.5754 9.10781 30.6222 9.37066C30.9406 11.1308 31.1806 12.9066 31.4643 14.7997L31.4628 14.8008Z" fill="#730041"/>
<path d="M38.9739 23.772C40.3527 22.4281 41.6823 21.19 42.9464 19.886C44.6415 18.138 46.2977 16.3513 47.9354 14.5477C48.1547 14.3066 48.2575 13.8679 48.2556 13.5258C48.2506 12.5108 48.0721 11.4944 48.1344 10.4848C48.2266 9.00305 48.4966 7.52781 48.6346 6.0461C48.6834 5.52351 48.8704 5.31562 49.3695 5.23574C51.0717 4.9638 52.7673 4.63095 54.4719 4.38036C54.7411 4.34082 55.1525 4.5204 55.3177 4.74174C56.1896 5.91091 56.9757 7.14638 57.8496 8.31359C58.2244 8.814 58.128 9.09906 57.7114 9.52152C55.023 12.2479 52.3741 15.0155 49.6782 17.7339C49.0344 18.3832 48.7635 18.9774 49.1502 19.8564C49.3174 20.2358 49.3038 20.7398 49.2583 21.1787C49.0724 22.9862 48.8193 24.7884 48.6446 26.5968C48.5868 27.1952 48.369 27.428 47.7864 27.515C46.1448 27.7607 44.5141 28.0906 42.8721 28.3371C42.584 28.3808 42.1364 28.2826 41.9853 28.0768C40.9698 26.7008 40.0149 25.2783 38.973 23.7736L38.9739 23.772Z" fill="#932061"/>
<path d="M23.549 53.3793L23.549 53.3793L23.5486 53.3792C22.5183 53.1436 21.0666 52.8115 19.1833 51.754C17.2969 50.6948 14.9651 48.9002 12.2004 45.726L12.2004 45.726C8.75741 41.7742 7.97329 38.2753 7.33503 35.4256L7.04228 35.4912L7.33503 35.4256C7.32968 35.4017 7.32433 35.3778 7.31899 35.354C6.85262 33.2712 6.44851 31.4664 4.94385 30.3909C4.82599 30.2546 4.71328 30.0174 4.61756 29.6818C4.51923 29.337 4.44797 28.9222 4.39828 28.4812C4.31317 27.7258 4.2939 26.9172 4.30152 26.3H63.6984C63.7063 26.9171 63.6872 27.7258 63.6021 28.4812C63.5524 28.9222 63.4811 29.337 63.3827 29.6817C63.2868 30.0173 63.174 30.2546 63.0559 30.3908C61.5526 31.4653 61.1487 33.267 60.6821 35.3481L60.6647 35.4255L60.6647 35.4256C60.0264 38.2752 59.2414 41.7733 55.7993 45.726C53.0346 48.8998 50.7026 50.6943 48.8161 51.7537C46.9325 52.8114 45.4806 53.1437 44.4508 53.3793L44.4507 53.3793L44.5176 53.6718L44.4507 53.3793L44.4038 53.3901C43.7626 53.5367 43.1807 53.6698 42.7454 53.9586C42.3541 54.2181 42.0343 54.5801 41.7293 54.9253L41.7077 54.9497L41.7075 54.95C41.1811 55.5469 40.5864 56.22 39.4712 56.7548C38.3509 57.292 36.681 57.7 33.9999 57.7C31.3187 57.7 29.6485 57.2922 28.5282 56.7551C27.4129 56.2205 26.8181 55.5473 26.2924 54.9502L26.2887 54.946C25.9782 54.5928 25.6531 54.2231 25.2543 53.9586C24.819 53.6698 24.2372 53.5368 23.5959 53.3901L23.549 53.3793Z" fill="#7B63B1" stroke="#665294" stroke-width="0.6"/>
<path d="M26.2212 55.1857L26.222 55.1874C26.2237 55.1909 26.2268 55.1973 26.2315 55.2065C26.2409 55.2248 26.2565 55.2539 26.2792 55.2924C26.3247 55.3693 26.3986 55.4834 26.5082 55.6226C26.7273 55.9006 27.0898 56.2797 27.6546 56.662C28.7816 57.4249 30.7338 58.2137 33.9991 58.2137C37.2645 58.2137 39.2167 57.4249 40.3437 56.662C40.9085 56.2797 41.271 55.9006 41.49 55.6226C41.5997 55.4834 41.6736 55.3693 41.7191 55.2924C41.7418 55.2539 41.7574 55.2248 41.7668 55.2065C41.7691 55.2019 41.7711 55.198 41.7727 55.1948C41.7742 55.1916 41.7754 55.1891 41.7763 55.1874L41.7771 55.1857C41.7772 55.1855 41.7772 55.1854 41.7773 55.1852M26.2212 55.1857L42.0514 55.3072C41.7771 55.1857 41.7772 55.1855 41.7773 55.1852M26.2212 55.1857C26.2211 55.1855 26.2211 55.1854 26.221 55.1852C26.221 55.1852 26.221 55.1852 26.221 55.1852C26.2209 55.1851 26.2209 55.185 26.2208 55.1849L26.2206 55.1844C26.2206 55.1844 26.2206 55.1843 26.2206 55.1843C26.213 55.1674 26.2038 55.1511 26.1932 55.1359C25.4012 53.9979 25.3 52.4813 25.3 50.8539V42.9365C25.3 39.0067 28.3757 35.8137 32.1053 35.8137H35.8947C39.6251 35.8137 42.7 39.0075 42.7 42.9365V50.8539C42.7 52.433 42.5706 53.9918 41.8201 55.1162M26.2212 55.1857L41.8201 55.1162M41.7773 55.1852C41.7885 55.16 41.803 55.1368 41.8201 55.1162M41.7773 55.1852L41.8201 55.1162" fill="#5D488A" stroke="#4B3A71" stroke-width="0.6" stroke-linecap="round" stroke-linejoin="round"/>
<path d="M3.30829 26.3H64.6917C64.6945 26.3946 64.6972 26.5099 64.6987 26.6418C64.7031 27.0258 64.6977 27.5469 64.6588 28.0978C64.6197 28.6504 64.5476 29.2237 64.4215 29.7155C64.3085 30.156 64.1615 30.4933 63.987 30.7H4.01302C3.83853 30.4933 3.69148 30.156 3.57853 29.7155C3.45243 29.2237 3.38028 28.6504 3.34123 28.0978C3.30231 27.5469 3.29689 27.0258 3.30128 26.6418C3.30279 26.5099 3.30545 26.3946 3.30829 26.3Z" fill="#5D498A" stroke="#4B3A71" stroke-width="0.6" stroke-linecap="round" stroke-linejoin="round"/>
<path d="M1.69969 18.3H66.3003C67.0652 18.3 67.7 18.9408 67.7 19.7497V24.2503C67.7 25.0592 67.0652 25.7 66.3003 25.7H1.69969C0.934797 25.7 0.3 25.0592 0.3 24.2503V19.7497C0.3 18.9408 0.934797 18.3 1.69969 18.3Z" fill="#7B63B1" stroke="#665294" stroke-width="0.6"/>
<path d="M43.6797 31.0488C43.6692 36.4349 39.3249 40.7977 33.9807 40.7977C28.6364 40.7977 24.3091 36.4349 24.3195 31.0488C24.33 25.6628 28.6743 21.3 34.0186 21.3C39.3628 21.3 43.6902 25.6628 43.6797 31.0488Z" fill="#F3FF70" stroke="#FDFFCC" stroke-width="0.6"/>
<mask id="mask0_2103_9635" style="mask-type:luminance" maskUnits="userSpaceOnUse" x="24" y="21" width="20" height="20">
<path d="M33.8307 40.8356C39.26 40.8356 43.6614 36.3953 43.6614 30.9178C43.6614 25.4404 39.26 21 33.8307 21C28.4013 21 24 25.4404 24 30.9178C24 36.3953 28.4013 40.8356 33.8307 40.8356Z" fill="white"/>
</mask>
<g mask="url(#mask0_2103_9635)">
<path d="M23.8711 33.6006L38.1254 21.2036" stroke="#FDFFCC" stroke-width="2" stroke-miterlimit="10"/>
<path d="M27.0586 37.8035L41.8042 25.104" stroke="#FDFFCC" stroke-width="6" stroke-miterlimit="10"/>
</g>
</g>
<defs>
<clipPath id="clip0_2103_9635">
<rect width="68" height="58" fill="white" transform="translate(0 0.513672)"/>
</clipPath>
</defs>
</svg>
