<svg width="68" height="59" viewBox="0 0 68 59" fill="none" xmlns="http://www.w3.org/2000/svg">
<g clip-path="url(#clip0_2103_9464)">
<path d="M32.9688 21.334C33.4722 19.7394 33.9432 18.1848 34.4685 16.6498C34.5478 16.4182 34.8624 16.2406 35.103 16.0962C39.9971 13.1576 44.8934 10.2196 49.8053 7.31081C50.1667 7.0968 50.667 6.9946 51.09 7.0249C53.7604 7.2184 56.4257 7.47267 59.0947 7.68262C59.5994 7.72197 59.9097 7.85933 60.103 8.3846C60.4846 9.42254 60.9358 10.438 61.4057 11.4406C61.6469 11.9551 61.5403 12.2613 61.0884 12.5835C55.9634 16.245 50.8453 19.9155 45.7363 23.5999C45.217 23.975 44.7367 24.0478 44.1103 23.9001C40.7125 23.1028 37.304 22.3529 33.8996 21.5837C33.6197 21.5204 33.3458 21.4341 32.9702 21.3325L32.9688 21.334Z" fill="#BF7E43"/>
<path d="M38.0153 21.3269C38.803 20.0623 39.5539 18.8252 40.3473 17.6164C40.467 17.434 40.7775 17.3478 41.0168 17.2747C45.8857 15.7835 50.7562 14.2934 55.6337 12.8317C55.9926 12.7241 56.4463 12.7421 56.8041 12.8577C59.0617 13.5893 61.3015 14.372 63.5543 15.1174C63.9803 15.258 64.2172 15.4418 64.267 15.9344C64.3654 16.9077 64.5287 17.8765 64.7109 18.838C64.8044 19.3314 64.6447 19.5722 64.1838 19.7536C58.9556 21.8175 53.7312 23.8906 48.5117 25.9775C47.981 26.1902 47.551 26.1511 47.0442 25.8915C44.2939 24.4868 41.5239 23.1206 38.7617 21.7386C38.5346 21.625 38.3179 21.4928 38.0168 21.3259L38.0153 21.3269Z" fill="#B07947"/>
<path d="M52.1206 19.2971C51.636 17.4561 51.1858 15.6629 50.6735 13.8876C50.5962 13.6197 50.2509 13.3948 49.9873 13.2132C44.6259 9.51642 39.262 5.82014 33.879 2.15566C33.4829 1.88605 32.9245 1.73217 32.4464 1.73397C29.428 1.74789 26.4122 1.83089 23.3946 1.8635C22.8241 1.86927 22.4673 2.00074 22.2224 2.57962C21.7387 3.72352 21.1779 4.83673 20.5967 5.93384C20.2983 6.49688 20.4025 6.85116 20.8949 7.24999C26.479 11.7816 32.055 16.3229 37.6199 20.879C38.1855 21.3429 38.7229 21.462 39.4361 21.3431C43.3053 20.7025 47.184 20.1163 51.059 19.5079C51.3777 19.4579 51.6906 19.3813 52.1191 19.2953L52.1206 19.2971Z" fill="#A6682E"/>
<path d="M33.4372 19.0542C32.6167 17.5972 31.8361 16.1727 31.0064 14.7785C30.8812 14.5681 30.5368 14.459 30.2716 14.3672C24.8778 12.4977 19.4821 10.6292 14.0771 8.79243C13.6794 8.6573 13.1688 8.66017 12.761 8.7768C10.1875 9.51522 7.63138 10.3121 5.06257 11.0663C4.57682 11.2086 4.30136 11.4068 4.22022 11.9606C4.0601 13.0548 3.82736 14.1414 3.5737 15.2191C3.44343 15.7722 3.61064 16.05 4.11918 16.2724C9.88749 18.802 15.651 21.3417 21.4083 23.8969C21.9937 24.1572 22.4787 24.1297 23.0613 23.8564C26.2226 22.3774 29.4041 20.9428 32.5776 19.49C32.8385 19.3705 33.0888 19.2297 33.4355 19.053L33.4372 19.0542Z" fill="#CB9360"/>
<path d="M4.17087 20.3036C4.82301 18.9641 5.44144 17.6557 6.10502 16.371C6.20514 16.1772 6.50501 16.0593 6.73546 15.9616C11.4232 13.9731 16.1127 11.9853 20.8121 10.025C21.1578 9.88079 21.611 9.8516 21.9788 9.92942C24.3002 10.4226 26.6091 10.9686 28.9271 11.476C29.3655 11.5717 29.6201 11.7299 29.7209 12.2146C29.9198 13.1725 30.1827 14.119 30.4638 15.0564C30.6081 15.5375 30.4742 15.7935 30.0346 16.0218C25.0489 18.6174 20.0681 21.2217 15.0935 23.8393C14.5877 24.1059 14.156 24.1117 13.625 23.9061C10.7437 22.7945 7.84679 21.7234 4.95604 20.6356C4.71836 20.5462 4.48905 20.4372 4.17226 20.3025L4.17087 20.3036Z" fill="#B2743B"/>
<path d="M20.8817 18.5668C21.7751 17.3745 22.6295 16.2065 23.5237 15.0703C23.6587 14.8989 23.9754 14.8396 24.2202 14.7873C29.1991 13.7198 34.1796 12.6534 39.1646 11.616C39.5314 11.5396 39.9819 11.5966 40.3284 11.7424C42.5149 12.6652 44.6792 13.6374 46.8596 14.5735C47.272 14.7502 47.4922 14.9536 47.4996 15.4487C47.514 16.4268 47.5935 17.406 47.6924 18.3796C47.7433 18.8793 47.5634 19.1054 47.0887 19.2466C41.7025 20.8539 36.3195 22.4707 30.94 24.1016C30.393 24.2679 29.968 24.1921 29.4853 23.89C26.8658 22.2542 24.2233 20.6552 21.59 19.0411C21.3735 18.9084 21.1689 18.758 20.8833 18.5659L20.8817 18.5668Z" fill="#CE833D"/>
<path d="M23.549 53.3793L23.549 53.3793L23.5486 53.3792C22.5183 53.1436 21.0666 52.8115 19.1833 51.754C17.2969 50.6948 14.9651 48.9002 12.2004 45.726L12.2004 45.726C8.75741 41.7742 7.97329 38.2753 7.33503 35.4256L7.04228 35.4912L7.33503 35.4256C7.32968 35.4017 7.32433 35.3778 7.31899 35.354C6.85262 33.2712 6.44851 31.4664 4.94385 30.3909C4.82599 30.2546 4.71328 30.0174 4.61756 29.6818C4.51923 29.337 4.44797 28.9222 4.39828 28.4812C4.31317 27.7258 4.2939 26.9172 4.30152 26.3H63.6984C63.7063 26.9171 63.6872 27.7258 63.6021 28.4812C63.5524 28.9222 63.4811 29.337 63.3827 29.6817C63.2868 30.0173 63.174 30.2546 63.0559 30.3908C61.5526 31.4653 61.1487 33.267 60.6821 35.3481L60.6647 35.4255L60.6647 35.4256C60.0264 38.2752 59.2414 41.7733 55.7993 45.726C53.0346 48.8998 50.7026 50.6943 48.8161 51.7537C46.9325 52.8114 45.4806 53.1437 44.4508 53.3793L44.4507 53.3793L44.5176 53.6718L44.4507 53.3793L44.4038 53.3901C43.7626 53.5367 43.1807 53.6698 42.7454 53.9586C42.3541 54.2181 42.0343 54.5801 41.7293 54.9253L41.7077 54.9497L41.7075 54.95C41.1811 55.5469 40.5864 56.22 39.4712 56.7548C38.3509 57.292 36.681 57.7 33.9999 57.7C31.3187 57.7 29.6485 57.2922 28.5282 56.7551C27.4129 56.2205 26.8181 55.5473 26.2924 54.9502L26.2887 54.946C25.9782 54.5928 25.6531 54.2231 25.2543 53.9586C24.819 53.6698 24.2372 53.5368 23.5959 53.3901L23.549 53.3793Z" fill="#E478E4" stroke="#BA61BA" stroke-width="0.6"/>
<path d="M26.2212 55.1857L26.222 55.1874C26.2237 55.1909 26.2268 55.1973 26.2315 55.2065C26.2409 55.2248 26.2565 55.2539 26.2792 55.2924C26.3247 55.3693 26.3986 55.4834 26.5082 55.6226C26.7273 55.9006 27.0898 56.2797 27.6546 56.662C28.7816 57.4249 30.7338 58.2137 33.9991 58.2137C37.2645 58.2137 39.2167 57.4249 40.3437 56.662C40.9085 56.2797 41.271 55.9006 41.49 55.6226C41.5997 55.4834 41.6736 55.3693 41.7191 55.2924C41.7418 55.2539 41.7574 55.2248 41.7668 55.2065C41.7691 55.2019 41.7711 55.198 41.7727 55.1948C41.7742 55.1916 41.7754 55.1891 41.7763 55.1874L41.7771 55.1857C41.7772 55.1855 41.7772 55.1854 41.7773 55.1852M26.2212 55.1857L42.0514 55.3072C41.7771 55.1857 41.7772 55.1855 41.7773 55.1852M26.2212 55.1857C26.2211 55.1855 26.2211 55.1854 26.221 55.1852C26.221 55.1852 26.221 55.1852 26.221 55.1852C26.2209 55.1851 26.2209 55.185 26.2208 55.1849L26.2206 55.1844C26.2206 55.1844 26.2206 55.1843 26.2206 55.1843C26.213 55.1674 26.2038 55.1511 26.1932 55.1359C25.4012 53.9979 25.3 52.4813 25.3 50.8539V42.9365C25.3 39.0067 28.3757 35.8137 32.1053 35.8137H35.8947C39.6251 35.8137 42.7 39.0075 42.7 42.9365V50.8539C42.7 52.433 42.5706 53.9918 41.8201 55.1162M26.2212 55.1857L41.8201 55.1162M41.7773 55.1852C41.7885 55.16 41.803 55.1368 41.8201 55.1162M41.7773 55.1852L41.8201 55.1162" fill="#D35ED3" stroke="#B851B8" stroke-width="0.6" stroke-linecap="round" stroke-linejoin="round"/>
<path d="M3.30829 26.3H64.6917C64.6945 26.3946 64.6972 26.5099 64.6987 26.6418C64.7031 27.0258 64.6977 27.5469 64.6588 28.0978C64.6197 28.6504 64.5476 29.2237 64.4215 29.7155C64.3085 30.156 64.1615 30.4933 63.987 30.7H4.01302C3.83853 30.4933 3.69148 30.156 3.57853 29.7155C3.45243 29.2237 3.38028 28.6504 3.34123 28.0978C3.30231 27.5469 3.29689 27.0258 3.30128 26.6418C3.30279 26.5099 3.30545 26.3946 3.30829 26.3Z" fill="#D35ED3" stroke="#B851B8" stroke-width="0.6" stroke-linecap="round" stroke-linejoin="round"/>
<path d="M1.69969 18.3H66.3003C67.0652 18.3 67.7 18.9408 67.7 19.7497V24.2503C67.7 25.0592 67.0652 25.7 66.3003 25.7H1.69969C0.934797 25.7 0.3 25.0592 0.3 24.2503V19.7497C0.3 18.9408 0.934797 18.3 1.69969 18.3Z" fill="#E478E4" stroke="#BA61BA" stroke-width="0.6"/>
<path d="M43.6797 31.0488C43.6692 36.4349 39.3249 40.7977 33.9807 40.7977C28.6364 40.7977 24.3091 36.4349 24.3195 31.0488C24.33 25.6628 28.6743 21.3 34.0186 21.3C39.3628 21.3 43.6902 25.6628 43.6797 31.0488Z" fill="#F3FF70" stroke="#FDFFCC" stroke-width="0.6"/>
<mask id="mask0_2103_9464" style="mask-type:luminance" maskUnits="userSpaceOnUse" x="24" y="21" width="20" height="20">
<path d="M33.8307 40.8356C39.26 40.8356 43.6614 36.3953 43.6614 30.9178C43.6614 25.4404 39.26 21 33.8307 21C28.4013 21 24 25.4404 24 30.9178C24 36.3953 28.4013 40.8356 33.8307 40.8356Z" fill="white"/>
</mask>
<g mask="url(#mask0_2103_9464)">
<path d="M23.8711 33.6006L38.1254 21.2036" stroke="#FDFFCC" stroke-width="2" stroke-miterlimit="10"/>
<path d="M27.0586 37.8035L41.8042 25.104" stroke="#FDFFCC" stroke-width="6" stroke-miterlimit="10"/>
</g>
</g>
<defs>
<clipPath id="clip0_2103_9464">
<rect width="68" height="58" fill="white" transform="translate(0 0.513672)"/>
</clipPath>
</defs>
</svg>
