<svg width="68" height="59" viewBox="0 0 68 59" fill="none" xmlns="http://www.w3.org/2000/svg">
<g clip-path="url(#clip0_2103_9483)">
<path d="M22.338 1.29072C24.1502 3.33183 25.8795 5.25408 27.5665 7.21346C27.7688 7.44788 27.8263 7.89203 27.8101 8.23327C27.5325 14.0983 27.6391 20.0126 27.3182 25.8755C26.4025 26.6924 25.9708 27.145 25.4274 27.6478C23.6137 29.394 22.8052 30.3093 20.8139 32.2532C19.8401 31.1523 18.7146 29.6748 18.1334 28.8612C17.522 28.0058 15.5602 25.2028 15.5602 25.2028C15.5602 25.2028 15.4948 23.9739 15.595 21.9793C15.8303 17.2985 15.9966 12.6845 16.201 8.0362C16.2766 6.53227 16.2835 6.8974 17.0122 6.22306C18.7772 4.64181 20.4955 3.00551 22.3369 1.29273L22.338 1.29072Z" fill="#A67992"/>
<path d="M6.5509 10.451C9.48318 11.8993 12.2698 13.2531 15.0263 14.6672C15.3566 14.8362 15.6207 15.3033 15.7567 15.6894C18.094 22.3251 20.88 28.8423 23.1682 35.4951C22.5202 36.8149 22.2451 37.5121 21.8687 38.3153C20.643 41.0718 20.1584 42.4524 18.8247 45.5085C17.2472 44.7256 15.3314 43.5932 14.3193 42.9522C13.2547 42.2785 9.81281 40.0518 9.81281 40.0518C9.81281 40.0518 9.18583 38.7172 8.39747 36.4579C6.54737 31.1558 4.6508 25.9589 2.78106 20.7069C2.18663 19.0034 2.35898 19.4056 2.86373 18.3283C4.10979 15.7769 5.27916 13.1855 6.55058 10.4537L6.5509 10.451Z" fill="#885C75"/>
<path d="M19.5695 13.4474C21.4917 12.609 23.3073 11.8029 25.1402 11.0365C25.3596 10.9444 25.6989 11.0075 25.9454 11.1C30.1825 12.6895 34.5459 14.0104 38.7712 15.6309C39.1557 16.4916 39.3865 16.9134 39.6279 17.4284C40.4834 19.1636 40.9652 19.9694 41.9242 21.8808C40.8882 22.3304 39.5405 22.8014 38.8074 23.0328C38.0366 23.2762 35.5204 24.0434 35.5204 24.0434C35.5204 24.0434 34.6036 23.8005 33.164 23.2557C29.7857 21.9772 26.4401 20.7648 23.0784 19.5166C21.9929 19.1058 22.2624 19.1871 21.9386 18.4964C21.1926 16.8357 20.3953 15.1961 19.5707 13.4487L19.5695 13.4474Z" fill="#774F66"/>
<path d="M42.7639 1.65336C43.8301 3.85156 44.8538 5.92723 45.832 8.02465C45.9495 8.2757 45.8912 8.67232 45.7946 8.96241C44.1326 13.9483 42.7899 19.07 41.0911 24.0435C40.1041 24.5252 39.6223 24.8104 39.0321 25.1118C37.0459 26.1764 36.1273 26.7689 33.94 27.9607C33.3681 26.7759 32.7568 25.2299 32.4534 24.388C32.1341 23.5027 31.1238 20.6117 31.1238 20.6117C31.1238 20.6117 31.3655 19.537 31.9357 17.8428C33.2739 13.867 34.5364 9.93188 35.84 5.97653C36.27 4.6991 36.1873 5.01537 36.9788 4.61113C38.8831 3.67689 40.7605 2.68388 42.7624 1.65482L42.7639 1.65336Z" fill="#AA6B8F"/>
<path d="M45.8347 10.2786C47.8323 11.5109 49.7323 12.6659 51.6066 13.8619C51.8313 14.0049 51.9885 14.3564 52.0597 14.6414C53.2828 19.5402 54.8347 24.3845 56.0216 29.2922C55.4697 30.1915 55.2262 30.6712 54.9032 31.2198C53.8418 33.1068 53.4025 34.0607 52.2438 36.1545C51.1694 35.4889 49.8767 34.5507 49.1967 34.0246C48.4814 33.4715 46.172 31.6487 46.172 31.6487C46.172 31.6487 45.8139 30.6529 45.4028 28.9854C44.4379 25.0724 43.4327 21.2314 42.4504 17.3528C42.1404 16.0955 42.2365 16.3945 42.6697 15.6588C43.7318 13.9197 44.7419 12.1468 45.8343 10.2805L45.8347 10.2786Z" fill="#B189A0"/>
<path d="M64.8075 3.96628C65.4375 6.60353 66.0506 9.09782 66.6094 11.6048C66.6767 11.905 66.5187 12.3209 66.3446 12.6122C63.3514 17.6184 60.6717 22.848 57.6416 27.8321C56.4567 28.1181 55.8664 28.3121 55.1547 28.4977C52.7476 29.1765 51.6104 29.599 48.9549 30.3678C48.6184 28.947 48.3255 27.1254 48.1979 26.1403C48.0635 25.1045 47.6598 21.7299 47.6598 21.7299C47.6598 21.7299 48.1786 20.623 49.2017 18.9232C51.6025 14.9342 53.9115 10.9713 56.27 6.99627C57.0414 5.71462 56.8762 6.03762 57.8306 5.78873C60.1178 5.23151 62.3899 4.60417 64.8055 3.96752L64.8075 3.96628Z" fill="#A57E94"/>
<path d="M23.549 53.3793L23.549 53.3793L23.5486 53.3792C22.5183 53.1436 21.0666 52.8115 19.1833 51.754C17.2969 50.6948 14.9651 48.9002 12.2004 45.726L12.2004 45.726C8.75741 41.7742 7.97329 38.2753 7.33503 35.4256L7.04228 35.4912L7.33503 35.4256C7.32968 35.4017 7.32433 35.3778 7.31899 35.354C6.85262 33.2712 6.44851 31.4664 4.94385 30.3909C4.82599 30.2546 4.71328 30.0174 4.61756 29.6818C4.51923 29.337 4.44797 28.9222 4.39828 28.4812C4.31317 27.7258 4.2939 26.9172 4.30152 26.3H63.6984C63.7063 26.9171 63.6872 27.7258 63.6021 28.4812C63.5524 28.9222 63.4811 29.337 63.3827 29.6817C63.2868 30.0173 63.174 30.2546 63.0559 30.3908C61.5526 31.4653 61.1487 33.267 60.6821 35.3481L60.6647 35.4255L60.6647 35.4256C60.0264 38.2752 59.2414 41.7733 55.7993 45.726C53.0346 48.8998 50.7026 50.6943 48.8161 51.7537C46.9325 52.8114 45.4806 53.1437 44.4508 53.3793L44.4507 53.3793L44.5176 53.6718L44.4507 53.3793L44.4038 53.3901C43.7626 53.5367 43.1807 53.6698 42.7454 53.9586C42.3541 54.2181 42.0343 54.5801 41.7293 54.9253L41.7077 54.9497L41.7075 54.95C41.1811 55.5469 40.5864 56.22 39.4712 56.7548C38.3509 57.292 36.681 57.7 33.9999 57.7C31.3187 57.7 29.6485 57.2922 28.5282 56.7551C27.4129 56.2205 26.8181 55.5473 26.2924 54.9502L26.2887 54.946C25.9782 54.5928 25.6531 54.2231 25.2543 53.9586C24.819 53.6698 24.2372 53.5368 23.5959 53.3901L23.549 53.3793Z" fill="#E478E4" stroke="#BA61BA" stroke-width="0.6"/>
<path d="M26.2212 55.1857L26.222 55.1874C26.2237 55.1909 26.2268 55.1973 26.2315 55.2065C26.2409 55.2248 26.2565 55.2539 26.2792 55.2924C26.3247 55.3693 26.3986 55.4834 26.5082 55.6226C26.7273 55.9006 27.0898 56.2797 27.6546 56.662C28.7816 57.4249 30.7338 58.2137 33.9991 58.2137C37.2645 58.2137 39.2167 57.4249 40.3437 56.662C40.9085 56.2797 41.271 55.9006 41.49 55.6226C41.5997 55.4834 41.6736 55.3693 41.7191 55.2924C41.7418 55.2539 41.7574 55.2248 41.7668 55.2065C41.7691 55.2019 41.7711 55.198 41.7727 55.1948C41.7742 55.1916 41.7754 55.1891 41.7763 55.1874L41.7771 55.1857C41.7772 55.1855 41.7772 55.1854 41.7773 55.1852M26.2212 55.1857L42.0514 55.3072C41.7771 55.1857 41.7772 55.1855 41.7773 55.1852M26.2212 55.1857C26.2211 55.1855 26.2211 55.1854 26.221 55.1852C26.221 55.1852 26.221 55.1852 26.221 55.1852C26.2209 55.1851 26.2209 55.185 26.2208 55.1849L26.2206 55.1844C26.2206 55.1844 26.2206 55.1843 26.2206 55.1843C26.213 55.1674 26.2038 55.1511 26.1932 55.1359C25.4012 53.9979 25.3 52.4813 25.3 50.8539V42.9365C25.3 39.0067 28.3757 35.8137 32.1053 35.8137H35.8947C39.6251 35.8137 42.7 39.0075 42.7 42.9365V50.8539C42.7 52.433 42.5706 53.9918 41.8201 55.1162M26.2212 55.1857L41.8201 55.1162M41.7773 55.1852C41.7885 55.16 41.803 55.1368 41.8201 55.1162M41.7773 55.1852L41.8201 55.1162" fill="#D35ED3" stroke="#B851B8" stroke-width="0.6" stroke-linecap="round" stroke-linejoin="round"/>
<path d="M3.30829 26.3H64.6917C64.6945 26.3946 64.6972 26.5099 64.6987 26.6418C64.7031 27.0258 64.6977 27.5469 64.6588 28.0978C64.6197 28.6504 64.5476 29.2237 64.4215 29.7155C64.3085 30.156 64.1615 30.4933 63.987 30.7H4.01302C3.83853 30.4933 3.69148 30.156 3.57853 29.7155C3.45243 29.2237 3.38028 28.6504 3.34123 28.0978C3.30231 27.5469 3.29689 27.0258 3.30128 26.6418C3.30279 26.5099 3.30545 26.3946 3.30829 26.3Z" fill="#D35ED3" stroke="#B851B8" stroke-width="0.6" stroke-linecap="round" stroke-linejoin="round"/>
<path d="M1.69969 18.3H66.3003C67.0652 18.3 67.7 18.9408 67.7 19.7497V24.2503C67.7 25.0592 67.0652 25.7 66.3003 25.7H1.69969C0.934797 25.7 0.3 25.0592 0.3 24.2503V19.7497C0.3 18.9408 0.934797 18.3 1.69969 18.3Z" fill="#E478E4" stroke="#BA61BA" stroke-width="0.6"/>
<path d="M43.6797 31.0488C43.6692 36.4349 39.3249 40.7977 33.9807 40.7977C28.6364 40.7977 24.3091 36.4349 24.3195 31.0488C24.33 25.6628 28.6743 21.3 34.0186 21.3C39.3628 21.3 43.6902 25.6628 43.6797 31.0488Z" fill="#F3FF70" stroke="#FDFFCC" stroke-width="0.6"/>
<mask id="mask0_2103_9483" style="mask-type:luminance" maskUnits="userSpaceOnUse" x="24" y="21" width="20" height="20">
<path d="M33.8307 40.8356C39.26 40.8356 43.6614 36.3953 43.6614 30.9178C43.6614 25.4404 39.26 21 33.8307 21C28.4013 21 24 25.4404 24 30.9178C24 36.3953 28.4013 40.8356 33.8307 40.8356Z" fill="white"/>
</mask>
<g mask="url(#mask0_2103_9483)">
<path d="M23.8711 33.6006L38.1254 21.2036" stroke="#FDFFCC" stroke-width="2" stroke-miterlimit="10"/>
<path d="M27.0586 37.8035L41.8042 25.104" stroke="#FDFFCC" stroke-width="6" stroke-miterlimit="10"/>
</g>
</g>
<defs>
<clipPath id="clip0_2103_9483">
<rect width="68" height="58" fill="white" transform="translate(0 0.513672)"/>
</clipPath>
</defs>
</svg>
