<svg width="68" height="59" viewBox="0 0 68 59" fill="none" xmlns="http://www.w3.org/2000/svg">
<g clip-path="url(#clip0_2103_9654)">
<path d="M38.1912 12.8146C39.0235 12.2592 39.8257 11.7102 40.646 11.1908C40.7697 11.1124 40.9831 11.1474 41.1494 11.1702C44.5341 11.6325 47.9195 12.096 51.3013 12.5789C51.5501 12.6145 51.8219 12.7542 52.0079 12.9269C53.1815 14.0176 54.3299 15.1348 55.4966 16.2327C55.7174 16.4402 55.8107 16.6205 55.7041 16.938C55.4933 17.5654 55.3234 18.2082 55.167 18.8521C55.0868 19.1825 54.9224 19.2855 54.5908 19.2665C50.8276 19.055 47.0642 18.8502 43.2999 18.6553C42.917 18.6358 42.6656 18.4898 42.4287 18.1862C41.1419 16.5412 39.8324 14.9143 38.532 13.2799C38.4251 13.1455 38.3297 13.0026 38.1924 12.8144L38.1912 12.8146Z" fill="#B2743B"/>
<path d="M6.63912 24.0999C6.70317 22.6114 6.74873 21.1649 6.84517 19.7223C6.85973 19.5046 7.08772 19.2769 7.26014 19.0955C10.7665 15.4029 14.2748 11.7104 17.8031 8.03925C18.0627 7.76914 18.4667 7.56171 18.835 7.48645C21.1606 7.01331 23.4957 6.59353 25.8239 6.13483C26.264 6.04781 26.5606 6.09138 26.8463 6.49577C27.4106 7.2949 28.029 8.05814 28.6605 8.80579C28.9846 9.18946 28.9639 9.47767 28.6518 9.86226C25.1142 14.2303 21.5845 18.6043 18.0657 22.988C17.7082 23.4342 17.3146 23.6116 16.7457 23.6348C13.6601 23.764 10.5763 23.9365 7.49156 24.0914C7.23791 24.1041 6.98417 24.0955 6.63994 24.0983L6.63912 24.0999Z" fill="#B07947"/>
<path d="M21.5405 18.9502C21.7606 17.4767 21.9578 16.043 22.2052 14.6185C22.2425 14.4035 22.4932 14.201 22.6837 14.0387C26.5584 10.7348 30.4351 7.43115 34.3294 4.15078C34.6159 3.90943 35.0395 3.74557 35.4136 3.70941C37.7761 3.48311 40.1424 3.31088 42.5059 3.09921C42.9527 3.05888 43.2431 3.13336 43.4847 3.56551C43.9619 4.41948 44.4968 5.24345 45.0463 6.05328C45.3283 6.46887 45.2775 6.75331 44.9267 7.10299C40.9499 11.0753 36.9804 15.0545 33.0208 19.0445C32.6183 19.4507 32.2083 19.5857 31.64 19.5491C28.558 19.3535 25.4731 19.2012 22.3892 19.0313C22.1356 19.0173 21.8841 18.9821 21.5415 18.9487L21.5405 18.9502Z" fill="#BC7D43"/>
<path d="M41.3225 22.2283C41.8204 20.824 42.2883 19.4546 42.8037 18.1036C42.8814 17.8998 43.1662 17.749 43.3842 17.6262C47.8195 15.1246 52.2566 12.6237 56.7066 10.149C57.034 9.96691 57.4811 9.88711 57.8553 9.92321C60.2173 10.1531 62.5729 10.4367 64.9332 10.6812C65.3795 10.7271 65.6503 10.8557 65.8048 11.3261C66.1098 12.2556 66.4772 13.1667 66.8615 14.0667C67.0589 14.5286 66.9545 14.798 66.5433 15.0742C61.88 18.2123 57.2225 21.3585 52.5726 24.5172C52.0999 24.8389 51.6716 24.893 51.1209 24.7483C48.1332 23.9667 45.1344 23.227 42.14 22.4701C41.8938 22.4079 41.6537 22.3253 41.3238 22.227L41.3225 22.2283Z" fill="#CE833D"/>
<path d="M51.4332 21.0542C50.6128 19.5972 49.8322 18.1727 49.0025 16.7785C48.8773 16.5681 48.5329 16.459 48.2677 16.3672C42.8739 14.4977 37.4782 12.6292 32.0732 10.7924C31.6755 10.6573 31.1648 10.6602 30.7571 10.7768C28.1835 11.5152 25.6275 12.3121 23.0587 13.0663C22.5729 13.2086 22.2975 13.4068 22.2163 13.9606C22.0562 15.0548 21.8235 16.1414 21.5698 17.2191C21.4395 17.7722 21.6067 18.05 22.1153 18.2724C27.8836 20.802 33.6471 23.3417 39.4044 25.8969C39.9898 26.1572 40.4748 26.1297 41.0574 25.8564C44.2187 24.3774 47.4002 22.9428 50.5737 21.49C50.8346 21.3705 51.0849 21.2297 51.4316 21.053L51.4332 21.0542Z" fill="#CB9360"/>
<path d="M3.3098 20.2911C3.89542 19.1355 4.45132 18.0066 5.04604 16.8986C5.13578 16.7314 5.39766 16.6311 5.59902 16.548C9.69499 14.8547 13.7925 13.1621 17.8982 11.4933C18.2003 11.3706 18.5938 11.348 18.9117 11.4176C20.9181 11.8584 22.9129 12.3447 24.9162 12.7979C25.295 12.8833 25.5136 13.0218 25.5938 13.4419C25.7521 14.2722 25.9661 15.0931 26.196 15.9062C26.314 16.3235 26.194 16.5444 25.8093 16.7393C21.4459 18.9563 17.0864 21.1808 12.7322 23.4169C12.2895 23.6447 11.915 23.6471 11.4574 23.466C8.97449 22.4866 6.47743 21.542 3.98598 20.5832C3.78112 20.5043 3.58383 20.4086 3.31102 20.2901L3.3098 20.2911Z" fill="#A6682E"/>
<path d="M23.549 53.3793L23.549 53.3793L23.5486 53.3792C22.5183 53.1436 21.0666 52.8115 19.1833 51.754C17.2969 50.6948 14.9651 48.9002 12.2004 45.726L12.2004 45.726C8.75741 41.7742 7.97329 38.2753 7.33503 35.4256L7.04228 35.4912L7.33503 35.4256C7.32968 35.4017 7.32433 35.3778 7.319 35.354C6.85262 33.2712 6.44851 31.4664 4.94385 30.3909C4.82599 30.2546 4.71328 30.0174 4.61756 29.6818C4.51923 29.337 4.44797 28.9222 4.39828 28.4812C4.31317 27.7258 4.2939 26.9172 4.30152 26.3H63.6984C63.7063 26.9171 63.6872 27.7258 63.6021 28.4812C63.5524 28.9222 63.4811 29.337 63.3827 29.6817C63.2868 30.0173 63.174 30.2546 63.0559 30.3908C61.5526 31.4653 61.1487 33.267 60.6821 35.3481L60.6647 35.4255L60.6647 35.4256C60.0264 38.2752 59.2415 41.7733 55.7993 45.726C53.0346 48.8998 50.7026 50.6943 48.8161 51.7537C46.9325 52.8114 45.4806 53.1437 44.4508 53.3793L44.4507 53.3793L44.5176 53.6718L44.4507 53.3793L44.4038 53.3901C43.7626 53.5367 43.1807 53.6698 42.7454 53.9586C42.3541 54.2181 42.0342 54.5802 41.7292 54.9254L41.7077 54.9497L41.7075 54.95C41.1811 55.5469 40.5864 56.22 39.4712 56.7548C38.3509 57.292 36.681 57.7 33.9999 57.7C31.3187 57.7 29.6485 57.2922 28.5282 56.7551C27.4129 56.2205 26.8181 55.5473 26.2924 54.9502L26.2887 54.946C25.9782 54.5928 25.6532 54.2231 25.2543 53.9586C24.819 53.6698 24.2372 53.5367 23.5959 53.3901L23.549 53.3793Z" fill="#75E391" stroke="#63BF7A" stroke-width="0.6"/>
<path d="M26.2212 55.1857L26.222 55.1874C26.2237 55.1909 26.2268 55.1973 26.2315 55.2065C26.2409 55.2248 26.2565 55.2539 26.2792 55.2924C26.3247 55.3693 26.3986 55.4834 26.5082 55.6226C26.7273 55.9006 27.0898 56.2797 27.6546 56.662C28.7816 57.4249 30.7338 58.2137 33.9991 58.2137C37.2645 58.2137 39.2167 57.4249 40.3437 56.662C40.9085 56.2797 41.271 55.9006 41.49 55.6226C41.5997 55.4834 41.6736 55.3693 41.7191 55.2924C41.7418 55.2539 41.7574 55.2248 41.7668 55.2065C41.7691 55.2019 41.7711 55.198 41.7727 55.1948C41.7742 55.1916 41.7754 55.1891 41.7763 55.1874L41.7771 55.1857C41.7772 55.1855 41.7772 55.1854 41.7773 55.1852M26.2212 55.1857L42.0514 55.3072C41.7771 55.1857 41.7772 55.1855 41.7773 55.1852M26.2212 55.1857C26.2211 55.1855 26.2211 55.1854 26.221 55.1852C26.221 55.1852 26.221 55.1852 26.221 55.1852C26.2209 55.1851 26.2209 55.185 26.2208 55.1849L26.2206 55.1844C26.2206 55.1844 26.2206 55.1843 26.2206 55.1843C26.213 55.1674 26.2038 55.1511 26.1932 55.1359C25.4012 53.9979 25.3 52.4813 25.3 50.8539V42.9365C25.3 39.0067 28.3757 35.8137 32.1053 35.8137H35.8947C39.6251 35.8137 42.7 39.0075 42.7 42.9365V50.8539C42.7 52.433 42.5706 53.9918 41.8201 55.1162M26.2212 55.1857L41.8201 55.1162M41.7773 55.1852C41.7885 55.16 41.803 55.1368 41.8201 55.1162M41.7773 55.1852L41.8201 55.1162" fill="#58BA71" stroke="#4A9F60" stroke-width="0.6" stroke-linecap="round" stroke-linejoin="round"/>
<path d="M3.30829 26.3H64.6917C64.6945 26.3946 64.6972 26.5099 64.6987 26.6418C64.7031 27.0258 64.6977 27.5469 64.6588 28.0978C64.6197 28.6504 64.5476 29.2237 64.4215 29.7155C64.3085 30.156 64.1615 30.4933 63.987 30.7H4.01302C3.83853 30.4933 3.69148 30.156 3.57853 29.7155C3.45243 29.2237 3.38028 28.6504 3.34123 28.0978C3.30231 27.5469 3.29689 27.0258 3.30128 26.6418C3.30279 26.5099 3.30545 26.3946 3.30829 26.3Z" fill="#58BA71" stroke="#4A9F60" stroke-width="0.6" stroke-linecap="round" stroke-linejoin="round"/>
<path d="M1.69969 18.3H66.3003C67.0652 18.3 67.7 18.9408 67.7 19.7497V24.2503C67.7 25.0592 67.0652 25.7 66.3003 25.7H1.69969C0.934797 25.7 0.3 25.0592 0.3 24.2503V19.7497C0.3 18.9408 0.934797 18.3 1.69969 18.3Z" fill="#75E391" stroke="#63BF7A" stroke-width="0.6"/>
<path d="M43.6797 31.0488C43.6692 36.4349 39.3249 40.7977 33.9807 40.7977C28.6364 40.7977 24.3091 36.4349 24.3195 31.0488C24.33 25.6628 28.6743 21.3 34.0186 21.3C39.3628 21.3 43.6902 25.6628 43.6797 31.0488Z" fill="#F3FF70" stroke="#FDFFCC" stroke-width="0.6"/>
<mask id="mask0_2103_9654" style="mask-type:luminance" maskUnits="userSpaceOnUse" x="24" y="21" width="20" height="20">
<path d="M33.8307 40.8356C39.26 40.8356 43.6614 36.3953 43.6614 30.9178C43.6614 25.4404 39.26 21 33.8307 21C28.4013 21 24 25.4404 24 30.9178C24 36.3953 28.4013 40.8356 33.8307 40.8356Z" fill="white"/>
</mask>
<g mask="url(#mask0_2103_9654)">
<path d="M23.8711 33.6006L38.1254 21.2036" stroke="#FDFFCC" stroke-width="2" stroke-miterlimit="10"/>
<path d="M27.0586 37.8035L41.8042 25.104" stroke="#FDFFCC" stroke-width="6" stroke-miterlimit="10"/>
</g>
</g>
<defs>
<clipPath id="clip0_2103_9654">
<rect width="68" height="58" fill="white" transform="translate(0 0.513672)"/>
</clipPath>
</defs>
</svg>
