<svg width="68" height="59" viewBox="0 0 68 59" fill="none" xmlns="http://www.w3.org/2000/svg">
<g clip-path="url(#clip0_2103_9768)">
<path d="M61.2739 8.62768C60.2475 7.69793 59.249 6.73421 58.1784 5.85818C57.8503 5.58992 57.3029 5.39866 56.8945 5.45173C54.7678 5.72859 52.6501 6.07418 50.5376 6.44765C50.152 6.51562 49.7276 6.74192 49.4613 7.02626C47.812 8.79243 46.1906 10.5839 44.5948 12.3985C44.3358 12.6924 44.1377 13.1309 44.1079 13.5183C43.9421 15.687 43.81 17.8587 43.7358 20.0323C43.7228 20.422 43.9307 20.9367 44.2153 21.2031C46.2595 23.117 48.3383 24.9958 50.4407 26.8454C50.7141 27.0858 51.2136 27.2337 51.5736 27.1844C53.7608 26.8872 55.9407 26.5388 58.1136 26.1595C58.4676 26.0975 58.8523 25.867 59.0997 25.6002C60.7644 23.8075 62.4082 21.9945 64.0273 20.159C64.2655 19.8897 64.4314 19.4755 64.4589 19.1148C64.6216 16.9462 64.7613 14.7741 64.8362 12.5997C64.8501 12.2123 64.6179 11.7147 64.3349 11.4337C63.3533 10.4593 62.2995 9.5567 61.2731 8.62695L61.2739 8.62768Z" fill="#801A20"/>
<path d="M5.70925 12.5983C5.18988 13.8118 4.63125 15.0108 4.17404 16.2476C4.03408 16.6265 4.03161 17.1792 4.2062 17.5308C5.11575 19.3615 6.08446 21.1628 7.07667 22.9506C7.2576 23.2771 7.59326 23.5893 7.93217 23.7411C10.0358 24.6793 12.1535 25.5846 14.2842 26.4596C14.6294 26.6018 15.0861 26.6443 15.4444 26.5509C17.4504 26.0272 19.4486 25.4722 21.4305 24.8645C21.7857 24.7553 22.1851 24.4081 22.3369 24.0689C23.4273 21.6327 24.4753 19.1761 25.4897 16.7074C25.6215 16.3864 25.5998 15.8903 25.4436 15.5812C24.497 13.7023 23.5064 11.8458 22.4902 10.0052C22.3245 9.70543 21.9973 9.43032 21.6801 9.29009C19.5478 8.34625 17.4037 7.42749 15.2471 6.53798C14.9304 6.40691 14.5056 6.38588 14.172 6.47312C12.1671 6.99953 10.1663 7.54775 8.18336 8.15502C7.82992 8.26278 7.4535 8.62644 7.28813 8.96877C6.71464 10.1558 6.22822 11.3857 5.70885 12.5992L5.70925 12.5983Z" fill="#962A31"/>
<path d="M49.7838 20.5274C50.6839 20.0995 51.599 19.6994 52.4756 19.2274C52.7441 19.0827 53.0217 18.7714 53.0987 18.4857C53.4994 16.998 53.8518 15.4975 54.1843 13.9928C54.2452 13.7182 54.2114 13.3747 54.0956 13.1203C53.3751 11.5433 52.6301 9.97795 51.8627 8.42325C51.7385 8.17113 51.5016 7.91995 51.2523 7.79448C49.8563 7.09284 48.4492 6.41269 47.0248 5.77046C46.7694 5.65556 46.3701 5.65325 46.1148 5.76955C44.2807 6.60489 42.4604 7.47279 40.6531 8.3643C40.4181 8.48024 40.1825 8.77162 40.1163 9.02411C39.7125 10.5575 39.3449 12.1001 38.9996 13.6465C38.9435 13.8985 38.991 14.2168 39.1003 14.4539C39.8342 16.0483 40.5874 17.6344 41.3622 19.2102C41.4758 19.4419 41.7055 19.6651 41.9377 19.7816C43.3344 20.4812 44.7397 21.1665 46.1643 21.8094C46.418 21.9243 46.8126 21.9059 47.0772 21.7946C47.9947 21.4086 48.8844 20.955 49.7845 20.5271L49.7838 20.5274Z" fill="#95262D"/>
<path d="M26.5314 23.6894C27.8765 24.3309 29.2035 25.0158 30.5776 25.5885C30.9986 25.7638 31.6217 25.7926 32.0259 25.6127C34.1303 24.6754 36.2043 23.6702 38.2642 22.638C38.6402 22.4497 39.0072 22.0868 39.1933 21.7126C40.3447 19.3898 41.4594 17.0496 42.5407 14.6934C42.7164 14.3117 42.7845 13.7999 42.6952 13.3922C42.1939 11.1106 41.657 8.83611 41.0599 6.57747C40.9526 6.17269 40.5789 5.70705 40.2032 5.52026C37.5049 4.17876 34.7817 2.88392 32.0433 1.62635C31.6873 1.46293 31.127 1.46408 30.7716 1.62524C28.6111 2.6019 26.474 3.62914 24.3536 4.68596C24.0082 4.85829 23.6835 5.21345 23.5113 5.56376C22.3524 7.91852 21.2212 10.2878 20.1225 12.6725C19.9606 13.0227 19.918 13.4997 20.0016 13.8791C20.506 16.1597 21.0351 18.4368 21.6317 20.6965C21.7375 21.0992 22.1308 21.5399 22.5094 21.7421C23.8223 22.4432 25.1873 23.0484 26.5324 23.6899L26.5314 23.6894Z" fill="#8F171F"/>
<path d="M20.123 7.05568C18.8414 7.34416 17.5484 7.59155 16.2846 7.94522C15.8975 8.05364 15.4514 8.3787 15.271 8.73121C14.3325 10.567 13.4523 12.4344 12.5967 14.3132C12.4404 14.6561 12.3864 15.1185 12.4634 15.4887C12.9445 17.7842 13.4605 20.0718 14.0084 22.3523C14.0968 22.722 14.331 23.125 14.6167 23.3662C16.2167 24.7157 17.8374 26.0404 19.4909 27.3204C19.7875 27.5496 20.3015 27.6745 20.6636 27.5994C23.2645 27.0597 25.857 26.473 28.4395 25.8512C28.7752 25.7703 29.1616 25.4587 29.3185 25.1466C30.2741 23.2516 31.1858 21.3335 32.0697 19.4036C32.2135 19.0891 32.2427 18.6557 32.1691 18.3103C31.6756 15.9877 31.155 13.6703 30.6035 11.3597C30.5229 11.0202 30.2902 10.6563 30.024 10.432C28.4224 9.08493 26.8056 7.75407 25.1519 6.47304C24.8575 6.24442 24.3437 6.14821 23.9711 6.21399C22.679 6.44202 21.4036 6.76742 20.122 7.0559L20.123 7.05568Z" fill="#721D22"/>
<path d="M41.3044 24.2705C42.0529 24.7026 42.7889 25.159 43.5573 25.5527C43.7927 25.6732 44.1516 25.7183 44.3935 25.6327C45.6529 25.1866 46.8977 24.6999 48.1357 24.1969C48.3617 24.1052 48.5904 23.9121 48.715 23.7042C49.4865 22.4137 50.2376 21.1115 50.97 19.7985C51.0889 19.5858 51.1517 19.2929 51.1186 19.0532C50.9326 17.7112 50.7258 16.3718 50.4835 15.0387C50.4398 14.7998 50.245 14.5136 50.0363 14.3885C48.5373 13.49 47.0219 12.6173 45.496 11.7656C45.2976 11.6549 44.9736 11.63 44.7607 11.707C43.4671 12.1733 42.1848 12.6698 40.9107 13.1843C40.7032 13.2682 40.4993 13.4587 40.3838 13.6534C39.6065 14.9621 38.8446 16.2804 38.1007 17.6091C37.9912 17.8042 37.9449 18.078 37.9759 18.3012C38.1637 19.6427 38.3659 20.9833 38.6079 22.3169C38.6507 22.5546 38.858 22.8273 39.0677 22.9614C39.7948 23.4266 40.5565 23.8386 41.305 24.2708L41.3044 24.2705Z" fill="#7E2126"/>
<path d="M23.549 53.3793L23.549 53.3793L23.5486 53.3792C22.5183 53.1436 21.0666 52.8115 19.1833 51.754C17.2969 50.6948 14.9651 48.9002 12.2004 45.726L12.2004 45.726C8.75741 41.7742 7.97329 38.2753 7.33503 35.4256L7.04228 35.4912L7.33503 35.4256C7.32968 35.4017 7.32433 35.3778 7.31899 35.354C6.85262 33.2712 6.44851 31.4664 4.94385 30.3909C4.82599 30.2546 4.71328 30.0174 4.61756 29.6818C4.51923 29.337 4.44797 28.9222 4.39828 28.4812C4.31317 27.7258 4.2939 26.9172 4.30152 26.3H63.6984C63.7063 26.9171 63.6872 27.7258 63.6021 28.4812C63.5524 28.9222 63.4811 29.337 63.3827 29.6817C63.2868 30.0173 63.174 30.2546 63.0559 30.3908C61.5526 31.4653 61.1487 33.267 60.6821 35.3481L60.6647 35.4255L60.6647 35.4256C60.0264 38.2752 59.2414 41.7733 55.7993 45.726C53.0346 48.8998 50.7026 50.6943 48.8161 51.7537C46.9325 52.8114 45.4806 53.1437 44.4508 53.3793L44.4507 53.3793L44.5176 53.6718L44.4507 53.3793L44.4038 53.3901C43.7626 53.5367 43.1807 53.6698 42.7454 53.9586C42.3541 54.2181 42.0343 54.5801 41.7293 54.9253L41.7077 54.9497L41.7075 54.95C41.1811 55.5469 40.5864 56.22 39.4712 56.7548C38.3509 57.292 36.681 57.7 33.9999 57.7C31.3187 57.7 29.6485 57.2922 28.5282 56.7551C27.4129 56.2205 26.8181 55.5473 26.2924 54.9502L26.2887 54.946C25.9782 54.5928 25.6531 54.2231 25.2543 53.9586C24.819 53.6698 24.2372 53.5368 23.5959 53.3901L23.549 53.3793Z" fill="#EC7777" stroke="#C96464" stroke-width="0.6"/>
<path d="M26.2212 55.1857L26.222 55.1874C26.2237 55.1909 26.2268 55.1973 26.2315 55.2065C26.2409 55.2248 26.2565 55.2539 26.2792 55.2924C26.3247 55.3693 26.3986 55.4834 26.5082 55.6226C26.7273 55.9006 27.0898 56.2797 27.6546 56.662C28.7816 57.4249 30.7338 58.2137 33.9991 58.2137C37.2645 58.2137 39.2167 57.4249 40.3437 56.662C40.9085 56.2797 41.271 55.9006 41.49 55.6226C41.5997 55.4834 41.6736 55.3693 41.7191 55.2924C41.7418 55.2539 41.7574 55.2248 41.7668 55.2065C41.7691 55.2019 41.7711 55.198 41.7727 55.1948C41.7742 55.1916 41.7754 55.1891 41.7763 55.1874L41.7771 55.1857C41.7772 55.1855 41.7772 55.1854 41.7773 55.1852M26.2212 55.1857L42.0514 55.3072C41.7771 55.1857 41.7772 55.1855 41.7773 55.1852M26.2212 55.1857C26.2211 55.1855 26.2211 55.1854 26.221 55.1852C26.221 55.1852 26.221 55.1852 26.221 55.1852C26.2209 55.1851 26.2209 55.185 26.2208 55.1849L26.2206 55.1844C26.2206 55.1844 26.2206 55.1843 26.2206 55.1843C26.213 55.1674 26.2038 55.1511 26.1932 55.1359C25.4012 53.9979 25.3 52.4813 25.3 50.8539V42.9365C25.3 39.0067 28.3757 35.8137 32.1053 35.8137H35.8947C39.6251 35.8137 42.7 39.0075 42.7 42.9365V50.8539C42.7 52.433 42.5706 53.9918 41.8201 55.1162M26.2212 55.1857L41.8201 55.1162M41.7773 55.1852C41.7885 55.16 41.803 55.1368 41.8201 55.1162M41.7773 55.1852L41.8201 55.1162" fill="#CB6363" stroke="#A85050" stroke-width="0.6" stroke-linecap="round" stroke-linejoin="round"/>
<path d="M3.30829 26.3H64.6917C64.6945 26.3946 64.6972 26.5099 64.6987 26.6418C64.7031 27.0258 64.6977 27.5469 64.6588 28.0978C64.6197 28.6504 64.5476 29.2237 64.4215 29.7155C64.3085 30.156 64.1615 30.4933 63.987 30.7H4.01302C3.83853 30.4933 3.69148 30.156 3.57853 29.7155C3.45243 29.2237 3.38028 28.6504 3.34123 28.0978C3.30231 27.5469 3.29689 27.0258 3.30128 26.6418C3.30279 26.5099 3.30545 26.3946 3.30829 26.3Z" fill="#CB6363" stroke="#A85050" stroke-width="0.6" stroke-linecap="round" stroke-linejoin="round"/>
<path d="M1.69969 18.3H66.3003C67.0652 18.3 67.7 18.9408 67.7 19.7497V24.2503C67.7 25.0592 67.0652 25.7 66.3003 25.7H1.69969C0.934797 25.7 0.3 25.0592 0.3 24.2503V19.7497C0.3 18.9408 0.934797 18.3 1.69969 18.3Z" fill="#EC7777" stroke="#C96464" stroke-width="0.6"/>
<path d="M43.6797 31.0488C43.6692 36.4349 39.3249 40.7977 33.9807 40.7977C28.6364 40.7977 24.3091 36.4349 24.3195 31.0488C24.33 25.6628 28.6743 21.3 34.0186 21.3C39.3628 21.3 43.6902 25.6628 43.6797 31.0488Z" fill="#F3FF70" stroke="#FDFFCC" stroke-width="0.6"/>
<mask id="mask0_2103_9768" style="mask-type:luminance" maskUnits="userSpaceOnUse" x="24" y="21" width="20" height="20">
<path d="M33.8307 40.8356C39.26 40.8356 43.6614 36.3953 43.6614 30.9178C43.6614 25.4404 39.26 21 33.8307 21C28.4013 21 24 25.4404 24 30.9178C24 36.3953 28.4013 40.8356 33.8307 40.8356Z" fill="white"/>
</mask>
<g mask="url(#mask0_2103_9768)">
<path d="M23.8711 33.6006L38.1254 21.2036" stroke="#FDFFCC" stroke-width="2" stroke-miterlimit="10"/>
<path d="M27.0586 37.8035L41.8042 25.104" stroke="#FDFFCC" stroke-width="6" stroke-miterlimit="10"/>
</g>
</g>
<defs>
<clipPath id="clip0_2103_9768">
<rect width="68" height="58" fill="white" transform="translate(0 0.513672)"/>
</clipPath>
</defs>
</svg>
