<svg width="68" height="59" viewBox="0 0 68 59" fill="none" xmlns="http://www.w3.org/2000/svg">
<g clip-path="url(#clip0_2103_9711)">
<path d="M38.3127 25.4621C39.3903 23.8665 40.4412 22.3845 41.4147 20.8512C42.7201 18.7958 43.9795 16.7104 45.2176 14.6122C45.3834 14.3316 45.395 13.8812 45.3238 13.5466C45.1131 12.5537 44.7322 11.5946 44.5885 10.5934C44.3783 9.12368 44.3435 7.62435 44.1782 6.14544C44.1201 5.6238 44.261 5.3823 44.7335 5.20288C46.3453 4.59141 47.9381 3.92165 49.5564 3.33062C49.8121 3.2373 50.2513 3.32974 50.458 3.51297C51.5488 4.48106 52.5691 5.53144 53.6616 6.4972C54.1301 6.91121 54.0935 7.20989 53.7712 7.70804C51.6915 10.923 49.6589 14.1701 47.5702 17.3788C47.0714 18.1452 46.9267 18.7819 47.4836 19.5643C47.7243 19.9019 47.8131 20.3982 47.8576 20.8371C48.0421 22.6448 48.1596 24.4609 48.3553 26.2672C48.42 26.8648 48.254 27.137 47.7011 27.3403C46.1434 27.9137 44.6135 28.5675 43.0556 29.1418C42.7824 29.243 42.3241 29.2377 42.1345 29.0668C40.861 27.9252 39.6375 26.726 38.3122 25.4638L38.3127 25.4621Z" fill="#932061"/>
<path d="M31.7408 20.2954C29.6685 19.6289 27.728 18.9555 25.7563 18.3824C23.113 17.6137 20.4515 16.9044 17.7831 16.2223C17.4261 16.1308 16.9335 16.2602 16.5926 16.4432C15.5811 16.9851 14.6601 17.7013 13.6185 18.1732C12.0892 18.865 10.4724 19.3759 8.91899 20.022C8.37102 20.2497 8.06436 20.1728 7.72049 19.7165C6.54813 18.1596 5.31846 16.6417 4.16622 15.0712C3.98423 14.8231 3.94602 14.3171 4.07975 14.0349C4.78658 12.5452 5.60502 11.1061 6.30883 9.61536C6.61047 8.97608 6.94629 8.92159 7.58878 9.11425C11.7353 10.3578 15.9019 11.54 20.0443 12.7952C21.0337 13.0949 21.7707 13.0512 22.4443 12.1998C22.7349 11.8319 23.2457 11.5789 23.7082 11.3921C25.6125 10.6215 27.547 9.9209 29.4463 9.13858C30.0747 8.87975 30.4226 8.97413 30.8178 9.51028C31.9318 11.0204 33.1243 12.4751 34.2393 13.9853C34.4354 14.2499 34.5741 14.7491 34.4484 15.0089C33.6109 16.7516 32.6949 18.4583 31.7428 20.2954L31.7408 20.2954Z" fill="#860F52"/>
<path d="M33.4746 12.6511C31.6053 13.4488 29.8248 14.1612 28.0836 14.9633C25.7491 16.0383 23.4381 17.1664 21.1388 18.3179C20.8311 18.4718 20.5629 18.8644 20.4344 19.202C20.0526 20.2031 19.8412 21.2716 19.3953 22.2417C18.74 23.6653 17.9123 25.0147 17.212 26.4207C16.9649 26.9166 16.7016 27.05 16.1799 26.9385C14.4006 26.5578 12.6046 26.2396 10.8312 25.8369C10.551 25.7733 10.2145 25.4398 10.1362 25.159C9.72327 23.6759 9.42001 22.1602 9.00438 20.6783C8.82599 20.0429 9.0295 19.799 9.60048 19.5418C13.2856 17.882 16.9475 16.1666 20.6369 14.5175C21.5181 14.1235 22.011 13.6418 21.9652 12.6292C21.9451 12.192 22.1506 11.7011 22.3625 11.2863C23.234 9.57776 24.1697 7.90014 25.0306 6.1864C25.3154 5.61939 25.6185 5.47312 26.2252 5.60949C27.9348 5.99296 29.6658 6.28934 31.3761 6.6722C31.6763 6.7389 32.0796 7.00606 32.1499 7.26618C32.6254 9.00765 33.0236 10.7717 33.476 12.6499L33.4746 12.6511Z" fill="#681C47"/>
<path d="M63.4896 17.2561C60.9889 17.4285 58.6262 17.5373 56.2729 17.7665C53.1178 18.0736 49.9688 18.4518 46.8238 18.8621C46.403 18.9168 45.9315 19.2656 45.6451 19.6068C44.7949 20.6184 44.1159 21.7776 43.2036 22.7272C41.8637 24.1203 40.3529 25.3571 38.9677 26.7115C38.479 27.1891 38.1182 27.2379 37.5556 26.8967C35.6369 25.7326 33.6735 24.6346 31.7706 23.4473C31.47 23.2597 31.213 22.7349 31.2355 22.3761C31.355 20.4811 31.6156 18.5925 31.7315 16.6978C31.781 15.8853 32.1169 15.6836 32.8862 15.6152C37.8515 15.1739 42.8122 14.6585 47.7782 14.2315C48.9642 14.1294 49.7336 13.7678 50.0903 12.5696C50.244 12.0521 50.6821 11.5634 51.0969 11.1661C52.8042 9.52857 54.5737 7.9531 56.2706 6.30526C56.8321 5.76006 57.2444 5.71241 57.896 6.11697C59.7323 7.25606 61.6289 8.30234 63.4663 9.441C63.789 9.64028 64.1506 10.1148 64.1272 10.4463C63.9759 12.6677 63.7253 14.884 63.4918 17.2553L63.4896 17.2561Z" fill="#730041"/>
<path d="M42.5125 7.2456C43.2712 8.52266 43.9594 9.74369 44.7088 10.9276C45.7133 12.5149 46.7539 14.08 47.8104 15.6344C47.9516 15.8424 48.262 15.9988 48.519 16.0593C49.2811 16.2391 50.0756 16.2889 50.8215 16.5182C51.9162 16.8553 52.9738 17.3245 54.0601 17.6958C54.4432 17.827 54.5653 18.0048 54.535 18.3936C54.4312 19.7194 54.3743 21.0512 54.254 22.3749C54.235 22.584 54.0259 22.86 53.8301 22.9439C52.7956 23.3864 51.7268 23.7527 50.6934 24.197C50.2504 24.3877 50.054 24.2638 49.8125 23.875C48.2538 21.3658 46.6571 18.8788 45.1057 16.3654C44.7351 15.7652 44.3384 15.4546 43.6093 15.5857C43.2945 15.6425 42.919 15.5411 42.5981 15.4277C41.276 14.9615 39.9702 14.4458 38.6455 13.9878C38.2072 13.8363 38.0719 13.6308 38.1121 13.1781C38.2246 11.9025 38.272 10.6199 38.384 9.34382C38.4033 9.11989 38.5578 8.80193 38.7395 8.72585C39.9551 8.21301 41.1946 7.75401 42.5115 7.24469L42.5125 7.2456Z" fill="#510A32"/>
<path d="M23.5447 28.4979C23.0057 26.4631 22.5412 24.5315 21.9782 22.6279C21.2236 20.0756 20.4108 17.5401 19.5719 15.0134C19.4599 14.6753 19.0953 14.3444 18.7663 14.165C17.7909 13.6322 16.7198 13.2653 15.786 12.6708C14.416 11.7976 13.1488 10.7573 11.8036 9.84016C11.3293 9.51652 11.2317 9.22696 11.4262 8.70576C12.0902 6.92829 12.6922 5.12499 13.3779 3.3566C13.4863 3.07726 13.8818 2.77766 14.1837 2.73634C15.7778 2.51887 17.3889 2.41879 18.9823 2.19836C19.6655 2.10367 19.8863 2.34716 20.0649 2.97061C21.2176 6.99431 22.4312 11.0018 23.5722 15.0284C23.8448 15.9901 24.2672 16.5646 25.3196 16.6591C25.7741 16.6996 26.2497 16.9796 26.6456 17.2556C28.277 18.3912 29.8667 19.5886 31.505 20.7139C32.0471 21.0863 32.152 21.4186 31.9188 22.0237C31.2626 23.7291 30.6931 25.4686 30.0374 27.1748C29.9228 27.4744 29.5856 27.8519 29.3063 27.8879C27.4358 28.1336 25.5538 28.2966 23.5458 28.4995L23.5447 28.4979Z" fill="#8C004F"/>
<path d="M23.549 53.3793L23.549 53.3793L23.5486 53.3792C22.5183 53.1436 21.0666 52.8115 19.1833 51.754C17.2969 50.6948 14.9651 48.9002 12.2004 45.726L12.2004 45.726C8.75741 41.7742 7.97329 38.2753 7.33503 35.4256L7.04228 35.4912L7.33503 35.4256C7.32968 35.4017 7.32433 35.3778 7.319 35.354C6.85262 33.2712 6.44851 31.4664 4.94385 30.3909C4.82599 30.2546 4.71328 30.0174 4.61756 29.6818C4.51923 29.337 4.44797 28.9222 4.39828 28.4812C4.31317 27.7258 4.2939 26.9172 4.30152 26.3H63.6984C63.7063 26.9171 63.6872 27.7258 63.6021 28.4812C63.5524 28.9222 63.4811 29.337 63.3827 29.6817C63.2868 30.0173 63.174 30.2546 63.0559 30.3908C61.5526 31.4653 61.1487 33.267 60.6821 35.3481L60.6647 35.4255L60.6647 35.4256C60.0264 38.2752 59.2415 41.7733 55.7993 45.726C53.0346 48.8998 50.7026 50.6943 48.8161 51.7537C46.9325 52.8114 45.4806 53.1437 44.4508 53.3793L44.4507 53.3793L44.5176 53.6718L44.4507 53.3793L44.4038 53.3901C43.7626 53.5367 43.1807 53.6698 42.7454 53.9586C42.3541 54.2181 42.0342 54.5802 41.7292 54.9254L41.7077 54.9497L41.7075 54.95C41.1811 55.5469 40.5864 56.22 39.4712 56.7548C38.3509 57.292 36.681 57.7 33.9999 57.7C31.3187 57.7 29.6485 57.2922 28.5282 56.7551C27.4129 56.2205 26.8181 55.5473 26.2924 54.9502L26.2887 54.946C25.9782 54.5928 25.6532 54.2231 25.2543 53.9586C24.819 53.6698 24.2372 53.5367 23.5959 53.3901L23.549 53.3793Z" fill="#75E391" stroke="#63BF7A" stroke-width="0.6"/>
<path d="M26.2212 55.1857L26.222 55.1874C26.2237 55.1909 26.2268 55.1973 26.2315 55.2065C26.2409 55.2248 26.2565 55.2539 26.2792 55.2924C26.3247 55.3693 26.3986 55.4834 26.5082 55.6226C26.7273 55.9006 27.0898 56.2797 27.6546 56.662C28.7816 57.4249 30.7338 58.2137 33.9991 58.2137C37.2645 58.2137 39.2167 57.4249 40.3437 56.662C40.9085 56.2797 41.271 55.9006 41.49 55.6226C41.5997 55.4834 41.6736 55.3693 41.7191 55.2924C41.7418 55.2539 41.7574 55.2248 41.7668 55.2065C41.7691 55.2019 41.7711 55.198 41.7727 55.1948C41.7742 55.1916 41.7754 55.1891 41.7763 55.1874L41.7771 55.1857C41.7772 55.1855 41.7772 55.1854 41.7773 55.1852M26.2212 55.1857L42.0514 55.3072C41.7771 55.1857 41.7772 55.1855 41.7773 55.1852M26.2212 55.1857C26.2211 55.1855 26.2211 55.1854 26.221 55.1852C26.221 55.1852 26.221 55.1852 26.221 55.1852C26.2209 55.1851 26.2209 55.185 26.2208 55.1849L26.2206 55.1844C26.2206 55.1844 26.2206 55.1843 26.2206 55.1843C26.213 55.1674 26.2038 55.1511 26.1932 55.1359C25.4012 53.9979 25.3 52.4813 25.3 50.8539V42.9365C25.3 39.0067 28.3757 35.8137 32.1053 35.8137H35.8947C39.6251 35.8137 42.7 39.0075 42.7 42.9365V50.8539C42.7 52.433 42.5706 53.9918 41.8201 55.1162M26.2212 55.1857L41.8201 55.1162M41.7773 55.1852C41.7885 55.16 41.803 55.1368 41.8201 55.1162M41.7773 55.1852L41.8201 55.1162" fill="#58BA71" stroke="#4A9F60" stroke-width="0.6" stroke-linecap="round" stroke-linejoin="round"/>
<path d="M3.30829 26.3H64.6917C64.6945 26.3946 64.6972 26.5099 64.6987 26.6418C64.7031 27.0258 64.6977 27.5469 64.6588 28.0978C64.6197 28.6504 64.5476 29.2237 64.4215 29.7155C64.3085 30.156 64.1615 30.4933 63.987 30.7H4.01302C3.83853 30.4933 3.69148 30.156 3.57853 29.7155C3.45243 29.2237 3.38028 28.6504 3.34123 28.0978C3.30231 27.5469 3.29689 27.0258 3.30128 26.6418C3.30279 26.5099 3.30545 26.3946 3.30829 26.3Z" fill="#58BA71" stroke="#4A9F60" stroke-width="0.6" stroke-linecap="round" stroke-linejoin="round"/>
<path d="M1.69969 18.3H66.3003C67.0652 18.3 67.7 18.9408 67.7 19.7497V24.2503C67.7 25.0592 67.0652 25.7 66.3003 25.7H1.69969C0.934797 25.7 0.3 25.0592 0.3 24.2503V19.7497C0.3 18.9408 0.934797 18.3 1.69969 18.3Z" fill="#75E391" stroke="#63BF7A" stroke-width="0.6"/>
<path d="M43.6797 31.0488C43.6692 36.4349 39.3249 40.7977 33.9807 40.7977C28.6364 40.7977 24.3091 36.4349 24.3195 31.0488C24.33 25.6628 28.6743 21.3 34.0186 21.3C39.3628 21.3 43.6902 25.6628 43.6797 31.0488Z" fill="#F3FF70" stroke="#FDFFCC" stroke-width="0.6"/>
<mask id="mask0_2103_9711" style="mask-type:luminance" maskUnits="userSpaceOnUse" x="24" y="21" width="20" height="20">
<path d="M33.8307 40.8356C39.26 40.8356 43.6614 36.3953 43.6614 30.9178C43.6614 25.4404 39.26 21 33.8307 21C28.4013 21 24 25.4404 24 30.9178C24 36.3953 28.4013 40.8356 33.8307 40.8356Z" fill="white"/>
</mask>
<g mask="url(#mask0_2103_9711)">
<path d="M23.8711 33.6006L38.1254 21.2036" stroke="#FDFFCC" stroke-width="2" stroke-miterlimit="10"/>
<path d="M27.0586 37.8035L41.8042 25.104" stroke="#FDFFCC" stroke-width="6" stroke-miterlimit="10"/>
</g>
</g>
<defs>
<clipPath id="clip0_2103_9711">
<rect width="68" height="58" fill="white" transform="translate(0 0.513672)"/>
</clipPath>
</defs>
</svg>
