<svg width="68" height="59" viewBox="0 0 68 59" fill="none" xmlns="http://www.w3.org/2000/svg">
<g clip-path="url(#clip0_2103_9882)">
<path d="M40.6871 23.7513C41.7734 22.1429 42.8328 20.6489 43.8142 19.1033C45.1301 17.0313 46.3997 14.929 47.6477 12.8139C47.8148 12.5311 47.8266 12.077 47.7548 11.7397C47.5424 10.7387 47.1584 9.77197 47.0135 8.76265C46.8017 7.28109 46.7666 5.76966 46.6 4.27881C46.5414 3.75297 46.6835 3.50953 47.1598 3.32866C48.7845 2.71225 50.3902 2.03709 52.0216 1.44129C52.2793 1.34721 52.7221 1.4404 52.9304 1.62511C54.03 2.601 55.0586 3.65987 56.1598 4.63342C56.6322 5.05076 56.5952 5.35186 56.2704 5.85403C54.1739 9.09492 52.1249 12.3683 50.0193 15.6028C49.5166 16.3754 49.3707 17.0173 49.932 17.8059C50.1746 18.1463 50.2642 18.6465 50.309 19.089C50.495 20.9113 50.6135 22.742 50.8108 24.5629C50.876 25.1654 50.7086 25.4398 50.1513 25.6447C48.581 26.2228 47.0388 26.8818 45.4683 27.4608C45.1929 27.5628 44.731 27.5574 44.5398 27.3851C43.256 26.2344 42.0226 25.0254 40.6866 23.753L40.6871 23.7513Z" fill="#932061"/>
<path d="M26.6295 27.0359C25.2231 25.609 23.9271 24.2326 22.563 22.9248C20.7343 21.1712 18.8656 19.4582 16.9795 17.7645C16.7273 17.5378 16.2702 17.4334 15.9142 17.4373C14.8581 17.4484 13.8016 17.64 12.7507 17.5811C11.2084 17.4936 9.67176 17.2213 8.12919 17.0863C7.58515 17.0385 7.36774 16.8451 7.28173 16.3263C6.98891 14.5566 6.63275 12.7943 6.36213 11.0221C6.31942 10.7421 6.5039 10.3131 6.73325 10.1399C7.94476 9.22588 9.22575 8.40073 10.4352 7.48466C10.9537 7.09172 11.2509 7.1904 11.6929 7.62139C14.5454 10.403 17.4404 13.1432 20.2847 15.9326C20.964 16.5988 21.5839 16.8772 22.4963 16.4697C22.8901 16.2935 23.4146 16.3049 23.8715 16.3496C25.7534 16.5325 27.63 16.7855 29.5128 16.9568C30.1357 17.0135 30.3793 17.2387 30.4731 17.8445C30.7383 19.5512 31.0911 21.2461 31.357 22.9532C31.4042 23.2527 31.3046 23.719 31.0914 23.8774C29.6654 24.942 28.1908 25.9439 26.6311 27.0367L26.6295 27.0359Z" fill="#860F52"/>
<path d="M34.5752 13.8292C32.3151 14.3756 30.1714 14.8424 28.055 15.4179C25.2175 16.1891 22.3966 17.0245 19.5845 17.8887C19.2082 18.0041 18.8312 18.3964 18.6223 18.7529C18.0021 19.8102 17.5614 20.9758 16.8747 21.986C15.866 23.4682 14.6767 24.8341 13.6205 26.2881C13.2478 26.8007 12.9255 26.9014 12.358 26.6769C10.4224 25.9106 8.45631 25.2117 6.53152 24.4218C6.22747 24.297 5.91089 23.8571 5.87566 23.5254C5.69041 21.7739 5.63507 20.0064 5.44653 18.2557C5.3655 17.505 5.64127 17.2684 6.33418 17.0862C10.8062 15.9108 15.2625 14.6683 19.7373 13.5058C20.806 13.228 21.4534 12.7777 21.5934 11.6265C21.6534 11.1295 21.9781 10.6144 22.2957 10.1866C23.6024 8.42375 24.9756 6.70796 26.2712 4.93726C26.6999 4.35141 27.0695 4.24373 27.7283 4.5124C29.5846 5.26858 31.4816 5.93054 33.3389 6.68617C33.665 6.81824 34.0694 7.19598 34.0995 7.50277C34.3065 9.55765 34.4219 11.6234 34.577 13.8281L34.5752 13.8292Z" fill="#681C47"/>
<path d="M41.3599 5.50955C42.6242 7.16952 43.7813 8.76265 45.0177 10.2941C46.6751 12.3474 48.3793 14.364 50.104 16.363C50.3346 16.6306 50.793 16.7988 51.1613 16.8418C52.2538 16.97 53.3706 16.9116 54.4484 17.1114C56.0303 17.4055 57.5818 17.8899 59.1575 18.2333C59.7133 18.3545 59.9123 18.5831 59.9326 19.1304C60.0012 20.9974 60.1363 22.8651 60.1816 24.7317C60.1888 25.0266 59.9415 25.4454 59.6817 25.594C58.3093 26.3782 56.8768 27.0613 55.5063 27.8479C54.9187 28.1853 54.6247 28.0441 54.2251 27.5404C51.6458 24.2898 49.0171 21.0763 46.4474 17.8187C45.8336 17.0407 45.23 16.6712 44.2335 16.9715C43.8034 17.1015 43.2631 17.0205 42.797 16.9139C40.877 16.4762 38.9717 15.9669 37.0492 15.5411C36.4132 15.4002 36.1913 15.1353 36.1744 14.4971C36.126 12.6989 35.9856 10.9013 35.9364 9.1025C35.9273 8.78689 36.0918 8.31829 36.333 8.18286C37.9468 7.27142 39.6026 6.43129 41.3583 5.50845L41.3599 5.50955Z" fill="#730041"/>
<path d="M66.4247 14.9208C63.9585 15.485 61.6198 15.9643 59.3095 16.5623C56.212 17.3635 53.1317 18.2348 50.0605 19.1375C49.6495 19.2581 49.2341 19.6799 49.0021 20.065C48.3132 21.207 47.8182 22.4694 47.0576 23.5593C45.9403 25.1585 44.6282 26.6288 43.4596 28.1966C43.0473 28.7494 42.6952 28.8547 42.0807 28.6029C39.985 27.7433 37.8552 26.9567 35.7715 26.0716C35.4424 25.9317 35.1038 25.4488 35.0699 25.0875C34.8917 23.1794 34.8551 21.2555 34.6733 19.3482C34.5952 18.5304 34.8984 18.2766 35.6547 18.0877C40.536 16.8684 45.401 15.576 50.2852 14.3709C51.4517 14.083 52.1621 13.6017 52.3297 12.351C52.4017 11.811 52.7618 11.255 53.113 10.7937C54.5583 8.89314 56.0752 7.04466 57.5085 5.13539C57.9827 4.5037 58.3863 4.39147 59.0994 4.69258C61.1091 5.54008 63.1642 6.2856 65.1749 7.13251C65.5279 7.28055 65.9629 7.69693 65.9916 8.03113C66.1894 10.2696 66.2874 12.5187 66.4267 14.9196L66.4247 14.9208Z" fill="#510A32"/>
<path d="M14.3063 24.7574C15.1129 23.0572 15.9109 21.4704 16.6255 19.8458C17.5837 17.6678 18.4925 15.4677 19.3784 13.2585C19.4971 12.963 19.4392 12.5266 19.3182 12.2143C18.9598 11.2874 18.4405 10.4186 18.1462 9.4738C17.715 8.08676 17.4504 6.64502 17.0615 5.24241C16.9246 4.74767 17.025 4.49362 17.4587 4.2501C18.9381 3.41997 20.3901 2.5364 21.879 1.72502C22.1143 1.59688 22.5573 1.62068 22.7872 1.76673C24.001 2.53852 25.1586 3.40025 26.3736 4.16957C26.8947 4.49932 26.9049 4.79302 26.667 5.32175C25.1311 8.73406 23.6462 12.1704 22.1006 15.578C21.7316 16.3919 21.6882 17.0279 22.3522 17.7C22.6391 17.99 22.8021 18.4557 22.9131 18.8727C23.3712 20.5897 23.7653 22.3248 24.2341 24.0388C24.3892 24.6059 24.269 24.8933 23.7605 25.1718C22.328 25.9572 20.935 26.816 19.5025 27.6023C19.2513 27.7406 18.8032 27.8037 18.5917 27.667C17.173 26.755 15.7941 25.7799 14.3061 24.7592L14.3063 24.7574Z" fill="#8C004F"/>
<path d="M23.549 53.3793L23.549 53.3793L23.5486 53.3792C22.5183 53.1436 21.0666 52.8115 19.1833 51.754C17.2969 50.6948 14.9651 48.9002 12.2004 45.726L12.2004 45.726C8.75741 41.7742 7.97329 38.2753 7.33503 35.4256L7.04228 35.4912L7.33503 35.4256C7.32968 35.4017 7.32433 35.3778 7.319 35.354C6.85262 33.2712 6.44851 31.4664 4.94385 30.3909C4.82599 30.2546 4.71328 30.0174 4.61756 29.6818C4.51923 29.337 4.44797 28.9222 4.39828 28.4812C4.31317 27.7258 4.2939 26.9172 4.30152 26.3H63.6984C63.7063 26.9171 63.6872 27.7258 63.6021 28.4812C63.5524 28.9222 63.4811 29.337 63.3827 29.6817C63.2868 30.0173 63.174 30.2546 63.0559 30.3908C61.5526 31.4653 61.1487 33.267 60.6821 35.3481L60.6647 35.4255L60.6647 35.4256C60.0264 38.2752 59.2415 41.7733 55.7993 45.726C53.0346 48.8998 50.7026 50.6943 48.8161 51.7537C46.9325 52.8114 45.4806 53.1437 44.4508 53.3793L44.4507 53.3793L44.5176 53.6718L44.4507 53.3793L44.4038 53.3901C43.7626 53.5367 43.1807 53.6698 42.7454 53.9586C42.3541 54.2181 42.0342 54.5802 41.7292 54.9254L41.7077 54.9497L41.7075 54.95C41.1811 55.5469 40.5864 56.22 39.4712 56.7548C38.3509 57.292 36.681 57.7 33.9999 57.7C31.3187 57.7 29.6485 57.2922 28.5282 56.7551C27.4129 56.2205 26.8181 55.5473 26.2924 54.9502L26.2887 54.946C25.9782 54.5928 25.6532 54.2231 25.2543 53.9586C24.819 53.6698 24.2372 53.5367 23.5959 53.3901L23.549 53.3793Z" fill="#D7D2CB" stroke="#B0ACA5" stroke-width="0.6"/>
<path d="M26.2212 55.1857L26.222 55.1874C26.2237 55.1909 26.2268 55.1973 26.2315 55.2065C26.2409 55.2248 26.2565 55.2539 26.2792 55.2924C26.3247 55.3693 26.3986 55.4834 26.5082 55.6226C26.7273 55.9006 27.0898 56.2797 27.6546 56.662C28.7816 57.4249 30.7338 58.2137 33.9991 58.2137C37.2645 58.2137 39.2167 57.4249 40.3437 56.662C40.9085 56.2797 41.271 55.9006 41.49 55.6226C41.5997 55.4834 41.6736 55.3693 41.7191 55.2924C41.7418 55.2539 41.7574 55.2248 41.7668 55.2065C41.7691 55.2019 41.7711 55.198 41.7727 55.1948C41.7742 55.1916 41.7754 55.1891 41.7763 55.1874L41.7771 55.1857C41.7772 55.1855 41.7772 55.1854 41.7773 55.1852M26.2212 55.1857L42.0514 55.3072C41.7771 55.1857 41.7772 55.1855 41.7773 55.1852M26.2212 55.1857C26.2211 55.1855 26.2211 55.1854 26.221 55.1852C26.221 55.1852 26.221 55.1852 26.221 55.1852C26.2209 55.1851 26.2209 55.185 26.2208 55.1849L26.2206 55.1844C26.2206 55.1844 26.2206 55.1843 26.2206 55.1843C26.213 55.1674 26.2038 55.1511 26.1932 55.1359C25.4012 53.9979 25.3 52.4813 25.3 50.8539V42.9365C25.3 39.0067 28.3757 35.8137 32.1053 35.8137H35.8947C39.6251 35.8137 42.7 39.0075 42.7 42.9365V50.8539C42.7 52.433 42.5706 53.9918 41.8201 55.1162M26.2212 55.1857L41.8201 55.1162M41.7773 55.1852C41.7885 55.16 41.803 55.1368 41.8201 55.1162M41.7773 55.1852L41.8201 55.1162" fill="#B0ADA7" stroke="#9A9790" stroke-width="0.6" stroke-linecap="round" stroke-linejoin="round"/>
<path d="M3.30829 26.3H64.6917C64.6945 26.3946 64.6972 26.5099 64.6987 26.6418C64.7031 27.0258 64.6977 27.5469 64.6588 28.0978C64.6197 28.6504 64.5476 29.2237 64.4215 29.7155C64.3085 30.156 64.1615 30.4933 63.987 30.7H4.01302C3.83853 30.4933 3.69148 30.156 3.57853 29.7155C3.45243 29.2237 3.38028 28.6504 3.34123 28.0978C3.30231 27.5469 3.29689 27.0258 3.30128 26.6418C3.30279 26.5099 3.30545 26.3946 3.30829 26.3Z" fill="#B0ADA7" stroke="#9A9790" stroke-width="0.6" stroke-linecap="round" stroke-linejoin="round"/>
<path d="M1.69969 18.3H66.3003C67.0652 18.3 67.7 18.9408 67.7 19.7497V24.2503C67.7 25.0592 67.0652 25.7 66.3003 25.7H1.69969C0.934797 25.7 0.3 25.0592 0.3 24.2503V19.7497C0.3 18.9408 0.934797 18.3 1.69969 18.3Z" fill="#D7D2CB" stroke="#B0ACA5" stroke-width="0.6"/>
<path d="M43.6797 31.0488C43.6692 36.4349 39.3249 40.7977 33.9807 40.7977C28.6364 40.7977 24.3091 36.4349 24.3195 31.0488C24.33 25.6628 28.6743 21.3 34.0186 21.3C39.3628 21.3 43.6902 25.6628 43.6797 31.0488Z" fill="#F3FF70" stroke="#FDFFCC" stroke-width="0.6"/>
<mask id="mask0_2103_9882" style="mask-type:luminance" maskUnits="userSpaceOnUse" x="24" y="21" width="20" height="20">
<path d="M33.8307 40.8356C39.26 40.8356 43.6614 36.3953 43.6614 30.9178C43.6614 25.4404 39.26 21 33.8307 21C28.4013 21 24 25.4404 24 30.9178C24 36.3953 28.4013 40.8356 33.8307 40.8356Z" fill="white"/>
</mask>
<g mask="url(#mask0_2103_9882)">
<path d="M23.8711 33.6006L38.1254 21.2036" stroke="#FDFFCC" stroke-width="2" stroke-miterlimit="10"/>
<path d="M27.0586 37.8035L41.8042 25.104" stroke="#FDFFCC" stroke-width="6" stroke-miterlimit="10"/>
</g>
</g>
<defs>
<clipPath id="clip0_2103_9882">
<rect width="68" height="58" fill="white" transform="translate(0 0.513672)"/>
</clipPath>
</defs>
</svg>
