<svg width="68" height="59" viewBox="0 0 68 59" fill="none" xmlns="http://www.w3.org/2000/svg">
<g clip-path="url(#clip0_2097_6166)">
<path d="M59.6911 25.6833C57.9982 25.8979 56.2729 26.1188 54.5466 26.3352C52.4042 26.6035 50.2591 26.856 48.1184 27.1428C47.5889 27.2141 47.1876 27.1173 46.7758 26.7469C44.8187 24.9874 42.8176 23.2753 40.8718 21.5026C40.5689 21.2263 40.3423 20.7363 40.3002 20.3228C40.1448 18.7929 40.0561 17.2542 40.0008 15.7163C39.9885 15.3706 40.122 14.9368 40.3441 14.6782C42.3303 12.3644 44.3419 10.0708 46.3754 7.79923C46.6046 7.54322 47.012 7.34175 47.3554 7.31008C48.9367 7.16316 50.5225 7.06374 52.1091 7.00128C52.4296 6.98896 52.8318 7.12181 53.0741 7.33031C55.1674 9.13297 57.2387 10.9611 59.296 12.8043C59.4997 12.9864 59.6815 13.3181 59.6841 13.5829C59.7298 17.5454 59.7429 21.5088 59.7623 25.4713C59.7623 25.5188 59.7306 25.5654 59.6885 25.6824L59.6911 25.6833Z" fill="#5B8FB0"/>
<path d="M22.2199 25.3562C20.505 25.5759 18.7565 25.8014 17.0074 26.0223C14.8363 26.2969 12.6635 26.5547 10.4943 26.8485C9.95782 26.921 9.55363 26.8242 9.14606 26.4506C7.20575 24.6745 5.21981 22.9477 3.29172 21.1585C2.99139 20.8801 2.77364 20.3846 2.73982 19.9675C2.61543 18.4209 2.55816 16.8661 2.53569 15.3116C2.53047 14.9623 2.67425 14.5236 2.90421 14.2621C4.95997 11.9201 7.04112 9.59888 9.14504 7.29984C9.38213 7.03974 9.79858 6.83699 10.1458 6.80389C11.7462 6.65292 13.3514 6.55047 14.956 6.48377C15.2802 6.46983 15.6832 6.60438 15.9244 6.81515C18.001 8.63463 20.0558 10.4791 22.0953 12.339C22.2969 12.5229 22.4738 12.8582 22.4708 13.1251C22.4328 17.1309 22.3623 21.1363 22.297 25.1424C22.2966 25.1902 22.2633 25.2385 22.2177 25.3564L22.2199 25.3562Z" fill="#77ACC8"/>
<path d="M24.8138 5.51374C26.8553 5.51591 28.9369 5.51495 31.0188 5.52033C33.6026 5.52679 36.1872 5.55226 38.7708 5.5358C39.4094 5.53133 39.8715 5.70731 40.3032 6.20792C42.3575 8.59068 44.4685 10.9236 46.5063 13.3199C46.8238 13.693 47.017 14.3089 47.0034 14.8052C46.954 16.6436 46.8233 18.4815 46.6535 20.3127C46.6156 20.7247 46.3907 21.2187 46.0878 21.4917C43.376 23.935 40.6388 26.3491 37.877 28.7346C37.5649 29.004 37.051 29.1808 36.639 29.166C34.7404 29.1012 32.8421 28.9776 30.95 28.8123C30.5673 28.7785 30.1111 28.5596 29.8554 28.2753C27.6469 25.8211 25.4691 23.3392 23.3087 20.8423C23.0949 20.5954 22.9297 20.1747 22.967 19.8606C23.52 15.1551 24.1097 10.4537 24.6942 5.75221C24.7009 5.69634 24.7462 5.64472 24.8142 5.51299L24.8138 5.51374Z" fill="#6DA1C1"/>
<path d="M61.3457 8.16971C61.6466 9.63911 61.9542 11.1354 62.259 12.6342C62.6364 14.4944 63.0011 16.3589 63.3939 18.2132C63.4916 18.6717 63.4346 19.0433 63.1425 19.4646C61.7536 21.4697 60.409 23.5056 59.0075 25.5019C58.7892 25.8134 58.3805 26.0883 58.026 26.1885C56.7133 26.5597 55.3884 26.8727 54.0622 27.1566C53.7643 27.2207 53.3801 27.1681 53.1408 27.0104C51.0042 25.6013 48.8847 24.1663 46.781 22.7087C46.544 22.5441 46.342 22.2132 46.2911 21.9142C46.0565 20.5336 45.8634 19.1421 45.7008 17.7442C45.668 17.4616 45.7564 17.0845 45.9202 16.8383C47.3374 14.7067 48.7774 12.5901 50.2325 10.4836C50.3765 10.2754 50.6506 10.0633 50.879 10.0202C54.3033 9.37576 57.7298 8.7588 61.1566 8.13833C61.1969 8.13088 61.2403 8.15186 61.3447 8.17139L61.3457 8.16971Z" fill="#7EC0DA"/>
<path d="M8.59847 13.281C10.2318 12.7777 11.8954 12.2635 13.5614 11.7536C15.6289 11.1198 17.7021 10.5021 19.7633 9.85119C20.2731 9.69017 20.6862 9.71589 21.1558 10.0087C23.3923 11.4009 25.6631 12.7396 27.8899 14.1474C28.2371 14.3672 28.5445 14.8092 28.6583 15.209C29.0769 16.6865 29.4309 18.184 29.7516 19.687C29.8238 20.0247 29.7675 20.4742 29.5931 20.7664C28.0348 23.3841 26.448 25.9858 24.8348 28.5705C24.6524 28.8624 24.286 29.1302 23.9528 29.2206C22.4183 29.6377 20.8699 30.0084 19.3153 30.3446C19.0008 30.4127 18.5811 30.3507 18.3064 30.1867C15.9284 28.7755 13.5684 27.3346 11.2183 25.8773C10.9857 25.7328 10.7489 25.4381 10.7003 25.1786C9.96859 21.2899 9.26752 17.3957 8.56236 13.5032C8.55378 13.4572 8.57688 13.4053 8.59886 13.283L8.59847 13.281Z" fill="#8BCBEA"/>
<path d="M39.9821 10.8222C40.1597 12.1635 40.343 13.5308 40.5221 14.8987C40.7443 16.5971 40.9544 18.2966 41.1914 19.993C41.25 20.4122 41.1749 20.7318 40.8837 21.0599C39.4972 22.6223 38.149 24.2181 36.7526 25.7705C36.535 26.0126 36.1476 26.1943 35.82 26.23C34.6077 26.3618 33.3881 26.4403 32.1693 26.4921C31.8953 26.5035 31.551 26.4003 31.3449 26.2257C29.501 24.6633 27.6739 23.0806 25.8635 21.4792C25.6591 21.2989 25.4981 20.9766 25.4714 20.7046C25.348 19.4517 25.2619 18.1938 25.2051 16.9357C25.1937 16.6813 25.2975 16.3617 25.4621 16.1687C26.882 14.4985 28.3224 12.8457 29.7744 11.2038C29.9183 11.0411 30.1801 10.8951 30.3898 10.8917C33.5313 10.834 36.6731 10.8018 39.8155 10.7651C39.8528 10.7645 39.8904 10.7894 39.9837 10.8224L39.9821 10.8222Z" fill="#8DB1C7"/>
<path d="M23.549 53.3793L23.549 53.3793L23.5486 53.3792C22.5183 53.1436 21.0666 52.8115 19.1833 51.754C17.2969 50.6948 14.9651 48.9002 12.2004 45.726L12.2004 45.726C8.75741 41.7742 7.97329 38.2753 7.33503 35.4256L7.04228 35.4912L7.33503 35.4256C7.32968 35.4017 7.32433 35.3778 7.31899 35.354C6.85262 33.2712 6.44851 31.4664 4.94385 30.3909C4.82599 30.2546 4.71328 30.0174 4.61756 29.6818C4.51923 29.337 4.44797 28.9222 4.39828 28.4812C4.31317 27.7258 4.2939 26.9172 4.30152 26.3H63.6984C63.7063 26.9171 63.6872 27.7258 63.6021 28.4812C63.5524 28.9222 63.4811 29.337 63.3827 29.6817C63.2868 30.0173 63.174 30.2546 63.0559 30.3908C61.5526 31.4653 61.1487 33.267 60.6821 35.3481L60.6647 35.4255L60.6647 35.4256C60.0264 38.2752 59.2414 41.7733 55.7993 45.726C53.0346 48.8998 50.7026 50.6943 48.8161 51.7537C46.9325 52.8114 45.4806 53.1437 44.4508 53.3793L44.4507 53.3793L44.5176 53.6718L44.4507 53.3793L44.4038 53.3901C43.7626 53.5367 43.1807 53.6698 42.7454 53.9586C42.3541 54.2181 42.0343 54.5801 41.7293 54.9253L41.7077 54.9497L41.7075 54.95C41.1811 55.5469 40.5864 56.22 39.4712 56.7548C38.3509 57.292 36.681 57.7 33.9999 57.7C31.3187 57.7 29.6485 57.2922 28.5282 56.7551C27.4129 56.2205 26.8181 55.5473 26.2924 54.9502L26.2887 54.946C25.9782 54.5928 25.6531 54.2231 25.2543 53.9586C24.819 53.6698 24.2372 53.5368 23.5959 53.3901L23.549 53.3793Z" fill="#EC7777" stroke="#C96464" stroke-width="0.6"/>
<path d="M26.2212 55.1857L26.222 55.1874C26.2237 55.1909 26.2268 55.1973 26.2315 55.2065C26.2409 55.2248 26.2565 55.2539 26.2792 55.2924C26.3247 55.3693 26.3986 55.4834 26.5082 55.6226C26.7273 55.9006 27.0898 56.2797 27.6546 56.662C28.7816 57.4249 30.7338 58.2137 33.9991 58.2137C37.2645 58.2137 39.2167 57.4249 40.3437 56.662C40.9085 56.2797 41.271 55.9006 41.49 55.6226C41.5997 55.4834 41.6736 55.3693 41.7191 55.2924C41.7418 55.2539 41.7574 55.2248 41.7668 55.2065C41.7691 55.2019 41.7711 55.198 41.7727 55.1948C41.7742 55.1916 41.7754 55.1891 41.7763 55.1874L41.7771 55.1857C41.7772 55.1855 41.7772 55.1854 41.7773 55.1852M26.2212 55.1857L42.0514 55.3072C41.7771 55.1857 41.7772 55.1855 41.7773 55.1852M26.2212 55.1857C26.2211 55.1855 26.2211 55.1854 26.221 55.1852C26.221 55.1852 26.221 55.1852 26.221 55.1852C26.2209 55.1851 26.2209 55.185 26.2208 55.1849L26.2206 55.1844C26.2206 55.1844 26.2206 55.1843 26.2206 55.1843C26.213 55.1674 26.2038 55.1511 26.1932 55.1359C25.4012 53.9979 25.3 52.4813 25.3 50.8539V42.9365C25.3 39.0067 28.3757 35.8137 32.1053 35.8137H35.8947C39.6251 35.8137 42.7 39.0075 42.7 42.9365V50.8539C42.7 52.433 42.5706 53.9918 41.8201 55.1162M26.2212 55.1857L41.8201 55.1162M41.7773 55.1852C41.7885 55.16 41.803 55.1368 41.8201 55.1162M41.7773 55.1852L41.8201 55.1162" fill="#CB6363" stroke="#A85050" stroke-width="0.6" stroke-linecap="round" stroke-linejoin="round"/>
<path d="M3.30829 26.3H64.6917C64.6945 26.3946 64.6972 26.5099 64.6987 26.6418C64.7031 27.0258 64.6977 27.5469 64.6588 28.0978C64.6197 28.6504 64.5476 29.2237 64.4215 29.7155C64.3085 30.156 64.1615 30.4933 63.987 30.7H4.01302C3.83853 30.4933 3.69148 30.156 3.57853 29.7155C3.45243 29.2237 3.38028 28.6504 3.34123 28.0978C3.30231 27.5469 3.29689 27.0258 3.30128 26.6418C3.30279 26.5099 3.30545 26.3946 3.30829 26.3Z" fill="#CB6363" stroke="#A85050" stroke-width="0.6" stroke-linecap="round" stroke-linejoin="round"/>
<path d="M1.69969 18.3H66.3003C67.0652 18.3 67.7 18.9408 67.7 19.7497V24.2503C67.7 25.0592 67.0652 25.7 66.3003 25.7H1.69969C0.934797 25.7 0.3 25.0592 0.3 24.2503V19.7497C0.3 18.9408 0.934797 18.3 1.69969 18.3Z" fill="#EC7777" stroke="#C96464" stroke-width="0.6"/>
<path d="M43.6797 31.0488C43.6692 36.4349 39.3249 40.7977 33.9807 40.7977C28.6364 40.7977 24.3091 36.4349 24.3195 31.0488C24.33 25.6628 28.6743 21.3 34.0186 21.3C39.3628 21.3 43.6902 25.6628 43.6797 31.0488Z" fill="#F3FF70" stroke="#FDFFCC" stroke-width="0.6"/>
<mask id="mask0_2097_6166" style="mask-type:luminance" maskUnits="userSpaceOnUse" x="24" y="21" width="20" height="20">
<path d="M33.8307 40.8356C39.26 40.8356 43.6614 36.3953 43.6614 30.9178C43.6614 25.4404 39.26 21 33.8307 21C28.4013 21 24 25.4404 24 30.9178C24 36.3953 28.4013 40.8356 33.8307 40.8356Z" fill="white"/>
</mask>
<g mask="url(#mask0_2097_6166)">
<path d="M23.8711 33.6006L38.1254 21.2036" stroke="#FDFFCC" stroke-width="2" stroke-miterlimit="10"/>
<path d="M27.0586 37.8035L41.8042 25.104" stroke="#FDFFCC" stroke-width="6" stroke-miterlimit="10"/>
</g>
</g>
<defs>
<clipPath id="clip0_2097_6166">
<rect width="68" height="58" fill="white" transform="translate(0 0.513672)"/>
</clipPath>
</defs>
</svg>
