<svg width="68" height="59" viewBox="0 0 68 59" fill="none" xmlns="http://www.w3.org/2000/svg">
<g clip-path="url(#clip0_2093_7253)">
<path d="M0.921875 12.7392C2.65954 11.6676 4.4297 10.5723 6.20337 9.48224C8.40465 8.12915 10.6165 6.79189 12.8055 5.41944C13.3463 5.07985 13.8319 4.98659 14.4623 5.18542C17.4627 6.13206 20.4849 7.00655 23.4782 7.97343C23.9444 8.12387 24.4326 8.54616 24.682 8.97549C25.6066 10.5652 26.4618 12.1972 27.2802 13.8442C27.4646 14.2145 27.5331 14.753 27.4189 15.1445C26.3969 18.6486 25.3379 22.1413 24.243 25.6226C24.1192 26.0158 23.775 26.4364 23.4167 26.6405C21.7678 27.5836 20.088 28.4766 18.3916 29.3308C18.0483 29.5033 17.5452 29.5569 17.1782 29.4496C14.0093 28.5232 10.8518 27.5572 7.70133 26.5692C7.38962 26.4716 7.02786 26.2006 6.8944 25.9138C4.89068 21.6205 2.92033 17.3114 0.945582 13.0049C0.921875 12.9538 0.93329 12.8861 0.921875 12.7383V12.7392Z" fill="#6DA1C1"/>
<path d="M41.8367 22.3173C40.1605 21.9988 38.451 21.6768 36.7423 21.3496C34.6209 20.9431 32.503 20.5217 30.3781 20.1337C29.853 20.0378 29.5001 19.8214 29.2226 19.3428C27.9011 17.0642 26.5243 14.8181 25.2187 12.5316C25.015 12.1753 24.9509 11.6395 25.0378 11.233C25.36 9.72949 25.749 8.23827 26.1696 6.75849C26.2644 6.42594 26.5243 6.05468 26.815 5.87696C29.4158 4.28809 32.0341 2.72737 34.6683 1.19392C34.9651 1.02061 35.4146 0.955503 35.7509 1.03116C37.2998 1.37955 38.8399 1.77457 40.3686 2.20478C40.6777 2.29188 41.0193 2.54262 41.1852 2.81623C42.6226 5.17754 44.031 7.55645 45.4218 9.94504C45.5597 10.1817 45.6308 10.553 45.5518 10.8055C44.3769 14.5894 43.1714 18.3636 41.9711 22.1405C41.957 22.1853 41.9122 22.2205 41.8358 22.3191L41.8367 22.3173Z" fill="#8DB1C7"/>
<path d="M64.2029 26.4308C62.51 26.6455 60.7846 26.8663 59.0583 27.0828C56.9159 27.3511 54.7708 27.6036 52.6301 27.8904C52.1006 27.9617 51.6994 27.8649 51.2876 27.4945C49.3304 25.7349 47.3293 24.0229 45.3835 22.2502C45.0806 21.9739 44.8541 21.4839 44.8119 21.0704C44.6565 19.5405 44.5678 18.0017 44.5125 16.4639C44.5002 16.1181 44.6337 15.6844 44.8558 15.4257C46.842 13.1119 48.8536 10.8184 50.8872 8.54679C51.1163 8.29078 51.5238 8.08931 51.8671 8.05764C53.4485 7.91071 55.0342 7.8113 56.6209 7.74884C56.9413 7.73652 57.3435 7.86936 57.5858 8.07787C59.6791 9.88053 61.7505 11.7087 63.8077 13.5518C64.0114 13.7339 64.1932 14.0656 64.1958 14.3304C64.2415 18.2929 64.2547 22.2563 64.274 26.2188C64.274 26.2663 64.2424 26.313 64.2002 26.43L64.2029 26.4308Z" fill="#6EA4C6"/>
<path d="M36.477 4.8457C37.3876 6.29205 38.3165 7.76479 39.242 9.24106C40.3914 11.0727 41.5267 12.9141 42.691 14.7352C42.979 15.1857 43.0616 15.5913 42.9009 16.1209C42.1378 18.6423 41.4354 21.1831 40.6548 23.6993C40.5328 24.0916 40.1859 24.5034 39.8294 24.7172C38.5115 25.5054 37.1575 26.2365 35.7895 26.9368C35.4822 27.0943 35.0335 27.1568 34.706 27.0644C31.7733 26.2401 28.8485 25.384 25.9334 24.4981C25.6041 24.3978 25.2502 24.1136 25.0764 23.8154C24.2747 22.4421 23.5143 21.0432 22.7855 19.6294C22.638 19.3435 22.5888 18.9221 22.6758 18.6142C23.4204 15.9511 24.1983 13.2977 24.9947 10.6496C25.0737 10.3874 25.2968 10.0821 25.5347 9.96775C29.0996 8.25043 32.6777 6.56126 36.2531 4.86858C36.2953 4.84834 36.3515 4.85714 36.4753 4.84658L36.477 4.8457Z" fill="#8BCBEA"/>
<path d="M13.6108 28.669C12.9496 27.3467 12.2744 25.9989 11.6027 24.6493C10.7685 22.9742 9.94756 21.2929 9.09848 19.6249C8.88863 19.2123 8.85263 18.8586 9.03877 18.424C9.92297 16.3557 10.7545 14.2644 11.6527 12.2022C11.7924 11.8811 12.1304 11.5653 12.457 11.4201C13.6688 10.8826 14.9059 10.3969 16.1528 9.93946C16.4329 9.83652 16.8271 9.8286 17.1028 9.94034C19.571 10.938 22.0296 11.9621 24.4767 13.0107C24.7533 13.1286 25.0343 13.4075 25.159 13.6785C25.7323 14.9278 26.2679 16.1947 26.7746 17.4712C26.8773 17.729 26.8826 18.0923 26.7807 18.3466C25.9 20.5372 24.993 22.7173 24.0693 24.8895C23.978 25.1041 23.7576 25.3417 23.5416 25.4147C20.3016 26.5162 17.0528 27.5912 13.8049 28.6707C13.7662 28.6839 13.7179 28.6707 13.6099 28.6672L13.6108 28.669Z" fill="#77ACC8"/>
<path d="M35.1996 12.179C36.6414 11.7655 38.1095 11.3432 39.5802 10.9236C41.4057 10.4036 43.2364 9.89599 45.0549 9.36109C45.5045 9.22824 45.8794 9.2564 46.3219 9.51505C48.4284 10.745 50.562 11.9283 52.6606 13.1714C52.9881 13.3649 53.2937 13.7512 53.421 14.0969C53.8925 15.377 54.3069 16.6738 54.6924 17.9741C54.7793 18.2662 54.7565 18.6533 54.6178 18.904C53.378 21.143 52.1109 23.3671 50.8202 25.5771C50.6744 25.8261 50.3601 26.053 50.0659 26.1269C48.7076 26.4674 47.3352 26.7674 45.954 27.0375C45.6748 27.0921 45.292 27.0331 45.0338 26.8888C42.7992 25.6404 40.5777 24.3683 38.365 23.0803C38.1464 22.9527 37.9137 22.6958 37.8531 22.4715C36.9461 19.1072 36.0662 15.7386 35.1829 12.3699C35.1724 12.3303 35.19 12.2855 35.2014 12.1799L35.1996 12.179Z" fill="#7EC0DA"/>
<path d="M23.549 53.3793L23.549 53.3793L23.5486 53.3792C22.5183 53.1436 21.0666 52.8115 19.1833 51.754C17.2969 50.6948 14.9651 48.9002 12.2004 45.726L12.2004 45.726C8.75741 41.7742 7.97329 38.2753 7.33503 35.4256L7.04228 35.4912L7.33503 35.4256C7.32968 35.4017 7.32433 35.3778 7.319 35.354C6.85262 33.2712 6.44851 31.4664 4.94385 30.3909C4.82599 30.2546 4.71328 30.0174 4.61756 29.6818C4.51923 29.337 4.44797 28.9222 4.39828 28.4812C4.31317 27.7258 4.2939 26.9172 4.30152 26.3H63.6984C63.7063 26.9171 63.6872 27.7258 63.6021 28.4812C63.5524 28.9222 63.4811 29.337 63.3827 29.6817C63.2868 30.0173 63.174 30.2546 63.0559 30.3908C61.5526 31.4653 61.1487 33.267 60.6821 35.3481L60.6647 35.4255L60.6647 35.4256C60.0264 38.2752 59.2415 41.7733 55.7993 45.726C53.0346 48.8998 50.7026 50.6943 48.8161 51.7537C46.9325 52.8114 45.4806 53.1437 44.4508 53.3793L44.4507 53.3793L44.5176 53.6718L44.4507 53.3793L44.4038 53.3901C43.7626 53.5367 43.1807 53.6698 42.7454 53.9586C42.3541 54.2181 42.0342 54.5802 41.7292 54.9254L41.7077 54.9497L41.7075 54.95C41.1811 55.5469 40.5864 56.22 39.4712 56.7548C38.3509 57.292 36.681 57.7 33.9999 57.7C31.3187 57.7 29.6485 57.2922 28.5282 56.7551C27.4129 56.2205 26.8181 55.5473 26.2924 54.9502L26.2887 54.946C25.9782 54.5928 25.6532 54.2231 25.2543 53.9586C24.819 53.6698 24.2372 53.5367 23.5959 53.3901L23.549 53.3793Z" fill="#FB9E18" stroke="#E18B20" stroke-width="0.6"/>
<path d="M26.2212 55.1857L26.222 55.1874C26.2237 55.1909 26.2268 55.1973 26.2315 55.2065C26.2409 55.2248 26.2565 55.2539 26.2792 55.2924C26.3247 55.3693 26.3986 55.4834 26.5082 55.6226C26.7273 55.9006 27.0898 56.2797 27.6546 56.662C28.7816 57.4249 30.7338 58.2137 33.9991 58.2137C37.2645 58.2137 39.2167 57.4249 40.3437 56.662C40.9085 56.2797 41.271 55.9006 41.49 55.6226C41.5997 55.4834 41.6736 55.3693 41.7191 55.2924C41.7418 55.2539 41.7574 55.2248 41.7668 55.2065C41.7691 55.2019 41.7711 55.198 41.7727 55.1948C41.7742 55.1916 41.7754 55.1891 41.7763 55.1874L41.7771 55.1857C41.7772 55.1855 41.7772 55.1854 41.7773 55.1852M26.2212 55.1857L42.0514 55.3072C41.7771 55.1857 41.7772 55.1855 41.7773 55.1852M26.2212 55.1857C26.2211 55.1855 26.2211 55.1854 26.221 55.1852C26.221 55.1852 26.221 55.1852 26.221 55.1852C26.2209 55.1851 26.2209 55.185 26.2208 55.1849L26.2206 55.1844C26.2206 55.1844 26.2206 55.1843 26.2206 55.1843C26.213 55.1674 26.2038 55.1511 26.1932 55.1359C25.4012 53.9979 25.3 52.4813 25.3 50.8539V42.9365C25.3 39.0067 28.3757 35.8137 32.1053 35.8137H35.8947C39.6251 35.8137 42.7 39.0075 42.7 42.9365V50.8539C42.7 52.433 42.5706 53.9918 41.8201 55.1162M26.2212 55.1857L41.8201 55.1162M41.7773 55.1852C41.7885 55.16 41.803 55.1368 41.8201 55.1162M41.7773 55.1852L41.8201 55.1162" fill="#D38513" stroke="#B57211" stroke-width="0.6" stroke-linecap="round" stroke-linejoin="round"/>
<path d="M3.30829 26.3H64.6917C64.6945 26.3946 64.6972 26.5099 64.6987 26.6418C64.7031 27.0258 64.6977 27.5469 64.6588 28.0978C64.6197 28.6504 64.5476 29.2237 64.4215 29.7155C64.3085 30.156 64.1615 30.4933 63.987 30.7H4.01302C3.83853 30.4933 3.69148 30.156 3.57853 29.7155C3.45243 29.2237 3.38028 28.6504 3.34123 28.0978C3.30231 27.5469 3.29689 27.0258 3.30128 26.6418C3.30279 26.5099 3.30545 26.3946 3.30829 26.3Z" fill="#D38513" stroke="#B57211" stroke-width="0.6" stroke-linecap="round" stroke-linejoin="round"/>
<path d="M1.69969 18.3H66.3003C67.0652 18.3 67.7 18.9408 67.7 19.7497V24.2503C67.7 25.0592 67.0652 25.7 66.3003 25.7H1.69969C0.934797 25.7 0.3 25.0592 0.3 24.2503V19.7497C0.3 18.9408 0.934797 18.3 1.69969 18.3Z" fill="#FB9E18" stroke="#E18B20" stroke-width="0.6"/>
<path d="M43.6797 31.0488C43.6692 36.4349 39.3249 40.7977 33.9807 40.7977C28.6364 40.7977 24.3091 36.4349 24.3195 31.0488C24.33 25.6628 28.6743 21.3 34.0186 21.3C39.3628 21.3 43.6902 25.6628 43.6797 31.0488Z" fill="#F3FF70" stroke="#FDFFCC" stroke-width="0.6"/>
<mask id="mask0_2093_7253" style="mask-type:luminance" maskUnits="userSpaceOnUse" x="24" y="21" width="20" height="20">
<path d="M33.8307 40.8356C39.26 40.8356 43.6614 36.3953 43.6614 30.9178C43.6614 25.4404 39.26 21 33.8307 21C28.4013 21 24 25.4404 24 30.9178C24 36.3953 28.4013 40.8356 33.8307 40.8356Z" fill="white"/>
</mask>
<g mask="url(#mask0_2093_7253)">
<path d="M23.8711 33.6006L38.1254 21.2036" stroke="#FDFFCC" stroke-width="2" stroke-miterlimit="10"/>
<path d="M27.0586 37.8035L41.8042 25.104" stroke="#FDFFCC" stroke-width="6" stroke-miterlimit="10"/>
</g>
</g>
<defs>
<clipPath id="clip0_2093_7253">
<rect width="68" height="58" fill="white" transform="translate(0 0.513672)"/>
</clipPath>
</defs>
</svg>
