<svg width="68" height="59" viewBox="0 0 68 59" fill="none" xmlns="http://www.w3.org/2000/svg">
<g clip-path="url(#clip0_2097_6185)">
<path d="M44.6302 25.998C42.6759 25.6395 40.6827 25.277 38.6905 24.9086C36.2171 24.451 33.7479 23.9766 31.2704 23.5398C30.6582 23.4319 30.2467 23.1882 29.9232 22.6494C28.3825 20.0843 26.7773 17.5558 25.255 14.9817C25.0175 14.5806 24.9427 13.9774 25.0441 13.5199C25.4198 11.8273 25.8733 10.1485 26.3637 8.48264C26.4742 8.10827 26.7773 7.69032 27.1161 7.49025C30.1484 5.70158 33.2012 3.94459 36.2724 2.21831C36.6184 2.0232 37.1426 1.94991 37.5347 2.03508C39.3406 2.42728 41.1362 2.87198 42.9185 3.35629C43.2789 3.45434 43.6771 3.7366 43.8706 4.04462C45.5464 6.70288 47.1885 9.38094 48.8101 12.0699C48.9708 12.3363 49.0538 12.7543 48.9616 13.0385C47.5919 17.2983 46.1863 21.5471 44.7868 25.7989C44.7705 25.8495 44.7182 25.8891 44.6292 26L44.6302 25.998Z" fill="#8DB1C7"/>
<path d="M59.5847 6.97533C60.2137 8.91753 60.858 10.8969 61.4964 12.8785C62.2889 15.3378 63.0635 17.8037 63.8778 20.2557C64.0794 20.8616 64.0549 21.3555 63.7122 21.9208C62.0811 24.6111 60.5149 27.3398 58.8659 30.0184C58.6092 30.4357 58.0832 30.8098 57.6069 30.9503C55.8433 31.4715 54.0551 31.9154 52.261 32.3199C51.8575 32.4112 51.3182 32.35 50.9649 32.1463C47.8031 30.3225 44.6611 28.4655 41.5387 26.5763C41.186 26.3628 40.8591 25.9287 40.7458 25.5323C40.2206 23.7067 39.7514 21.8631 39.3237 20.0126C39.2376 19.6382 39.3048 19.1367 39.4961 18.8055C41.1475 15.9467 42.8347 13.1083 44.5415 10.282C44.7103 10.0023 45.0593 9.71515 45.3696 9.6535C50.0156 8.72497 54.669 7.83261 59.321 6.93536C59.3761 6.92443 59.4393 6.95158 59.5855 6.97554L59.5847 6.97533Z" fill="#6DA1C1"/>
<path d="M36.6911 23.6828C34.9982 23.8975 33.2729 24.1183 31.5466 24.3347C29.4042 24.603 27.2591 24.8555 25.1184 25.1423C24.5889 25.2136 24.1876 25.1168 23.7758 24.7464C21.8187 22.9869 19.8176 21.2749 17.8718 19.5021C17.5689 19.2259 17.3423 18.7358 17.3002 18.3223C17.1448 16.7924 17.0561 15.2537 17.0008 13.7158C16.9885 13.3701 17.122 12.9364 17.3441 12.6777C19.3303 10.3639 21.3419 8.07032 23.3754 5.79874C23.6046 5.54273 24.012 5.34126 24.3554 5.30959C25.9367 5.16267 27.5225 5.06325 29.1091 5.00079C29.4296 4.98847 29.8318 5.12132 30.0741 5.32982C32.1674 7.13248 34.2387 8.96065 36.296 10.8038C36.4997 10.9859 36.6815 11.3176 36.6841 11.5824C36.7298 15.5449 36.7429 19.5083 36.7623 23.4708C36.7623 23.5183 36.7306 23.5649 36.6885 23.6819L36.6911 23.6828Z" fill="#6EA4C6"/>
<path d="M40.3375 30.7677C39.3731 29.3567 38.3893 27.92 37.4088 26.4797C36.1913 24.6926 34.9874 22.8953 33.7553 21.1194C33.4505 20.6801 33.3528 20.2779 33.4934 19.7426C34.1608 17.1942 34.7671 14.6288 35.4523 12.085C35.5595 11.6883 35.8905 11.2638 36.2387 11.0367C37.526 10.1993 38.8515 9.41774 40.1921 8.66639C40.4933 8.49744 40.9393 8.41811 41.2701 8.49808C44.2318 9.21134 47.1867 9.95655 50.1332 10.732C50.466 10.8198 50.8303 11.0905 51.0153 11.3819C51.8681 12.7241 52.6807 14.0933 53.4622 15.4786C53.6204 15.7588 53.6854 16.178 53.6102 16.489C52.9664 19.1783 52.289 21.8591 51.593 24.5353C51.5239 24.8003 51.3125 25.1138 51.079 25.237C47.5814 27.0875 44.0695 28.9102 40.5604 30.7364C40.519 30.7583 40.4625 30.7516 40.3392 30.7668L40.3375 30.7677Z" fill="#8BCBEA"/>
<path d="M7.69283 27.8096C7.03166 26.4873 6.35643 25.1395 5.68472 23.7899C4.85057 22.1148 4.02959 20.4336 3.18051 18.7655C2.97066 18.3529 2.93466 17.9992 3.12081 17.5646C4.00501 15.4963 4.83652 13.4051 5.73477 11.3429C5.87438 11.0217 6.21243 10.7059 6.53907 10.5607C7.75078 10.0232 8.98796 9.53756 10.2348 9.08008C10.5149 8.97715 10.9091 8.96923 11.1849 9.08096C13.6531 10.0786 16.1116 11.1027 18.5587 12.1514C18.8353 12.2693 19.1163 12.5482 19.241 12.8191C19.8144 14.0684 20.35 15.3353 20.8566 16.6118C20.9593 16.8696 20.9646 17.233 20.8628 17.4872C19.9821 19.6778 19.075 21.8579 18.1513 24.0301C18.06 24.2448 17.8396 24.4823 17.6236 24.5553C14.3836 25.6568 11.1348 26.7319 7.88688 27.8114C7.84825 27.8246 7.79995 27.8114 7.69195 27.8078L7.69283 27.8096Z" fill="#77ACC8"/>
<path d="M13.0199 13.8958C14.4617 13.4823 15.9298 13.06 17.4005 12.6404C19.226 12.1204 21.0568 11.6128 22.8752 11.0779C23.3248 10.945 23.6997 10.9732 24.1422 11.2318C26.2487 12.4618 28.3824 13.6451 30.4809 14.8882C30.8084 15.0817 31.114 15.468 31.2413 15.8137C31.7128 17.0938 32.1273 18.3906 32.5127 19.6909C32.5996 19.983 32.5768 20.3701 32.4381 20.6208C31.1983 22.8598 29.9312 25.0839 28.6405 27.2939C28.4947 27.5429 28.1804 27.7698 27.8863 27.8437C26.5279 28.1842 25.1555 28.4842 23.7743 28.7543C23.4951 28.8089 23.1123 28.7499 22.8541 28.6056C20.6195 27.3572 18.398 26.0851 16.1853 24.7971C15.9667 24.6695 15.734 24.4126 15.6734 24.1883C14.7664 20.824 13.8866 17.4554 13.0032 14.0867C12.9927 14.0471 13.0103 14.0023 13.0217 13.8967L13.0199 13.8958Z" fill="#7EC0DA"/>
<path d="M23.549 53.3793L23.549 53.3793L23.5486 53.3792C22.5183 53.1436 21.0666 52.8115 19.1833 51.754C17.2969 50.6948 14.9651 48.9002 12.2004 45.726L12.2004 45.726C8.75741 41.7742 7.97329 38.2753 7.33503 35.4256L7.04228 35.4912L7.33503 35.4256C7.32968 35.4017 7.32433 35.3778 7.319 35.354C6.85262 33.2712 6.44851 31.4664 4.94385 30.3909C4.82599 30.2546 4.71328 30.0174 4.61756 29.6818C4.51923 29.337 4.44797 28.9222 4.39828 28.4812C4.31317 27.7258 4.2939 26.9172 4.30152 26.3H63.6984C63.7063 26.9171 63.6872 27.7258 63.6021 28.4812C63.5524 28.9222 63.4811 29.337 63.3827 29.6817C63.2868 30.0173 63.174 30.2546 63.0559 30.3908C61.5526 31.4653 61.1487 33.267 60.6821 35.3481L60.6647 35.4255L60.6647 35.4256C60.0264 38.2752 59.2415 41.7733 55.7993 45.726C53.0346 48.8998 50.7026 50.6943 48.8161 51.7537C46.9325 52.8114 45.4806 53.1437 44.4508 53.3793L44.4507 53.3793L44.5176 53.6718L44.4507 53.3793L44.4038 53.3901C43.7626 53.5367 43.1807 53.6698 42.7454 53.9586C42.3541 54.2181 42.0342 54.5802 41.7292 54.9254L41.7077 54.9497L41.7075 54.95C41.1811 55.5469 40.5864 56.22 39.4712 56.7548C38.3509 57.292 36.681 57.7 33.9999 57.7C31.3187 57.7 29.6485 57.2922 28.5282 56.7551C27.4129 56.2205 26.8181 55.5473 26.2924 54.9502L26.2887 54.946C25.9782 54.5928 25.6532 54.2231 25.2543 53.9586C24.819 53.6698 24.2372 53.5367 23.5959 53.3901L23.549 53.3793Z" fill="#D7D2CB" stroke="#B0ACA5" stroke-width="0.6"/>
<path d="M26.2212 55.1857L26.222 55.1874C26.2237 55.1909 26.2268 55.1973 26.2315 55.2065C26.2409 55.2248 26.2565 55.2539 26.2792 55.2924C26.3247 55.3693 26.3986 55.4834 26.5082 55.6226C26.7273 55.9006 27.0898 56.2797 27.6546 56.662C28.7816 57.4249 30.7338 58.2137 33.9991 58.2137C37.2645 58.2137 39.2167 57.4249 40.3437 56.662C40.9085 56.2797 41.271 55.9006 41.49 55.6226C41.5997 55.4834 41.6736 55.3693 41.7191 55.2924C41.7418 55.2539 41.7574 55.2248 41.7668 55.2065C41.7691 55.2019 41.7711 55.198 41.7727 55.1948C41.7742 55.1916 41.7754 55.1891 41.7763 55.1874L41.7771 55.1857C41.7772 55.1855 41.7772 55.1854 41.7773 55.1852M26.2212 55.1857L42.0514 55.3072C41.7771 55.1857 41.7772 55.1855 41.7773 55.1852M26.2212 55.1857C26.2211 55.1855 26.2211 55.1854 26.221 55.1852C26.221 55.1852 26.221 55.1852 26.221 55.1852C26.2209 55.1851 26.2209 55.185 26.2208 55.1849L26.2206 55.1844C26.2206 55.1844 26.2206 55.1843 26.2206 55.1843C26.213 55.1674 26.2038 55.1511 26.1932 55.1359C25.4012 53.9979 25.3 52.4813 25.3 50.8539V42.9365C25.3 39.0067 28.3757 35.8137 32.1053 35.8137H35.8947C39.6251 35.8137 42.7 39.0075 42.7 42.9365V50.8539C42.7 52.433 42.5706 53.9918 41.8201 55.1162M26.2212 55.1857L41.8201 55.1162M41.7773 55.1852C41.7885 55.16 41.803 55.1368 41.8201 55.1162M41.7773 55.1852L41.8201 55.1162" fill="#B0ADA7" stroke="#9A9790" stroke-width="0.6" stroke-linecap="round" stroke-linejoin="round"/>
<path d="M3.30829 26.3H64.6917C64.6945 26.3946 64.6972 26.5099 64.6987 26.6418C64.7031 27.0258 64.6977 27.5469 64.6588 28.0978C64.6197 28.6504 64.5476 29.2237 64.4215 29.7155C64.3085 30.156 64.1615 30.4933 63.987 30.7H4.01302C3.83853 30.4933 3.69148 30.156 3.57853 29.7155C3.45243 29.2237 3.38028 28.6504 3.34123 28.0978C3.30231 27.5469 3.29689 27.0258 3.30128 26.6418C3.30279 26.5099 3.30545 26.3946 3.30829 26.3Z" fill="#B0ADA7" stroke="#9A9790" stroke-width="0.6" stroke-linecap="round" stroke-linejoin="round"/>
<path d="M1.69969 18.3H66.3003C67.0652 18.3 67.7 18.9408 67.7 19.7497V24.2503C67.7 25.0592 67.0652 25.7 66.3003 25.7H1.69969C0.934797 25.7 0.3 25.0592 0.3 24.2503V19.7497C0.3 18.9408 0.934797 18.3 1.69969 18.3Z" fill="#D7D2CB" stroke="#B0ACA5" stroke-width="0.6"/>
<path d="M43.6797 31.0488C43.6692 36.4349 39.3249 40.7977 33.9807 40.7977C28.6364 40.7977 24.3091 36.4349 24.3195 31.0488C24.33 25.6628 28.6743 21.3 34.0186 21.3C39.3628 21.3 43.6902 25.6628 43.6797 31.0488Z" fill="#F3FF70" stroke="#FDFFCC" stroke-width="0.6"/>
<mask id="mask0_2097_6185" style="mask-type:luminance" maskUnits="userSpaceOnUse" x="24" y="21" width="20" height="20">
<path d="M33.8307 40.8356C39.26 40.8356 43.6614 36.3953 43.6614 30.9178C43.6614 25.4404 39.26 21 33.8307 21C28.4013 21 24 25.4404 24 30.9178C24 36.3953 28.4013 40.8356 33.8307 40.8356Z" fill="white"/>
</mask>
<g mask="url(#mask0_2097_6185)">
<path d="M23.8711 33.6006L38.1254 21.2036" stroke="#FDFFCC" stroke-width="2" stroke-miterlimit="10"/>
<path d="M27.0586 37.8035L41.8042 25.104" stroke="#FDFFCC" stroke-width="6" stroke-miterlimit="10"/>
</g>
</g>
<defs>
<clipPath id="clip0_2097_6185">
<rect width="68" height="58" fill="white" transform="translate(0 0.513672)"/>
</clipPath>
</defs>
</svg>
