<svg width="68" height="59" viewBox="0 0 68 59" fill="none" xmlns="http://www.w3.org/2000/svg">
<g clip-path="url(#clip0_2093_7255)">
<path d="M25.1317 2.72754C27.1426 3.07968 29.1936 3.43563 31.2437 3.79785C33.7882 4.24721 36.3301 4.71541 38.8783 5.14214C39.5082 5.24723 39.9333 5.49982 40.2728 6.06704C41.8882 8.76673 43.5679 11.427 45.1647 14.1372C45.4135 14.5592 45.4983 15.1991 45.3998 15.6858C45.0359 17.4885 44.5921 19.2767 44.1108 21.0517C44.0028 21.4511 43.6966 21.8992 43.3514 22.1162C40.2608 24.0584 37.1503 25.9675 34.0204 27.8442C33.6667 28.0561 33.1301 28.1422 32.7267 28.057C30.8674 27.6677 29.0184 27.2204 27.1826 26.7332C26.8114 26.6342 26.3995 26.3403 26.1963 26.0164C24.4413 23.2199 22.7212 20.4014 21.0209 17.5711C20.8526 17.2912 20.7619 16.8484 20.8525 16.5453C22.2041 12.0043 23.5911 7.47361 24.9731 2.94198C24.9892 2.88808 25.0427 2.84499 25.1323 2.72688L25.1317 2.72754Z" fill="#6DA1C1"/>
<path d="M19.8367 26.3173C18.1605 25.9988 16.451 25.6768 14.7423 25.3496C12.6209 24.9431 10.503 24.5217 8.37812 24.1337C7.85305 24.0378 7.50007 23.8214 7.22261 23.3428C5.90114 21.0642 4.52435 18.8181 3.21868 16.5316C3.01497 16.1753 2.95087 15.6395 3.0378 15.233C3.36005 13.7295 3.74902 12.2383 4.16961 10.7585C4.26444 10.4259 4.52435 10.0547 4.81498 9.87696C7.41578 8.28809 10.0341 6.72737 12.6683 5.19392C12.9651 5.02061 13.4146 4.9555 13.7509 5.03116C15.2998 5.37955 16.8399 5.77457 18.3686 6.20478C18.6777 6.29188 19.0193 6.54262 19.1852 6.81623C20.6226 9.17754 22.031 11.5564 23.4218 13.945C23.5597 14.1817 23.6308 14.553 23.5518 14.8055C22.3769 18.5894 21.1714 22.3636 19.9711 26.1405C19.957 26.1853 19.9122 26.2205 19.8358 26.3191L19.8367 26.3173Z" fill="#8DB1C7"/>
<path d="M60.2235 6.40252C60.8121 8.00422 61.4141 9.6362 62.0119 11.27C62.7536 13.2978 63.4805 15.3317 64.2398 17.3537C64.428 17.8537 64.4236 18.2664 64.1549 18.7508C62.8789 21.0526 61.6589 23.3865 60.3674 25.6801C60.1661 26.0372 59.7393 26.3678 59.3458 26.5016C57.8896 26.996 56.4099 27.4273 54.9236 27.8259C54.5894 27.9154 54.1368 27.8825 53.8349 27.724C51.1348 26.307 48.4487 24.8607 45.7791 23.388C45.4782 23.2221 45.1906 22.8702 45.0827 22.5427C44.5851 21.0345 44.1328 19.5113 43.7163 17.9791C43.6324 17.6695 43.6718 17.2478 43.8206 16.9649C45.1082 14.5208 46.4256 12.0924 47.7607 9.67434C47.8925 9.435 48.175 9.18353 48.4325 9.1216C52.284 8.18894 56.1435 7.28773 60.0009 6.38073C60.0472 6.37008 60.0997 6.39044 60.2232 6.40529L60.2235 6.40252Z" fill="#6EA4C6"/>
<path d="M42.1094 28.0218C40.4194 27.7671 38.6974 27.5092 36.975 27.2463C34.8371 26.921 32.7011 26.5787 30.5616 26.2715C30.0324 26.1956 29.6713 25.9933 29.375 25.5258C27.9634 23.3016 26.4975 21.1106 25.1013 18.8765C24.8838 18.5279 24.7984 17.9964 24.8692 17.5868C25.1327 16.0738 25.4629 14.571 25.8257 13.0776C25.907 12.742 26.1527 12.3613 26.4365 12.1736C28.9757 10.4905 31.5337 8.834 34.108 7.2044C34.399 7.02048 34.8452 6.93799 35.1847 7.00103C36.7483 7.29048 38.3043 7.62784 39.851 7.99891C40.1639 8.07386 40.5152 8.31176 40.6916 8.57865C42.2226 10.8814 43.7245 13.203 45.2103 15.5352C45.3572 15.7663 45.4429 16.1345 45.3741 16.3894C44.3473 20.2109 43.2906 24.0239 42.2383 27.8372C42.2261 27.8824 42.1828 27.9192 42.1099 28.0199L42.1094 28.0218Z" fill="#8BCBEA"/>
<path d="M39.7782 11.3815C41.2499 11.241 42.7505 11.0966 44.2514 10.9561C46.1145 10.7813 47.9787 10.621 49.8406 10.4297C50.3011 10.3826 50.644 10.4764 50.9824 10.8066C52.5934 12.3764 54.2447 13.9054 55.845 15.4861C56.0942 15.732 56.2671 16.1612 56.2849 16.5182C56.3499 17.8422 56.3573 19.1712 56.335 20.4991C56.3301 20.7975 56.1955 21.1681 55.992 21.3851C54.1722 23.3283 52.3313 25.253 50.4716 27.1581C50.262 27.3737 49.9006 27.5353 49.6029 27.554C48.231 27.6389 46.8562 27.6823 45.4829 27.6951C45.2054 27.6981 44.8645 27.5721 44.664 27.3855C42.9377 25.7749 41.2306 24.1435 39.537 22.4994C39.3696 22.3369 39.2274 22.0457 39.2371 21.8179C39.3766 18.3986 39.5439 14.9806 39.7067 11.5619C39.7083 11.5211 39.738 11.4808 39.7802 11.3813L39.7782 11.3815Z" fill="#77ACC8"/>
<path d="M10.0199 12.8958C11.4617 12.4823 12.9298 12.06 14.4005 11.6404C16.226 11.1204 18.0568 10.6128 19.8752 10.0779C20.3248 9.94504 20.6997 9.97319 21.1422 10.2318C23.2487 11.4618 25.3824 12.6451 27.4809 13.8882C27.8084 14.0817 28.114 14.468 28.2413 14.8137C28.7128 16.0938 29.1273 17.3906 29.5127 18.6909C29.5996 18.983 29.5768 19.3701 29.4381 19.6208C28.1983 21.8598 26.9312 24.0839 25.6405 26.2939C25.4947 26.5429 25.1804 26.7698 24.8863 26.8437C23.5279 27.1842 22.1555 27.4842 20.7743 27.7543C20.4951 27.8089 20.1123 27.7499 19.8541 27.6056C17.6195 26.3572 15.398 25.0851 13.1853 23.7971C12.9667 23.6695 12.734 23.4126 12.6734 23.1883C11.7664 19.824 10.8866 16.4554 10.0032 13.0867C9.9927 13.0471 10.0103 13.0023 10.0217 12.8967L10.0199 12.8958Z" fill="#7EC0DA"/>
<path d="M23.549 53.3793L23.549 53.3793L23.5486 53.3792C22.5183 53.1436 21.0666 52.8115 19.1833 51.754C17.2969 50.6948 14.9651 48.9002 12.2004 45.726L12.2004 45.726C8.75741 41.7742 7.97329 38.2753 7.33503 35.4256L7.04228 35.4912L7.33503 35.4256C7.32968 35.4017 7.32433 35.3778 7.31899 35.354C6.85262 33.2712 6.44851 31.4664 4.94385 30.3909C4.82599 30.2546 4.71328 30.0174 4.61756 29.6818C4.51923 29.337 4.44797 28.9222 4.39828 28.4812C4.31317 27.7258 4.2939 26.9172 4.30152 26.3H63.6984C63.7063 26.9171 63.6872 27.7258 63.6021 28.4812C63.5524 28.9222 63.4811 29.337 63.3827 29.6817C63.2868 30.0173 63.174 30.2546 63.0559 30.3908C61.5526 31.4653 61.1487 33.267 60.6821 35.3481L60.6647 35.4255L60.6647 35.4256C60.0264 38.2752 59.2414 41.7733 55.7993 45.726C53.0346 48.8998 50.7026 50.6943 48.8161 51.7537C46.9325 52.8114 45.4806 53.1437 44.4508 53.3793L44.4507 53.3793L44.5176 53.6718L44.4507 53.3793L44.4038 53.3901C43.7626 53.5367 43.1807 53.6698 42.7454 53.9586C42.3541 54.2181 42.0343 54.5801 41.7293 54.9253L41.7077 54.9497L41.7075 54.95C41.1811 55.5469 40.5864 56.22 39.4712 56.7548C38.3509 57.292 36.681 57.7 33.9999 57.7C31.3187 57.7 29.6485 57.2922 28.5282 56.7551C27.4129 56.2205 26.8181 55.5473 26.2924 54.9502L26.2887 54.946C25.9782 54.5928 25.6531 54.2231 25.2543 53.9586C24.819 53.6698 24.2372 53.5368 23.5959 53.3901L23.549 53.3793Z" fill="#E478E4" stroke="#BA61BA" stroke-width="0.6"/>
<path d="M26.2212 55.1857L26.222 55.1874C26.2237 55.1909 26.2268 55.1973 26.2315 55.2065C26.2409 55.2248 26.2565 55.2539 26.2792 55.2924C26.3247 55.3693 26.3986 55.4834 26.5082 55.6226C26.7273 55.9006 27.0898 56.2797 27.6546 56.662C28.7816 57.4249 30.7338 58.2137 33.9991 58.2137C37.2645 58.2137 39.2167 57.4249 40.3437 56.662C40.9085 56.2797 41.271 55.9006 41.49 55.6226C41.5997 55.4834 41.6736 55.3693 41.7191 55.2924C41.7418 55.2539 41.7574 55.2248 41.7668 55.2065C41.7691 55.2019 41.7711 55.198 41.7727 55.1948C41.7742 55.1916 41.7754 55.1891 41.7763 55.1874L41.7771 55.1857C41.7772 55.1855 41.7772 55.1854 41.7773 55.1852M26.2212 55.1857L42.0514 55.3072C41.7771 55.1857 41.7772 55.1855 41.7773 55.1852M26.2212 55.1857C26.2211 55.1855 26.2211 55.1854 26.221 55.1852C26.221 55.1852 26.221 55.1852 26.221 55.1852C26.2209 55.1851 26.2209 55.185 26.2208 55.1849L26.2206 55.1844C26.2206 55.1844 26.2206 55.1843 26.2206 55.1843C26.213 55.1674 26.2038 55.1511 26.1932 55.1359C25.4012 53.9979 25.3 52.4813 25.3 50.8539V42.9365C25.3 39.0067 28.3757 35.8137 32.1053 35.8137H35.8947C39.6251 35.8137 42.7 39.0075 42.7 42.9365V50.8539C42.7 52.433 42.5706 53.9918 41.8201 55.1162M26.2212 55.1857L41.8201 55.1162M41.7773 55.1852C41.7885 55.16 41.803 55.1368 41.8201 55.1162M41.7773 55.1852L41.8201 55.1162" fill="#D35ED3" stroke="#B851B8" stroke-width="0.6" stroke-linecap="round" stroke-linejoin="round"/>
<path d="M3.30829 26.3H64.6917C64.6945 26.3946 64.6972 26.5099 64.6987 26.6418C64.7031 27.0258 64.6977 27.5469 64.6588 28.0978C64.6197 28.6504 64.5476 29.2237 64.4215 29.7155C64.3085 30.156 64.1615 30.4933 63.987 30.7H4.01302C3.83853 30.4933 3.69148 30.156 3.57853 29.7155C3.45243 29.2237 3.38028 28.6504 3.34123 28.0978C3.30231 27.5469 3.29689 27.0258 3.30128 26.6418C3.30279 26.5099 3.30545 26.3946 3.30829 26.3Z" fill="#D35ED3" stroke="#B851B8" stroke-width="0.6" stroke-linecap="round" stroke-linejoin="round"/>
<path d="M1.69969 18.3H66.3003C67.0652 18.3 67.7 18.9408 67.7 19.7497V24.2503C67.7 25.0592 67.0652 25.7 66.3003 25.7H1.69969C0.934797 25.7 0.3 25.0592 0.3 24.2503V19.7497C0.3 18.9408 0.934797 18.3 1.69969 18.3Z" fill="#E478E4" stroke="#BA61BA" stroke-width="0.6"/>
<path d="M43.6797 31.0488C43.6692 36.4349 39.3249 40.7977 33.9807 40.7977C28.6364 40.7977 24.3091 36.4349 24.3195 31.0488C24.33 25.6628 28.6743 21.3 34.0186 21.3C39.3628 21.3 43.6902 25.6628 43.6797 31.0488Z" fill="#F3FF70" stroke="#FDFFCC" stroke-width="0.6"/>
<mask id="mask0_2093_7255" style="mask-type:luminance" maskUnits="userSpaceOnUse" x="24" y="21" width="20" height="20">
<path d="M33.8307 40.8356C39.26 40.8356 43.6614 36.3953 43.6614 30.9178C43.6614 25.4404 39.26 21 33.8307 21C28.4013 21 24 25.4404 24 30.9178C24 36.3953 28.4013 40.8356 33.8307 40.8356Z" fill="white"/>
</mask>
<g mask="url(#mask0_2093_7255)">
<path d="M23.8711 33.6006L38.1254 21.2036" stroke="#FDFFCC" stroke-width="2" stroke-miterlimit="10"/>
<path d="M27.0586 37.8035L41.8042 25.104" stroke="#FDFFCC" stroke-width="6" stroke-miterlimit="10"/>
</g>
</g>
<defs>
<clipPath id="clip0_2093_7255">
<rect width="68" height="58" fill="white" transform="translate(0 0.513672)"/>
</clipPath>
</defs>
</svg>
