<svg width="68" height="59" viewBox="0 0 68 59" fill="none" xmlns="http://www.w3.org/2000/svg">
<g clip-path="url(#clip0_2103_9673)">
<path d="M59.7817 10.6277C58.7553 9.69793 57.7568 8.73421 56.6862 7.85818C56.3582 7.58992 55.8107 7.39866 55.4023 7.45173C53.2756 7.72859 51.1579 8.07418 49.0454 8.44765C48.6598 8.51562 48.2354 8.74192 47.9692 9.02626C46.3198 10.7924 44.6984 12.5839 43.1026 14.3985C42.8436 14.6924 42.6455 15.1309 42.6157 15.5183C42.45 17.687 42.3178 19.8587 42.2436 22.0323C42.2306 22.422 42.4386 22.9367 42.7232 23.2031C44.7673 25.117 46.8462 26.9958 48.9485 28.8454C49.2219 29.0858 49.7214 29.2337 50.0814 29.1844C52.2686 28.8872 54.4485 28.5388 56.6214 28.1595C56.9754 28.0975 57.3601 27.867 57.6075 27.6002C59.2722 25.8075 60.916 23.9945 62.5351 22.159C62.7733 21.8897 62.9393 21.4755 62.9667 21.1148C63.1294 18.9462 63.2691 16.7741 63.3441 14.5997C63.3579 14.2123 63.1258 13.7147 62.8427 13.4337C61.8611 12.4593 60.8073 11.5567 59.7809 10.627L59.7817 10.6277Z" fill="#801A20"/>
<path d="M5.75721 14.3963C5.37082 15.2991 4.95523 16.1911 4.61508 17.1112C4.51096 17.3931 4.50912 17.8043 4.63901 18.0658C5.31567 19.4278 6.03636 20.7679 6.77451 22.098C6.90912 22.3408 7.15884 22.5731 7.41097 22.686C8.97596 23.384 10.5515 24.0575 12.1366 24.7085C12.3934 24.8143 12.7332 24.8459 12.9998 24.7764C14.4921 24.3868 15.9787 23.9739 17.4532 23.5218C17.7174 23.4406 18.0145 23.1823 18.1275 22.93C18.9387 21.1175 19.7184 19.2899 20.473 17.4532C20.5711 17.2145 20.5549 16.8454 20.4387 16.6154C19.7345 15.2176 18.9975 13.8365 18.2415 12.4671C18.1182 12.2441 17.8748 12.0394 17.6389 11.9351C16.0525 11.2329 14.4574 10.5494 12.8529 9.88766C12.6173 9.79015 12.3013 9.77451 12.0532 9.83941C10.5616 10.231 9.07304 10.6389 7.59785 11.0907C7.3349 11.1708 7.05486 11.4414 6.93183 11.6961C6.50518 12.5792 6.14331 13.4941 5.75691 14.397L5.75721 14.3963Z" fill="#962A31"/>
<path d="M30.0351 24.0286C31.2932 23.4306 32.572 22.8713 33.7972 22.2116C34.1724 22.0095 34.5604 21.5744 34.6681 21.1751C35.228 19.0959 35.7206 16.9988 36.1853 14.8959C36.2703 14.5121 36.2231 14.032 36.0613 13.6764C35.0543 11.4724 34.0131 9.28472 32.9406 7.11188C32.7671 6.75952 32.4359 6.40846 32.0874 6.23311C30.1365 5.2525 28.1698 4.30193 26.1792 3.40435C25.8222 3.24376 25.2642 3.24053 24.9073 3.40307C22.344 4.57054 19.8 5.78352 17.2741 7.02948C16.9457 7.19152 16.6164 7.59876 16.5239 7.95163C15.9596 10.0947 15.4458 12.2506 14.9632 14.4119C14.8848 14.764 14.9511 15.2089 15.1039 15.5402C16.1296 17.7686 17.1823 19.9853 18.2652 22.1877C18.4239 22.5114 18.7449 22.8234 19.0694 22.9863C21.0214 23.9641 22.9855 24.9218 24.9766 25.8204C25.3312 25.9809 25.8826 25.9552 26.2524 25.7996C27.5347 25.2601 28.7781 24.6262 30.0361 24.0282L30.0351 24.0286Z" fill="#95262D"/>
<path d="M22.9161 24.249C23.7302 24.5392 24.5364 24.8556 25.3631 25.1044C25.6164 25.1805 25.9776 25.1601 26.2001 25.0323C27.3585 24.3666 28.4952 23.6636 29.6223 22.9457C29.8281 22.8148 30.0182 22.5836 30.1034 22.3567C30.6297 20.9483 31.1338 19.5321 31.6177 18.1086C31.6963 17.8779 31.7053 17.5786 31.6295 17.3487C31.2048 16.0622 30.76 14.782 30.2814 13.5144C30.1954 13.2873 29.9522 13.0408 29.7244 12.9554C28.0881 12.3417 26.4402 11.7564 24.7857 11.1935C24.5706 11.1204 24.2475 11.1543 24.052 11.2684C22.8636 11.9602 21.6917 12.6797 20.5312 13.4153C20.3422 13.5352 20.1759 13.7594 20.0974 13.9717C19.5687 15.399 19.0568 16.833 18.5645 18.274C18.4919 18.4856 18.4957 18.7633 18.5664 18.9772C18.9929 20.263 19.4334 21.5452 19.9117 22.8134C19.9967 23.0395 20.2497 23.2703 20.4801 23.3645C21.2792 23.691 22.1026 23.9591 22.9167 24.2493L22.9161 24.249Z" fill="#7E2126"/>
<path d="M40.2381 4.6171C38.8165 4.59686 37.3933 4.53051 35.974 4.58337C35.5392 4.59966 34.9876 4.829 34.7087 5.1544C33.2572 6.84915 31.8591 8.59187 30.484 10.3529C30.2329 10.6742 30.0592 11.1472 30.0468 11.5562C29.973 14.0935 29.938 16.6312 29.9384 19.1695C29.938 19.5809 30.0826 20.0641 30.3223 20.3902C31.6652 22.2146 33.0359 24.0181 34.4526 25.783C34.7068 26.0991 35.2161 26.3604 35.6162 26.3728C38.4897 26.4621 41.3661 26.4997 44.2408 26.4979C44.6145 26.4976 45.0999 26.2673 45.3439 25.9785C46.8284 24.2258 48.2724 22.4376 49.6902 20.63C49.921 20.3354 50.0612 19.8866 50.0711 19.5045C50.1386 16.9357 50.1763 14.3654 50.1797 11.7946C50.1807 11.4169 50.0278 10.9752 49.8043 10.6718C48.4592 8.84958 47.0941 7.04054 45.6774 5.2746C45.4254 4.95963 44.909 4.72858 44.5003 4.70365C43.0829 4.61714 41.6586 4.63733 40.237 4.61709L40.2381 4.6171Z" fill="#721D22"/>
<path d="M37.8148 24.7603C38.6735 25.1698 39.5205 25.6071 40.3977 25.9726C40.6664 26.0845 41.0642 26.1029 41.3222 25.9881C42.6655 25.3898 43.9894 24.7481 45.3044 24.0892C45.5444 23.969 45.7787 23.7373 45.8975 23.4985C46.6325 22.0157 47.3441 20.5219 48.0343 19.0178C48.1464 18.7741 48.1899 18.4474 48.1329 18.1872C47.8129 16.7307 47.4702 15.2788 47.089 13.837C47.0205 13.5786 46.782 13.2814 46.5421 13.1622C44.8197 12.3058 43.0814 11.4793 41.3333 10.6765C41.1061 10.5722 40.7484 10.5729 40.5215 10.6758C39.1424 11.2992 37.7781 11.955 36.4246 12.6296C36.2041 12.7396 35.9968 12.9663 35.8869 13.1899C35.1471 14.6931 34.4251 16.2055 33.7237 17.7278C33.6204 17.9513 33.5932 18.2558 33.6465 18.498C33.9685 19.9538 34.3063 21.4074 34.6871 22.8498C34.7546 23.1069 35.0057 23.3882 35.2474 23.5173C36.0854 23.9649 36.9568 24.3512 37.8155 24.7607L37.8148 24.7603Z" fill="#8F171F"/>
<path d="M23.549 53.3793L23.549 53.3793L23.5486 53.3792C22.5183 53.1436 21.0666 52.8115 19.1833 51.754C17.2969 50.6948 14.9651 48.9002 12.2004 45.726L12.2004 45.726C8.75741 41.7742 7.97329 38.2753 7.33503 35.4256L7.04228 35.4912L7.33503 35.4256C7.32968 35.4017 7.32433 35.3778 7.319 35.354C6.85262 33.2712 6.44851 31.4664 4.94385 30.3909C4.82599 30.2546 4.71328 30.0174 4.61756 29.6818C4.51923 29.337 4.44797 28.9222 4.39828 28.4812C4.31317 27.7258 4.2939 26.9172 4.30152 26.3H63.6984C63.7063 26.9171 63.6872 27.7258 63.6021 28.4812C63.5524 28.9222 63.4811 29.337 63.3827 29.6817C63.2868 30.0173 63.174 30.2546 63.0559 30.3908C61.5526 31.4653 61.1487 33.267 60.6821 35.3481L60.6647 35.4255L60.6647 35.4256C60.0264 38.2752 59.2415 41.7733 55.7993 45.726C53.0346 48.8998 50.7026 50.6943 48.8161 51.7537C46.9325 52.8114 45.4806 53.1437 44.4508 53.3793L44.4507 53.3793L44.5176 53.6718L44.4507 53.3793L44.4038 53.3901C43.7626 53.5367 43.1807 53.6698 42.7454 53.9586C42.3541 54.2181 42.0342 54.5802 41.7292 54.9254L41.7077 54.9497L41.7075 54.95C41.1811 55.5469 40.5864 56.22 39.4712 56.7548C38.3509 57.292 36.681 57.7 33.9999 57.7C31.3187 57.7 29.6485 57.2922 28.5282 56.7551C27.4129 56.2205 26.8181 55.5473 26.2924 54.9502L26.2887 54.946C25.9782 54.5928 25.6532 54.2231 25.2543 53.9586C24.819 53.6698 24.2372 53.5367 23.5959 53.3901L23.549 53.3793Z" fill="#75E391" stroke="#63BF7A" stroke-width="0.6"/>
<path d="M26.2212 55.1857L26.222 55.1874C26.2237 55.1909 26.2268 55.1973 26.2315 55.2065C26.2409 55.2248 26.2565 55.2539 26.2792 55.2924C26.3247 55.3693 26.3986 55.4834 26.5082 55.6226C26.7273 55.9006 27.0898 56.2797 27.6546 56.662C28.7816 57.4249 30.7338 58.2137 33.9991 58.2137C37.2645 58.2137 39.2167 57.4249 40.3437 56.662C40.9085 56.2797 41.271 55.9006 41.49 55.6226C41.5997 55.4834 41.6736 55.3693 41.7191 55.2924C41.7418 55.2539 41.7574 55.2248 41.7668 55.2065C41.7691 55.2019 41.7711 55.198 41.7727 55.1948C41.7742 55.1916 41.7754 55.1891 41.7763 55.1874L41.7771 55.1857C41.7772 55.1855 41.7772 55.1854 41.7773 55.1852M26.2212 55.1857L42.0514 55.3072C41.7771 55.1857 41.7772 55.1855 41.7773 55.1852M26.2212 55.1857C26.2211 55.1855 26.2211 55.1854 26.221 55.1852C26.221 55.1852 26.221 55.1852 26.221 55.1852C26.2209 55.1851 26.2209 55.185 26.2208 55.1849L26.2206 55.1844C26.2206 55.1844 26.2206 55.1843 26.2206 55.1843C26.213 55.1674 26.2038 55.1511 26.1932 55.1359C25.4012 53.9979 25.3 52.4813 25.3 50.8539V42.9365C25.3 39.0067 28.3757 35.8137 32.1053 35.8137H35.8947C39.6251 35.8137 42.7 39.0075 42.7 42.9365V50.8539C42.7 52.433 42.5706 53.9918 41.8201 55.1162M26.2212 55.1857L41.8201 55.1162M41.7773 55.1852C41.7885 55.16 41.803 55.1368 41.8201 55.1162M41.7773 55.1852L41.8201 55.1162" fill="#58BA71" stroke="#4A9F60" stroke-width="0.6" stroke-linecap="round" stroke-linejoin="round"/>
<path d="M3.30829 26.3H64.6917C64.6945 26.3946 64.6972 26.5099 64.6987 26.6418C64.7031 27.0258 64.6977 27.5469 64.6588 28.0978C64.6197 28.6504 64.5476 29.2237 64.4215 29.7155C64.3085 30.156 64.1615 30.4933 63.987 30.7H4.01302C3.83853 30.4933 3.69148 30.156 3.57853 29.7155C3.45243 29.2237 3.38028 28.6504 3.34123 28.0978C3.30231 27.5469 3.29689 27.0258 3.30128 26.6418C3.30279 26.5099 3.30545 26.3946 3.30829 26.3Z" fill="#58BA71" stroke="#4A9F60" stroke-width="0.6" stroke-linecap="round" stroke-linejoin="round"/>
<path d="M1.69969 18.3H66.3003C67.0652 18.3 67.7 18.9408 67.7 19.7497V24.2503C67.7 25.0592 67.0652 25.7 66.3003 25.7H1.69969C0.934797 25.7 0.3 25.0592 0.3 24.2503V19.7497C0.3 18.9408 0.934797 18.3 1.69969 18.3Z" fill="#75E391" stroke="#63BF7A" stroke-width="0.6"/>
<path d="M43.6797 31.0488C43.6692 36.4349 39.3249 40.7977 33.9807 40.7977C28.6364 40.7977 24.3091 36.4349 24.3195 31.0488C24.33 25.6628 28.6743 21.3 34.0186 21.3C39.3628 21.3 43.6902 25.6628 43.6797 31.0488Z" fill="#F3FF70" stroke="#FDFFCC" stroke-width="0.6"/>
<mask id="mask0_2103_9673" style="mask-type:luminance" maskUnits="userSpaceOnUse" x="24" y="21" width="20" height="20">
<path d="M33.8307 40.8356C39.26 40.8356 43.6614 36.3953 43.6614 30.9178C43.6614 25.4404 39.26 21 33.8307 21C28.4013 21 24 25.4404 24 30.9178C24 36.3953 28.4013 40.8356 33.8307 40.8356Z" fill="white"/>
</mask>
<g mask="url(#mask0_2103_9673)">
<path d="M23.8711 33.6006L38.1254 21.2036" stroke="#FDFFCC" stroke-width="2" stroke-miterlimit="10"/>
<path d="M27.0586 37.8035L41.8042 25.104" stroke="#FDFFCC" stroke-width="6" stroke-miterlimit="10"/>
</g>
</g>
<defs>
<clipPath id="clip0_2103_9673">
<rect width="68" height="58" fill="white" transform="translate(0 0.513672)"/>
</clipPath>
</defs>
</svg>
