<svg width="68" height="59" viewBox="0 0 68 59" fill="none" xmlns="http://www.w3.org/2000/svg">
<g clip-path="url(#clip0_2103_9616)">
<path d="M25.1996 5.04965C26.6889 7.27252 28.1134 9.36894 29.492 11.4958C29.6574 11.7504 29.6543 12.1894 29.5933 12.5186C28.5455 18.1783 27.8644 23.9367 26.7748 29.5885C25.7771 30.2604 25.2977 30.6427 24.7033 31.059C22.71 32.5144 21.8033 33.296 19.6114 34.9199C18.8117 33.7214 17.9145 32.1371 17.458 31.2698C16.9776 30.3579 15.4442 27.3752 15.4442 27.3752C15.4442 27.3752 15.5436 26.1729 15.9056 24.2489C16.7552 19.7339 17.5288 15.2746 18.344 10.787C18.617 9.33634 18.5753 9.6919 19.3725 9.13362C21.2966 7.832 23.1826 6.47071 25.1982 5.05146L25.1996 5.04965Z" fill="#A67992"/>
<path d="M6.33524 9.92545C8.99812 10.1746 11.5221 10.3942 14.0407 10.6685C14.3424 10.701 14.6806 10.9806 14.8973 11.2357C18.6219 15.6208 22.6545 19.784 26.3466 24.1965C26.2374 25.3938 26.231 26.0067 26.1784 26.7302C26.0479 29.1937 26.0812 30.3899 25.9558 33.1138C24.5222 32.9769 22.728 32.6719 21.7676 32.4782C20.7577 32.2748 17.4781 31.5801 17.4781 31.5801C17.4781 31.5801 16.6091 30.744 15.3467 29.2488C12.384 25.74 9.41656 22.3252 6.4535 18.8604C5.5016 17.733 5.75079 17.9898 5.82145 17.0195C6.02744 14.7067 6.16316 12.3857 6.33579 9.92763L6.33524 9.92545Z" fill="#885C75"/>
<path d="M56.4009 2.38816C56.8166 5.78593 57.2315 9.00182 57.5763 12.2264C57.618 12.6125 57.3611 13.1138 57.1016 13.4564C52.6404 19.3439 48.5404 25.5542 44.0361 31.4089C42.5105 31.6092 41.7431 31.7736 40.8249 31.9113C37.7117 32.441 36.2265 32.8191 32.7894 33.4284C32.569 31.5983 32.4602 29.2704 32.44 28.0158C32.4185 26.6965 32.3909 22.4027 32.3909 22.4027C32.3909 22.4027 33.1982 21.0817 34.7213 19.0836C38.2959 14.3945 41.7518 9.72589 45.2713 5.04867C46.4198 3.54208 46.167 3.9257 47.3984 3.74113C50.3439 3.34813 53.2805 2.865 56.3984 2.38946L56.4009 2.38816Z" fill="#774F66"/>
<path d="M28.1748 3.65643C30.717 4.57871 33.1309 5.43658 35.5255 6.34676C35.8124 6.45542 36.0721 6.81516 36.2192 7.12002C38.7465 12.3598 41.6319 17.4611 44.1204 22.7195C43.7086 23.8633 43.5462 24.4614 43.3103 25.156C42.5549 27.5333 42.2828 28.7123 41.4662 31.3458C40.0982 30.8465 38.4202 30.091 37.5298 29.6567C36.5934 29.2004 33.5612 27.685 33.5612 27.685C33.5612 27.685 32.9239 26.6455 32.0695 24.8608C30.0644 20.6725 28.0307 16.575 26.0141 12.4296C25.3698 11.0839 25.5482 11.3987 25.8646 10.4673C26.6554 8.25659 27.3796 6.02 28.1747 3.65871L28.1748 3.65643Z" fill="#AA6B8F"/>
<path d="M66.1486 10.6891C66.0302 13.0506 65.9327 15.2882 65.7865 17.5231C65.7693 17.7908 65.5353 18.1002 65.3183 18.3013C61.5876 21.7584 58.0646 25.4791 54.3084 28.9084C53.2467 28.8577 52.7052 28.8755 52.0642 28.8566C49.8834 28.8354 48.8282 28.9106 46.4176 28.9039C46.4838 27.6324 46.6846 26.0361 46.819 25.1805C46.9601 24.2807 47.4484 21.3576 47.4484 21.3576C47.4484 21.3576 48.1537 20.5582 49.426 19.3861C52.4119 16.6354 55.3146 13.8842 58.2616 11.1348C59.221 10.251 59.0037 10.4809 59.8633 10.5063C61.9139 10.5999 63.9691 10.6311 66.1466 10.6897L66.1486 10.6891Z" fill="#A97B95"/>
<path d="M42.7885 10.9233C44.6429 11.6053 46.4037 12.2397 48.1503 12.9123C48.3596 12.9926 48.5482 13.2562 48.6547 13.4794C50.4844 17.3156 52.5762 21.0518 54.3775 24.9014C54.073 25.7358 53.9524 26.1722 53.7779 26.6789C53.2185 28.4134 53.0159 29.2738 52.4109 31.1952C51.413 30.8261 50.1895 30.2688 49.5404 29.9487C48.8577 29.6123 46.6472 28.4956 46.6472 28.4956C46.6472 28.4956 46.185 27.7341 45.5664 26.4275C44.1149 23.3611 42.6421 20.361 41.182 17.3261C40.7156 16.3409 40.8449 16.5714 41.079 15.8919C41.6638 14.2793 42.2 12.6476 42.7885 10.925L42.7885 10.9233Z" fill="#A57E94"/>
<path d="M23.549 53.3793L23.549 53.3793L23.5486 53.3792C22.5183 53.1436 21.0666 52.8115 19.1833 51.754C17.2969 50.6948 14.9651 48.9002 12.2004 45.726L12.2004 45.726C8.75741 41.7742 7.97329 38.2753 7.33503 35.4256L7.04228 35.4912L7.33503 35.4256C7.32968 35.4017 7.32433 35.3778 7.31899 35.354C6.85262 33.2712 6.44851 31.4664 4.94385 30.3909C4.82599 30.2546 4.71328 30.0174 4.61756 29.6818C4.51923 29.337 4.44797 28.9222 4.39828 28.4812C4.31317 27.7258 4.2939 26.9172 4.30152 26.3H63.6984C63.7063 26.9171 63.6872 27.7258 63.6021 28.4812C63.5524 28.9222 63.4811 29.337 63.3827 29.6817C63.2868 30.0173 63.174 30.2546 63.0559 30.3908C61.5526 31.4653 61.1487 33.267 60.6821 35.3481L60.6647 35.4255L60.6647 35.4256C60.0264 38.2752 59.2414 41.7733 55.7993 45.726C53.0346 48.8998 50.7026 50.6943 48.8161 51.7537C46.9325 52.8114 45.4806 53.1437 44.4508 53.3793L44.4507 53.3793L44.5176 53.6718L44.4507 53.3793L44.4038 53.3901C43.7626 53.5367 43.1807 53.6698 42.7454 53.9586C42.3541 54.2181 42.0343 54.5801 41.7293 54.9253L41.7077 54.9497L41.7075 54.95C41.1811 55.5469 40.5864 56.22 39.4712 56.7548C38.3509 57.292 36.681 57.7 33.9999 57.7C31.3187 57.7 29.6485 57.2922 28.5282 56.7551C27.4129 56.2205 26.8181 55.5473 26.2924 54.9502L26.2887 54.946C25.9782 54.5928 25.6531 54.2231 25.2543 53.9586C24.819 53.6698 24.2372 53.5368 23.5959 53.3901L23.549 53.3793Z" fill="#7B63B1" stroke="#665294" stroke-width="0.6"/>
<path d="M26.2212 55.1857L26.222 55.1874C26.2237 55.1909 26.2268 55.1973 26.2315 55.2065C26.2409 55.2248 26.2565 55.2539 26.2792 55.2924C26.3247 55.3693 26.3986 55.4834 26.5082 55.6226C26.7273 55.9006 27.0898 56.2797 27.6546 56.662C28.7816 57.4249 30.7338 58.2137 33.9991 58.2137C37.2645 58.2137 39.2167 57.4249 40.3437 56.662C40.9085 56.2797 41.271 55.9006 41.49 55.6226C41.5997 55.4834 41.6736 55.3693 41.7191 55.2924C41.7418 55.2539 41.7574 55.2248 41.7668 55.2065C41.7691 55.2019 41.7711 55.198 41.7727 55.1948C41.7742 55.1916 41.7754 55.1891 41.7763 55.1874L41.7771 55.1857C41.7772 55.1855 41.7772 55.1854 41.7773 55.1852M26.2212 55.1857L42.0514 55.3072C41.7771 55.1857 41.7772 55.1855 41.7773 55.1852M26.2212 55.1857C26.2211 55.1855 26.2211 55.1854 26.221 55.1852C26.221 55.1852 26.221 55.1852 26.221 55.1852C26.2209 55.1851 26.2209 55.185 26.2208 55.1849L26.2206 55.1844C26.2206 55.1844 26.2206 55.1843 26.2206 55.1843C26.213 55.1674 26.2038 55.1511 26.1932 55.1359C25.4012 53.9979 25.3 52.4813 25.3 50.8539V42.9365C25.3 39.0067 28.3757 35.8137 32.1053 35.8137H35.8947C39.6251 35.8137 42.7 39.0075 42.7 42.9365V50.8539C42.7 52.433 42.5706 53.9918 41.8201 55.1162M26.2212 55.1857L41.8201 55.1162M41.7773 55.1852C41.7885 55.16 41.803 55.1368 41.8201 55.1162M41.7773 55.1852L41.8201 55.1162" fill="#5D488A" stroke="#4B3A71" stroke-width="0.6" stroke-linecap="round" stroke-linejoin="round"/>
<path d="M3.30829 26.3H64.6917C64.6945 26.3946 64.6972 26.5099 64.6987 26.6418C64.7031 27.0258 64.6977 27.5469 64.6588 28.0978C64.6197 28.6504 64.5476 29.2237 64.4215 29.7155C64.3085 30.156 64.1615 30.4933 63.987 30.7H4.01302C3.83853 30.4933 3.69148 30.156 3.57853 29.7155C3.45243 29.2237 3.38028 28.6504 3.34123 28.0978C3.30231 27.5469 3.29689 27.0258 3.30128 26.6418C3.30279 26.5099 3.30545 26.3946 3.30829 26.3Z" fill="#5D498A" stroke="#4B3A71" stroke-width="0.6" stroke-linecap="round" stroke-linejoin="round"/>
<path d="M1.69969 18.3H66.3003C67.0652 18.3 67.7 18.9408 67.7 19.7497V24.2503C67.7 25.0592 67.0652 25.7 66.3003 25.7H1.69969C0.934797 25.7 0.3 25.0592 0.3 24.2503V19.7497C0.3 18.9408 0.934797 18.3 1.69969 18.3Z" fill="#7B63B1" stroke="#665294" stroke-width="0.6"/>
<path d="M43.6797 31.0488C43.6692 36.4349 39.3249 40.7977 33.9807 40.7977C28.6364 40.7977 24.3091 36.4349 24.3195 31.0488C24.33 25.6628 28.6743 21.3 34.0186 21.3C39.3628 21.3 43.6902 25.6628 43.6797 31.0488Z" fill="#F3FF70" stroke="#FDFFCC" stroke-width="0.6"/>
<mask id="mask0_2103_9616" style="mask-type:luminance" maskUnits="userSpaceOnUse" x="24" y="21" width="20" height="20">
<path d="M33.8307 40.8356C39.26 40.8356 43.6614 36.3953 43.6614 30.9178C43.6614 25.4404 39.26 21 33.8307 21C28.4013 21 24 25.4404 24 30.9178C24 36.3953 28.4013 40.8356 33.8307 40.8356Z" fill="white"/>
</mask>
<g mask="url(#mask0_2103_9616)">
<path d="M23.8711 33.6006L38.1254 21.2036" stroke="#FDFFCC" stroke-width="2" stroke-miterlimit="10"/>
<path d="M27.0586 37.8035L41.8042 25.104" stroke="#FDFFCC" stroke-width="6" stroke-miterlimit="10"/>
</g>
</g>
<defs>
<clipPath id="clip0_2103_9616">
<rect width="68" height="58" fill="white" transform="translate(0 0.513672)"/>
</clipPath>
</defs>
</svg>
