<svg width="68" height="59" viewBox="0 0 68 59" fill="none" xmlns="http://www.w3.org/2000/svg">
<g clip-path="url(#clip0_2103_9540)">
<path d="M18.8342 26.9539C17.5836 27.5503 16.35 28.1871 15.0725 28.7194C14.6811 28.8824 14.1018 28.9092 13.7261 28.7419C11.7696 27.8706 9.84149 26.9361 7.92645 25.9764C7.57683 25.8014 7.23567 25.464 7.06261 25.1161C5.99222 22.9567 4.95586 20.781 3.95062 18.5905C3.78735 18.2356 3.72394 17.7598 3.80701 17.3808C4.27308 15.2596 4.77221 13.1451 5.32728 11.0453C5.42711 10.669 5.7745 10.2361 6.12377 10.0624C8.63235 8.81526 11.164 7.61148 13.7098 6.44235C14.0408 6.29041 14.5617 6.29148 14.8922 6.44131C16.9007 7.34929 18.8875 8.30429 20.8588 9.2868C21.1799 9.44701 21.4818 9.77719 21.6419 10.1029C22.7193 12.292 23.7709 14.4947 24.7924 16.7117C24.9429 17.0373 24.9825 17.4807 24.9048 17.8335C24.4359 19.9537 23.9439 22.0707 23.3893 24.1715C23.291 24.5459 22.9253 24.9555 22.5733 25.1435C21.3528 25.7953 20.0838 26.358 18.8332 26.9543L18.8342 26.9539Z" fill="#8F171F"/>
<path d="M50.7417 19.4525C50.2174 18.5254 49.6629 17.6133 49.1863 16.6621C49.0403 16.3707 48.9888 15.9278 49.0969 15.6307C49.6605 14.0836 50.274 12.5549 50.9074 11.0348C51.0229 10.7573 51.2635 10.4776 51.521 10.3263C53.1198 9.38975 54.7329 8.47848 56.359 7.59029C56.6225 7.44607 56.984 7.37197 57.2791 7.41539C58.9308 7.65929 60.5792 7.92889 62.2193 8.24218C62.5133 8.2986 62.8639 8.54185 63.0158 8.80042C64.1065 10.6576 65.1653 12.5347 66.1982 14.4246C66.3324 14.6703 66.3595 15.0698 66.2623 15.3313C65.6734 16.9203 65.0474 18.4952 64.3994 20.0596C64.2937 20.3144 64.0566 20.5636 63.8154 20.7038C62.1942 21.6473 60.5612 22.5717 58.9156 23.4738C58.674 23.6066 58.336 23.6607 58.0613 23.62C56.4102 23.3739 54.7602 23.1099 53.1194 22.797C52.827 22.7416 52.4932 22.4832 52.3303 22.2233C51.765 21.3221 51.2656 20.379 50.7413 19.4518L50.7417 19.4525Z" fill="#7E2126"/>
<path d="M53.7137 18.9512C52.8436 19.7872 51.9986 20.6519 51.0887 21.4423C50.81 21.6843 50.3385 21.8653 49.9821 21.8301C48.126 21.6466 46.276 21.403 44.43 21.135C44.093 21.0863 43.7184 20.901 43.48 20.6609C42.003 19.1696 40.5497 17.6556 39.118 16.1208C38.8857 15.8723 38.7028 15.4964 38.6675 15.1604C38.471 13.2793 38.3035 11.3947 38.1864 9.50684C38.1657 9.16842 38.3341 8.71534 38.5752 8.47601C40.3065 6.75714 42.0689 5.0678 43.8524 3.40321C44.0843 3.18685 44.5151 3.04486 44.8294 3.07806C46.7385 3.27764 48.6427 3.52205 50.5415 3.79345C50.8508 3.83781 51.1909 4.02791 51.4125 4.25318C52.9035 5.7671 54.3768 7.29925 55.8292 8.85154C56.0429 9.07933 56.1972 9.43499 56.2298 9.74784C56.4237 11.6289 56.5977 13.5136 56.7155 15.4021C56.7369 15.7385 56.5471 16.1774 56.3077 16.4293C55.4776 17.3029 54.5831 18.1159 53.713 18.9519L53.7137 18.9512Z" fill="#95262D"/>
<path d="M24.6009 5.36698C25.532 4.61431 26.4408 3.83097 27.4075 3.12682C27.7037 2.9112 28.1856 2.77271 28.5356 2.83837C30.3578 3.18073 32.169 3.58198 33.9743 4.00703C34.3039 4.08445 34.6592 4.30041 34.8753 4.5588C36.2131 6.16352 37.5256 7.78872 38.815 9.43265C39.0242 9.69891 39.1739 10.087 39.1808 10.4229C39.2185 12.303 39.227 14.184 39.1854 16.0639C39.1777 16.4008 38.9731 16.835 38.7145 17.0512C36.857 18.6039 34.9712 20.1246 33.0666 21.619C32.8189 21.8132 32.3805 21.9166 32.0722 21.8565C30.1987 21.4937 28.3339 21.087 26.4767 20.654C26.1741 20.5833 25.8533 20.3656 25.6527 20.1233C24.3029 18.4949 22.9721 16.85 21.6637 15.187C21.4712 14.9429 21.348 14.5773 21.3419 14.2646C21.3069 12.3848 21.2919 10.5031 21.3328 8.62249C21.3397 8.28741 21.5643 7.86915 21.8223 7.64036C22.7169 6.847 23.6705 6.11906 24.6016 5.36639L24.6009 5.36698Z" fill="#801A20"/>
<path d="M27.3014 14.3972C27.6878 15.3001 28.1034 16.192 28.4435 17.1122C28.5476 17.394 28.5495 17.8052 28.4196 18.0668C27.7429 19.4288 27.0222 20.7688 26.2841 22.099C26.1495 22.3418 25.8998 22.5741 25.6476 22.687C24.0826 23.385 22.5071 24.0585 20.922 24.7095C20.6652 24.8152 20.3254 24.8468 20.0588 24.7774C18.5665 24.3878 17.0799 23.9749 15.6054 23.5228C15.3412 23.4415 15.0441 23.1833 14.9311 22.9309C14.1199 21.1185 13.3402 19.2909 12.5856 17.4542C12.4875 17.2154 12.5037 16.8464 12.6199 16.6164C13.3241 15.2186 14.0611 13.8375 14.8171 12.4681C14.9404 12.2451 15.1837 12.0404 15.4197 11.9361C17.0061 11.2339 18.6012 10.5504 20.2057 9.88864C20.4413 9.79113 20.7573 9.77548 21.0054 9.84039C22.497 10.232 23.9856 10.6399 25.4607 11.0916C25.7237 11.1718 26.0037 11.4424 26.1268 11.697C26.5534 12.5801 26.9153 13.4951 27.3017 14.3979L27.3014 14.3972Z" fill="#962A31"/>
<path d="M40.4054 11.2505C41.454 10.9061 42.4931 10.5272 43.557 10.2376C43.8829 10.1489 44.3448 10.1911 44.6268 10.3676C46.0949 11.287 47.5345 12.2543 48.9614 13.2406C49.2219 13.4204 49.4602 13.7307 49.5642 14.0309C50.2066 15.8937 50.8205 17.7659 51.4083 19.6467C51.5038 19.9515 51.5087 20.343 51.4066 20.6401C50.8343 22.303 50.2365 23.9569 49.5957 25.5927C49.4806 25.8858 49.1637 26.1974 48.8702 26.2993C46.7618 27.0312 44.6393 27.7254 42.5089 28.3901C42.2319 28.4764 41.8189 28.4183 41.5712 28.2608C40.0653 27.3061 38.581 26.3157 37.1118 25.3048C36.8725 25.14 36.6647 24.84 36.5688 24.5592C35.9237 22.6715 35.3002 20.7758 34.7021 18.8717C34.6139 18.5921 34.6249 18.2294 34.7202 17.9529C35.2946 16.2911 35.887 14.6344 36.5275 12.9978C36.6413 12.706 36.9704 12.4152 37.2674 12.302C38.2975 11.9096 39.3576 11.5945 40.4062 11.2502L40.4054 11.2505Z" fill="#721D22"/>
<path d="M23.549 53.3793L23.549 53.3793L23.5486 53.3792C22.5183 53.1436 21.0666 52.8115 19.1833 51.754C17.2969 50.6948 14.9651 48.9002 12.2004 45.726L12.2004 45.726C8.75741 41.7742 7.97329 38.2753 7.33503 35.4256L7.04228 35.4912L7.33503 35.4256C7.32968 35.4017 7.32433 35.3778 7.31899 35.354C6.85262 33.2712 6.44851 31.4664 4.94385 30.3909C4.82599 30.2546 4.71328 30.0174 4.61756 29.6818C4.51923 29.337 4.44797 28.9222 4.39828 28.4812C4.31317 27.7258 4.2939 26.9172 4.30152 26.3H63.6984C63.7063 26.9171 63.6872 27.7258 63.6021 28.4812C63.5524 28.9222 63.4811 29.337 63.3827 29.6817C63.2868 30.0173 63.174 30.2546 63.0559 30.3908C61.5526 31.4653 61.1487 33.267 60.6821 35.3481L60.6647 35.4255L60.6647 35.4256C60.0264 38.2752 59.2414 41.7733 55.7993 45.726C53.0346 48.8998 50.7026 50.6943 48.8161 51.7537C46.9325 52.8114 45.4806 53.1437 44.4508 53.3793L44.4507 53.3793L44.5176 53.6718L44.4507 53.3793L44.4038 53.3901C43.7626 53.5367 43.1807 53.6698 42.7454 53.9586C42.3541 54.2181 42.0343 54.5801 41.7293 54.9253L41.7077 54.9497L41.7075 54.95C41.1811 55.5469 40.5864 56.22 39.4712 56.7548C38.3509 57.292 36.681 57.7 33.9999 57.7C31.3187 57.7 29.6485 57.2922 28.5282 56.7551C27.4129 56.2205 26.8181 55.5473 26.2924 54.9502L26.2887 54.946C25.9782 54.5928 25.6531 54.2231 25.2543 53.9586C24.819 53.6698 24.2372 53.5368 23.5959 53.3901L23.549 53.3793Z" fill="#E478E4" stroke="#BA61BA" stroke-width="0.6"/>
<path d="M26.2212 55.1857L26.222 55.1874C26.2237 55.1909 26.2268 55.1973 26.2315 55.2065C26.2409 55.2248 26.2565 55.2539 26.2792 55.2924C26.3247 55.3693 26.3986 55.4834 26.5082 55.6226C26.7273 55.9006 27.0898 56.2797 27.6546 56.662C28.7816 57.4249 30.7338 58.2137 33.9991 58.2137C37.2645 58.2137 39.2167 57.4249 40.3437 56.662C40.9085 56.2797 41.271 55.9006 41.49 55.6226C41.5997 55.4834 41.6736 55.3693 41.7191 55.2924C41.7418 55.2539 41.7574 55.2248 41.7668 55.2065C41.7691 55.2019 41.7711 55.198 41.7727 55.1948C41.7742 55.1916 41.7754 55.1891 41.7763 55.1874L41.7771 55.1857C41.7772 55.1855 41.7772 55.1854 41.7773 55.1852M26.2212 55.1857L42.0514 55.3072C41.7771 55.1857 41.7772 55.1855 41.7773 55.1852M26.2212 55.1857C26.2211 55.1855 26.2211 55.1854 26.221 55.1852C26.221 55.1852 26.221 55.1852 26.221 55.1852C26.2209 55.1851 26.2209 55.185 26.2208 55.1849L26.2206 55.1844C26.2206 55.1844 26.2206 55.1843 26.2206 55.1843C26.213 55.1674 26.2038 55.1511 26.1932 55.1359C25.4012 53.9979 25.3 52.4813 25.3 50.8539V42.9365C25.3 39.0067 28.3757 35.8137 32.1053 35.8137H35.8947C39.6251 35.8137 42.7 39.0075 42.7 42.9365V50.8539C42.7 52.433 42.5706 53.9918 41.8201 55.1162M26.2212 55.1857L41.8201 55.1162M41.7773 55.1852C41.7885 55.16 41.803 55.1368 41.8201 55.1162M41.7773 55.1852L41.8201 55.1162" fill="#D35ED3" stroke="#B851B8" stroke-width="0.6" stroke-linecap="round" stroke-linejoin="round"/>
<path d="M3.30829 26.3H64.6917C64.6945 26.3946 64.6972 26.5099 64.6987 26.6418C64.7031 27.0258 64.6977 27.5469 64.6588 28.0978C64.6197 28.6504 64.5476 29.2237 64.4215 29.7155C64.3085 30.156 64.1615 30.4933 63.987 30.7H4.01302C3.83853 30.4933 3.69148 30.156 3.57853 29.7155C3.45243 29.2237 3.38028 28.6504 3.34123 28.0978C3.30231 27.5469 3.29689 27.0258 3.30128 26.6418C3.30279 26.5099 3.30545 26.3946 3.30829 26.3Z" fill="#D35ED3" stroke="#B851B8" stroke-width="0.6" stroke-linecap="round" stroke-linejoin="round"/>
<path d="M1.69969 18.3H66.3003C67.0652 18.3 67.7 18.9408 67.7 19.7497V24.2503C67.7 25.0592 67.0652 25.7 66.3003 25.7H1.69969C0.934797 25.7 0.3 25.0592 0.3 24.2503V19.7497C0.3 18.9408 0.934797 18.3 1.69969 18.3Z" fill="#E478E4" stroke="#BA61BA" stroke-width="0.6"/>
<path d="M43.6797 31.0488C43.6692 36.4349 39.3249 40.7977 33.9807 40.7977C28.6364 40.7977 24.3091 36.4349 24.3195 31.0488C24.33 25.6628 28.6743 21.3 34.0186 21.3C39.3628 21.3 43.6902 25.6628 43.6797 31.0488Z" fill="#F3FF70" stroke="#FDFFCC" stroke-width="0.6"/>
<mask id="mask0_2103_9540" style="mask-type:luminance" maskUnits="userSpaceOnUse" x="24" y="21" width="20" height="20">
<path d="M33.8307 40.8356C39.26 40.8356 43.6614 36.3953 43.6614 30.9178C43.6614 25.4404 39.26 21 33.8307 21C28.4013 21 24 25.4404 24 30.9178C24 36.3953 28.4013 40.8356 33.8307 40.8356Z" fill="white"/>
</mask>
<g mask="url(#mask0_2103_9540)">
<path d="M23.8711 33.6006L38.1254 21.2036" stroke="#FDFFCC" stroke-width="2" stroke-miterlimit="10"/>
<path d="M27.0586 37.8035L41.8042 25.104" stroke="#FDFFCC" stroke-width="6" stroke-miterlimit="10"/>
</g>
</g>
<defs>
<clipPath id="clip0_2103_9540">
<rect width="68" height="58" fill="white" transform="translate(0 0.513672)"/>
</clipPath>
</defs>
</svg>
