<svg width="68" height="59" viewBox="0 0 68 59" fill="none" xmlns="http://www.w3.org/2000/svg">
<g clip-path="url(#clip0_2103_9262)">
<path d="M20.8661 18.7988C20.1841 17.5928 19.463 16.4064 18.8429 15.1691C18.6531 14.7901 18.5861 14.2141 18.7267 13.8276C19.4597 11.8152 20.2577 9.82667 21.0817 7.84946C21.2319 7.4885 21.5448 7.12467 21.8798 6.92781C23.9595 5.70966 26.0577 4.52433 28.1729 3.36902C28.5155 3.18142 28.9858 3.08504 29.3696 3.14152C31.5181 3.45877 33.6623 3.80945 35.7956 4.21697C36.178 4.29036 36.634 4.60676 36.8316 4.94309C38.2504 7.35875 39.6275 9.80045 40.9711 12.2587C41.1457 12.5783 41.1809 13.098 41.0544 13.4381C40.2885 15.505 39.4742 17.5535 38.6313 19.5884C38.4938 19.9199 38.1855 20.244 37.8717 20.4264C35.7629 21.6536 33.6388 22.856 31.4983 24.0294C31.184 24.2022 30.7444 24.2726 30.3871 24.2196C28.2394 23.8995 26.0932 23.5561 23.959 23.1491C23.5786 23.0771 23.1445 22.7409 22.9324 22.4028C22.1972 21.2306 21.5476 20.0038 20.8656 18.7978L20.8661 18.7988Z" fill="#8F171F"/>
<path d="M38.3762 19.0438C37.903 18.207 37.4026 17.3839 36.9724 16.5254C36.8407 16.2624 36.7942 15.8627 36.8918 15.5946C37.4004 14.1983 37.9541 12.8186 38.5258 11.4467C38.63 11.1963 38.8471 10.9438 39.0795 10.8073C40.5225 9.96206 41.9783 9.13963 43.4459 8.33803C43.6836 8.20787 44.0099 8.141 44.2762 8.18018C45.767 8.4003 47.2547 8.64362 48.7349 8.92637C49.0002 8.97729 49.3166 9.19682 49.4536 9.43018C50.4381 11.1063 51.3936 12.8004 52.3258 14.506C52.4469 14.7278 52.4714 15.0884 52.3836 15.3243C51.8522 16.7584 51.2872 18.1798 50.7024 19.5917C50.607 19.8216 50.393 20.0465 50.1753 20.1731C48.7121 21.0246 47.2384 21.8589 45.7532 22.673C45.5351 22.7929 45.2301 22.8417 44.9822 22.805C43.492 22.5828 42.003 22.3446 40.5221 22.0622C40.2582 22.0122 39.957 21.779 39.8099 21.5444C39.2998 20.7311 38.849 19.8799 38.3758 19.0431L38.3762 19.0438Z" fill="#7E2126"/>
<path d="M49.4161 20.1927C48.9374 19.3464 48.4313 18.5138 47.9962 17.6455C47.863 17.3795 47.816 16.9752 47.9147 16.704C48.4291 15.2917 48.9891 13.8963 49.5674 12.5087C49.6728 12.2554 49.8924 12 50.1274 11.8619C51.5869 11.007 53.0594 10.1752 54.5438 9.36439C54.7843 9.23274 55.1143 9.16511 55.3836 9.20474C56.8914 9.42738 58.3962 9.67348 59.8933 9.95947C60.1616 10.011 60.4817 10.233 60.6203 10.469C61.616 12.1643 62.5824 13.8779 63.5253 15.603C63.6479 15.8273 63.6726 16.192 63.5838 16.4307C63.0463 17.8812 62.4748 19.3188 61.8833 20.7468C61.7868 20.9795 61.5704 21.2069 61.3503 21.3349C59.8703 22.1962 58.3797 23.04 56.8775 23.8635C56.6569 23.9847 56.3484 24.0341 56.0977 23.997C54.5905 23.7723 53.0844 23.5313 51.5866 23.2457C51.3196 23.1951 51.015 22.9592 50.8662 22.7219C50.3502 21.8993 49.8943 21.0384 49.4157 20.192L49.4161 20.1927Z" fill="#95262D"/>
<path d="M7.60089 9.36698C8.53203 8.61431 9.44077 7.83097 10.4075 7.12682C10.7037 6.9112 11.1856 6.77271 11.5356 6.83837C13.3578 7.18073 15.169 7.58198 16.9743 8.00703C17.3039 8.08445 17.6592 8.30041 17.8753 8.5588C19.2131 10.1635 20.5256 11.7887 21.815 13.4327C22.0242 13.6989 22.1739 14.087 22.1808 14.4229C22.2185 16.303 22.227 18.184 22.1854 20.0639C22.1777 20.4008 21.9731 20.835 21.7145 21.0512C19.857 22.6039 17.9712 24.1246 16.0666 25.619C15.8189 25.8132 15.3805 25.9166 15.0722 25.8565C13.1987 25.4937 11.3339 25.087 9.47669 24.654C9.17414 24.5833 8.85331 24.3656 8.65267 24.1233C7.30289 22.4949 5.97207 20.85 4.6637 19.187C4.47118 18.9429 4.34804 18.5773 4.34191 18.2646C4.30688 16.3848 4.29186 14.5031 4.33282 12.6225C4.3397 12.2874 4.56427 11.8691 4.82229 11.6404C5.71694 10.847 6.67047 10.1191 7.60161 9.36639L7.60089 9.36698Z" fill="#801A20"/>
<path d="M37.3014 14.3972C37.6878 15.3001 38.1034 16.192 38.4435 17.1122C38.5476 17.394 38.5495 17.8052 38.4196 18.0668C37.7429 19.4288 37.0222 20.7688 36.2841 22.099C36.1495 22.3418 35.8998 22.5741 35.6476 22.687C34.0826 23.385 32.5071 24.0585 30.922 24.7095C30.6652 24.8152 30.3254 24.8468 30.0588 24.7774C28.5665 24.3878 27.0799 23.9749 25.6054 23.5228C25.3412 23.4415 25.0441 23.1833 24.9311 22.9309C24.1199 21.1185 23.3402 19.2909 22.5856 17.4542C22.4875 17.2154 22.5037 16.8464 22.6199 16.6164C23.3241 15.2186 24.0611 13.8375 24.8171 12.4681C24.9404 12.2451 25.1837 12.0404 25.4197 11.9361C27.0061 11.2339 28.6012 10.5504 30.2057 9.88864C30.4413 9.79113 30.7573 9.77548 31.0054 9.84039C32.497 10.232 33.9856 10.6399 35.4607 11.0916C35.7237 11.1718 36.0037 11.4424 36.1268 11.697C36.5534 12.5801 36.9153 13.4951 37.3017 14.3979L37.3014 14.3972Z" fill="#962A31"/>
<path d="M19.7759 11.06C20.5029 11.4911 21.2449 11.8994 21.948 12.3668C22.1633 12.5101 22.3718 12.7976 22.4121 13.0491C22.6218 14.3589 22.7894 15.6764 22.9397 16.996C22.9673 17.2369 22.9085 17.5306 22.7878 17.7418C22.0374 19.0509 21.2673 20.3483 20.479 21.6349C20.3515 21.8435 20.1281 22.0436 19.9054 22.1344C18.6582 22.6424 17.4034 23.1311 16.1373 23.5859C15.9103 23.6672 15.571 23.6415 15.3643 23.5236C13.88 22.6767 12.4102 21.8027 10.9534 20.9093C10.7641 20.7931 10.5895 20.5257 10.5555 20.3035C10.3471 18.9541 10.1703 17.5993 10.0128 16.2428C9.98725 16.0218 10.0555 15.7508 10.1691 15.554C10.9325 14.2309 11.7114 12.9162 12.5078 11.6119C12.6246 11.4201 12.8392 11.2437 13.0467 11.1593C14.2943 10.6531 15.548 10.1599 16.8144 9.70456C17.04 9.62314 17.3735 9.66633 17.5884 9.7806C18.3338 10.1768 19.0496 10.6293 19.7765 11.0604L19.7759 11.06Z" fill="#721D22"/>
<path d="M23.549 53.3793L23.549 53.3793L23.5486 53.3792C22.5183 53.1436 21.0666 52.8115 19.1833 51.754C17.2969 50.6948 14.9651 48.9002 12.2004 45.726L12.2004 45.726C8.75741 41.7742 7.97329 38.2753 7.33503 35.4256L7.04228 35.4912L7.33503 35.4256C7.32968 35.4017 7.32433 35.3778 7.319 35.354C6.85262 33.2712 6.44851 31.4664 4.94385 30.3909C4.82599 30.2546 4.71328 30.0174 4.61756 29.6818C4.51923 29.337 4.44797 28.9222 4.39828 28.4812C4.31317 27.7258 4.2939 26.9172 4.30152 26.3H63.6984C63.7063 26.9171 63.6872 27.7258 63.6021 28.4812C63.5524 28.9222 63.4811 29.337 63.3827 29.6817C63.2868 30.0173 63.174 30.2546 63.0559 30.3908C61.5526 31.4653 61.1487 33.267 60.6821 35.3481L60.6647 35.4255L60.6647 35.4256C60.0264 38.2752 59.2415 41.7733 55.7993 45.726C53.0346 48.8998 50.7026 50.6943 48.8161 51.7537C46.9325 52.8114 45.4806 53.1437 44.4508 53.3793L44.4507 53.3793L44.5176 53.6718L44.4507 53.3793L44.4038 53.3901C43.7626 53.5367 43.1807 53.6698 42.7454 53.9586C42.3541 54.2181 42.0342 54.5802 41.7292 54.9254L41.7077 54.9497L41.7075 54.95C41.1811 55.5469 40.5864 56.22 39.4712 56.7548C38.3509 57.292 36.681 57.7 33.9999 57.7C31.3187 57.7 29.6485 57.2922 28.5282 56.7551C27.4129 56.2205 26.8181 55.5473 26.2924 54.9502L26.2887 54.946C25.9782 54.5928 25.6532 54.2231 25.2543 53.9586C24.819 53.6698 24.2372 53.5367 23.5959 53.3901L23.549 53.3793Z" fill="#FB9E18" stroke="#E18B20" stroke-width="0.6"/>
<path d="M26.2212 55.1857L26.222 55.1874C26.2237 55.1909 26.2268 55.1973 26.2315 55.2065C26.2409 55.2248 26.2565 55.2539 26.2792 55.2924C26.3247 55.3693 26.3986 55.4834 26.5082 55.6226C26.7273 55.9006 27.0898 56.2797 27.6546 56.662C28.7816 57.4249 30.7338 58.2137 33.9991 58.2137C37.2645 58.2137 39.2167 57.4249 40.3437 56.662C40.9085 56.2797 41.271 55.9006 41.49 55.6226C41.5997 55.4834 41.6736 55.3693 41.7191 55.2924C41.7418 55.2539 41.7574 55.2248 41.7668 55.2065C41.7691 55.2019 41.7711 55.198 41.7727 55.1948C41.7742 55.1916 41.7754 55.1891 41.7763 55.1874L41.7771 55.1857C41.7772 55.1855 41.7772 55.1854 41.7773 55.1852M26.2212 55.1857L42.0514 55.3072C41.7771 55.1857 41.7772 55.1855 41.7773 55.1852M26.2212 55.1857C26.2211 55.1855 26.2211 55.1854 26.221 55.1852C26.221 55.1852 26.221 55.1852 26.221 55.1852C26.2209 55.1851 26.2209 55.185 26.2208 55.1849L26.2206 55.1844C26.2206 55.1844 26.2206 55.1843 26.2206 55.1843C26.213 55.1674 26.2038 55.1511 26.1932 55.1359C25.4012 53.9979 25.3 52.4813 25.3 50.8539V42.9365C25.3 39.0067 28.3757 35.8137 32.1053 35.8137H35.8947C39.6251 35.8137 42.7 39.0075 42.7 42.9365V50.8539C42.7 52.433 42.5706 53.9918 41.8201 55.1162M26.2212 55.1857L41.8201 55.1162M41.7773 55.1852C41.7885 55.16 41.803 55.1368 41.8201 55.1162M41.7773 55.1852L41.8201 55.1162" fill="#D38513" stroke="#B57211" stroke-width="0.6" stroke-linecap="round" stroke-linejoin="round"/>
<path d="M3.30829 26.3H64.6917C64.6945 26.3946 64.6972 26.5099 64.6987 26.6418C64.7031 27.0258 64.6977 27.5469 64.6588 28.0978C64.6197 28.6504 64.5476 29.2237 64.4215 29.7155C64.3085 30.156 64.1615 30.4933 63.987 30.7H4.01302C3.83853 30.4933 3.69148 30.156 3.57853 29.7155C3.45243 29.2237 3.38028 28.6504 3.34123 28.0978C3.30231 27.5469 3.29689 27.0258 3.30128 26.6418C3.30279 26.5099 3.30545 26.3946 3.30829 26.3Z" fill="#D38513" stroke="#B57211" stroke-width="0.6" stroke-linecap="round" stroke-linejoin="round"/>
<path d="M1.69969 18.3H66.3003C67.0652 18.3 67.7 18.9408 67.7 19.7497V24.2503C67.7 25.0592 67.0652 25.7 66.3003 25.7H1.69969C0.934797 25.7 0.3 25.0592 0.3 24.2503V19.7497C0.3 18.9408 0.934797 18.3 1.69969 18.3Z" fill="#FB9E18" stroke="#E18B20" stroke-width="0.6"/>
<path d="M43.6797 31.0488C43.6692 36.4349 39.3249 40.7977 33.9807 40.7977C28.6364 40.7977 24.3091 36.4349 24.3195 31.0488C24.33 25.6628 28.6743 21.3 34.0186 21.3C39.3628 21.3 43.6902 25.6628 43.6797 31.0488Z" fill="#F3FF70" stroke="#FDFFCC" stroke-width="0.6"/>
<mask id="mask0_2103_9262" style="mask-type:luminance" maskUnits="userSpaceOnUse" x="24" y="21" width="20" height="20">
<path d="M33.8307 40.8356C39.26 40.8356 43.6614 36.3953 43.6614 30.9178C43.6614 25.4404 39.26 21 33.8307 21C28.4013 21 24 25.4404 24 30.9178C24 36.3953 28.4013 40.8356 33.8307 40.8356Z" fill="white"/>
</mask>
<g mask="url(#mask0_2103_9262)">
<path d="M23.8711 33.6006L38.1254 21.2036" stroke="#FDFFCC" stroke-width="2" stroke-miterlimit="10"/>
<path d="M27.0586 37.8035L41.8042 25.104" stroke="#FDFFCC" stroke-width="6" stroke-miterlimit="10"/>
</g>
</g>
<defs>
<clipPath id="clip0_2103_9262">
<rect width="68" height="58" fill="white" transform="translate(0 0.513672)"/>
</clipPath>
</defs>
</svg>
