<svg width="68" height="59" viewBox="0 0 68 59" fill="none" xmlns="http://www.w3.org/2000/svg">
<g clip-path="url(#clip0_2103_9597)">
<path d="M27.9946 19.0822C28.2839 18.0361 27.6783 16.4742 26.8243 15.0499C24.8153 11.3437 22.0064 8.22144 19.5177 4.86581C18.98 4.14067 18.4208 3.43172 17.7562 2.56484C17.7284 2.99083 17.7067 3.20733 17.7015 3.42373C17.624 6.66125 17.5079 9.89751 17.4869 13.137C17.4707 15.5556 17.5802 17.9523 18.288 20.3372C18.816 22.1154 20.203 22.5743 21.5184 22.8932C23.1915 23.2991 25.3935 22.2937 26.2256 21.684C27.2568 20.9277 27.9944 19.0835 27.9944 19.0835L27.9946 19.0822Z" fill="#5F5697"/>
<path d="M56.629 22.7923C57.72 22.2455 58.567 20.5631 59.1121 18.7772C60.6911 14.3078 61.18 9.61105 62.105 5.00556C62.3049 4.01038 62.4752 3.00953 62.6977 1.80161C62.3213 2.09942 62.1243 2.2445 61.9398 2.40326C59.1796 4.77819 56.3915 7.11997 53.6723 9.54361C51.6417 11.3526 49.7241 13.25 48.2673 15.6378C47.1812 17.4184 47.8435 18.9217 48.5685 20.2597C49.4906 21.9618 51.9889 23.0418 53.1248 23.2767C54.5329 23.5673 56.6277 22.7932 56.6277 22.7932L56.629 22.7923Z" fill="#483F84"/>
<path d="M30.4015 23.1484C31.5278 22.8353 32.6339 21.4096 33.4752 19.8309C35.7827 15.9199 37.1071 11.5944 38.8247 7.43496C39.1959 6.53618 39.5403 5.62661 39.9719 4.53199C39.5632 4.74266 39.3513 4.84278 39.1486 4.95807C36.1164 6.68255 33.064 8.37072 30.0613 10.1486C27.8192 11.4753 25.6671 12.906 23.8578 14.8826C22.5089 16.3566 22.8547 17.8918 23.2899 19.2832C23.8434 21.0532 25.9933 22.5285 27.0179 22.9586C28.2882 23.4911 30.4001 23.149 30.4001 23.149L30.4015 23.1484Z" fill="#5544C0"/>
<path d="M26.1815 14.1906C25.3654 13.0525 23.3061 12.3951 21.1837 12.0986C15.8337 11.1131 10.4221 11.4041 5.03551 11.1845C3.87154 11.1369 2.70648 11.1241 1.2973 11.0892C1.70259 11.4622 1.90248 11.6594 2.11563 11.8399C5.3042 14.5411 8.46025 17.2801 11.6967 19.926C14.1125 21.9021 16.6082 23.7342 19.5768 24.9557C21.7905 25.8663 23.3752 24.8452 24.7614 23.7826C26.5247 22.4312 27.2992 19.4051 27.3612 18.0753C27.4372 16.427 26.1828 14.1919 26.1828 14.1919L26.1815 14.1906Z" fill="#5345A8"/>
<path d="M63.9861 16.5399C63.8056 15.6424 62.7549 14.6974 61.5698 13.9505C58.6462 11.9258 55.343 10.6453 52.1919 9.06724C51.511 8.72619 50.8202 8.4055 49.9898 8.0061C50.1311 8.33733 50.1972 8.50854 50.2757 8.67339C51.4502 11.1398 52.5952 13.62 53.8131 16.0663C54.7218 17.893 55.7169 19.6553 57.1579 21.1809C58.2324 22.3183 59.4512 22.1355 60.5627 21.8747C61.9766 21.5431 63.2513 19.9478 63.6454 19.1719C64.1336 18.2101 63.9865 16.541 63.9865 16.541L63.9861 16.5399Z" fill="#685BB3"/>
<path d="M48.9668 13.5586C48.1683 12.7236 46.4101 12.4254 44.6422 12.4293C40.1582 12.2446 35.7719 13.1096 31.3469 13.5546C30.3906 13.6507 29.4376 13.7752 28.2825 13.9101C28.6568 14.1678 28.8429 14.3057 29.038 14.4285C31.9554 16.2651 34.8507 18.1363 37.8008 19.9223C40.0031 21.2562 42.2539 22.4633 44.8202 23.1169C46.7338 23.604 47.9098 22.5863 48.9188 21.5577C50.2023 20.2496 50.4842 17.6881 50.3806 16.5948C50.2516 15.2397 48.968 13.5595 48.968 13.5595L48.9668 13.5586Z" fill="#41358E"/>
<path d="M23.549 53.3793L23.549 53.3793L23.5486 53.3792C22.5183 53.1436 21.0666 52.8115 19.1833 51.754C17.2969 50.6948 14.9651 48.9002 12.2004 45.726L12.2004 45.726C8.75741 41.7742 7.97329 38.2753 7.33503 35.4256L7.04228 35.4912L7.33503 35.4256C7.32968 35.4017 7.32433 35.3778 7.31899 35.354C6.85262 33.2712 6.44851 31.4664 4.94385 30.3909C4.82599 30.2546 4.71328 30.0174 4.61756 29.6818C4.51923 29.337 4.44797 28.9222 4.39828 28.4812C4.31317 27.7258 4.2939 26.9172 4.30152 26.3H63.6984C63.7063 26.9171 63.6872 27.7258 63.6021 28.4812C63.5524 28.9222 63.4811 29.337 63.3827 29.6817C63.2868 30.0173 63.174 30.2546 63.0559 30.3908C61.5526 31.4653 61.1487 33.267 60.6821 35.3481L60.6647 35.4255L60.6647 35.4256C60.0264 38.2752 59.2414 41.7733 55.7993 45.726C53.0346 48.8998 50.7026 50.6943 48.8161 51.7537C46.9325 52.8114 45.4806 53.1437 44.4508 53.3793L44.4507 53.3793L44.5176 53.6718L44.4507 53.3793L44.4038 53.3901C43.7626 53.5367 43.1807 53.6698 42.7454 53.9586C42.3541 54.2181 42.0343 54.5801 41.7293 54.9253L41.7077 54.9497L41.7075 54.95C41.1811 55.5469 40.5864 56.22 39.4712 56.7548C38.3509 57.292 36.681 57.7 33.9999 57.7C31.3187 57.7 29.6485 57.2922 28.5282 56.7551C27.4129 56.2205 26.8181 55.5473 26.2924 54.9502L26.2887 54.946C25.9782 54.5928 25.6531 54.2231 25.2543 53.9586C24.819 53.6698 24.2372 53.5368 23.5959 53.3901L23.549 53.3793Z" fill="#7B63B1" stroke="#665294" stroke-width="0.6"/>
<path d="M26.2212 55.1857L26.222 55.1874C26.2237 55.1909 26.2268 55.1973 26.2315 55.2065C26.2409 55.2248 26.2565 55.2539 26.2792 55.2924C26.3247 55.3693 26.3986 55.4834 26.5082 55.6226C26.7273 55.9006 27.0898 56.2797 27.6546 56.662C28.7816 57.4249 30.7338 58.2137 33.9991 58.2137C37.2645 58.2137 39.2167 57.4249 40.3437 56.662C40.9085 56.2797 41.271 55.9006 41.49 55.6226C41.5997 55.4834 41.6736 55.3693 41.7191 55.2924C41.7418 55.2539 41.7574 55.2248 41.7668 55.2065C41.7691 55.2019 41.7711 55.198 41.7727 55.1948C41.7742 55.1916 41.7754 55.1891 41.7763 55.1874L41.7771 55.1857C41.7772 55.1855 41.7772 55.1854 41.7773 55.1852M26.2212 55.1857L42.0514 55.3072C41.7771 55.1857 41.7772 55.1855 41.7773 55.1852M26.2212 55.1857C26.2211 55.1855 26.2211 55.1854 26.221 55.1852C26.221 55.1852 26.221 55.1852 26.221 55.1852C26.2209 55.1851 26.2209 55.185 26.2208 55.1849L26.2206 55.1844C26.2206 55.1844 26.2206 55.1843 26.2206 55.1843C26.213 55.1674 26.2038 55.1511 26.1932 55.1359C25.4012 53.9979 25.3 52.4813 25.3 50.8539V42.9365C25.3 39.0067 28.3757 35.8137 32.1053 35.8137H35.8947C39.6251 35.8137 42.7 39.0075 42.7 42.9365V50.8539C42.7 52.433 42.5706 53.9918 41.8201 55.1162M26.2212 55.1857L41.8201 55.1162M41.7773 55.1852C41.7885 55.16 41.803 55.1368 41.8201 55.1162M41.7773 55.1852L41.8201 55.1162" fill="#5D488A" stroke="#4B3A71" stroke-width="0.6" stroke-linecap="round" stroke-linejoin="round"/>
<path d="M3.30829 26.3H64.6917C64.6945 26.3946 64.6972 26.5099 64.6987 26.6418C64.7031 27.0258 64.6977 27.5469 64.6588 28.0978C64.6197 28.6504 64.5476 29.2237 64.4215 29.7155C64.3085 30.156 64.1615 30.4933 63.987 30.7H4.01302C3.83853 30.4933 3.69148 30.156 3.57853 29.7155C3.45243 29.2237 3.38028 28.6504 3.34123 28.0978C3.30231 27.5469 3.29689 27.0258 3.30128 26.6418C3.30279 26.5099 3.30545 26.3946 3.30829 26.3Z" fill="#5D498A" stroke="#4B3A71" stroke-width="0.6" stroke-linecap="round" stroke-linejoin="round"/>
<path d="M1.69969 18.3H66.3003C67.0652 18.3 67.7 18.9408 67.7 19.7497V24.2503C67.7 25.0592 67.0652 25.7 66.3003 25.7H1.69969C0.934797 25.7 0.3 25.0592 0.3 24.2503V19.7497C0.3 18.9408 0.934797 18.3 1.69969 18.3Z" fill="#7B63B1" stroke="#665294" stroke-width="0.6"/>
<path d="M43.6797 31.0488C43.6692 36.4349 39.3249 40.7977 33.9807 40.7977C28.6364 40.7977 24.3091 36.4349 24.3195 31.0488C24.33 25.6628 28.6743 21.3 34.0186 21.3C39.3628 21.3 43.6902 25.6628 43.6797 31.0488Z" fill="#F3FF70" stroke="#FDFFCC" stroke-width="0.6"/>
<mask id="mask0_2103_9597" style="mask-type:luminance" maskUnits="userSpaceOnUse" x="24" y="21" width="20" height="20">
<path d="M33.8307 40.8356C39.26 40.8356 43.6614 36.3953 43.6614 30.9178C43.6614 25.4404 39.26 21 33.8307 21C28.4013 21 24 25.4404 24 30.9178C24 36.3953 28.4013 40.8356 33.8307 40.8356Z" fill="white"/>
</mask>
<g mask="url(#mask0_2103_9597)">
<path d="M23.8711 33.6006L38.1254 21.2036" stroke="#FDFFCC" stroke-width="2" stroke-miterlimit="10"/>
<path d="M27.0586 37.8035L41.8042 25.104" stroke="#FDFFCC" stroke-width="6" stroke-miterlimit="10"/>
</g>
</g>
<defs>
<clipPath id="clip0_2103_9597">
<rect width="68" height="58" fill="white" transform="translate(0 0.513672)"/>
</clipPath>
</defs>
</svg>
